<?xml version="1.0" encoding="UTF-8"?>
<svg width="1680px" height="950px" viewBox="0 0 1680 950" version="1.1" xmlns="http://www.w3.org/2000/svg" xmlns:xlink="http://www.w3.org/1999/xlink">
    <!-- Generator: Sketch 52.3 (67297) - http://www.bohemiancoding.com/sketch -->
    <title>1-desktop</title>
    <desc>Created with Sketch.</desc>
    <g id="1-desktop" stroke="none" stroke-width="1" fill="none" fill-rule="evenodd">
        <path d="M541.739258,1035.60356 L541.739258,1016.97729 C541.739258,999.940426 544.050758,986.178438 548.673828,975.690918 C553.296898,965.203398 559.93176,956.535272 568.578613,949.686279 C577.225466,942.837287 587.284773,937.871842 598.756836,934.789795 C600.335605,934.365648 601.927342,933.970687 603.532047,933.604911 L556.314466,899.731689 L541.739258,899.731689 L541.739258,889.275642 L538.71047,887.102833 L541.739258,866.630726 L541.739258,743.832275 L559.906923,743.832275 L574.036084,648.330781 L648.169371,688.154943 L667.809889,625.186129 C657.92332,627.83207 647.276601,629.155029 635.869629,629.155029 C615.322651,629.155029 597.451329,624.917279 582.255127,616.44165 C567.058925,607.966022 555.522826,595.552409 547.646484,579.200439 C541.568003,566.444191 538.528809,549.279161 538.528809,527.704834 C538.528809,506.901019 540.412253,491.341197 544.179199,481.024902 C547.946145,470.708607 553.789104,462.147495 561.708252,455.341309 C569.6274,448.535122 579.665304,443.419858 591.822266,439.995361 L601.838867,496.114014 C594.733037,498.425549 589.296731,502.342258 585.529785,507.864258 C581.762839,513.386258 579.879395,520.427773 579.879395,528.989014 C579.879395,541.745262 584.30977,551.911583 593.170654,559.488281 C602.031538,567.064979 616.05036,570.853271 635.227539,570.853271 C655.603292,570.853271 670.157183,567.022174 678.889648,559.359863 C687.622114,551.697553 691.988281,541.017565 691.988281,527.31958 C691.988281,520.813037 691.046559,514.606231 689.163086,508.698975 C687.279613,502.791719 684.069196,496.02844 679.531738,488.408936 L661.810059,488.408936 L661.810059,527.31958 L622.642578,527.31958 L622.642578,437.427002 L702.903809,437.427002 C709.109593,446.531838 714.266783,455.079376 718.375414,463.069682 L733.2062,415.521192 L876.358521,415.521192 L790.301565,661.829014 L876.358521,778.444534 L868.282485,947.566148 L911.739258,991.328382 L911.739258,981.919189 L1053.64111,981.919189 L1053.64111,891.127686 L1100,891.127686 L1100,1040.09253 L960.163031,1040.09253 L1024.88128,1105.26568 L1100,1059.35522 L1100,1131.01245 L1067.15955,1147.84114 L1088.61679,1169.4492 L1197.78777,963.308066 L1239.24971,1142.94016 L1241.68922,1029.19369 L1293.18314,1112.77089 L1294.57945,1308.38486 L635.958335,1308.38486 L683.627092,1103.40259 L541.739258,1103.40259 L541.739258,1083.64708 L344,1356 L344,333.902068 L344,-184.843641 L391.914239,-184.843641 L497.780148,87.0534336 L397.734576,268.352158 L397.734576,333.902068 L422.522882,333.902068 L433.067754,554.970696 L537.510546,568.464654 L445.946197,826.406864 L541.739258,1035.60356 Z M611.855469,-98.8549582 L611.855469,-169.476318 L650.252441,-169.476318 L650.252441,-126.616547 L687.365234,-153.449655 L687.365234,-179.364502 L723.207983,-179.364502 L812.224818,-243.725013 L806.593528,129.888624 L733.097279,304.627788 C733.172726,306.61149 733.210449,308.628383 733.210449,310.678467 C733.210449,331.910344 729.82881,349.482027 723.06543,363.394043 C716.986728,375.897701 707.726975,386.27467 695.285936,394.525198 L679.663581,431.667734 L659.038683,408.405133 C651.868609,409.603308 644.188406,410.202393 635.998047,410.202393 C605.263193,410.202393 581.334884,401.64128 564.212402,384.518799 C547.089921,367.396317 538.528809,343.55362 538.528809,312.98999 C538.528809,299.889028 539.999202,288.045279 542.940007,277.458688 L536.625792,270.336953 L550.879272,183.031006 L541.739258,183.031006 L541.739258,86.0754395 C541.739258,68.0968339 543.280258,54.3562487 546.362305,44.8532715 C549.444351,35.3502943 555.158894,27.6880988 563.506104,21.8664551 C567.927401,18.7828838 572.859057,16.5159681 578.301117,15.0656948 L584.130375,-20.6398926 L541.739258,-20.6398926 L541.739258,-176.539307 L581.934082,-176.539307 L581.934082,-78.9416504 L593.648661,-78.9416504 L594.898056,-86.5944938 L611.855469,-98.8549582 Z M604.691139,347.107124 L583.827911,323.575714 C585.625888,330.585562 589.360809,336.517081 595.032715,341.370361 C597.693926,343.64748 600.913396,345.559733 604.691139,347.107124 Z M1028.7167,-238.250797 L1044.51186,-214.135418 L1054.02637,-205.048096 L1100,-205.048096 L1100,-146.874756 L1088.56644,-146.874756 L1142.1318,-65.0934415 L1092.99524,333.536865 L1100,333.536865 L1100,391.710205 L1085.82459,391.710205 L1074.41283,484.290438 C1081.17439,490.239614 1086.85683,497.327025 1091.46021,505.552734 C1099.29374,519.550363 1103.21045,536.993629 1103.21045,557.883057 C1103.21045,579.114934 1099.82881,596.686617 1093.06543,610.598633 C1086.30205,624.510649 1075.60066,635.789914 1060.96094,644.436768 C1058.79933,645.713504 1056.55748,646.895983 1054.23537,647.984203 L1049.25619,688.378745 C1052.53811,689.601177 1055.64778,690.984694 1058.58521,692.529297 C1072.66845,699.93477 1083.62667,710.63616 1091.46021,724.633789 C1099.29374,738.631418 1103.21045,756.074684 1103.21045,776.964111 C1103.21045,798.195988 1099.82881,815.767671 1093.06543,829.679687 C1086.30205,843.591704 1075.60066,854.870969 1060.96094,863.517822 C1046.32122,872.164675 1028.00044,876.488037 1005.99805,876.488037 C975.263193,876.488037 951.334884,867.926925 934.212402,850.804443 C917.089921,833.681962 908.528809,809.839264 908.528809,779.275635 C908.528809,747.941494 916.940101,723.799157 933.762939,706.8479 C950.585777,689.896644 974.150239,681.421143 1004.45703,681.421143 C1007.62591,681.421143 1010.71266,681.497948 1013.71726,681.651558 L978.413329,654.741508 C960.55241,651.002509 945.818842,643.329829 934.212402,631.723389 C927.587791,625.098777 922.244715,617.468229 918.18316,608.831703 L887.630175,585.543016 L908.963127,548.233433 C910.880601,522.649573 919.147149,502.494207 933.762939,487.766846 C938.900088,482.590482 944.665889,478.204477 951.060362,474.608823 L998.460308,391.710205 L958.226562,391.710205 L958.226562,451.039307 L911.739258,451.039307 L911.739258,274.207764 L958.226562,274.207764 L958.226562,333.536865 L1015.8385,333.536865 L951.934082,245.716922 L951.934082,252.633545 L911.739258,252.633545 L911.739258,190.479625 L881.930536,149.515315 L931.425383,13.5985453 L911.739258,6.19946289 L911.739258,-57.2390137 L964.433469,-77.044273 L989.862627,-146.874756 L911.739258,-146.874756 L911.739258,-204.043763 L907.529231,-196.512157 L888.784533,-343.531879 L1013.49954,-386.089748 L962.312819,-294.518296 L982.754395,-274.779053 L1100,-346.436279 L1100,-274.779053 L1028.7167,-238.250797 Z M935.168663,-245.958242 L912.300661,-205.048096 L982.882812,-205.048096 L935.168663,-245.958242 Z M383.456998,-318.995782 L383.456998,-394 L621.850264,-383.154723 L600.628074,-172.732705 L516.287838,-210.663529 L516.287838,-284.759783 L383.456998,-318.995782 Z M1160.89443,-340.979979 L1307,-340.979979 L1307,1.66635013 L1170.63774,167.665307 L1160.89443,-340.979979 Z M1200.16484,270.336953 L1307,351.713558 L1293.18314,1062.55085 L1121.86573,595.380706 L1200.16484,270.336953 Z M584.374023,1045.22925 L687.236816,1045.22925 L687.236816,1030.97485 C687.236816,1018.81789 685.888441,1010.17117 683.19165,1005.03442 C680.49486,999.897679 675.786248,995.873957 669.065674,992.963135 C662.3451,990.052313 651.451084,988.596924 636.383301,988.596924 C616.43561,988.596924 602.780636,991.850147 595.417969,998.356689 C588.055302,1004.86323 584.374023,1015.65023 584.374023,1030.71802 L584.374023,1045.22925 Z M1006.25488,818.314697 C1025.26084,818.314697 1038.91581,814.783238 1047.22021,807.720215 C1055.52462,800.657191 1059.67676,791.047343 1059.67676,778.890381 C1059.67676,766.390969 1055.61023,756.716912 1047.47705,749.86792 C1039.34387,743.018927 1024.74718,739.594482 1003.68652,739.594482 C985.964755,739.594482 973.016073,743.168747 964.840088,750.317383 C956.664103,757.466019 952.576172,767.161479 952.576172,779.404053 C952.576172,791.132953 956.728311,800.550176 965.032715,807.656006 C973.337118,814.761836 987.077704,818.314697 1006.25488,818.314697 Z M541.739258,1035.60356 L541.739258,1083.64708 L555.230181,1065.06558 L541.739258,1035.60356 Z M611.855469,-98.8549582 L611.855469,-78.9416504 L593.648661,-78.9416504 L584.130375,-20.6398926 L730,-20.6398926 L730,-179.364502 L723.207983,-179.364502 L687.365234,-153.449655 L687.365234,-78.9416504 L650.252441,-78.9416504 L650.252441,-126.616547 L611.855469,-98.8549582 Z M733.097279,304.627788 C732.403955,286.398469 728.524959,270.972049 721.460205,258.348145 C713.62667,244.350516 702.668446,233.649126 688.585205,226.243652 C674.501964,218.838179 656.45942,215.135498 634.457031,215.135498 C604.150239,215.135498 580.585777,223.610999 563.762939,240.562256 C553.973815,250.426107 547.032854,262.72487 542.940007,277.458688 L583.827911,323.575714 C582.993417,320.322238 582.576172,316.836472 582.576172,313.118408 C582.576172,300.875834 586.664103,291.180374 594.840088,284.031738 C603.016073,276.883102 615.964755,273.308838 633.686523,273.308838 C654.747176,273.308838 669.343872,276.733283 677.477051,283.582275 C685.610229,290.431268 689.676758,300.105325 689.676758,312.604736 C689.676758,324.761698 685.524618,334.371547 677.220215,341.43457 C668.915811,348.497594 655.260837,352.029053 636.254883,352.029053 C623.223181,352.029053 612.701976,350.388421 604.691139,347.107124 L659.038683,408.405133 C671.130126,406.384559 681.770833,402.660251 690.960937,397.232178 C692.442964,396.356829 693.88463,395.454502 695.285936,394.525198 L733.097279,304.627788 Z M550.879272,183.031006 L730,183.031006 L730,124.60083 L653.591309,124.60083 L653.591309,119.464111 C653.591309,114.156142 655.046698,109.404725 657.95752,105.209717 C660.183442,102.12767 665.020471,98.6176141 672.46875,94.6794434 L730,63.6022949 L730,-2.14770508 L675.422363,25.9758301 C672.682766,27.3456286 668.78746,30.0637818 663.736328,34.1303711 C658.685196,38.1969604 655.389168,41.3003636 653.848145,43.4406738 C651.53661,46.6083329 649.225109,51.6593892 646.913574,58.5939941 C644.944489,49.947141 642.461766,43.1410567 639.465332,38.1755371 C634.75665,30.3848081 628.614052,24.2636128 621.037354,19.8117676 C613.460655,15.3599224 604.450085,13.1340332 594.005371,13.1340332 C588.368163,13.1340332 583.133422,13.7779174 578.301117,15.0656948 L550.879272,183.031006 Z M1028.7167,-238.250797 L1025.13119,-243.725013 L989.862627,-146.874756 L1088.56644,-146.874756 L1044.51186,-214.135418 L1022.56396,-235.0979 L1028.7167,-238.250797 Z M1092.99524,333.536865 L1015.8385,333.536865 L1024.73344,345.760647 L998.460308,391.710205 L1085.82459,391.710205 L1092.99524,333.536865 Z M1074.41283,484.290438 C1069.66829,480.115945 1064.39243,476.501887 1058.58521,473.448242 C1044.50196,466.042769 1026.45942,462.340088 1004.45703,462.340088 C983.40495,462.340088 965.606139,466.429638 951.060362,474.608823 L908.963127,548.233433 C908.673582,552.09669 908.528809,556.083743 908.528809,560.19458 C908.528809,578.933278 911.746906,595.145597 918.18316,608.831703 L978.413329,654.741508 C986.901855,656.518494 996.096753,657.406982 1005.99805,657.406982 C1024.75171,657.406982 1040.8307,654.266083 1054.23537,647.984203 L1074.41283,484.290438 Z M1049.25619,688.378745 C1039.06943,684.584431 1027.22317,682.342046 1013.71726,681.651558 L1046.96187,706.991905 L1049.25619,688.378745 Z M951.934082,245.716922 L951.934082,158.374756 L1060.96094,262.778564 L1100,262.778564 L1100,84.1491699 L1059.54834,84.1491699 L1059.54834,193.561279 L949.365723,88.001709 L911.739258,88.001709 L911.739258,190.479625 L951.934082,245.716922 Z M931.425383,13.5985453 L1100,76.9577637 L1100,17.5002441 L1068.92285,8.38256836 L1068.92285,-57.8811035 L1100,-67.1271973 L1100,-127.997314 L964.433469,-77.044273 L931.425383,13.5985453 Z M962.312819,-294.518296 L911.739258,-343.354248 L911.739258,-266.046631 L935.168663,-245.958242 L962.312819,-294.518296 Z M912.300661,-205.048096 L911.739258,-205.048096 L911.739258,-204.043763 L912.300661,-205.048096 Z M911.739258,991.328382 L911.739258,1040.09253 L960.163031,1040.09253 L911.739258,991.328382 Z M1024.88128,1105.26568 L982.754395,1131.01245 L911.739258,1062.43726 L911.739258,1139.74487 L982.882812,1200.74341 L911.739258,1200.74341 L911.739258,1258.91675 L1100,1258.91675 L1100,1200.74341 L1054.02637,1200.74341 L1022.56396,1170.6936 L1067.15955,1147.84114 L1024.88128,1105.26568 Z M683.627092,1103.40259 L730,1103.40259 L730,1016.97729 C730,1006.61819 728.287778,995.060692 724.863281,982.304443 C722.380521,972.972691 717.393674,964.240356 709.902588,956.107178 C702.411502,947.973999 693.122695,941.617373 682.035889,937.037109 C670.949082,932.456846 655.346455,930.166748 635.227539,930.166748 C624.152957,930.166748 613.587871,931.312793 603.532047,933.604911 L706.016345,1007.12569 L683.627092,1103.40259 Z M556.314466,899.731689 L730,899.731689 L730,741.00708 L687.365234,741.00708 L687.365234,841.429932 L650.252441,841.429932 L650.252441,750.895264 L611.855469,750.895264 L611.855469,841.429932 L581.934082,841.429932 L581.934082,743.832275 L559.906923,743.832275 L541.739258,866.630726 L541.739258,889.275642 L556.314466,899.731689 Z M667.809889,625.186129 C674.841233,623.304331 681.488087,620.753358 687.750488,617.533203 C702.818272,609.78528 714.161746,598.869862 721.78125,584.786621 C729.400754,570.70338 733.210449,552.489614 733.210449,530.144775 C733.210449,511.994945 731.091574,496.306707 726.85376,483.07959 C724.858181,476.850967 722.032074,470.181013 718.375414,463.069682 L667.809889,625.186129 Z M618.019531,124.60083 L579.750977,124.60083 L579.750977,99.0456543 C579.750977,88.4297158 581.377588,81.1955759 584.630859,77.3430176 C587.884131,73.4904593 592.549937,71.564209 598.628418,71.564209 C602.737814,71.564209 606.376286,72.7841675 609.543945,75.2241211 C612.711604,77.6640747 614.68066,80.8102835 615.451172,84.6628418 C617.16342,92.282346 618.019531,97.4190134 618.019531,100.072998 L618.019531,124.60083 Z M1006.25488,599.233643 C987.077704,599.233643 973.337118,595.680781 965.032715,588.574951 C956.728311,581.469121 952.576172,572.051898 952.576172,560.322998 C952.576172,548.080424 956.664103,538.384964 964.840088,531.236328 C973.016073,524.087692 985.964755,520.513428 1003.68652,520.513428 C1024.74718,520.513428 1039.34387,523.937873 1047.47705,530.786865 C1055.61023,537.635858 1059.67676,547.309915 1059.67676,559.809326 C1059.67676,571.966288 1055.52462,581.576137 1047.22021,588.63916 C1038.91581,595.702184 1025.26084,599.233643 1006.25488,599.233643 Z M1028.21436,-45.6813965 L1028.21436,-4.20239258 L960.538086,-24.8776855 L1028.21436,-45.6813965 Z" id="Combined-Shape" fill="#000000" transform="translate(825.500000, 481.000000) rotate(-270.000000) translate(-825.500000, -481.000000) "></path>
    </g>
</svg>