<?xml version="1.0" encoding="UTF-8"?>
<svg width="1536px" height="1971px" viewBox="0 0 1536 1971" version="1.1" xmlns="http://www.w3.org/2000/svg" xmlns:xlink="http://www.w3.org/1999/xlink">
    <!-- Generator: Sketch 52.3 (67297) - http://www.bohemiancoding.com/sketch -->
    <title>1-tablet</title>
    <desc>Created with Sketch.</desc>
    <g id="1-tablet" stroke="none" stroke-width="1" fill="none" fill-rule="evenodd">
        <path d="M1466.61415,1415 L1452.44604,1415 L1415.78247,1343.45264 L1388.01782,1372.52246 L1388.01782,1415 L1334.26831,1415 L1334.26831,1337.79981 L1315.63633,1411.83365 L1316.82642,1415 L1314.83946,1415 L1251.80064,1665.48363 L852,1853 L862.176791,1415 L836.640381,1415 L836.640381,1284.00781 L781.822998,1284.00781 L781.822998,1241.05566 L945.207275,1241.05566 L945.207275,1279.35957 L965.140869,1248.61566 L965.140869,1241.05566 L970.042587,1241.05566 L1079.00575,1073 L994.863281,1073 L994.863281,1066 L974.170285,1066 L977.777344,1073 L917.027344,1073 L913.246094,1066 L860.66748,1066 L860.66748,1073 L806.680664,1073 L806.680664,1066 L735.449271,1066 C722.802271,1072.64424 707.232734,1075.96631 688.740234,1075.96631 C669.122949,1075.96631 652.887515,1072.84183 640.033447,1066.59277 C627.179379,1060.34372 616.757852,1050.45612 608.768555,1036.92969 C602.017206,1025.49919 598.118511,1011.63991 597.072396,995.351555 L571.630371,1024.26816 L571.630371,1047.96436 C556.866643,1058.0272 543.68885,1065.10599 532.096654,1069.20093 L461.665419,1149.25085 L603.726877,1276.12253 C606.859248,1270.88987 610.576671,1266.1223 614.87915,1261.81982 C630.699542,1245.99943 652.729107,1238.08936 680.968506,1238.08936 C709.919822,1238.08936 732.22624,1245.86101 747.888428,1261.40454 C763.550615,1276.94808 771.381592,1298.72056 771.381592,1326.72266 C771.381592,1347.05186 767.960483,1363.72235 761.118164,1376.73462 C754.275845,1389.74689 744.388248,1399.87179 731.455078,1407.10962 C723.965816,1411.30086 715.409003,1414.27856 705.784547,1416.04275 L460.93475,1853 L246,1639.74322 L288.627993,1415 L237.564697,1415 L237.564697,1241.05566 L291.314209,1241.05566 L291.314209,1372.1665 L296.752403,1372.1665 L420.830921,718 L713.529537,862.990046 L684.393,896.105714 C685.125883,896.094808 685.863047,896.089355 686.604492,896.089355 C715.555809,896.089355 737.862226,903.861006 753.524414,919.404541 C769.186602,934.948076 777.017578,956.720563 777.017578,984.722656 C777.017578,985.494297 777.012649,986.260666 777.002791,987.021763 L806.680664,931.834187 L806.680664,899.055664 L824.307763,899.055664 L892.671156,771.930315 L846.18128,731 L792.442383,731 L792.442383,683.687549 L763.794616,658.465668 C762.926521,669.985798 760.986282,679.391639 757.973877,686.68335 C753.741922,696.927053 747.86869,705.509487 740.354004,712.430908 C732.839318,719.35233 724.771039,723.959949 716.148926,726.253906 C704.362734,729.417985 693.68413,731 684.112793,731 L604.259766,731 L604.259766,557.055664 L684.112793,557.055664 C699.854083,557.055664 712.569532,559.191385 722.259521,563.462891 C728.48156,566.205667 734.010498,569.714837 738.8464,573.990451 L749.371852,430.785529 L344.481119,165.876858 L143.866319,411.991076 L67.6750354,197.526299 L63.1921448,333.329484 L-31.4341142,233.545728 L-34,-5.68434189e-14 L1176.29537,3.97903932e-13 L1047.55537,359.676721 L1355,502.973362 L1290.08494,788.046007 L1153.85613,740.499492 L1077.73692,899.055664 L1138.90723,899.055664 L1138.90723,936.193848 L1059.90772,936.193848 L1048.73145,959.474014 L1048.73145,963.839844 L1132.38135,963.839844 L1132.38135,999.316895 L1048.73145,999.316895 L1048.73145,1033.60742 L1141.51758,1033.60742 L1141.51758,1073 L1131.3987,1073 L1359,1239.52888 L1358.61576,1241.05566 L1388.01782,1241.05566 L1388.01782,1306.78906 L1444.37769,1241.05566 L1515.8064,1241.05566 L1452.44604,1306.67041 L1496.87646,1379.36749 L1614.29718,1241.1099 L1614.29718,1162.87595 L1568.76456,1162.87595 L1549.39512,899.030094 L1357.54847,882.925027 L1525.73924,575.070478 L1325,290.230821 L1713,-57 L1713,1162.87595 L1713,1782 L1624.98831,1782 L1430.5276,1457.49029 L1466.61415,1415 Z M890.389893,1363.90531 L942.193469,1284.00781 L890.389893,1284.00781 L890.389893,1363.90531 Z M645.797717,1313.69499 L706.691833,1368.07806 C707.188816,1367.56303 707.671504,1367.0274 708.139893,1366.47119 C714.468049,1358.95651 717.63208,1345.46982 717.63208,1326.01074 C717.63208,1309.63664 714.329623,1297.67265 707.724609,1290.11841 C701.119596,1282.56417 692.161434,1278.78711 680.849854,1278.78711 C670.012885,1278.78711 661.3118,1282.6235 654.746338,1290.29639 C650.165123,1295.65034 647.182261,1303.44983 645.797717,1313.69499 Z M145.880686,1400.01642 L116.895264,1343.45264 L89.1306152,1372.52246 L89.1306152,1415 L35.3811035,1415 L35.3811035,1241.05566 L89.1306152,1241.05566 L89.1306152,1306.78906 L145.490479,1241.05566 L216.919189,1241.05566 L153.558838,1306.67041 L189.550159,1365.55944 L194.061253,1362 L194.401008,1373.4964 L219.766846,1415 L195.627569,1415 L212,1969 L-57,1969 L-57,1560.09751 L145.880686,1400.01642 Z M1640,1942.51044 L1640,2032 L1202,2019.06021 L1240.99154,1768 L1395.94987,1813.25629 L1395.94987,1901.66254 L1640,1942.51044 Z M712,1971.26574 L483,2022 L677.581239,1796 L712,1971.26574 Z M139.203299,1239 L-57,1141.82641 L-31.6252641,293 L283,850.858124 L139.203299,1239 Z M658.009277,596.448242 L658.009277,691.48877 L671.179687,691.48877 C682.412166,691.48877 690.401343,690.242932 695.147461,687.751221 C699.893578,685.259509 703.611315,680.908967 706.300781,674.699463 C708.990248,668.489959 710.334961,658.424386 710.334961,644.502441 C710.334961,626.071685 707.329132,613.455112 701.317383,606.652344 C695.305634,599.849575 685.338937,596.448242 671.416992,596.448242 L658.009277,596.448242 Z M650.53418,986.383789 C650.53418,1003.94442 653.797087,1016.561 660.322998,1024.23389 C666.84891,1031.90678 675.727971,1035.74316 686.960449,1035.74316 C698.509335,1035.74316 707.447722,1031.98588 713.775879,1024.47119 C720.104036,1016.95651 723.268066,1003.46982 723.268066,984.010742 C723.268066,967.636637 719.965609,955.672645 713.360596,948.118408 C706.755582,940.564171 697.79742,936.787109 686.48584,936.787109 C675.648872,936.787109 666.947787,940.623497 660.382324,948.296387 C653.816862,955.969277 650.53418,968.66495 650.53418,986.383789 Z M1466.61415,1415 L1518.65405,1415 L1496.87646,1379.36749 L1466.61415,1415 Z M862.176791,1415 L890.389893,1415 L890.389893,1363.90531 L862.359484,1407.13707 L862.176791,1415 Z M942.193469,1284.00781 L945.207275,1284.00781 L945.207275,1279.35957 L942.193469,1284.00781 Z M965.140869,1248.61566 L965.140869,1278.19385 L1052.23169,1278.19385 L955.767334,1378.92969 L955.767334,1415 L1120.81274,1415 L1120.81274,1377.62451 L1019.72095,1377.62451 L1117.25317,1275.8208 L1117.25317,1241.05566 L970.042587,1241.05566 L965.140869,1248.61566 Z M1079.00575,1073 L1131.3987,1073 L1095.86351,1047 L1079.00575,1073 Z M1358.61576,1241.05566 L1334.26831,1241.05566 L1334.26831,1337.79981 L1358.61576,1241.05566 Z M1315.63633,1411.83365 L1251.44897,1241.05566 L1192.83472,1241.05566 L1127.45728,1415 L1182.39331,1415 L1190.81763,1386.28613 L1252.04224,1386.28613 L1260.58521,1415 L1314.83946,1415 L1315.63633,1411.83365 Z M288.627993,1415 L375.201416,1415 L375.201416,1372.1665 L296.752403,1372.1665 L288.627993,1415 Z M684.393,896.105714 C657.212571,896.510178 635.920153,904.414808 620.515137,919.819824 C604.694745,935.640216 596.784668,957.748881 596.784668,986.146484 C596.784668,989.296513 596.880577,992.364869 597.072396,995.351555 L684.393,896.105714 Z M571.630371,1024.26816 L571.630371,973.806641 L488.57373,973.806641 L488.57373,1009.99561 L524.525391,1009.99561 L524.525391,1026.36963 C517.485316,1030.56203 511.236355,1033.52831 505.77832,1035.26855 C500.320285,1037.0088 494.585479,1037.87891 488.57373,1037.87891 C475.917417,1037.87891 466.049596,1033.84477 458.969971,1025.77637 C451.890345,1017.70797 448.350586,1004.26084 448.350586,985.43457 C448.350586,967.715732 451.850795,954.76298 458.851318,946.575928 C465.851842,938.388875 475.245058,934.29541 487.03125,934.29541 C494.941446,934.29541 501.447484,936.035627 506.549561,939.516113 C511.651637,942.996599 515.270497,948.019498 517.40625,954.584961 L569.257324,945.330078 C566.093246,934.0976 561.366975,924.823035 555.078369,917.506104 C548.789763,910.189172 540.879686,904.790545 531.3479,901.310059 C521.816114,897.829572 507.439549,896.089355 488.217773,896.089355 C468.28408,896.089355 452.424375,898.897433 440.638184,904.513672 C425.52971,911.791052 414.060098,922.449881 406.229004,936.490479 C398.39791,950.531076 394.482422,967.043362 394.482422,986.027832 C394.482422,1004.06308 398.061732,1020.04143 405.220459,1033.96338 C412.379186,1047.88532 422.464535,1058.36618 435.476807,1065.40625 C448.489079,1072.44632 465.317768,1075.96631 485.963379,1075.96631 C502.732994,1075.96631 517.22821,1074.00856 529.449463,1070.09302 C530.322476,1069.81331 531.204874,1069.51595 532.096654,1069.20093 L571.630371,1024.26816 Z M603.726874,1276.12254 C595.341382,1290.1306 591.148682,1307.47183 591.148682,1328.14648 C591.148682,1348.47569 595.143271,1365.40325 603.132568,1378.92969 C611.121866,1392.45612 621.543393,1402.34372 634.397461,1408.59277 C647.251529,1414.84183 663.486962,1417.96631 683.104248,1417.96631 C691.22849,1417.96631 698.788577,1417.32512 705.784547,1416.04275 L724,1383.53557 L706.691833,1368.07806 C700.474258,1374.5215 692.01854,1377.74316 681.324463,1377.74316 C670.091985,1377.74316 661.212923,1373.90678 654.687012,1366.23389 C648.1611,1358.561 644.898193,1345.94442 644.898193,1328.38379 C644.898193,1323.02871 645.198034,1318.13245 645.797717,1313.69499 L603.726877,1276.12253 Z M145.880686,1400.01642 L153.558838,1415 L195.627569,1415 L194.401008,1373.4964 L189.550159,1365.55944 L145.880686,1400.01642 Z M994.863281,1066 L997.590745,1066 L1048.73145,959.474014 L1048.73145,936.193848 L1059.90772,936.193848 L1077.73692,899.055664 L994.863281,899.055664 L994.863281,1066 Z M974.170285,1066 L951.79248,1022.57275 C950.526849,1020.04149 948.0154,1016.44241 944.258057,1011.77539 C940.500714,1007.10838 937.633311,1004.063 935.655762,1002.63916 C932.728989,1000.50341 928.062044,998.367686 921.654785,996.231934 C929.644083,994.412589 935.932594,992.118666 940.520508,989.350098 C947.718786,984.99949 953.374491,979.32401 957.487793,972.323486 C961.601095,965.322963 963.657715,956.997607 963.657715,947.347168 C963.657715,936.272894 960.968289,926.879677 955.589355,919.167236 C950.210422,911.454795 943.130903,906.174819 934.350586,903.327148 C925.570269,900.479478 912.874595,899.055664 896.263184,899.055664 L824.307763,899.055664 L806.680664,931.834187 L806.680664,1066 L860.66748,1066 L860.66748,1002.40186 L865.413574,1002.40186 C870.317896,1002.40186 874.707988,1003.74657 878.583984,1006.43604 C881.431655,1008.49269 884.674786,1012.96188 888.313477,1019.84375 L913.246094,1066 L974.170285,1066 Z M735.449271,1066 C736.00212,1065.70955 736.549385,1065.41276 737.091064,1065.10962 C750.024235,1057.87179 759.911831,1047.74689 766.75415,1034.73462 C773.336754,1022.21626 776.752937,1006.31212 777.002791,987.021763 L734.531165,1066 L735.449271,1066 Z M846.18128,731 L939.09668,731 L939.09668,691.607422 L846.310547,691.607422 L846.310547,657.316895 L929.960449,657.316895 L929.960449,621.839844 L846.310547,621.839844 L846.310547,594.193848 L936.486328,594.193848 L936.486328,557.055664 L792.442383,557.055664 L792.442383,683.687549 L846.18128,731 Z M763.794616,658.465668 C764.146057,653.801832 764.321777,648.791469 764.321777,643.43457 C764.321777,631.569277 762.897963,620.336967 760.050293,609.737305 C757.202622,599.137642 752.614778,589.843302 746.286621,581.854004 C744.021836,578.994713 741.541766,576.373532 738.8464,573.990451 L734.531165,632.701731 L763.794616,658.465668 Z M860.66748,969.535156 L860.66748,934.176758 L884.279297,934.176758 C894.08794,934.176758 900.771955,935.679672 904.331543,938.685547 C907.891131,941.691421 909.670898,946.002413 909.670898,951.618652 C909.670898,955.415546 908.543712,958.777329 906.289307,961.704102 C904.034901,964.630874 901.127947,966.450192 897.568359,967.162109 C890.528285,968.744149 885.782239,969.535156 883.330078,969.535156 L860.66748,969.535156 Z M388.727783,1328.14648 C388.727783,1348.47569 392.722372,1365.40325 400.71167,1378.92969 C408.700968,1392.45612 419.122494,1402.34372 431.976562,1408.59277 C444.830631,1414.84183 461.066064,1417.96631 480.68335,1417.96631 C499.984227,1417.96631 516.10101,1414.34745 529.03418,1407.10962 C541.96735,1399.87179 551.854946,1389.74689 558.697266,1376.73462 C565.539585,1363.72235 568.960693,1347.05186 568.960693,1326.72266 C568.960693,1298.72056 561.129717,1276.94808 545.467529,1261.40454 C529.805342,1245.86101 507.498924,1238.08936 478.547607,1238.08936 C450.308208,1238.08936 428.278644,1245.99943 412.458252,1261.81982 C396.63786,1277.64022 388.727783,1299.74888 388.727783,1328.14648 Z M442.477295,1328.38379 C442.477295,1310.66495 445.759977,1297.96928 452.325439,1290.29639 C458.890902,1282.6235 467.591987,1278.78711 478.428955,1278.78711 C489.740535,1278.78711 498.698697,1282.56417 505.303711,1290.11841 C511.908724,1297.67265 515.211182,1309.63664 515.211182,1326.01074 C515.211182,1345.46982 512.047151,1358.95651 505.718994,1366.47119 C499.390837,1373.98588 490.45245,1377.74316 478.903564,1377.74316 C467.671086,1377.74316 458.792025,1373.90678 452.266113,1366.23389 C445.740202,1358.561 442.477295,1345.94442 442.477295,1328.38379 Z M1240.77026,1348.67334 L1202.44556,1348.67334 L1221.54858,1286.14355 L1240.77026,1348.67334 Z" id="Combined-Shape" fill="#000000"></path>
    </g>
</svg>