<?xml version="1.0" encoding="UTF-8"?>
<svg width="1680px" height="950px" viewBox="0 0 1680 950" version="1.1" xmlns="http://www.w3.org/2000/svg" xmlns:xlink="http://www.w3.org/1999/xlink">
    <!-- Generator: Sketch 52.3 (67297) - http://www.bohemiancoding.com/sketch -->
    <title>10-desktop</title>
    <desc>Created with Sketch.</desc>
    <g id="10-desktop" stroke="none" stroke-width="1" fill="none" fill-rule="evenodd">
        <path d="M240.611527,665 L189.789551,665 L189.789551,594.829269 L92.5,460.5 L483.598131,466.384677 L653.168144,537.583984 L693.021973,537.583984 L699.047667,556.847946 L738.865903,573.566886 L749.950684,537.583984 L785.5,537.583984 L785.5,413.810559 C783.774974,413.936853 782.094148,414 780.45752,414 L721.964355,414 L721.964355,286.583984 L780.45752,286.583984 C788.66133,286.583984 795.743166,287.375904 801.703129,288.959762 L712.683175,238.221745 L646.009695,286.583984 L646.95752,286.583984 L600.54541,334.647461 L649.043457,414 L600.54541,414 L573.688965,361.59082 L553.351074,382.884766 L553.351074,414 L513.979004,414 L513.979004,382.353695 L506.88417,387.5 L485.558105,379.758712 L485.558105,414 L446.099121,414 L446.099121,365.435237 L332.198317,324.089637 L324.071777,324.56543 C323.843371,323.235296 323.556551,321.989282 323.211318,320.827387 L295.023102,310.595162 C294.819262,310.740429 294.622922,310.89214 294.434082,311.050293 C292.116362,312.991383 290.95752,315.352525 290.95752,318.133789 C290.95752,320.161794 291.913565,321.986971 293.825684,323.609375 C295.67986,325.289722 300.083461,326.854159 307.036621,328.302734 C324.245692,332.011086 336.572879,335.762839 344.018555,339.558105 C351.46423,343.353372 356.881819,348.06117 360.271484,353.681641 C363.66115,359.302111 365.355957,365.588832 365.355957,372.541992 C365.355957,380.711955 363.096214,388.244432 358.57666,395.139648 C354.057106,402.034865 347.741414,407.264142 339.629395,410.827637 C331.517375,414.391131 321.290589,416.172852 308.94873,416.172852 C287.278049,416.172852 272.271038,412.001018 263.927246,403.657227 C255.583454,395.313435 250.861171,384.710025 249.760254,371.84668 L287.220215,369.5 C288.031417,375.584015 289.682767,380.219385 292.174316,383.40625 C296.230326,388.563177 302.024539,391.141602 309.557129,391.141602 C315.1776,391.141602 319.508774,389.823418 322.550781,387.187012 C325.592789,384.550605 327.11377,381.494158 327.11377,378.017578 C327.11377,374.714827 325.665216,371.759779 322.768066,369.152344 C319.870917,366.544909 313.14963,364.082368 302.604004,361.764648 C285.33699,357.882468 273.024288,352.725618 265.665527,346.293945 C258.248824,339.862273 254.540527,331.663461 254.540527,321.697266 C254.540527,315.149707 256.438132,308.964385 260.233398,303.141113 C261.1598,301.719687 262.200125,300.372491 263.354374,299.099523 L94.5,237.805967 L281.827766,115.5 L1091.5,214.985377 L1031.61598,293.298605 C1041.75581,287.373602 1054.22116,284.411133 1069.01221,284.411133 C1090.21934,284.411133 1106.55902,290.103947 1118.03174,301.489746 C1129.50445,312.875545 1135.24072,328.824116 1135.24072,349.335937 C1135.24072,364.227288 1132.73473,376.438592 1127.72266,385.970215 C1122.71059,395.501838 1115.46782,402.918431 1105.99414,408.220215 C1096.52046,413.521999 1084.71475,416.172852 1070.57666,416.172852 C1056.2068,416.172852 1044.31417,413.884137 1034.89844,409.306641 C1025.4827,404.729144 1017.84882,397.486378 1011.99658,387.578125 C1006.14434,377.669872 1003.21826,365.270257 1003.21826,350.378906 C1003.21826,341.522639 1004.26854,333.5014 1006.36912,326.315153 L986.94352,351.718946 C986.688094,365.53502 984.189363,376.952006 979.447266,385.970215 C974.435196,395.501838 967.19243,402.918431 957.71875,408.220215 C948.24507,413.521999 936.439361,416.172852 922.30127,416.172852 C907.931406,416.172852 896.038784,413.884137 886.623047,409.306641 C877.20731,404.729144 869.573434,397.486378 863.721191,387.578125 C857.868949,377.669872 854.942871,365.270257 854.942871,350.378906 C854.942871,339.675455 856.476963,330.19169 859.545169,321.927544 L822.483351,300.803705 C823.725405,302.041752 824.897783,303.356858 826.000488,304.749023 C830.635928,310.601266 833.996572,317.409466 836.08252,325.173828 C838.168467,332.93819 839.211426,341.165972 839.211426,349.857422 C839.211426,363.474026 837.661474,374.033979 834.561523,381.537598 C831.461573,389.041216 827.15937,395.327937 821.654785,400.397949 C819.581194,402.307836 817.450059,403.97721 815.261371,405.406078 L1043.70753,484.88124 L1156.96924,401.656484 L1156.96924,286.583984 L1222.58936,286.583984 C1234.75739,286.583984 1244.0571,287.626943 1250.48877,289.712891 C1256.92044,291.798839 1262.10626,295.666476 1266.04639,301.315918 C1269.98651,306.96536 1271.95654,313.845988 1271.95654,321.958008 C1271.95654,329.027054 1270.45005,335.125463 1267.43701,340.253418 C1264.42398,345.381373 1260.28111,349.538721 1255.0083,352.725586 C1251.64761,354.753591 1247.04121,356.433913 1241.18896,357.766602 C1245.88235,359.331063 1249.30093,360.8955 1251.44482,362.459961 C1252.8934,363.502935 1254.9938,365.733707 1257.74609,369.152344 C1260.49839,372.570981 1262.33805,375.207347 1263.26514,377.061523 L1275.21259,400.247225 L1343.24929,403.482283 L1354.78564,392.075418 L1354.78564,286.583984 L1413.27881,286.583984 C1424.80947,286.583984 1434.12366,288.148422 1441.22168,291.277344 C1444.77144,292.842134 1448.01322,294.747467 1450.94705,296.993358 L1575.85203,173.490355 L1359.75174,59.5342156 L1548.06227,16.2549337 L1428.82045,13.708497 L1516.43546,-40.0424882 L1721.5,-41.5 L1721.5,645.989596 L1405.68629,572.860824 L1402.89357,576.737098 C1405.1942,577.629284 1408.30828,578.484493 1412.23584,579.302734 C1429.44491,583.011086 1441.7721,586.762839 1449.21777,590.558105 C1456.66345,594.353372 1462.08104,599.06117 1465.4707,604.681641 C1468.86037,610.302111 1470.55518,616.588832 1470.55518,623.541992 C1470.55518,631.711955 1468.29543,639.244432 1463.77588,646.139648 C1459.25633,653.034865 1452.94063,658.264142 1444.82861,661.827637 C1436.71659,665.391131 1426.48981,667.172852 1414.14795,667.172852 C1392.47727,667.172852 1377.47026,663.001018 1369.12646,654.657227 C1364.42402,649.954782 1360.87187,644.534617 1358.47,638.396675 L1279.86485,747.5 L1029.55716,710.626004 L1071.30532,633.24333 L1053.5415,627.726322 L1053.5415,665 L1016.4292,665 L974.204818,603.086289 L968.713379,601.380783 L968.713379,665 L931.687988,665 L931.687988,589.881603 L850.891161,564.788086 L842.253418,564.788086 L842.253418,585.039062 L903.527832,585.039062 L903.527832,611.026367 L842.253418,611.026367 L842.253418,636.144531 L910.220215,636.144531 L910.220215,665 L802.794434,665 L802.794434,549.85042 L787.178994,545.000646 L771.494828,587.267167 L799.5,599.02602 L751.301164,641.686122 L742.649902,665 L724.960351,665 L630.619208,748.5 L256.983965,687.605692 L240.611527,665 Z M944.835456,370.539791 L894.717126,341.974233 C894.449003,344.628595 894.314941,347.488094 894.314941,350.552734 C894.314941,363.41608 896.705054,372.65785 901.485352,378.27832 C906.265649,383.898791 912.769653,386.708984 920.997559,386.708984 C929.457236,386.708984 936.004697,383.956733 940.640137,378.452148 C942.356244,376.414271 943.754682,373.776824 944.835456,370.539791 Z M58.6362305,313.95368 L58.6362305,286.583984 L124.08252,286.583984 C138.336497,286.583984 149.012334,289.973599 156.110352,296.75293 C163.208369,303.53226 166.757324,313.179625 166.757324,325.695312 C166.757324,338.558658 162.889687,348.611617 155.154297,355.854492 C147.418907,363.097367 135.613198,366.71875 119.736816,366.71875 L98.1821289,366.71875 L98.1821289,414 L58.6362305,414 L58.6362305,371.068798 L-11.5514019,380 L-56,250 L58.6362305,313.95368 Z M98.1821289,336.015691 L106.946649,340.905273 L107.82959,340.905273 C115.420123,340.905273 120.750798,339.58709 123.821777,336.950684 C126.892756,334.314277 128.428223,330.939148 128.428223,326.825195 C128.428223,322.827128 127.095554,319.437514 124.430176,316.65625 C121.764798,313.874986 116.752804,312.484375 109.394043,312.484375 L98.1821289,312.484375 L98.1821289,336.015691 Z M1196.51514,396.50526 L1229.18824,398.058825 L1216.76611,375.0625 C1214.10074,370.021459 1211.72511,366.747729 1209.63916,365.241211 C1206.79995,363.271149 1203.58417,362.286133 1199.9917,362.286133 L1196.51514,362.286133 L1196.51514,396.50526 Z M1394.15771,353.145272 L1425.33203,322.320864 C1420.88156,317.733235 1413.76394,315.439453 1403.979,315.439453 L1394.15771,315.439453 L1394.15771,353.145272 Z M1382.73755,604.713503 L1370.3687,621.881368 L1392.41943,620.5 C1393.23064,626.584015 1394.88199,631.219385 1397.37354,634.40625 C1401.42955,639.563177 1407.22376,642.141602 1414.75635,642.141602 C1420.37682,642.141602 1424.70799,640.823418 1427.75,638.187012 C1430.79201,635.550605 1432.31299,632.494158 1432.31299,629.017578 C1432.31299,625.714827 1430.86444,622.759779 1427.96729,620.152344 C1425.07014,617.544909 1418.34885,615.082368 1407.80322,612.764648 C1397.77792,610.510636 1389.42271,607.826931 1382.73755,604.713503 Z M155,899.096466 L440.159156,788.835234 L630.300927,893.034481 L699.048107,893.034481 L699.048107,867.217018 L930.899602,856.234346 L945.051744,747.455316 L1215.57537,842.821218 L1465.87493,729 L1771,949 L699.048107,949 L155,949 L155,899.096466 Z M14.1423438,908.5 L-64.5,908.5 L-53.1286661,659.5 L167.5,681.666421 L127.729318,769.759172 L50.0389804,769.759172 L14.1423438,908.5 Z M-8.5,96.5 L-8.5,-56.5 L349.879114,-56.5 L523.5,86.296921 L-8.5,96.5 Z M633,55.3742256 L718.360732,-56 L1464,-41.5961058 L973.95761,137 L633,55.3742256 Z M188.92041,286.583984 L228.379395,286.583984 L228.379395,414 L188.92041,414 L188.92041,286.583984 Z M761.336426,315.439453 L761.336426,385.057617 L770.983887,385.057617 C779.211792,385.057617 785.063947,384.145029 788.540527,382.319824 C792.017107,380.49462 794.740387,377.307803 796.710449,372.759277 C798.680511,368.210752 799.665527,360.837616 799.665527,350.639648 C799.665527,337.13893 797.463726,327.89716 793.060059,322.914062 C788.656391,317.930965 781.355683,315.439453 771.157715,315.439453 L761.336426,315.439453 Z M1042.59033,350.552734 C1042.59033,363.41608 1044.98044,372.65785 1049.76074,378.27832 C1054.54104,383.898791 1061.04504,386.708984 1069.27295,386.708984 C1077.73263,386.708984 1084.28009,383.956733 1088.91553,378.452148 C1093.55097,372.947564 1095.86865,363.068431 1095.86865,348.814453 C1095.86865,336.820253 1093.44957,328.056506 1088.61133,322.522949 C1083.77309,316.989393 1077.21114,314.222656 1068.92529,314.222656 C1060.9871,314.222656 1054.61347,317.03285 1049.8042,322.65332 C1044.99493,328.273791 1042.59033,337.573503 1042.59033,350.552734 Z M1196.51514,338.210937 L1213.11572,338.210937 C1214.91196,338.210937 1218.38848,337.631516 1223.54541,336.472656 C1226.15285,335.951169 1228.28222,334.6185 1229.93359,332.474609 C1231.58497,330.330718 1232.41064,327.868178 1232.41064,325.086914 C1232.41064,320.972961 1231.10695,317.815115 1228.49951,315.613281 C1225.89208,313.411447 1220.99597,312.310547 1213.81104,312.310547 L1196.51514,312.310547 L1196.51514,338.210937 Z M240.611527,665 L257.756348,665 C260.653498,665 266.534624,664.420579 275.399902,663.261719 C282.063347,662.392574 287.04637,661.001963 290.349121,659.089844 C295.679877,656.018865 299.880681,651.847032 302.95166,646.574219 C306.022639,641.301406 307.558105,635.362338 307.558105,628.756836 C307.558105,620.644816 305.399761,613.909044 301.083008,608.549316 C296.766254,603.189589 290.030482,599.408865 280.875488,597.207031 C286.90156,595.121083 291.478988,592.281919 294.60791,588.689453 C299.301293,583.300754 301.647949,576.840207 301.647949,569.307617 C301.647949,560.326452 298.359733,552.793976 291.783203,546.709961 C285.206673,540.625946 275.776591,537.583984 263.492676,537.583984 L189.789551,537.583984 L189.789551,594.829269 L240.611527,665 Z M653.168144,537.583984 L651.824707,537.583984 L699.975098,665 L724.960351,665 L751.301164,641.686122 L771.494828,587.267167 L738.865903,573.566886 L721.703613,629.27832 L699.047667,556.847946 L653.168144,537.583984 Z M1031.61598,293.298605 C1027.57501,295.659867 1023.90337,298.491646 1020.60107,301.793945 C1013.94633,308.448691 1009.20235,316.622396 1006.36912,326.315153 L1031.61598,293.298605 Z M986.94352,351.718946 C986.958061,350.932386 986.965332,350.138049 986.965332,349.335937 C986.965332,328.824116 981.229061,312.875545 969.756348,301.489746 C958.283634,290.103947 941.943954,284.411133 920.736816,284.411133 C900.051166,284.411133 883.914283,290.205346 872.325684,301.793945 C866.700009,307.41962 862.439844,314.130801 859.545169,321.927544 L894.717126,341.974233 C895.584548,333.386955 897.855098,326.946693 901.528809,322.65332 C906.338077,317.03285 912.711712,314.222656 920.649902,314.222656 C928.935751,314.222656 935.497697,316.989393 940.335938,322.522949 C945.174178,328.056506 947.593262,336.820253 947.593262,348.814453 C947.593262,357.791401 946.673999,365.033156 944.835456,370.539791 L964.1387,381.541912 L986.94352,351.718946 Z M822.483351,300.803705 C818.504185,296.837373 813.80989,293.66194 808.400391,291.277344 C806.352458,290.374581 804.120039,289.602054 801.703129,288.959762 L822.483351,300.803705 Z M646.009695,286.583984 L594.635254,286.583984 L553.351074,334.734375 L553.351074,286.583984 L513.979004,286.583984 L513.979004,382.353695 L646.009695,286.583984 Z M485.558105,379.758712 L485.558105,286.583984 L446.099121,286.583984 L446.099121,365.435237 L485.558105,379.758712 Z M332.198317,324.089637 L361.184082,322.392578 C359.561678,309.181575 354.477256,299.548696 345.930664,293.493652 C337.384072,287.438609 324.969971,284.411133 308.687988,284.411133 C295.419042,284.411133 284.974973,286.076969 277.355469,289.408691 C271.59584,291.92716 266.928833,295.157418 263.354374,299.099523 L295.023102,310.595162 C297.321093,308.957494 300.572317,308.138672 304.776855,308.138672 C310.339383,308.138672 314.699528,309.44237 317.857422,312.049805 C320.28307,314.052633 322.067692,316.978475 323.211318,320.827387 L332.198317,324.089637 Z M58.6362305,313.95368 L58.6362305,371.068798 L142,360.460965 L106.946649,340.905273 L98.1821289,340.905273 L98.1821289,336.015691 L58.6362305,313.95368 Z M785.5,537.583984 L785.5,544.479192 L787.178994,545.000646 L789.931152,537.583984 L785.5,537.583984 Z M785.5,413.810559 C791.164759,413.395825 797.306162,412.300123 803.924316,410.523437 C807.860931,409.476081 811.639934,407.770303 815.261371,405.406078 L785.5,395.05226 L785.5,413.810559 Z M1156.96924,401.656484 L1156.96924,414 L1196.51514,414 L1196.51514,396.50526 L1165.95702,395.05226 L1156.96924,401.656484 Z M1229.18824,398.058825 L1237.79932,414 L1282.29932,414 L1275.21259,400.247225 L1229.18824,398.058825 Z M1354.78564,392.075418 L1354.78564,414 L1413.27881,414 C1420.28991,414 1428.1121,412.841157 1436.74561,410.523437 C1443.06139,408.843091 1448.97149,405.467962 1454.47607,400.397949 C1459.98066,395.327937 1464.28286,389.041216 1467.38281,381.537598 C1470.48276,374.033979 1472.03271,363.474026 1472.03271,349.857422 C1472.03271,341.165972 1470.98976,332.93819 1468.90381,325.173828 C1466.81786,317.409466 1463.45722,310.601266 1458.82178,304.749023 C1456.50455,301.823519 1453.87964,299.238303 1450.94705,296.993358 L1425.33203,322.320864 C1425.51989,322.51451 1425.703,322.712243 1425.88135,322.914062 C1430.28502,327.89716 1432.48682,337.13893 1432.48682,350.639648 C1432.48682,360.837616 1431.5018,368.210752 1429.53174,372.759277 C1427.56168,377.307803 1424.8384,380.49462 1421.36182,382.319824 C1417.88524,384.145029 1412.03308,385.057617 1403.80518,385.057617 L1394.15771,385.057617 L1394.15771,353.145272 L1354.78564,392.075418 Z M1402.89357,576.737098 C1401.12128,576.049802 1399.83173,575.340562 1399.0249,574.609375 C1397.11278,572.986971 1396.15674,571.161794 1396.15674,569.133789 C1396.15674,566.352525 1397.31558,563.991383 1399.6333,562.050293 C1401.95102,560.109203 1405.39858,559.138672 1409.97607,559.138672 C1415.5386,559.138672 1419.89875,560.44237 1423.05664,563.049805 C1426.21453,565.65724 1428.28597,569.829073 1429.271,575.56543 L1466.3833,573.392578 C1464.7609,560.181575 1459.67648,550.548696 1451.12988,544.493652 C1442.58329,538.438609 1430.16919,535.411133 1413.88721,535.411133 C1400.61826,535.411133 1390.17419,537.076969 1382.55469,540.408691 C1374.93518,543.740414 1369.22788,548.317842 1365.43262,554.141113 C1361.63735,559.964385 1359.73975,566.149707 1359.73975,572.697266 C1359.73975,582.663461 1363.44804,590.862273 1370.86475,597.293945 C1373.95098,599.991359 1377.90857,602.464541 1382.73755,604.713503 L1402.89357,576.737098 Z M1370.3687,621.881368 L1354.95947,622.84668 C1355.43993,628.460424 1356.6101,633.643746 1358.47,638.396675 L1370.3687,621.881368 Z M1053.5415,627.726322 L1053.5415,537.583984 L1016.4292,537.583984 L1016.4292,608.071289 L968.452637,537.583984 L931.687988,537.583984 L931.687988,589.881603 L968.713379,601.380783 L968.713379,595.03418 L974.204818,603.086289 L1053.5415,627.726322 Z M850.891161,564.788086 L908.308105,564.788086 L908.308105,537.583984 L802.794434,537.583984 L802.794434,549.85042 L850.891161,564.788086 Z M1492.63135,286.583984 L1492.63135,414 L1600.05713,414 L1600.05713,385.144531 L1532.09033,385.144531 L1532.09033,360.026367 L1593.36475,360.026367 L1593.36475,334.039062 L1532.09033,334.039062 L1532.09033,313.788086 L1598.14502,313.788086 L1598.14502,286.583984 L1492.63135,286.583984 Z M229.509277,587.55957 L229.509277,563.397461 L246.89209,563.397461 C252.860219,563.397461 257.046537,564.440419 259.451172,566.526367 C261.855806,568.612315 263.058105,571.509422 263.058105,575.217773 C263.058105,579.21584 261.855806,582.272288 259.451172,584.387207 C257.046537,586.502126 252.773305,587.55957 246.631348,587.55957 L229.509277,587.55957 Z M229.509277,637.62207 L229.509277,611.808594 L249.499512,611.808594 C256.394728,611.808594 261.218411,612.952951 263.970703,615.241699 C266.722996,617.530448 268.099121,620.557924 268.099121,624.324219 C268.099121,628.380229 266.70851,631.610502 263.927246,634.015137 C261.145982,636.419771 256.365757,637.62207 249.586426,637.62207 L229.509277,637.62207 Z M328.678223,665 L368.224121,665 L368.224121,613.286133 L371.700684,613.286133 C375.293149,613.286133 378.508938,614.271149 381.348145,616.241211 C383.434092,617.747729 385.80972,621.021459 388.475098,626.0625 L409.508301,665 L454.008301,665 L434.974121,628.061523 C434.047033,626.207347 432.207371,623.570981 429.455078,620.152344 C426.702786,616.733707 424.602384,614.502935 423.153809,613.459961 C421.009918,611.8955 417.591332,610.331063 412.897949,608.766602 C418.750192,607.433913 423.356591,605.753591 426.717285,603.725586 C431.990098,600.538721 436.13296,596.381373 439.145996,591.253418 C442.159032,586.125463 443.665527,580.027054 443.665527,572.958008 C443.665527,564.845988 441.695495,557.96536 437.755371,552.315918 C433.815247,546.666476 428.629427,542.798839 422.197754,540.712891 C415.766081,538.626943 406.466369,537.583984 394.29834,537.583984 L328.678223,537.583984 L328.678223,665 Z M368.224121,589.210937 L368.224121,563.310547 L385.52002,563.310547 C392.704951,563.310547 397.601061,564.411447 400.208496,566.613281 C402.815931,568.815115 404.119629,571.972961 404.119629,576.086914 C404.119629,578.868178 403.293954,581.330718 401.642578,583.474609 C399.991203,585.6185 397.861829,586.951169 395.254395,587.472656 C390.097468,588.631516 386.62094,589.210937 384.824707,589.210937 L368.224121,589.210937 Z M468.175293,537.583984 L468.175293,665 L507.634277,665 L507.634277,537.583984 L468.175293,537.583984 Z M535.794434,537.583984 L535.794434,665 L643.220215,665 L643.220215,636.144531 L575.253418,636.144531 L575.253418,611.026367 L636.527832,611.026367 L636.527832,585.039062 L575.253418,585.039062 L575.253418,564.788086 L641.308105,564.788086 L641.308105,537.583984 L535.794434,537.583984 Z M1079.78955,537.583984 L1079.78955,665 L1147.75635,665 C1150.6535,665 1156.53462,664.420579 1165.3999,663.261719 C1172.06335,662.392574 1177.04637,661.001963 1180.34912,659.089844 C1185.67988,656.018865 1189.88068,651.847032 1192.95166,646.574219 C1196.02264,641.301406 1197.55811,635.362338 1197.55811,628.756836 C1197.55811,620.644816 1195.39976,613.909044 1191.08301,608.549316 C1186.76625,603.189589 1180.03048,599.408865 1170.87549,597.207031 C1176.90156,595.121083 1181.47899,592.281919 1184.60791,588.689453 C1189.30129,583.300754 1191.64795,576.840207 1191.64795,569.307617 C1191.64795,560.326452 1188.35973,552.793976 1181.7832,546.709961 C1175.20667,540.625946 1165.77659,537.583984 1153.49268,537.583984 L1079.78955,537.583984 Z M1119.50928,587.55957 L1119.50928,563.397461 L1136.89209,563.397461 C1142.86022,563.397461 1147.04654,564.440419 1149.45117,566.526367 C1151.85581,568.612315 1153.05811,571.509422 1153.05811,575.217773 C1153.05811,579.21584 1151.85581,582.272288 1149.45117,584.387207 C1147.04654,586.502126 1142.77331,587.55957 1136.63135,587.55957 L1119.50928,587.55957 Z M1119.50928,637.62207 L1119.50928,611.808594 L1139.49951,611.808594 C1146.39473,611.808594 1151.21841,612.952951 1153.9707,615.241699 C1156.723,617.530448 1158.09912,620.557924 1158.09912,624.324219 C1158.09912,628.380229 1156.70851,631.610502 1153.92725,634.015137 C1151.14598,636.419771 1146.36576,637.62207 1139.58643,637.62207 L1119.50928,637.62207 Z M1296.46631,537.583984 L1296.46631,615.37207 C1296.46631,622.441116 1294.53973,627.902162 1290.68652,631.755371 C1286.83331,635.60858 1281.51712,637.535156 1274.73779,637.535156 C1267.90052,637.535156 1262.55536,635.579609 1258.70215,631.668457 C1254.84894,627.757305 1252.92236,622.32523 1252.92236,615.37207 L1252.92236,537.583984 L1213.63721,537.583984 L1213.63721,613.546875 C1213.63721,619.804719 1214.85399,626.989543 1217.2876,635.101562 C1218.79412,640.142603 1221.58982,645.038713 1225.6748,649.790039 C1229.75979,654.541365 1234.26479,658.206205 1239.18994,660.784668 C1244.1151,663.363131 1250.24248,665.08691 1257.57227,665.956055 C1264.90205,666.8252 1271.6668,667.259766 1277.8667,667.259766 C1288.58615,667.259766 1297.76998,665.840183 1305.41846,663.000977 C1310.92304,660.972972 1316.18129,657.452987 1321.19336,652.440918 C1326.20543,647.428849 1329.88475,641.576694 1332.23145,634.884277 C1334.57814,628.191861 1335.75146,621.079465 1335.75146,613.546875 L1335.75146,537.583984 L1296.46631,537.583984 Z" id="Combined-Shape" fill="#000000"></path>
    </g>
</svg>