<?xml version="1.0" encoding="UTF-8"?>
<svg width="1536px" height="1971px" viewBox="0 0 1536 1971" version="1.1" xmlns="http://www.w3.org/2000/svg" xmlns:xlink="http://www.w3.org/1999/xlink">
    <!-- Generator: Sketch 52.3 (67297) - http://www.bohemiancoding.com/sketch -->
    <title>10-tablet</title>
    <desc>Created with Sketch.</desc>
    <g id="10-tablet" stroke="none" stroke-width="1" fill="none" fill-rule="evenodd">
        <path d="M222.965986,1345 L199.689209,1345 L199.689209,1274.39001 L100.5,973.5 L270.362549,979.115306 L270.362549,913.688477 L337.071045,913.688477 C350.221176,913.688477 360.843547,915.472638 368.938477,919.041016 C377.033406,922.609393 383.724013,927.730598 389.010498,934.404785 C394.296983,941.078972 398.129627,948.84338 400.508545,957.698242 C402.70159,965.861244 403.883773,974.473392 404.05512,983.534906 L422.039086,984.12942 C422.457744,961.516123 429.058669,943.81804 441.842041,931.034668 C455.058253,917.818456 473.461552,911.210449 497.05249,911.210449 C521.238158,911.210449 539.872737,917.702816 552.956787,930.687744 C566.040837,943.672672 572.582764,961.861211 572.582764,985.253906 C572.582764,1002.23674 569.724801,1016.16311 564.008789,1027.03345 C558.292777,1037.90378 550.032769,1046.36203 539.228516,1052.40845 C538.651576,1052.73132 538.067053,1053.04558 537.474946,1053.35121 L696.106415,1199.68848 L725.724854,1199.68848 L718.171548,1220.04353 L740.394775,1240.54442 L740.394775,1199.68848 L828.057017,1199.68848 L742,1140.98165 L742,836.256764 L843.341058,913.697257 C856.221254,913.809411 866.146783,914.995927 873.11792,917.256836 C880.452918,919.635754 886.367084,924.046599 890.860596,930.489502 C895.354108,936.932405 897.60083,944.779413 897.60083,954.030762 C897.60083,954.40681 897.597092,954.780449 897.589616,955.151681 L981.724725,1019.44413 L992.063232,1002.75774 L992.063232,913.688477 L1047.24852,913.688477 L1095.22345,836.256764 L1259.82493,853.448028 L1475.77768,384.427732 L1275.14611,152.03809 L1449.97715,63.7790726 L1339.2708,58.586149 L1420.61422,-51.0277104 L1611,-54 L1611,1347.99082 L1501.63509,1292.36578 C1501.83979,1294.11002 1501.94214,1295.89451 1501.94214,1297.71924 C1501.94214,1307.03667 1499.36502,1315.62708 1494.21069,1323.49072 C1489.05637,1331.35437 1481.85364,1337.31809 1472.60229,1341.38208 C1463.35095,1345.44607 1451.68781,1347.47803 1437.61255,1347.47803 C1412.89823,1347.47803 1395.78349,1342.72026 1386.26782,1333.20459 C1376.75215,1323.68892 1371.36662,1311.59626 1370.11108,1296.92627 L1412.83228,1294.25 C1413.75741,1301.18851 1415.64069,1306.47492 1418.48218,1310.10938 C1423.10785,1315.99059 1429.71586,1318.93115 1438.3064,1318.93115 C1444.71626,1318.93115 1449.65574,1317.42783 1453.125,1314.42114 C1456.59426,1311.41445 1458.32886,1307.92873 1458.32886,1303.96387 C1458.32886,1300.19725 1456.67686,1296.82716 1453.3728,1293.85352 C1450.06875,1290.87987 1442.40346,1288.07147 1430.37671,1285.42822 C1410.68455,1281.00079 1396.64254,1275.11967 1388.25024,1267.78467 C1379.79187,1260.44967 1375.56274,1251.09934 1375.56274,1239.7334 C1375.56274,1236.06888 1376.08395,1232.50385 1377.12636,1229.03829 L1348.20532,1214.32851 L1348.20532,1286.32031 C1348.20532,1294.91085 1346.8672,1303.02218 1344.19092,1310.65454 C1341.51464,1318.2869 1337.31855,1324.96099 1331.60254,1330.677 C1325.88653,1336.39301 1319.88976,1340.40738 1313.61206,1342.72021 C1304.88936,1345.95819 1294.41567,1347.57715 1282.19067,1347.57715 C1278.07186,1347.57715 1273.73447,1347.40898 1269.17843,1347.07263 L1200.97762,1555 L968.58726,1479.80322 L1001.69723,1345 L984.034424,1345 L934.416792,1272.24555 L929.616943,1268.97116 L929.616943,1345 L887.391357,1345 L887.391357,1240.16549 L860.727783,1221.97599 L860.727783,1230.71338 L785.395752,1230.71338 L785.395752,1253.80859 L855.276123,1253.80859 L855.276123,1283.4458 L785.395752,1283.4458 L785.395752,1312.0918 L862.908447,1312.0918 L862.908447,1345 L740.394775,1345 L740.394775,1289.58631 L600.562687,1561.5 L253.351436,1437.17412 L222.965986,1345 Z M315.264404,980.599669 L358.893409,982.041954 C358.420593,969.179659 355.937343,960.206115 351.443604,955.121094 C346.421443,949.438123 338.095354,946.59668 326.465088,946.59668 L315.264404,946.59668 L315.264404,980.599669 Z M466.931179,988.2747 L508.136593,1026.28663 C512.765076,1024.76713 516.636603,1022.15808 519.751221,1018.45947 C525.037705,1012.18177 527.680908,1000.91512 527.680908,984.65918 C527.680908,970.9804 524.922065,960.98579 519.404297,954.675049 C513.886528,948.364308 506.402961,945.208984 496.953369,945.208984 C487.900264,945.208984 480.631456,948.413868 475.146729,954.82373 C469.662001,961.233593 466.919678,971.839444 466.919678,986.641602 C466.919678,987.191777 466.923512,987.736143 466.931179,988.2747 Z M971.628062,627.688477 L1002.86743,627.688477 L1002.86743,682.601563 L1049.94995,627.688477 L1109.62085,627.688477 L1056.69019,682.502441 L1111.99976,773 L1056.69019,773 L1026.06177,713.22998 L1002.86743,737.514648 L1002.86743,773 L957.965576,773 L957.965576,666.869788 L925.552979,759.822714 L925.552979,773 L920.958071,773 L906.708562,813.864777 L781.330121,657.155748 C782.414757,660.645086 783.20828,664.43529 783.710693,668.526367 L741.385986,671.004395 C740.262608,664.46237 737.900246,659.704605 734.298828,656.730957 C730.69741,653.757309 725.724885,652.270508 719.381104,652.270508 C714.1607,652.270508 710.228936,653.377349 707.585693,655.591064 C704.942451,657.80478 703.62085,660.497543 703.62085,663.669434 C703.62085,665.982271 704.711171,668.063793 706.891846,669.914063 C709.00644,671.830413 714.028525,673.614575 721.958252,675.266602 C741.584327,679.495789 755.642861,683.774474 764.134277,688.102783 C772.625693,692.431093 778.80418,697.800098 782.669922,704.209961 C786.535664,710.619824 788.468506,717.789511 788.468506,725.719238 C788.468506,735.036668 785.891383,743.627077 780.737061,751.490723 C775.582738,759.354369 768.38001,765.318095 759.128662,769.38208 C749.877314,773.446065 738.214182,775.478027 724.138916,775.478027 C699.4246,775.478027 682.309862,770.720262 672.794189,761.20459 C663.278517,751.688917 657.892991,739.596265 656.637451,724.92627 L699.358643,722.25 C700.283777,729.188511 702.167059,734.474917 705.008545,738.109375 C709.634219,743.990589 716.242226,746.931152 724.832764,746.931152 C731.242626,746.931152 736.182112,745.427831 739.651367,742.421143 C743.120623,739.414454 744.855225,735.928731 744.855225,731.963867 C744.855225,728.197247 743.203223,724.827163 739.89917,721.853516 C736.595117,718.879868 728.929829,716.071465 716.903076,713.428223 C697.21092,709.000792 683.168906,703.119666 674.776611,695.784668 C666.318236,688.44967 662.089111,679.099341 662.089111,667.733398 C662.089111,660.266239 664.253234,653.212191 668.581543,646.571045 C672.909852,639.929898 679.418739,634.709573 688.108398,630.909912 C696.798058,627.110251 708.70899,625.210449 723.841553,625.210449 C739.750308,625.210449 752.421226,627.744776 761.854575,632.813493 L673.1601,521.955319 L606.688996,627.688477 L632.253662,627.688477 L632.253662,773 L587.252686,773 L587.252686,658.605106 L482.016792,826 L99,521.108476 L272.987474,272 L1025,474.628305 L971.628062,627.688477 Z M1319.42143,1199.68848 L1317.79262,1198.86003 L1317.52088,1199.68848 L1319.42143,1199.68848 Z M1303.40259,1242.73167 L1280.14161,1313.64862 C1287.15225,1313.376 1292.70868,1311.18854 1296.81104,1307.08618 C1301.20543,1302.69179 1303.40259,1296.46374 1303.40259,1288.40186 L1303.40259,1242.73167 Z M158,1868.92459 L422.689811,1643.39025 L599.182791,1856.52507 L662.995149,1856.52507 L662.995149,1803.71663 L878.203839,1781.25207 L891.340109,1558.74951 L1142.44496,1753.81613 L1374.77747,1521 L1658,1971 L662.995149,1971 L158,1971 L158,1868.92459 Z M25.2187339,1887 L-48,1887 L-37.412896,1379 L168,1424.22306 L130.972124,1603.94642 L58.6397404,1603.94642 L25.2187339,1887 Z M2.53025583,811 L-39,546 L146,771.170429 L2.53025583,811 Z M5,232 L5,-79 L338.454251,-79 L500,211.260408 L5,232 Z M600,147.364999 L679.300223,-80 L1372,-50.595159 L916.75003,314 L600,147.364999 Z M591.118408,986.443359 C591.118408,962.720259 597.726415,944.25088 610.942627,931.034668 C624.158839,917.818456 642.562138,911.210449 666.153076,911.210449 C690.338744,911.210449 708.973323,917.702816 722.057373,930.687744 C735.141423,943.672672 741.68335,961.861211 741.68335,985.253906 C741.68335,1002.23674 738.825387,1016.16311 733.109375,1027.03345 C727.393363,1037.90378 719.133355,1046.36203 708.329102,1052.40845 C697.524848,1058.45486 684.061034,1061.47803 667.937256,1061.47803 C651.549153,1061.47803 637.986219,1058.86786 627.248047,1053.64746 C616.509875,1048.42706 607.803826,1040.16705 601.129639,1028.86719 C594.455452,1017.56733 591.118408,1003.42619 591.118408,986.443359 Z M636.020264,986.641602 C636.020264,1001.3116 638.746066,1011.85137 644.197754,1018.26123 C649.649441,1024.67109 657.066929,1027.87598 666.450439,1027.87598 C676.098274,1027.87598 683.565322,1024.73717 688.851807,1018.45947 C694.138291,1012.18177 696.781494,1000.91512 696.781494,984.65918 C696.781494,970.9804 694.022651,960.98579 688.504883,954.675049 C682.987114,948.364308 675.503547,945.208984 666.053955,945.208984 C657.00085,945.208984 649.732042,948.413868 644.247314,954.82373 C638.762587,961.233593 636.020264,971.839444 636.020264,986.641602 Z M41.2937012,1199.68848 L125.348389,1199.68848 C139.357573,1199.68848 150.112104,1203.15768 157.612305,1210.09619 C165.112505,1217.0347 168.862549,1225.62511 168.862549,1235.86768 C168.862549,1244.45821 166.186306,1251.82614 160.83374,1257.97168 C157.265363,1262.06871 152.045038,1265.30663 145.172607,1267.68555 C155.613415,1270.19663 163.295223,1274.50835 168.218262,1280.62085 C173.141301,1286.73335 175.602783,1294.41516 175.602783,1303.6665 C175.602783,1311.19974 173.851661,1317.97295 170.349365,1323.98633 C166.847069,1329.9997 162.056264,1334.75747 155.976807,1338.25977 C152.210186,1340.44044 146.5273,1342.02636 138.927979,1343.01758 C128.817576,1344.3392 122.110449,1345 118.806396,1345 L41.2937012,1345 L41.2937012,1199.68848 Z M86.592041,1256.68311 L106.118896,1256.68311 C113.123489,1256.68311 117.996894,1255.47714 120.739258,1253.06519 C123.481622,1250.65323 124.852783,1247.1675 124.852783,1242.60791 C124.852783,1238.37872 123.481622,1235.07472 120.739258,1232.6958 C117.996894,1230.31688 113.222609,1229.12744 106.41626,1229.12744 L86.592041,1229.12744 L86.592041,1256.68311 Z M86.592041,1313.77686 L109.489014,1313.77686 C117.220498,1313.77686 122.672103,1312.40569 125.843994,1309.66333 C129.015885,1306.92097 130.601807,1303.237 130.601807,1298.61133 C130.601807,1294.31606 129.032405,1290.86338 125.893555,1288.25317 C122.754704,1285.64297 117.253539,1284.33789 109.389893,1284.33789 L86.592041,1284.33789 L86.592041,1313.77686 Z M222.965986,1345 L244.789307,1345 L244.789307,1286.02295 L248.75415,1286.02295 C252.851176,1286.02295 256.51862,1287.14631 259.756592,1289.39307 C262.13551,1291.11117 264.844793,1294.8447 267.884521,1300.59375 L291.871826,1345 L342.621826,1345 L320.914307,1302.87354 C319.85701,1300.75894 317.758968,1297.7523 314.620117,1293.85352 C311.481267,1289.95473 309.085864,1287.41065 307.433838,1286.22119 C304.988839,1284.437 301.090115,1282.65284 295.737549,1280.86865 C302.411736,1279.34879 307.665101,1277.43247 311.497803,1275.11963 C317.511179,1271.48517 322.235904,1266.74393 325.672119,1260.89575 C329.108334,1255.04758 330.826416,1248.09265 330.826416,1240.03076 C330.826416,1230.77941 328.579694,1222.93241 324.086182,1216.4895 C319.59267,1210.0466 313.678503,1205.63575 306.343506,1203.25684 C299.008508,1200.87792 288.402657,1199.68848 274.525635,1199.68848 L199.689209,1199.68848 L199.689209,1274.39001 L222.965986,1345 Z M270.362549,979.115306 L270.362549,1059 L337.071045,1059 C345.066853,1059 353.987662,1057.6784 363.83374,1055.03516 C371.036576,1053.11881 377.776743,1049.26964 384.054443,1043.48755 C390.332144,1037.70546 395.238589,1030.53577 398.773926,1021.97827 C402.309262,1013.42077 404.076904,1001.37768 404.076904,985.848633 C404.076904,985.074162 404.069643,984.30292 404.05512,983.534906 L358.893409,982.041954 C358.949007,983.554438 358.976807,985.120694 358.976807,986.740723 C358.976807,998.370989 357.853445,1006.77968 355.606689,1011.96704 C353.359933,1017.1544 350.25417,1020.78881 346.289307,1022.87036 C342.324443,1024.95191 335.650356,1025.99268 326.266846,1025.99268 L315.264404,1025.99268 L315.264404,980.599669 L270.362549,979.115306 Z M422.039086,984.12942 C422.02491,984.895098 422.017822,985.666411 422.017822,986.443359 C422.017822,1003.42619 425.354866,1017.56733 432.029053,1028.86719 C438.70324,1040.16705 447.409289,1048.42706 458.147461,1053.64746 C468.885633,1058.86786 482.448567,1061.47803 498.83667,1061.47803 C514.09945,1061.47803 526.978761,1058.76911 537.474946,1053.35121 L508.136593,1026.28663 C504.909086,1027.3462 501.313511,1027.87598 497.349854,1027.87598 C487.966343,1027.87598 480.548855,1024.67109 475.097168,1018.26123 C469.849938,1012.09176 467.127966,1002.09634 466.931179,988.2747 L463.939141,985.51455 L422.039086,984.12942 Z M696.106415,1199.68848 L680.12915,1199.68848 L647.914795,1304.26123 L615.204834,1199.68848 L568.221436,1199.68848 L623.134521,1345 L671.802979,1345 L718.171548,1220.04353 L696.106415,1199.68848 Z M740.394775,1240.54442 L740.394775,1289.58631 L757.5,1256.32396 L740.394775,1240.54442 Z M971.628062,627.688477 L957.965576,627.688477 L957.965576,666.869788 L971.628062,627.688477 Z M925.552979,759.822714 L925.552979,627.688477 L880.552002,627.688477 L880.552002,773 L920.958071,773 L925.552979,759.822714 Z M781.330121,657.155748 C778.420295,647.794669 773.415258,640.598997 766.314941,635.568604 C764.918666,634.579378 763.431878,633.661008 761.854575,632.813493 L781.330121,657.155748 Z M606.688996,627.688477 L587.252686,627.688477 L587.252686,658.605106 L606.688996,627.688477 Z M843.341058,913.697257 C842.668771,913.691404 841.988435,913.688477 841.300049,913.688477 L766.463623,913.688477 L766.463623,1059 L811.563721,1059 L811.563721,1000.02295 L815.528564,1000.02295 C819.62559,1000.02295 823.293034,1001.14631 826.531006,1003.39307 C828.909924,1005.11117 831.619207,1008.8447 834.658936,1014.59375 L858.64624,1059 L909.39624,1059 L887.688721,1016.87354 C886.631424,1014.75894 884.533382,1011.7523 881.394531,1007.85352 C878.255681,1003.95473 875.860278,1001.41065 874.208252,1000.22119 C871.763253,998.437003 867.864529,996.652841 862.511963,994.868652 C869.18615,993.348788 874.439515,991.432466 878.272217,989.119629 C884.285593,985.485171 889.010318,980.743926 892.446533,974.895752 C895.722466,969.320367 897.436811,962.73907 897.589616,955.151681 L843.341058,913.697257 Z M992.063232,1002.75774 L992.063232,1059 L1058.77173,1059 C1066.76754,1059 1075.68835,1057.6784 1085.53442,1055.03516 C1092.73726,1053.11881 1099.47743,1049.26964 1105.75513,1043.48755 C1112.03283,1037.70546 1116.93927,1030.53577 1120.47461,1021.97827 C1124.00995,1013.42077 1125.77759,1001.37768 1125.77759,985.848633 C1125.77759,975.936474 1124.58815,966.553104 1122.20923,957.698242 C1119.83031,948.84338 1115.99767,941.078972 1110.71118,934.404785 C1105.4247,927.730598 1098.73409,922.609393 1090.63916,919.041016 C1082.54423,915.472638 1071.92186,913.688477 1058.77173,913.688477 L1047.24852,913.688477 L992.063232,1002.75774 Z M1501.63509,1292.36578 C1500.95024,1286.53007 1499.11974,1281.14483 1496.14355,1276.20996 C1492.27781,1269.8001 1486.09933,1264.43109 1477.60791,1260.10278 C1469.11649,1255.77447 1455.05796,1251.49579 1435.43188,1247.2666 C1427.50216,1245.61458 1422.48007,1243.83041 1420.36548,1241.91406 C1418.1848,1240.06379 1417.09448,1237.98227 1417.09448,1235.66943 C1417.09448,1232.49754 1418.41608,1229.80478 1421.05933,1227.59106 C1423.70257,1225.37735 1427.63433,1224.27051 1432.85474,1224.27051 C1439.19852,1224.27051 1444.17104,1225.75731 1447.77246,1228.73096 C1451.37388,1231.7046 1453.73624,1236.46237 1454.85962,1243.00439 L1497.18433,1240.52637 C1495.33406,1225.45989 1489.53553,1214.47407 1479.78857,1207.5686 C1470.04162,1200.66313 1455.88396,1197.21045 1437.31519,1197.21045 C1422.18262,1197.21045 1410.27169,1199.11025 1401.58203,1202.90991 C1392.89237,1206.70957 1386.38349,1211.9299 1382.05518,1218.57104 C1379.85099,1221.95304 1378.20805,1225.44211 1377.12636,1229.03829 L1501.63509,1292.36578 Z M1348.20532,1214.32851 L1348.20532,1199.68848 L1319.42143,1199.68848 L1348.20532,1214.32851 Z M1317.52088,1199.68848 L1303.40259,1199.68848 L1303.40259,1242.73167 L1317.52088,1199.68848 Z M1280.14161,1313.64862 C1279.64255,1313.66803 1279.13612,1313.67773 1278.62231,1313.67773 C1270.82475,1313.67773 1264.72886,1311.44753 1260.33447,1306.98706 C1255.94008,1302.52659 1253.74292,1296.33158 1253.74292,1288.40186 L1253.74292,1199.68848 L1208.94019,1199.68848 L1208.94019,1286.32031 C1208.94019,1293.45707 1210.32787,1301.651 1213.10327,1310.90234 C1214.82138,1316.6514 1218.00974,1322.23516 1222.66846,1327.65381 C1227.32717,1333.07246 1232.4649,1337.25202 1238.08179,1340.19263 C1243.69868,1343.13323 1250.68664,1345.09912 1259.0459,1346.09033 C1262.53572,1346.50414 1265.91322,1346.83158 1269.17843,1347.07263 L1280.14161,1313.64862 Z M1001.69723,1345 L1026.35913,1345 L1026.35913,1199.68848 L984.034424,1199.68848 L984.034424,1280.07568 L929.31958,1199.68848 L887.391357,1199.68848 L887.391357,1240.16549 L929.616943,1268.97116 L929.616943,1265.20752 L934.416792,1272.24555 L1007.34704,1321.99749 L1001.69723,1345 Z M860.727783,1221.97599 L860.727783,1199.68848 L828.057017,1199.68848 L860.727783,1221.97599 Z M438.670166,627.688477 L438.670166,773 L483.770264,773 L483.770264,719.078125 L508.352295,719.078125 C526.458505,719.078125 539.922319,714.948121 548.744141,706.687988 C557.565962,698.427856 561.976807,686.962964 561.976807,672.292969 C561.976807,658.01946 557.929402,647.017129 549.834473,639.285645 C541.739543,631.554161 529.56429,627.688477 513.30835,627.688477 L438.670166,627.688477 Z M483.770264,689.63916 L483.770264,657.226563 L496.556885,657.226563 C504.949179,657.226563 510.665105,658.812484 513.704834,661.984375 C516.744563,665.156266 518.264404,669.02195 518.264404,673.581543 C518.264404,678.273298 516.513282,682.122462 513.010986,685.12915 C509.50869,688.135839 503.429324,689.63916 494.772705,689.63916 L483.770264,689.63916 Z M811.563721,972.566406 L811.563721,943.02832 L831.288818,943.02832 C839.48287,943.02832 845.066636,944.283842 848.040283,946.794922 C851.013931,949.306002 852.500732,952.907366 852.500732,957.599121 C852.500732,960.771012 851.559091,963.579415 849.675781,966.024414 C847.792471,968.469413 845.364029,969.989255 842.390381,970.583984 C836.509167,971.905606 832.544362,972.566406 830.49585,972.566406 L811.563721,972.566406 Z M1036.96509,946.59668 L1048.16577,946.59668 C1059.79604,946.59668 1068.12213,949.438123 1073.14429,955.121094 C1078.16645,960.804065 1080.67749,971.343836 1080.67749,986.740723 C1080.67749,998.370989 1079.55413,1006.77968 1077.30737,1011.96704 C1075.06062,1017.1544 1071.95485,1020.78881 1067.98999,1022.87036 C1064.02513,1024.95191 1057.35104,1025.99268 1047.96753,1025.99268 L1036.96509,1025.99268 L1036.96509,946.59668 Z M1149.26929,913.688477 L1149.26929,1059 L1271.78296,1059 L1271.78296,1026.0918 L1194.27026,1026.0918 L1194.27026,997.445801 L1264.15063,997.445801 L1264.15063,967.808594 L1194.27026,967.808594 L1194.27026,944.713379 L1269.60229,944.713379 L1269.60229,913.688477 L1149.26929,913.688477 Z M244.789307,1258.56641 L244.789307,1229.02832 L264.514404,1229.02832 C272.708456,1229.02832 278.292221,1230.28384 281.265869,1232.79492 C284.239517,1235.306 285.726318,1238.90737 285.726318,1243.59912 C285.726318,1246.77101 284.784677,1249.57941 282.901367,1252.02441 C281.018057,1254.46941 278.589614,1255.98925 275.615967,1256.58398 C269.734752,1257.90561 265.769948,1258.56641 263.721436,1258.56641 L244.789307,1258.56641 Z M358.778564,1199.68848 L358.778564,1345 L403.779541,1345 L403.779541,1199.68848 L358.778564,1199.68848 Z M435.894775,1199.68848 L435.894775,1345 L558.408447,1345 L558.408447,1312.0918 L480.895752,1312.0918 L480.895752,1283.4458 L550.776123,1283.4458 L550.776123,1253.80859 L480.895752,1253.80859 L480.895752,1230.71338 L556.227783,1230.71338 L556.227783,1199.68848 L435.894775,1199.68848 Z M1056.2937,1199.68848 L1056.2937,1345 L1133.8064,1345 C1137.11045,1345 1143.81758,1344.3392 1153.92798,1343.01758 C1161.5273,1342.02636 1167.21019,1340.44044 1170.97681,1338.25977 C1177.05626,1334.75747 1181.84707,1329.9997 1185.34937,1323.98633 C1188.85166,1317.97295 1190.60278,1311.19974 1190.60278,1303.6665 C1190.60278,1294.41516 1188.1413,1286.73335 1183.21826,1280.62085 C1178.29522,1274.50835 1170.61341,1270.19663 1160.17261,1267.68555 C1167.04504,1265.30663 1172.26536,1262.06871 1175.83374,1257.97168 C1181.18631,1251.82614 1183.86255,1244.45821 1183.86255,1235.86768 C1183.86255,1225.62511 1180.1125,1217.0347 1172.6123,1210.09619 C1165.1121,1203.15768 1154.35757,1199.68848 1140.34839,1199.68848 L1056.2937,1199.68848 Z M1101.59204,1256.68311 L1101.59204,1229.12744 L1121.41626,1229.12744 C1128.22261,1229.12744 1132.99689,1230.31688 1135.73926,1232.6958 C1138.48162,1235.07472 1139.85278,1238.37872 1139.85278,1242.60791 C1139.85278,1247.1675 1138.48162,1250.65323 1135.73926,1253.06519 C1132.99689,1255.47714 1128.12349,1256.68311 1121.1189,1256.68311 L1101.59204,1256.68311 Z M1101.59204,1313.77686 L1101.59204,1284.33789 L1124.38989,1284.33789 C1132.25354,1284.33789 1137.7547,1285.64297 1140.89355,1288.25317 C1144.03241,1290.86338 1145.60181,1294.31606 1145.60181,1298.61133 C1145.60181,1303.237 1144.01589,1306.92097 1140.84399,1309.66333 C1137.6721,1312.40569 1132.2205,1313.77686 1124.48901,1313.77686 L1101.59204,1313.77686 Z" id="Combined-Shape" fill="#000000"></path>
    </g>
</svg>