<?xml version="1.0" encoding="UTF-8"?>
<svg width="1680px" height="950px" viewBox="0 0 1680 950" version="1.1" xmlns="http://www.w3.org/2000/svg" xmlns:xlink="http://www.w3.org/1999/xlink">
    <!-- Generator: Sketch 52.3 (67297) - http://www.bohemiancoding.com/sketch -->
    <title>2-desktop</title>
    <desc>Created with Sketch.</desc>
    <g id="2-desktop" stroke="none" stroke-width="1" fill="none" fill-rule="evenodd">
        <path d="M171.594238,194.267895 L171.594238,194 L203.419434,194 L203.419434,220.416579 L224.64887,237.859419 L203.419434,250.166801 L203.419434,303.520508 L171.818359,303.520508 L154.719936,278.399455 L130.580078,292.394102 L130.580078,303.520508 L111.387749,303.520508 L40.764486,344.463069 L40.764486,383.006416 L86.3255463,383.006416 L92.0303583,421.267519 L124.678223,469.13916 L124.678223,409 L156.503418,409 L156.503418,515.094306 L176.599609,515.924931 L176.599609,495.137207 L233.376953,495.137207 L233.376953,477.730469 L180.708496,477.730469 L180.708496,455.393066 L233.376953,455.393066 L233.376953,433.802734 L174.956055,433.802734 L174.956055,409 L267.293945,409 L267.293945,518.520508 L239.39714,518.520508 L297.67359,520.929217 L129.377745,672.599236 L330.242389,812.93056 L-58,984 L-58,383.006416 L-58,77.9839392 L30.0666697,77.9839392 L171.594238,194.267895 Z M101.377633,483.957934 L105.707087,512.994769 L121.588071,513.651169 L101.377633,483.957934 Z M795.502881,194 L798.38623,194 L798.38623,303.520508 L764.543945,303.520508 L764.543945,284.119531 L600.356819,409 L658.310547,409 L658.310547,430.998461 L683.937469,430.998461 C683.998045,430.81025 684.059498,430.624402 684.121826,430.440918 C686.338146,423.916471 690.795621,418.388206 697.494385,413.855957 C704.193149,409.323708 712.77192,407.057617 723.230957,407.057617 C734.287653,407.057617 742.853974,408.551743 748.930176,411.540039 C755.006378,414.528335 759.700423,418.898653 763.012451,424.651123 C764.140058,426.609598 765.110348,428.725375 765.923323,430.998461 L784.56543,430.998461 L784.56543,409 L818.482422,409 L818.482422,430.998461 L835.216797,430.998461 L835.216797,409 L921.876953,409 L921.876953,518.520508 L888.034668,518.520508 L888.034668,460.704979 L762.305057,575.82746 L873.426745,624 L904.395508,624 L904.395508,637.425318 L920.478279,644.397386 L905.634474,743.840895 L1310.61029,874.308127 L1511.26725,753.097143 L1587.47454,858.720812 L1591.95838,791.837891 L1686.60452,840.981282 L1689.17095,956.002299 L478.621239,956.002299 L607.388298,778.861906 L299.879058,708.288466 L364.807756,567.890499 L501.065198,591.307106 L572.030903,518.520508 L567.616211,518.520508 L567.616211,495.137207 L594.829226,495.137207 L611.800502,477.730469 L571.725098,477.730469 L571.725098,455.393066 L624.393555,455.393066 L624.393555,433.802734 L567.747319,433.802734 L558.951754,440.492628 L547.295898,436.286902 L547.295898,518.520508 L490.89209,518.520508 C480.433053,518.520508 472.439481,517.624032 466.911133,515.831055 C461.382785,514.038077 456.92531,510.713647 453.538574,505.857666 C450.151839,501.001685 448.458496,495.087437 448.458496,488.114746 C448.458496,482.038544 449.753405,476.796653 452.343262,472.388916 C454.933118,467.981179 458.494118,464.407729 463.026367,461.668457 C465.915054,459.925284 469.874487,458.480963 474.904785,457.335449 C470.870585,455.990716 467.932138,454.646003 466.089355,453.30127 C464.844232,452.404781 463.03883,450.487319 460.673096,447.548828 C458.307361,444.610337 456.726078,442.344246 455.929199,440.750488 L439.568359,409 L471.672283,409 L296.047406,345.630129 L333.890107,271.475991 C334.104415,266.091033 335.388595,261.395381 337.742676,257.388916 C339.759352,253.956689 342.364876,251.030328 345.5593,248.609783 L351.00991,237.929119 C349.796482,236.923569 348.150694,235.130151 346.07251,232.548828 C343.706775,229.610337 342.125492,227.344246 341.328613,225.750488 L324.967773,194 L363.217773,194 L368.467982,203.719395 L403.152191,135.754438 L802.600132,43.3616925 L795.502881,194 Z M513.304199,424.021842 L479.306307,411.754548 L495.897461,442.46875 C498.188488,446.801779 500.23046,449.615716 502.023437,450.910645 C504.463879,452.604012 507.228012,453.450684 510.315918,453.450684 L513.304199,453.450684 L513.304199,424.021842 Z M1391.4002,194 L1413.00098,194 L1371.8374,303.520508 L1349.20146,303.520508 L1298.91826,434.023003 L1303.48047,442.46875 C1305.7715,446.801779 1307.81347,449.615716 1309.60645,450.910645 C1312.04689,452.604012 1314.81102,453.450684 1317.89893,453.450684 L1320.88721,453.450684 L1320.88721,409 L1354.87891,409 L1354.87891,518.520508 L1298.4751,518.520508 C1288.01606,518.520508 1280.02249,517.624032 1274.49414,515.831055 C1272.32553,515.12772 1270.3217,514.188731 1268.48264,513.01408 L1234.0483,602.38324 L941.19565,530.971293 L966.529658,516.796926 C960.887119,514.600311 956.17553,511.302556 952.394775,506.903564 C948.435283,502.296608 945.459483,496.457067 943.467285,489.384766 L976.114258,483.557617 C977.458991,487.691427 979.737533,490.853993 982.949951,493.04541 C986.16237,495.236827 990.258764,496.33252 995.239258,496.33252 C1002.66019,496.33252 1008.57444,493.755153 1012.98218,488.600342 C1017.38991,483.445531 1019.59375,475.290095 1019.59375,464.133789 C1019.59375,452.280214 1017.36501,443.813502 1012.90747,438.733398 C1008.44993,433.653295 1002.23686,431.113281 994.268066,431.113281 C990.482891,431.113281 986.872087,431.661127 983.435547,432.756836 C979.999006,433.852545 976.064475,435.720202 971.631836,438.359863 L971.631836,448.669434 L994.268066,448.669434 L994.268066,471.455078 L941.973145,471.455078 L941.973145,424.763184 C951.983937,417.939907 960.836631,413.295667 968.531494,410.830322 C976.226357,408.364978 985.352975,407.132324 995.911621,407.132324 C1008.91071,407.132324 1019.50655,409.348611 1027.69946,413.78125 C1035.89237,418.213889 1042.24241,424.812944 1046.74976,433.578613 C1051.2571,442.344282 1053.51074,452.404728 1053.51074,463.760254 C1053.51074,465.263625 1053.47174,466.742374 1053.39375,468.1965 L1071.81396,457.890397 L1071.81396,409 L1103.71387,409 L1119.03739,431.468912 L1144.72803,417.095008 L1144.72803,409 L1159.19633,409 L1193.19231,389.979261 L996.532175,303.520508 L937.416016,303.520508 L937.416016,280.137207 L943.344233,280.137207 L930.719677,274.587005 L944.215968,262.730469 L941.524902,262.730469 L941.524902,240.393066 L969.642625,240.393066 L994.193359,218.825164 L994.193359,218.802734 L935.772461,218.802734 L935.772461,194 L1022.45183,194 L1193.92336,43.3616925 L1408.97122,148.397056 L1391.4002,194 Z M1529.24512,258.824032 L1529.24512,303.520508 L1495.40283,303.520508 L1495.40283,272.0036 L1482.69707,276.951743 L1459.91699,303.520508 L1414.94336,303.520508 L1454.83691,262.20752 L1413.15039,194 L1454.83691,194 L1456.04175,196.351191 L1443.45705,-13.8242278 L1712,-13.8242278 L1712,187.651814 L1529.24512,258.824032 Z M1385.45295,518.520508 L1375.19922,518.520508 L1375.19922,495.137207 L1403.06016,495.137207 L1416.16712,477.730469 L1379.30811,477.730469 L1379.30811,455.393066 L1431.97656,455.393066 L1431.97656,433.802734 L1373.55566,433.802734 L1373.55566,409 L1465.89355,409 L1465.89355,411.691135 L1515.63631,345.630129 L1712,393.479572 L1686.60452,811.451903 L1371.72206,536.755855 L1385.45295,518.520508 Z M14.5222086,-0.897519546 L14.5222086,-45 L452.690517,-38.6229771 L413.683998,85.1051694 L258.66612,62.8018449 L258.66612,19.2332476 L14.5222086,-0.897519546 Z M943.317366,-15.3247447 L1172.54432,-40.348772 L977.770238,71.1228518 L943.317366,-15.3247447 Z M1159.59473,733.520508 L1125.75244,733.520508 L1125.75244,695.195801 L1088.77246,695.195801 L1088.77246,733.520508 L1054.78076,733.520508 L1054.78076,624 L1088.77246,624 L1088.77246,668.30127 L1125.75244,668.30127 L1125.75244,624 L1159.59473,624 L1159.59473,733.520508 Z M1036.55225,678.685547 C1036.55225,696.565519 1031.57183,710.48579 1021.61084,720.446777 C1011.64985,730.407765 997.779386,735.388184 979.999023,735.388184 C961.770417,735.388184 947.725635,730.494922 937.864258,720.708252 C928.00288,710.921582 923.072266,697.212979 923.072266,679.582031 C923.072266,666.782163 925.226297,656.28593 929.534424,648.093018 C933.842551,639.900106 940.068075,633.525169 948.211182,628.968018 C956.354289,624.410866 966.501892,622.132324 978.654297,622.132324 C991.005921,622.132324 1001.22823,624.09959 1009.32153,628.03418 C1017.41484,631.96877 1023.97654,638.194293 1029.00684,646.710938 C1034.03713,655.227582 1036.55225,665.885678 1036.55225,678.685547 Z M1002.70996,678.536133 C1002.70996,667.479437 1000.65554,659.535669 996.546631,654.70459 C992.437724,649.873511 986.847203,647.458008 979.774902,647.458008 C972.503382,647.458008 966.875508,649.823707 962.891113,654.555176 C958.906718,659.286645 956.914551,667.778259 956.914551,680.030273 C956.914551,690.339895 958.993876,697.872779 963.152588,702.62915 C967.3113,707.385522 972.951625,709.763672 980.07373,709.763672 C986.897007,709.763672 992.375468,707.348169 996.509277,702.51709 C1000.64309,697.686011 1002.70996,689.692439 1002.70996,678.536133 Z M1320.88721,474.144531 L1306.61816,474.144531 C1305.07421,474.144531 1302.08596,474.642573 1297.65332,475.638672 C1295.4121,476.086916 1293.58179,477.232413 1292.16235,479.075195 C1290.74291,480.917978 1290.0332,483.034656 1290.0332,485.425293 C1290.0332,488.961443 1291.1538,491.675772 1293.39502,493.568359 C1295.63624,495.460947 1299.8447,496.407227 1306.02051,496.407227 L1320.88721,496.407227 L1320.88721,474.144531 Z M513.304199,474.144531 L499.035156,474.144531 C497.491203,474.144531 494.502952,474.642573 490.070312,475.638672 C487.82909,476.086916 485.998786,477.232413 484.579346,479.075195 C483.159905,480.917978 482.450195,483.034656 482.450195,485.425293 C482.450195,488.961443 483.57079,491.675772 485.812012,493.568359 C488.053234,495.460947 492.261688,496.407227 498.4375,496.407227 L513.304199,496.407227 L513.304199,474.144531 Z M434.637695,445.23291 L402.438965,447.25 C401.741696,442.020482 400.322276,438.036147 398.180664,435.296875 C394.694319,430.864236 389.7139,428.647949 383.239258,428.647949 C378.408179,428.647949 374.685316,429.780995 372.070557,432.047119 C369.455797,434.313244 368.148437,436.940415 368.148437,439.928711 C368.148437,442.767592 369.393542,445.307606 371.883789,447.548828 C374.374036,449.79005 380.151322,451.906728 389.21582,453.898926 C404.057691,457.235857 414.641082,461.668429 420.966309,467.196777 C427.34134,472.725125 430.528809,479.772418 430.528809,488.338867 C430.528809,493.966825 428.897721,499.283422 425.635498,504.288818 C422.373275,509.294214 417.467562,513.228745 410.918213,516.092529 C404.368864,518.956313 395.391659,520.388184 383.986328,520.388184 C369.991141,520.388184 359.320593,517.785915 351.974365,512.581299 C344.628137,507.376683 340.257819,499.096736 338.863281,487.741211 L370.763184,485.873535 C371.609868,490.804224 373.390367,494.390126 376.104736,496.631348 C378.819105,498.87257 382.566871,499.993164 387.348145,499.993164 C391.282735,499.993164 394.246084,499.158944 396.238281,497.490479 C398.230479,495.822013 399.226562,493.792492 399.226562,491.401855 C399.226562,489.658683 398.404793,488.089851 396.76123,486.695313 C395.167472,485.250969 391.382354,483.906256 385.405762,482.661133 C370.613696,479.473617 360.017854,476.248796 353.61792,472.986572 C347.217986,469.724349 342.561294,465.677759 339.647705,460.84668 C336.734116,456.015601 335.277344,450.611846 335.277344,444.635254 C335.277344,437.612758 337.219707,431.138213 341.104492,425.211426 C344.989277,419.284638 350.417934,414.78981 357.390625,411.726807 C364.363316,408.663803 373.153756,407.132324 383.762207,407.132324 C402.389253,407.132324 415.288538,410.718226 422.460449,417.890137 C429.63236,425.062048 433.691402,434.176214 434.637695,445.23291 Z M917.095703,194 L917.095703,303.520508 L860.691895,303.520508 C850.232858,303.520508 842.239285,302.624032 836.710937,300.831055 C831.18259,299.038077 826.725115,295.713647 823.338379,290.857666 C819.951643,286.001685 818.258301,280.087437 818.258301,273.114746 C818.258301,267.038544 819.55321,261.796653 822.143066,257.388916 C824.732923,252.981179 828.293923,249.407729 832.826172,246.668457 C835.714858,244.925284 839.674291,243.480963 844.70459,242.335449 C840.67039,240.990716 837.731943,239.646003 835.88916,238.30127 C834.644037,237.404781 832.838635,235.487319 830.4729,232.548828 C828.107166,229.610337 826.525883,227.344246 825.729004,225.750488 L809.368164,194 L847.618164,194 L865.697266,227.46875 C867.988293,231.801779 870.030264,234.615716 871.823242,235.910645 C874.263684,237.604012 877.027817,238.450684 880.115723,238.450684 L883.104004,238.450684 L883.104004,194 L917.095703,194 Z M883.104004,259.144531 L868.834961,259.144531 C867.291008,259.144531 864.302757,259.642573 859.870117,260.638672 C857.628895,261.086916 855.798591,262.232413 854.37915,264.075195 C852.95971,265.917978 852.25,268.034656 852.25,270.425293 C852.25,273.961443 853.370594,276.675772 855.611816,278.568359 C857.853039,280.460947 862.061493,281.407227 868.237305,281.407227 L883.104004,281.407227 L883.104004,259.144531 Z M314.209961,303.520508 L223.515625,303.520508 L223.515625,280.137207 L280.292969,280.137207 L280.292969,262.730469 L227.624512,262.730469 L227.624512,240.393066 L280.292969,240.393066 L280.292969,218.802734 L221.87207,218.802734 L221.87207,194 L314.209961,194 L314.209961,303.520508 Z M171.594238,194.267895 L171.594238,254.13916 L130.580078,194 L98.6801758,194 L98.6801758,303.520508 L111.387749,303.520508 L130.580078,292.394102 L130.580078,242.933105 L154.719936,278.399455 L203.419434,250.166801 L203.419434,220.416579 L171.594238,194.267895 Z M92.0303583,421.267519 L83.6640625,409 L51.7641602,409 L51.7641602,518.520508 L83.6640625,518.520508 L83.6640625,457.933105 L101.377633,483.957934 L92.0303583,421.267519 Z M121.588071,513.651169 L124.902344,518.520508 L156.503418,518.520508 L156.503418,515.094306 L121.588071,513.651169 Z M176.599609,515.924931 L176.599609,518.520508 L239.39714,518.520508 L176.599609,515.924931 Z M795.502881,194 L764.543945,194 L764.543945,238.30127 L727.563965,238.30127 L727.563965,194 L693.572266,194 L693.572266,303.520508 L727.563965,303.520508 L727.563965,265.195801 L764.543945,265.195801 L764.543945,284.119531 L792.249787,263.046511 L795.502881,194 Z M600.356819,409 L565.972656,409 L565.972656,433.802734 L567.747319,433.802734 L600.356819,409 Z M547.295898,436.286902 L547.295898,409 L513.304199,409 L513.304199,424.021842 L547.295898,436.286902 Z M479.306307,411.754548 L477.818359,409 L471.672283,409 L479.306307,411.754548 Z M333.890107,271.475991 C333.868642,272.015328 333.85791,272.56158 333.85791,273.114746 C333.85791,280.087437 335.551253,286.001685 338.937988,290.857666 C342.324724,295.713647 346.782199,299.038077 352.310547,300.831055 C357.838895,302.624032 365.832467,303.520508 376.291504,303.520508 L432.695312,303.520508 L432.695312,194 L398.703613,194 L398.703613,238.450684 L395.715332,238.450684 C392.627426,238.450684 389.863293,237.604012 387.422852,235.910645 C385.629874,234.615716 383.587902,231.801779 381.296875,227.46875 L368.467982,203.719395 L351.00991,237.929119 C351.177807,238.068253 351.337427,238.192303 351.48877,238.30127 C353.331552,239.646003 356.269999,240.990716 360.304199,242.335449 C355.273901,243.480963 351.314468,244.925284 348.425781,246.668457 C347.422715,247.274706 346.467222,247.921814 345.5593,248.609783 L333.890107,271.475991 Z M1391.4002,194 L1378.41162,194 L1373.10742,212.079102 L1334.55859,212.079102 L1329.17969,194 L1293.76855,194 L1334.93213,303.520508 L1349.20146,303.520508 L1391.4002,194 Z M1298.91826,434.023003 L1285.40137,409 L1247.15137,409 L1263.51221,440.750488 C1264.30909,442.344246 1265.89037,444.610337 1268.2561,447.548828 C1270.62184,450.487319 1272.42724,452.404781 1273.67236,453.30127 C1275.51515,454.646003 1278.45359,455.990716 1282.48779,457.335449 C1277.45749,458.480963 1273.49806,459.925284 1270.60937,461.668457 C1266.07713,464.407729 1262.51613,467.981179 1259.92627,472.388916 C1257.33641,476.796653 1256.0415,482.038544 1256.0415,488.114746 C1256.0415,495.087437 1257.73485,501.001685 1261.12158,505.857666 C1263.1798,508.808784 1265.63347,511.194248 1268.48264,513.01408 L1298.91826,434.023003 Z M966.529672,516.796919 C966.796428,516.900765 967.065264,517.00215 967.336182,517.101074 C973.337676,519.292491 982.389588,520.388184 994.492187,520.388184 C1007.04303,520.388184 1017.02877,518.620135 1024.44971,515.083984 C1033.96245,510.50193 1041.18406,503.790816 1046.11475,494.950439 C1050.42529,487.221931 1052.85161,478.304021 1053.39375,468.1965 L966.529658,516.796926 Z M1071.81396,457.890397 L1071.81396,518.520508 L1103.71387,518.520508 L1103.71387,457.933105 L1144.95215,518.520508 L1176.55322,518.520508 L1176.55322,409 L1159.19633,409 L1144.72803,417.095008 L1144.72803,469.13916 L1119.03739,431.468912 L1071.81396,457.890397 Z M996.532175,303.520508 L1028.11035,303.520508 L1028.11035,194 L1022.45183,194 L994.193359,218.825164 L994.193359,240.393066 L969.642625,240.393066 L944.215968,262.730469 L994.193359,262.730469 L994.193359,280.137207 L943.344233,280.137207 L996.532175,303.520508 Z M1529.24512,258.824032 L1529.24512,194 L1495.40283,194 L1495.40283,220.745117 L1477.92139,239.04834 L1456.04175,196.351191 L1461.36531,285.259201 L1482.69707,276.951743 L1495.40283,262.132813 L1495.40283,272.0036 L1529.24512,258.824032 Z M1385.45295,518.520508 L1465.89355,518.520508 L1465.89355,411.691135 L1416.16712,477.730469 L1431.97656,477.730469 L1431.97656,495.137207 L1403.06016,495.137207 L1385.45295,518.520508 Z M658.310547,430.998461 L657.36342,430.998461 L611.800502,477.730469 L624.393555,477.730469 L624.393555,495.137207 L594.829226,495.137207 L572.030903,518.520508 L658.310547,518.520508 L658.310547,430.998461 Z M683.937469,430.998461 C681.844055,437.502766 680.797363,446.829526 680.797363,458.979004 L680.797363,518.520508 L714.714355,518.520508 L714.714355,450.985352 C714.714355,444.31149 715.59838,439.567641 717.366455,436.753662 C719.13453,433.939683 721.911114,432.532715 725.696289,432.532715 C728.086926,432.532715 729.929681,433.005855 731.224609,433.952148 C733.117197,435.396492 734.46191,437.289051 735.258789,439.629883 C736.055668,441.970715 736.479004,445.556616 736.528809,450.387695 L768.876953,445.97998 C768.482772,440.395745 767.498234,435.401926 765.923323,430.998461 L683.937469,430.998461 Z M784.56543,430.998461 L784.56543,518.520508 L818.482422,518.520508 L818.482422,430.998461 L784.56543,430.998461 Z M835.216797,430.998461 L835.216797,435.969238 L888.034668,435.969238 L888.034668,460.704979 L920.478279,430.998461 L835.216797,430.998461 Z M873.426745,624 L870.403809,624 L870.403809,668.450684 L867.415527,668.450684 C864.327621,668.450684 861.563489,667.604012 859.123047,665.910645 C857.330069,664.615716 855.288097,661.801779 852.99707,657.46875 L834.917969,624 L796.667969,624 L813.028809,655.750488 C813.825688,657.344246 815.406971,659.610337 817.772705,662.548828 C820.13844,665.487319 821.943841,667.404781 823.188965,668.30127 C825.031747,669.646003 827.970195,670.990716 832.004395,672.335449 C826.974096,673.480963 823.014663,674.925284 820.125977,676.668457 C815.593727,679.407729 812.032728,682.981179 809.442871,687.388916 C806.853014,691.796653 805.558105,697.038544 805.558105,703.114746 C805.558105,710.087437 807.251448,716.001685 810.638184,720.857666 C814.024919,725.713647 818.482394,729.038077 824.010742,730.831055 C829.53909,732.624032 837.532663,733.520508 847.991699,733.520508 L904.395508,733.520508 L904.395508,637.425318 L873.426745,624 Z M870.403809,689.144531 L870.403809,711.407227 L855.537109,711.407227 C849.361297,711.407227 845.152843,710.460947 842.911621,708.568359 C840.670399,706.675772 839.549805,703.961443 839.549805,700.425293 C839.549805,698.034656 840.259514,695.917978 841.678955,694.075195 C843.098396,692.232413 844.9287,691.086916 847.169922,690.638672 C851.602561,689.642573 854.590813,689.144531 856.134766,689.144531 L870.403809,689.144531 Z M785.387207,733.520508 L785.387207,624 L735.109375,624 C729.082978,624 722.359412,624.996084 714.938477,626.988281 C709.509738,628.432624 704.429711,631.333718 699.698242,635.69165 C694.966773,640.049582 691.268812,645.453337 688.604248,651.903076 C685.939684,658.352815 684.607422,667.429629 684.607422,679.133789 C684.607422,686.60453 685.503897,693.676724 687.296875,700.350586 C689.089853,707.024447 691.978496,712.87644 695.962891,717.906738 C699.947286,722.937037 704.98996,726.796862 711.091064,729.486328 C717.192169,732.175795 725.198193,733.520508 735.109375,733.520508 L785.387207,733.520508 Z M751.544922,708.717773 L743.103027,708.717773 C734.337359,708.717773 728.062031,706.576193 724.276855,702.292969 C720.49168,698.009744 718.599121,690.065976 718.599121,678.461426 C718.599121,669.695757 719.445792,663.358174 721.13916,659.448486 C722.832528,655.538799 725.173325,652.799568 728.161621,651.230713 C731.149917,649.661857 736.18014,648.877441 743.252441,648.877441 L751.544922,648.877441 L751.544922,708.717773 Z M666.901855,733.520508 L666.901855,624 L574.563965,624 L574.563965,648.802734 L632.984863,648.802734 L632.984863,670.393066 L580.316406,670.393066 L580.316406,692.730469 L632.984863,692.730469 L632.984863,710.137207 L576.20752,710.137207 L576.20752,733.520508 L666.901855,733.520508 Z M562.237305,660.23291 C561.291011,649.176214 557.231969,640.062048 550.060059,632.890137 C542.888148,625.718226 529.988863,622.132324 511.361816,622.132324 C500.753365,622.132324 491.962925,623.663803 484.990234,626.726807 C478.017543,629.78981 472.588887,634.284638 468.704102,640.211426 C464.819317,646.138213 462.876953,652.612758 462.876953,659.635254 C462.876953,665.611846 464.333726,671.015601 467.247314,675.84668 C470.160903,680.677759 474.817595,684.724349 481.217529,687.986572 C487.617464,691.248796 498.213305,694.473617 513.005371,697.661133 C518.981963,698.906256 522.767082,700.250969 524.36084,701.695313 C526.004403,703.089851 526.826172,704.658683 526.826172,706.401855 C526.826172,708.792492 525.830088,710.822013 523.837891,712.490479 C521.845693,714.158944 518.882344,714.993164 514.947754,714.993164 C510.16648,714.993164 506.418715,713.87257 503.704346,711.631348 C500.989977,709.390126 499.209477,705.804224 498.362793,700.873535 L466.462891,702.741211 C467.857429,714.096736 472.227746,722.376683 479.573975,727.581299 C486.920203,732.785915 497.59075,735.388184 511.585937,735.388184 C522.991268,735.388184 531.968473,733.956313 538.517822,731.092529 C545.067171,728.228745 549.972884,724.294214 553.235107,719.288818 C556.497331,714.283422 558.128418,708.966825 558.128418,703.338867 C558.128418,694.772418 554.94095,687.725125 548.565918,682.196777 C542.240691,676.668429 531.657301,672.235857 516.81543,668.898926 C507.750931,666.906728 501.973645,664.79005 499.483398,662.548828 C496.993152,660.307606 495.748047,657.767592 495.748047,654.928711 C495.748047,651.940415 497.055407,649.313244 499.670166,647.047119 C502.284925,644.780995 506.007788,643.647949 510.838867,643.647949 C517.313509,643.647949 522.293928,645.864236 525.780273,650.296875 C527.921886,653.036147 529.341305,657.020482 530.038574,662.25 L562.237305,660.23291 Z M1584.00537,518.520508 L1584.00537,491.476563 L1549.49072,491.476563 L1549.49072,409 L1515.64844,409 L1515.64844,491.476563 L1481.13379,491.476563 L1481.13379,518.520508 L1584.00537,518.520508 Z M1234.97412,518.520508 L1234.97412,409 L1201.05713,409 L1201.05713,518.520508 L1234.97412,518.520508 Z M1341.65576,235.76123 L1365.78613,235.76123 L1353.7583,275.131836 L1341.65576,235.76123 Z M1282.71191,303.520508 L1282.71191,194 L1250.88672,194 L1250.88672,254.13916 L1209.87256,194 L1177.97266,194 L1177.97266,303.520508 L1209.87256,303.520508 L1209.87256,242.933105 L1251.11084,303.520508 L1282.71191,303.520508 Z M1155.33643,303.520508 L1155.33643,194 L1121.49414,194 L1121.49414,220.745117 L1104.0127,239.04834 L1080.92822,194 L1039.2417,194 L1080.92822,262.20752 L1041.03467,303.520508 L1086.0083,303.520508 L1121.49414,262.132813 L1121.49414,303.520508 L1155.33643,303.520508 Z M675.34375,248.685547 C675.34375,235.885678 672.828638,225.227582 667.79834,216.710938 C662.768041,208.194293 656.206339,201.96877 648.113037,198.03418 C640.019735,194.09959 629.797425,192.132324 617.445801,192.132324 C605.293396,192.132324 595.145793,194.410866 587.002686,198.968018 C578.859578,203.525169 572.634055,209.900106 568.325928,218.093018 C564.017801,226.28593 561.86377,236.782163 561.86377,249.582031 C561.86377,267.212979 566.794384,280.921582 576.655762,290.708252 C586.517139,300.494922 600.561921,305.388184 618.790527,305.388184 C636.57089,305.388184 650.441356,300.407765 660.402344,290.446777 C670.363331,280.48579 675.34375,266.565519 675.34375,248.685547 Z M641.501465,248.536133 C641.501465,259.692439 639.434591,267.686011 635.300781,272.51709 C631.166972,277.348169 625.688511,279.763672 618.865234,279.763672 C611.743128,279.763672 606.102804,277.385522 601.944092,272.62915 C597.78538,267.872779 595.706055,260.339895 595.706055,250.030273 C595.706055,237.778259 597.698222,229.286645 601.682617,224.555176 C605.667012,219.823707 611.294886,217.458008 618.566406,217.458008 C625.638707,217.458008 631.229228,219.873511 635.338135,224.70459 C639.447042,229.535669 641.501465,237.479437 641.501465,248.536133 Z M543.709961,303.520508 L543.709961,194 L451.37207,194 L451.37207,218.802734 L509.792969,218.802734 L509.792969,240.393066 L457.124512,240.393066 L457.124512,262.730469 L509.792969,262.730469 L509.792969,280.137207 L453.015625,280.137207 L453.015625,303.520508 L543.709961,303.520508 Z M398.703613,259.144531 L398.703613,281.407227 L383.836914,281.407227 C377.661102,281.407227 373.452648,280.460947 371.211426,278.568359 C368.970204,276.675772 367.849609,273.961443 367.849609,270.425293 C367.849609,268.034656 368.559319,265.917978 369.97876,264.075195 C371.3982,262.232413 373.228504,261.086916 375.469727,260.638672 C379.902366,259.642573 382.890617,259.144531 384.43457,259.144531 L398.703613,259.144531 Z" id="Combined-Shape" fill="#000000" transform="translate(827.000000, 469.500000) rotate(-180.000000) translate(-827.000000, -469.500000) "></path>
    </g>
</svg>