<?xml version="1.0" encoding="UTF-8"?>
<svg width="1536px" height="1971px" viewBox="0 0 1536 1971" version="1.1" xmlns="http://www.w3.org/2000/svg" xmlns:xlink="http://www.w3.org/1999/xlink">
    <!-- Generator: Sketch 52.3 (67297) - http://www.bohemiancoding.com/sketch -->
    <title>2-tablet</title>
    <desc>Created with Sketch.</desc>
    <g id="2-tablet" stroke="none" stroke-width="1" fill="none" fill-rule="evenodd">
        <path d="M154.073791,1323 L127.163086,1323 L104.078613,1277.95166 L86.597168,1296.25488 L86.597168,1323 L52.7548828,1323 L52.7548828,1213.47949 L86.597168,1213.47949 L86.597168,1254.86719 L119.219027,1216.8198 L51,1009 L411.673241,1020.97368 L619.470674,1213.47949 L644.583984,1213.47949 L644.583984,1236.74474 L664.904297,1255.5697 L664.904297,1213.47949 L721.308105,1213.47949 C730.310338,1213.47949 737.486087,1214.14363 742.835505,1215.47191 L687.5,1177.5109 L687.5,1108 L660.1604,1108 L660.1604,998.479492 L687.5,998.479492 L687.5,879.548636 C684.486448,876.338957 681.89767,872.629881 679.733643,868.421387 C675.226296,859.655718 672.972656,849.595272 672.972656,838.239746 C672.972656,826.286561 675.437964,815.889937 680.368652,807.049561 C685.299341,798.209184 692.520949,791.49807 702.033691,786.916016 C709.454627,783.379865 719.440367,781.611816 731.991211,781.611816 C744.093811,781.611816 753.145722,782.707509 759.147217,784.898926 C765.148712,787.090343 770.129131,790.489479 774.088623,795.096436 C778.048116,799.703392 781.023916,805.542933 783.016113,812.615234 L750.369141,818.442383 C749.024407,814.308573 746.745866,811.146007 743.533447,808.95459 C740.321029,806.763173 736.224634,805.66748 731.244141,805.66748 C723.823205,805.66748 717.908958,808.244847 713.501221,813.399658 C709.093484,818.554469 706.889648,826.709905 706.889648,837.866211 C706.889648,849.719786 709.118386,858.186498 713.575928,863.266602 C718.03347,868.346705 724.246542,870.886719 732.215332,870.886719 C736.000507,870.886719 739.611311,870.338873 743.047852,869.243164 C746.484392,868.147455 750.418923,866.279798 754.851563,863.640137 L754.851563,853.330566 L732.215332,853.330566 L732.215332,830.544922 L784.510254,830.544922 L784.510254,877.236816 C774.499462,884.060093 765.646767,888.704333 757.951904,891.169678 C750.257042,893.635022 741.130424,894.867676 730.571777,894.867676 C724.190034,894.867676 718.38752,894.333507 713.1642,893.26516 L850.082254,998.479492 L875.690186,998.479492 L875.690186,1018.15784 L925.293685,1056.27553 L1028.80733,888.266102 C1022.13537,892.716978 1013.61716,894.942383 1003.25244,894.942383 C992.195745,894.942383 983.629425,893.448257 977.553223,890.459961 C971.47702,887.471665 966.782976,883.101347 963.470947,877.348877 C960.158919,871.596407 958.204105,864.486859 957.606445,856.02002 L989.95459,851.612305 C990.004395,856.443384 990.42773,860.029285 991.224609,862.370117 C992.021488,864.710949 993.366201,866.603508 995.258789,868.047852 C996.553717,868.994145 998.396472,869.467285 1000.78711,869.467285 C1004.57228,869.467285 1007.34887,868.060317 1009.11694,865.246338 C1010.88502,862.432359 1011.76904,857.68851 1011.76904,851.014648 L1011.76904,783.479492 L1045.68604,783.479492 L1045.68604,843.020996 C1045.68604,855.522035 1044.57789,865.034635 1042.36157,871.559082 C1042.08936,872.360427 1041.78334,873.146744 1041.44351,873.918034 L1068.17285,876.725367 L1068.17285,783.479492 L1158.86719,783.479492 L1158.86719,806.862793 L1102.08984,806.862793 L1102.08984,824.269531 L1154.7583,824.269531 L1154.7583,846.606934 L1102.08984,846.606934 L1102.08984,868.197266 L1160.51074,868.197266 L1160.51074,886.423441 L1179.1875,888.385026 L1179.1875,783.479492 L1235.59131,783.479492 C1241.03084,783.479492 1245.80351,783.721974 1249.90935,784.20694 L1415.36693,422.837794 L1216.35149,191.025876 L1389.77423,102.986272 L1279.95965,97.8062581 L1360.64783,-11.5350996 L1549.5,-14.5 L1549.5,1384.00545 L1410.40576,1312.86231 L1410.40576,1323 L1378.58057,1323 L1378.58057,1296.58453 L1339.52172,1276.60693 L1301.70703,1276.60693 L1301.70703,1298.19727 L1360.12793,1298.19727 L1360.12793,1323 L1267.79004,1323 L1267.79004,1239.91801 L1258.65447,1235.2454 L1240.49711,1290.9135 C1240.55886,1291.02864 1240.61695,1291.14065 1240.67139,1291.24951 L1257.03223,1323 L1230.0314,1323 L1142.78045,1590.5 L912.262047,1515.49016 L950.709604,1358.07674 L888.427734,1315.35042 L888.427734,1323 L854.436035,1323 L854.436035,1292.03159 L835.000817,1278.69873 L817.456055,1278.69873 L817.456055,1323 L783.61377,1323 L783.61377,1243.44643 L758.902978,1226.49444 C762.128808,1231.28333 763.741699,1237.08022 763.741699,1243.88525 C763.741699,1249.96146 762.44679,1255.20335 759.856934,1259.61108 C757.267077,1264.01882 753.706077,1267.59227 749.173828,1270.33154 C746.285142,1272.07472 742.325709,1273.51904 737.29541,1274.66455 C741.32961,1276.00928 744.268057,1277.354 746.11084,1278.69873 C747.355963,1279.59522 749.161365,1281.51268 751.5271,1284.45117 C753.892834,1287.38966 755.474117,1289.65575 756.270996,1291.24951 L772.631836,1323 L734.381836,1323 L716.302734,1289.53125 C714.011707,1285.19822 711.969736,1282.38428 710.176758,1281.08936 C707.736316,1279.39599 704.972183,1278.54932 701.884277,1278.54932 L698.895996,1278.54932 L698.895996,1287.05998 L703,1290.86197 L698.895996,1298.87635 L698.895996,1323 L686.542762,1323 L547.257035,1595 L202.688183,1471.097 L154.073791,1323 Z M136.929498,1270.77229 L130.537022,1251.2985 L127.163086,1254.79248 L136.929498,1270.77229 Z M949.022315,568.479492 L1005.79248,568.479492 L1005.79248,591.862793 L949.015137,591.862793 L949.015137,609.269531 L1001.68359,609.269531 L1001.68359,631.606934 L949.015137,631.606934 L949.015137,653.197266 L1007.43604,653.197266 L1007.43604,678 L915.098145,678 L915.098145,666.260854 L851.730518,848.908587 L838.44873,832.223622 L838.44873,866.030762 L891.266602,866.030762 L891.266602,893 L804.606445,893 L804.606445,789.709965 L711.596191,672.867798 L711.596191,678 L677.604492,678 L677.604492,630.166443 L656.792949,604.022382 C658.216142,609.588181 658.927734,615.720036 658.927734,622.417969 C658.927734,635.217837 656.773703,645.71407 652.465576,653.906982 C648.157449,662.099894 641.931925,668.474831 633.788818,673.031982 C625.645711,677.589134 615.498108,679.867676 603.345703,679.867676 C590.994079,679.867676 580.771769,677.90041 572.678467,673.96582 C566.245238,670.838281 560.779733,666.26324 556.281855,660.240604 L468.118326,801.190545 C469.667377,804.93803 470.441895,809.169581 470.441895,813.885254 C470.441895,819.961456 469.146986,825.203347 466.557129,829.611084 C463.967272,834.018821 460.406273,837.592271 455.874023,840.331543 C452.985337,842.074716 449.025904,843.519037 443.995605,844.664551 C448.029805,846.009284 450.968253,847.353997 452.811035,848.69873 C454.056159,849.595219 455.86156,851.512681 458.227295,854.451172 C460.593029,857.389663 462.174312,859.655754 462.971191,861.249512 L479.332031,893 L441.082031,893 L423.00293,859.53125 C420.711903,855.198221 418.669931,852.384284 416.876953,851.089355 C414.436511,849.395988 411.672379,848.549316 408.584473,848.549316 L405.596191,848.549316 L405.596191,893 L371.604492,893 L371.604492,813.713532 L351.28418,797.455965 L351.28418,806.862793 L294.506836,806.862793 L294.506836,824.269531 L347.175293,824.269531 L347.175293,846.606934 L294.506836,846.606934 L294.506836,868.197266 L352.927734,868.197266 L352.927734,893 L260.589844,893 L260.589844,783.479492 L333.815003,783.479492 L51,557.209168 L223.484342,309 L969,510.896795 L949.022315,568.479492 Z M631.761853,572.577595 L620.199754,558.052953 L614.324391,567.44609 C620.803241,568.377198 626.615719,570.087697 631.761853,572.577595 Z M598.69786,592.42874 L579.290039,623.456662 C579.290039,623.459064 579.290039,623.461465 579.290039,623.463867 C579.290039,634.520563 581.344462,642.464331 585.453369,647.29541 C589.562276,652.126489 595.152797,654.541992 602.225098,654.541992 C609.496618,654.541992 615.124492,652.176293 619.108887,647.444824 C623.093282,642.713355 625.085449,634.221741 625.085449,621.969727 C625.085449,611.660105 623.006124,604.127221 618.847412,599.37085 C614.6887,594.614478 609.048375,592.236328 601.92627,592.236328 C600.814425,592.236328 599.738289,592.300465 598.69786,592.42874 Z M1213.1792,864.427756 L1220.20552,849.081848 C1218.92739,848.726825 1217.58137,848.549316 1216.16748,848.549316 L1213.1792,848.549316 L1213.1792,864.427756 Z M1230.03663,827.61013 L1239.24867,807.490484 C1236.8295,806.225338 1233.09526,805.592773 1228.0459,805.592773 L1213.1792,805.592773 L1213.1792,827.855469 L1227.44824,827.855469 C1228.07388,827.855469 1228.93667,827.773689 1230.03663,827.61013 Z M108,1901.37826 L370.572292,1676.8463 L545.653329,1889.03385 L608.955188,1889.03385 L608.955188,1836.46011 L822.442208,1814.0954 L835.473388,1592.58173 L1084.5694,1786.78139 L1315.04325,1555 L1596,2003 L608.955188,2003 L108,2003 L108,1901.37826 Z M-21.2981929,1920.5 L-93.5,1920.5 L-83.0599391,1414.5 L119.5,1459.54502 L82.9864,1638.56081 L11.6586328,1638.56081 L-21.2981929,1920.5 Z M-43.9187199,848 L-85,583 L98,808.170429 L-43.9187199,848 Z M-43.5,269.5 L-43.5,-40.5 L287.259671,-40.5 L447.5,248.827095 L-43.5,269.5 Z M548,185.787931 L626.581179,-41 L1313,-11.6697906 L861.877944,352 L548,185.787931 Z M1019.7627,641.76709 L1051.96143,639.75 C1052.65869,644.979518 1054.07811,648.963853 1056.21973,651.703125 C1059.70607,656.135764 1064.68649,658.352051 1071.16113,658.352051 C1075.99221,658.352051 1079.71507,657.219005 1082.32983,654.952881 C1084.94459,652.686756 1086.25195,650.059585 1086.25195,647.071289 C1086.25195,644.232408 1085.00685,641.692394 1082.5166,639.451172 C1080.02635,637.20995 1074.24907,635.093272 1065.18457,633.101074 C1050.3427,629.764143 1039.75931,625.331571 1033.43408,619.803223 C1027.05905,614.274875 1023.87158,607.227582 1023.87158,598.661133 C1023.87158,593.033175 1025.50267,587.716578 1028.76489,582.711182 C1032.02712,577.705786 1036.93283,573.771255 1043.48218,570.907471 C1050.03153,568.043687 1059.00873,566.611816 1070.41406,566.611816 C1084.40925,566.611816 1095.0798,569.214085 1102.42603,574.418701 C1109.77225,579.623317 1114.14257,587.903264 1115.53711,599.258789 L1083.63721,601.126465 C1082.79052,596.195776 1081.01002,592.609874 1078.29565,590.368652 C1075.58129,588.12743 1071.83352,587.006836 1067.05225,587.006836 C1063.11766,587.006836 1060.15431,587.841056 1058.16211,589.509521 C1056.16991,591.177987 1055.17383,593.207508 1055.17383,595.598145 C1055.17383,597.341317 1055.9956,598.910149 1057.63916,600.304687 C1059.23292,601.749031 1063.01804,603.093744 1068.99463,604.338867 C1083.7867,607.526383 1094.38254,610.751204 1100.78247,614.013428 C1107.18241,617.275651 1111.8391,621.322241 1114.75269,626.15332 C1117.66627,630.984399 1119.12305,636.388154 1119.12305,642.364746 C1119.12305,649.387242 1117.18068,655.861787 1113.2959,661.788574 C1109.41111,667.715362 1103.98246,672.21019 1097.00977,675.273193 C1090.03707,678.336197 1081.24664,679.867676 1070.63818,679.867676 C1052.01114,679.867676 1039.11185,676.281774 1031.93994,669.109863 C1024.76803,661.937952 1020.70899,652.823786 1019.7627,641.76709 Z M142.478027,783.479492 L245.349609,783.479492 L245.349609,810.523437 L210.834961,810.523437 L210.834961,893 L176.992676,893 L176.992676,810.523437 L142.478027,810.523437 L142.478027,783.479492 Z M491.509277,783.479492 L525.42627,783.479492 L525.42627,893 L491.509277,893 L491.509277,783.479492 Z M549.930176,783.479492 L581.53125,783.479492 L622.769531,844.066895 L622.769531,783.479492 L654.669434,783.479492 L654.669434,893 L622.769531,893 L581.755371,832.86084 L581.755371,893 L549.930176,893 L549.930176,783.479492 Z M908.000977,783.479492 L941.917969,783.479492 L941.917969,893 L908.000977,893 L908.000977,783.479492 Z M698.895996,1257.85547 L713.165039,1257.85547 C714.708992,1257.85547 717.697243,1257.35743 722.129883,1256.36133 C724.371105,1255.91308 726.201409,1254.76759 727.62085,1252.9248 C729.04029,1251.08202 729.75,1248.96534 729.75,1246.57471 C729.75,1243.03856 728.629406,1240.32423 726.388184,1238.43164 C724.146961,1236.53905 719.938507,1235.59277 713.762695,1235.59277 L698.895996,1235.59277 L698.895996,1257.85547 Z M154.073791,1323 L168.849609,1323 L136.929498,1270.77229 L154.073791,1323 Z M130.537022,1251.2985 L167.056641,1213.47949 L122.083008,1213.47949 L119.219027,1216.8198 L130.537022,1251.2985 Z M619.470674,1213.47949 L553.889648,1213.47949 L553.889648,1323 L646.227539,1323 L646.227539,1298.19727 L587.806641,1298.19727 L587.806641,1276.60693 L640.475098,1276.60693 L640.475098,1254.26953 L587.806641,1254.26953 L587.806641,1236.86279 L644.583984,1236.86279 L644.583984,1236.74474 L619.470674,1213.47949 Z M664.904297,1255.5697 L664.904297,1323 L686.542762,1323 L698.895996,1298.87635 L698.895996,1287.05998 L664.904297,1255.5697 Z M949.022315,568.479492 L915.098145,568.479492 L915.098145,666.260854 L949.022315,568.479492 Z M838.44873,832.223622 L838.44873,783.479492 L804.606445,783.479492 L804.606445,789.709965 L838.44873,832.223622 Z M711.596191,672.867798 L711.596191,633.549316 L714.584473,633.549316 C717.672379,633.549316 720.436511,634.395988 722.876953,636.089355 C724.669931,637.384284 726.711903,640.198221 729.00293,644.53125 L747.082031,678 L785.332031,678 L768.971191,646.249512 C768.174312,644.655754 766.593029,642.389663 764.227295,639.451172 C761.86156,636.512681 760.056159,634.595219 758.811035,633.69873 C756.968253,632.353997 754.029805,631.009284 749.995605,629.664551 C755.025904,628.519037 758.985337,627.074716 761.874023,625.331543 C766.406273,622.592271 769.967272,619.018821 772.557129,614.611084 C775.146986,610.203347 776.441895,604.961456 776.441895,598.885254 C776.441895,591.912563 774.748552,585.998315 771.361816,581.142334 C767.975081,576.286353 763.517606,572.961923 757.989258,571.168945 C752.46091,569.375968 744.467337,568.479492 734.008301,568.479492 L677.604492,568.479492 L677.604492,630.166443 L711.596191,672.867798 Z M656.792949,604.022382 C654.469876,594.937343 650.250818,587.360498 644.135742,581.291748 C640.560879,577.743968 636.436256,574.839252 631.761853,572.577595 L656.792949,604.022382 Z M614.324391,567.44609 C610.454354,566.889907 606.346552,566.611816 602.000977,566.611816 C584.220614,566.611816 570.350147,571.592235 560.38916,581.553223 C550.428173,591.51421 545.447754,605.434481 545.447754,623.314453 C545.447754,636.114322 547.962865,646.772418 552.993164,655.289062 C554.024963,657.03597 555.121193,658.686483 556.281855,660.240604 L579.290039,623.456662 C579.290929,612.30412 581.357803,604.312949 585.490723,599.48291 C588.950933,595.43905 593.35328,593.087674 598.69786,592.42874 L614.324391,567.44609 Z M468.118326,801.190545 C467.376918,799.396921 466.458082,797.714186 465.361816,796.142334 C461.975081,791.286353 457.517606,787.961923 451.989258,786.168945 C446.46091,784.375968 438.467337,783.479492 428.008301,783.479492 L371.604492,783.479492 L371.604492,813.713532 L430.707791,861 L468.118326,801.190545 Z M351.28418,797.455965 L351.28418,783.479492 L333.815003,783.479492 L351.28418,797.455965 Z M687.5,1108 L752.498291,1108 L752.498291,1083.19727 L694.077393,1083.19727 L694.077393,1061.60693 L746.74585,1061.60693 L746.74585,1039.26953 L694.077393,1039.26953 L694.077393,1021.86279 L750.854736,1021.86279 L750.854736,998.479492 L687.5,998.479492 L687.5,1108 Z M687.5,879.548636 C690.763228,883.024241 694.524531,885.91427 698.783936,888.21875 C702.954637,890.475239 707.748045,892.157373 713.1642,893.26516 L687.5,873.543571 L687.5,879.548636 Z M850.082254,998.479492 L843.790283,998.479492 L843.790283,1059.06689 L802.552002,998.479492 L770.950928,998.479492 L770.950928,1108 L802.776123,1108 L802.776123,1047.86084 L843.790283,1108 L875.690186,1108 L875.690186,1018.15784 L850.082254,998.479492 Z M1028.80733,888.266102 C1028.86805,888.2256 1028.92861,888.184914 1028.98901,888.144043 C1034.86502,884.168453 1039.01649,879.426488 1041.44351,873.918034 L1037.87815,873.543571 L1028.80733,888.266102 Z M1068.17285,876.725367 L1068.17285,893 L1160.51074,893 L1160.51074,886.423441 L1068.17285,876.725367 Z M1179.1875,888.385026 L1179.1875,893 L1213.1792,893 L1213.1792,864.427756 L1201.15373,890.692097 L1179.1875,888.385026 Z M1220.20552,849.081845 C1221.71881,849.502179 1223.13695,850.171348 1224.45996,851.089355 C1226.25294,852.384284 1228.29491,855.198221 1230.58594,859.53125 L1248.66504,893 L1286.91504,893 L1270.5542,861.249512 C1269.75732,859.655754 1268.17604,857.389663 1265.8103,854.451172 C1263.44457,851.512681 1261.63917,849.595219 1260.39404,848.69873 C1258.55126,847.353997 1255.61281,846.009284 1251.57861,844.664551 C1256.60891,843.519037 1260.56834,842.074716 1263.45703,840.331543 C1267.98928,837.592271 1271.55028,834.018821 1274.14014,829.611084 C1276.72999,825.203347 1278.0249,819.961456 1278.0249,813.885254 C1278.0249,806.912563 1276.33156,800.998315 1272.94482,796.142334 C1269.55809,791.286353 1265.10061,787.961923 1259.57227,786.168945 C1256.9191,785.308459 1253.69814,784.654459 1249.90935,784.20694 L1239.24867,807.490484 C1239.78836,807.77272 1240.2626,808.086439 1240.67139,808.431641 C1242.91261,810.324228 1244.0332,813.038557 1244.0332,816.574707 C1244.0332,818.965344 1243.32349,821.082022 1241.90405,822.924805 C1240.48461,824.767587 1238.65431,825.913084 1236.41309,826.361328 C1233.77663,826.95379 1231.65115,827.370056 1230.03663,827.61013 L1220.20552,849.081848 Z M1410.40576,1312.86231 L1410.40576,1262.86084 L1451.41992,1323 L1483.31982,1323 L1483.31982,1213.47949 L1451.41992,1213.47949 L1451.41992,1274.06689 L1410.18164,1213.47949 L1378.58057,1213.47949 L1378.58057,1296.58453 L1410.40576,1312.86231 Z M1339.52172,1276.60693 L1354.37549,1276.60693 L1354.37549,1254.26953 L1301.70703,1254.26953 L1301.70703,1236.86279 L1358.48438,1236.86279 L1358.48438,1213.47949 L1267.79004,1213.47949 L1267.79004,1239.91801 L1339.52172,1276.60693 Z M1240.49711,1290.9135 C1239.65482,1289.34303 1238.13163,1287.18894 1235.92749,1284.45117 C1233.56176,1281.51268 1231.75635,1279.59522 1230.51123,1278.69873 C1228.66845,1277.354 1225.73,1276.00928 1221.6958,1274.66455 C1226.7261,1273.51904 1230.68553,1272.07472 1233.57422,1270.33154 C1238.10647,1267.59227 1241.66747,1264.01882 1244.25732,1259.61108 C1246.84718,1255.20335 1248.14209,1249.96146 1248.14209,1243.88525 C1248.14209,1236.91256 1246.44875,1230.99832 1243.06201,1226.14233 C1239.67528,1221.28635 1235.2178,1217.96192 1229.68945,1216.16895 C1224.16111,1214.37597 1216.16753,1213.47949 1205.7085,1213.47949 L1149.30469,1213.47949 L1149.30469,1323 L1183.29639,1323 L1183.29639,1278.54932 L1186.28467,1278.54932 C1189.37257,1278.54932 1192.13671,1279.39599 1194.57715,1281.08936 C1196.37013,1282.38428 1198.4121,1285.19822 1200.70313,1289.53125 L1218.78223,1323 L1230.0314,1323 L1240.49711,1290.9135 Z M888.427734,1315.35042 L888.427734,1213.47949 L854.436035,1213.47949 L854.436035,1251.8042 L817.456055,1251.8042 L817.456055,1213.47949 L783.61377,1213.47949 L783.61377,1243.44643 L835.000817,1278.69873 L854.436035,1278.69873 L854.436035,1292.03159 L888.427734,1315.35042 Z M758.902978,1226.49444 C758.823505,1226.37646 758.743052,1226.25909 758.661621,1226.14233 C755.274885,1221.28635 750.81741,1217.96192 745.289063,1216.16895 C744.519037,1215.91921 743.701185,1215.68686 742.835505,1215.47191 L758.902978,1226.49444 Z M422.405273,568.479492 L422.405273,678 L456.247559,678 L456.247559,633.69873 L493.227539,633.69873 L493.227539,678 L527.219238,678 L527.219238,568.479492 L493.227539,568.479492 L493.227539,606.804199 L456.247559,606.804199 L456.247559,568.479492 L422.405273,568.479492 Z M711.596191,612.855469 L711.596191,590.592773 L726.462891,590.592773 C732.638703,590.592773 736.847157,591.539053 739.088379,593.431641 C741.329601,595.324228 742.450195,598.038557 742.450195,601.574707 C742.450195,603.965344 741.740486,606.082022 740.321045,607.924805 C738.901604,609.767587 737.0713,610.913084 734.830078,611.361328 C730.397439,612.357427 727.409187,612.855469 725.865234,612.855469 L711.596191,612.855469 Z M796.612793,568.479492 L796.612793,678 L846.890625,678 C852.917022,678 859.640588,677.003916 867.061523,675.011719 C872.490262,673.567376 877.570289,670.666282 882.301758,666.30835 C887.033227,661.950418 890.731188,656.546663 893.395752,650.096924 C896.060316,643.647185 897.392578,634.570371 897.392578,622.866211 C897.392578,615.39547 896.496103,608.323276 894.703125,601.649414 C892.910147,594.975553 890.021504,589.12356 886.037109,584.093262 C882.052714,579.062963 877.01004,575.203138 870.908936,572.513672 C864.807831,569.824205 856.801807,568.479492 846.890625,568.479492 L796.612793,568.479492 Z M830.455078,593.282227 L838.896973,593.282227 C847.662641,593.282227 853.937969,595.423807 857.723145,599.707031 C861.50832,603.990256 863.400879,611.934024 863.400879,623.538574 C863.400879,632.304243 862.554208,638.641826 860.86084,642.551514 C859.167472,646.461201 856.826675,649.200432 853.838379,650.769287 C850.850083,652.338143 845.81986,653.122559 838.747559,653.122559 L830.455078,653.122559 L830.455078,593.282227 Z M405.596191,827.855469 L405.596191,805.592773 L420.462891,805.592773 C426.638703,805.592773 430.847157,806.539053 433.088379,808.431641 C435.329601,810.324228 436.450195,813.038557 436.450195,816.574707 C436.450195,818.965344 435.740486,821.082022 434.321045,822.924805 C432.901604,824.767587 431.0713,825.913084 428.830078,826.361328 C424.397439,827.357427 421.409187,827.855469 419.865234,827.855469 L405.596191,827.855469 Z M1291.8457,856.76709 C1292.792,867.823786 1296.85104,876.937952 1304.02295,884.109863 C1311.19486,891.281774 1324.09415,894.867676 1342.72119,894.867676 C1353.32964,894.867676 1362.12008,893.336197 1369.09277,890.273193 C1376.06546,887.21019 1381.49412,882.715362 1385.37891,876.788574 C1389.26369,870.861787 1391.20605,864.387242 1391.20605,857.364746 C1391.20605,851.388154 1389.74928,845.984399 1386.83569,841.15332 C1383.9221,836.322241 1379.26541,832.275651 1372.86548,829.013428 C1366.46554,825.751204 1355.8697,822.526383 1341.07764,819.338867 C1335.10104,818.093744 1331.31593,816.749031 1329.72217,815.304687 C1328.07861,813.910149 1327.25684,812.341317 1327.25684,810.598145 C1327.25684,808.207508 1328.25292,806.177987 1330.24512,804.509521 C1332.23731,802.841056 1335.20066,802.006836 1339.13525,802.006836 C1343.91653,802.006836 1347.66429,803.12743 1350.37866,805.368652 C1353.09303,807.609874 1354.87353,811.195776 1355.72021,816.126465 L1387.62012,814.258789 C1386.22558,802.903264 1381.85526,794.623317 1374.50903,789.418701 C1367.16281,784.214085 1356.49226,781.611816 1342.49707,781.611816 C1331.09174,781.611816 1322.11453,783.043687 1315.56519,785.907471 C1309.01584,788.771255 1304.11012,792.705786 1300.8479,797.711182 C1297.58568,802.716578 1295.95459,808.033175 1295.95459,813.661133 C1295.95459,822.227582 1299.14206,829.274875 1305.51709,834.803223 C1311.84232,840.331571 1322.42571,844.764143 1337.26758,848.101074 C1346.33208,850.093272 1352.10936,852.20995 1354.59961,854.451172 C1357.08986,856.692394 1358.33496,859.232408 1358.33496,862.071289 C1358.33496,865.059585 1357.0276,867.686756 1354.41284,869.952881 C1351.79808,872.219005 1348.07522,873.352051 1343.24414,873.352051 C1336.7695,873.352051 1331.78908,871.135764 1328.30273,866.703125 C1326.16112,863.963853 1324.7417,859.979518 1324.04443,854.75 L1291.8457,856.76709 Z M247.441406,1304.9209 L252.820313,1323 L288.231445,1323 L247.067871,1213.47949 L210.162598,1213.47949 L168.999023,1323 L203.588379,1323 L208.892578,1304.9209 L247.441406,1304.9209 Z M240.344238,1281.23877 L216.213867,1281.23877 L228.241699,1241.86816 L240.344238,1281.23877 Z M299.288086,1213.47949 L299.288086,1323 L331.113281,1323 L331.113281,1262.86084 L372.127441,1323 L404.027344,1323 L404.027344,1213.47949 L372.127441,1213.47949 L372.127441,1274.06689 L330.88916,1213.47949 L299.288086,1213.47949 Z M426.663574,1213.47949 L426.663574,1323 L460.505859,1323 L460.505859,1296.25488 L477.987305,1277.95166 L501.071777,1323 L542.758301,1323 L501.071777,1254.79248 L540.965332,1213.47949 L495.991699,1213.47949 L460.505859,1254.86719 L460.505859,1213.47949 L426.663574,1213.47949 Z M906.65625,1268.31445 C906.65625,1281.11432 909.171362,1291.77242 914.20166,1300.28906 C919.231959,1308.80571 925.793661,1315.03123 933.886963,1318.96582 C941.980265,1322.90041 952.202575,1324.86768 964.554199,1324.86768 C976.706604,1324.86768 986.854207,1322.58913 994.997314,1318.03198 C1003.14042,1313.47483 1009.36595,1307.09989 1013.67407,1298.90698 C1017.9822,1290.71407 1020.13623,1280.21784 1020.13623,1267.41797 C1020.13623,1249.78702 1015.20562,1236.07842 1005.34424,1226.29175 C995.482861,1216.50508 981.438079,1211.61182 963.209473,1211.61182 C945.42911,1211.61182 931.558644,1216.59224 921.597656,1226.55322 C911.636669,1236.51421 906.65625,1250.43448 906.65625,1268.31445 Z M940.498535,1268.46387 C940.498535,1257.30756 942.565409,1249.31399 946.699219,1244.48291 C950.833028,1239.65183 956.311489,1237.23633 963.134766,1237.23633 C970.256872,1237.23633 975.897196,1239.61448 980.055908,1244.37085 C984.21462,1249.12722 986.293945,1256.6601 986.293945,1266.96973 C986.293945,1279.22174 984.301778,1287.71336 980.317383,1292.44482 C976.332988,1297.17629 970.705114,1299.54199 963.433594,1299.54199 C956.361293,1299.54199 950.770772,1297.12649 946.661865,1292.29541 C942.552958,1287.46433 940.498535,1279.52056 940.498535,1268.46387 Z M1038.29004,1213.47949 L1038.29004,1323 L1130.62793,1323 L1130.62793,1298.19727 L1072.20703,1298.19727 L1072.20703,1276.60693 L1124.87549,1276.60693 L1124.87549,1254.26953 L1072.20703,1254.26953 L1072.20703,1236.86279 L1128.98438,1236.86279 L1128.98438,1213.47949 L1038.29004,1213.47949 Z M1183.29639,1257.85547 L1183.29639,1235.59277 L1198.16309,1235.59277 C1204.3389,1235.59277 1208.54735,1236.53905 1210.78857,1238.43164 C1213.0298,1240.32423 1214.15039,1243.03856 1214.15039,1246.57471 C1214.15039,1248.96534 1213.44068,1251.08202 1212.02124,1252.9248 C1210.6018,1254.76759 1208.7715,1255.91308 1206.53027,1256.36133 C1202.09763,1257.35743 1199.10938,1257.85547 1197.56543,1257.85547 L1183.29639,1257.85547 Z" id="Combined-Shape" fill="#000000"></path>
    </g>
</svg>