<?xml version="1.0" encoding="UTF-8"?>
<svg width="1680px" height="950px" viewBox="0 0 1680 950" version="1.1" xmlns="http://www.w3.org/2000/svg" xmlns:xlink="http://www.w3.org/1999/xlink">
    <!-- Generator: Sketch 52.3 (67297) - http://www.bohemiancoding.com/sketch -->
    <title>3-desktop</title>
    <desc>Created with Sketch.</desc>
    <g id="3-desktop" stroke="none" stroke-width="1" fill="none" fill-rule="evenodd">
        <path d="M509.140246,562.87936 C505.832869,551.038344 504.179199,537.234469 504.179199,521.467529 C504.179199,483.361219 511.515063,456.972485 526.187012,442.300537 C540.85896,427.628589 559.504281,419.324798 582.123535,417.388916 L586.25,483.259521 C575.551704,484.685961 567.400744,487.58974 561.796875,491.970947 C552.728796,499.103144 548.194824,509.291845 548.194824,522.537354 C548.194824,532.420541 550.512754,540.036594 555.148682,545.385742 C559.78461,550.73489 565.159149,553.409424 571.272461,553.409424 C577.080107,553.409424 582.276344,550.862249 586.861328,545.767822 C591.446312,540.673396 595.77651,528.854504 599.852051,510.310791 C606.678582,479.948009 615.746525,458.297021 627.056152,445.357178 C638.365779,432.315446 652.78279,425.794678 670.307617,425.794678 C681.821021,425.794678 692.697459,429.131477 702.937256,435.805176 C711.528401,441.40438 718.577466,449.370262 724.084592,459.703001 L740.709889,409.024534 L894.71384,409.024534 L802.133355,660.962249 L894.71384,780.243266 L886.025602,953.230517 L1123.0623,1180.18518 L1240.50897,969.332251 L1285.11391,1153.07022 L1287.73835,1036.72383 L1343.13575,1122.21137 L1344.63791,1322.29652 L636.090172,1322.29652 L691.373948,1096.2688 L531.791232,1096.2688 L322,1371 L322,325.53983 L322,-205.062924 L373.546367,-205.062924 L487.437417,73.0489407 L379.807914,258.491636 L379.807914,325.53983 L406.475292,325.53983 L417.819515,551.661455 L509.140246,562.87936 Z M521.28009,589.30033 L431.674206,829.301878 L523.671693,1020.32162 L622.094943,953.198188 L613.16129,947.104736 L508,947.104736 L508,881.998291 L532.931106,881.998291 L538.805134,844.248779 L508,844.248779 L508,655.348389 L568.199058,655.348389 L569.473918,647.155485 L585.514606,655.348389 L659.902253,655.348389 L673.918479,612.623087 C672.338765,612.885689 670.727592,613.117853 669.084961,613.31958 L665.26416,548.060303 C675.351125,546.328198 682.686989,542.685737 687.271973,537.132812 C691.856957,531.579888 694.149414,523.912891 694.149414,514.131592 C694.149414,506.082398 692.442807,500.020121 689.029541,495.94458 C685.616275,491.869039 681.46438,489.831299 676.57373,489.831299 C673.007632,489.831299 669.798191,491.512434 666.945312,494.874756 C663.990545,498.135189 661.239596,505.878601 658.692383,518.105225 C652.171517,548.366118 645.574333,570.042578 638.900635,583.135254 C632.226936,596.22793 623.948617,605.754365 614.06543,611.714844 C604.182242,617.675323 593.127503,620.655518 580.900879,620.655518 C566.534596,620.655518 553.289286,616.681925 541.164551,608.734619 C533.305712,603.583447 526.677583,597.105381 521.28009,589.30033 Z M650.336626,-144.727295 L825.718496,-265.290156 L819.660328,116.863221 L735.534795,307.029897 C734.211583,329.806422 729.000556,347.615977 719.901611,360.458984 C716.004316,365.959951 711.264098,370.645244 705.680932,374.514878 L683.108484,425.540139 L631.117093,369.785707 C626.094717,376.552563 620.410851,381.849392 614.06543,385.67627 C604.182242,391.636749 593.127503,394.616943 580.900879,394.616943 C566.534596,394.616943 553.289286,390.64335 541.164551,382.696045 C529.039816,374.74874 519.844514,363.643056 513.578369,349.378662 C507.312225,335.114268 504.179199,317.131212 504.179199,295.428955 C504.179199,257.322645 511.515063,230.933911 526.187012,216.261963 C530.045982,212.402992 534.179822,208.984558 538.588542,206.006654 L547.560903,153.753662 L508,153.753662 L508,84.3679199 L559.475128,84.3679199 L586.872597,-75.1887207 L508,-75.1887207 L508,-144.727295 L650.336626,-144.727295 Z M585.63741,321.014288 L550.10161,282.906472 C548.830417,287.008734 548.194824,291.539498 548.194824,296.498779 C548.194824,306.381967 550.512754,313.99802 555.148682,319.347168 C559.78461,324.696316 565.159149,327.37085 571.272461,327.37085 C576.569331,327.37085 581.357607,325.252015 585.63741,321.014288 Z M1136.59128,257.144531 L1173.05176,257.144531 L1173.05176,467.594238 L1117.72656,467.594238 L1117.72656,402.656045 L1105.26569,498.771973 L1173.05176,498.771973 L1173.05176,536.868508 L1243.06622,260.521798 L1358,343.758439 L1343.13575,1070.84345 L1173.05176,629.863789 L1173.05176,684.310059 L1125.21533,684.310059 L1125.21533,568.157715 L1096.27024,568.157715 L1089.60547,619.565899 L1089.60547,675.904297 L1082.30152,675.904297 L1078.24974,707.157434 L999.740234,650.259681 L999.740234,687.672363 L949,687.672363 L949,613.486995 L906.83994,582.93257 L949,512.827056 L949,498.771973 L957.452448,498.771973 L1018.6646,396.98584 L949,396.98584 L949,327.75293 L1046.74674,327.75293 L900.70824,136.938522 L1054.76418,-265.290156 L1180.634,-82.5755774 L1136.59128,257.144531 Z M707.335616,1031.00952 L711.458913,1014.15142 L672.207373,987.378793 L608.10498,1031.00952 L707.335616,1031.00952 Z M364.448027,-342.281399 L364.448027,-419 L620.912642,-407.906831 L598.081707,-192.675167 L507.348079,-231.472981 L507.348079,-307.262864 L364.448027,-342.281399 Z M908.081803,-367.378322 L1042.2508,-410.908943 L928.247439,-216.998149 L908.081803,-367.378322 Z M1200.81893,-364.768093 L1358,-364.768093 L1358,-14.2898476 L1211.30083,155.503371 L1200.81893,-364.768093 Z M509.140246,562.87936 C510.385277,567.336801 511.864651,571.516089 513.578369,575.417236 C515.783013,580.435937 518.350249,585.06363 521.28009,589.30033 L530.17957,565.463847 L509.140246,562.87936 Z M523.671693,1020.32162 L508,1031.00952 L508,1096.2688 L531.791232,1096.2688 L549.242438,1073.41565 L523.671693,1020.32162 Z M650.336626,-144.727295 L591.917327,-104.568082 L586.872597,-75.1887207 L591.140625,-75.1887207 L591.140625,-37.286377 C591.140625,-9.36891966 597.508563,11.390557 610.244629,24.9926758 C622.980695,38.5947946 640.65809,45.395752 663.277344,45.395752 C685.285266,45.395752 702.249452,39.1551731 714.17041,26.6738281 C726.091368,14.1924832 732.051758,-4.58019694 732.051758,-29.6447754 L732.051758,-144.727295 L650.336626,-144.727295 Z M735.534794,307.029913 C735.759971,303.153935 735.872559,299.134118 735.872559,294.970459 C735.872559,271.637986 732.943307,253.272853 727.084717,239.874512 C721.226126,226.47617 713.177053,216.4403 702.937256,209.766602 C692.697459,203.092903 681.821021,199.756104 670.307617,199.756104 C652.78279,199.756104 638.365779,206.276872 627.056152,219.318604 C615.746525,232.258447 606.678582,253.909435 599.852051,284.272217 C595.77651,302.815929 591.446312,314.634822 586.861328,319.729248 C586.458083,320.177298 586.050111,320.605644 585.63741,321.014288 L631.117093,369.785707 C633.917221,366.012979 636.511731,361.783308 638.900635,357.09668 C645.574333,344.004004 652.171517,322.327544 658.692383,292.06665 C661.239596,279.840027 663.990545,272.096615 666.945312,268.836182 C669.798191,265.47386 673.007632,263.792725 676.57373,263.792725 C681.46438,263.792725 685.616275,265.830465 689.029541,269.906006 C692.442807,273.981547 694.149414,280.043824 694.149414,288.093018 C694.149414,297.874316 691.856957,305.541313 687.271973,311.094238 C682.686989,316.647163 675.351125,320.289624 665.26416,322.021729 L669.084961,387.281006 C683.812357,385.472378 696.010971,381.217025 705.680932,374.514878 L735.534795,307.029897 Z M550.10161,282.906472 C552.225585,276.052196 556.123996,270.394188 561.796875,265.932373 C567.400744,261.551166 575.551704,258.647387 586.25,257.220947 L582.123535,191.350342 C565.453528,192.777054 550.941938,197.662458 538.588542,206.006654 L529.227747,260.521798 L550.10161,282.906472 Z M547.560903,153.753662 L732.051758,153.753662 L732.051758,84.3679199 L559.475128,84.3679199 L547.560903,153.753662 Z M1136.59128,257.144531 L1117.72656,257.144531 L1117.72656,327.75293 L1046.74674,327.75293 L1054.33629,337.669462 L1018.6646,396.98584 L1117.72656,396.98584 L1117.72656,402.656045 L1136.59128,257.144531 Z M1105.26569,498.771973 L957.452448,498.771973 L949,512.827056 L949,613.486995 L999.740234,650.259681 L999.740234,568.157715 L1043.90869,568.157715 L1043.90869,675.904297 L1082.30152,675.904297 L1089.60547,619.565899 L1089.60547,568.157715 L1096.27024,568.157715 L1105.26569,498.771973 Z M1173.05176,629.863789 L1173.05176,536.868508 L1158.83167,592.995122 L1173.05176,629.863789 Z M691.373948,1096.2688 L732.051758,1096.2688 L732.051758,1031.00952 L707.335616,1031.00952 L691.373948,1096.2688 Z M672.207373,987.378793 L732.051758,946.64624 L732.051758,881.998291 L532.931106,881.998291 L531.470454,891.385184 L613.16129,947.104736 L631.029785,947.104736 L622.094943,953.198188 L672.207373,987.378793 Z M538.805134,844.248779 L558.740234,844.248779 L558.740234,724.734131 L602.908691,724.734131 L602.908691,832.480713 L648.605469,832.480713 L648.605469,724.734131 L684.215332,724.734131 L684.215332,840.886475 L732.051758,840.886475 L732.051758,655.348389 L659.902253,655.348389 L649.226862,687.889913 L585.514606,655.348389 L568.199058,655.348389 L538.805134,844.248779 Z M673.918479,612.623087 C694.679558,609.171887 710.007133,600.46345 719.901611,586.497559 C730.548963,571.469 735.872559,549.63971 735.872559,521.009033 C735.872559,497.67656 732.943307,479.311428 727.084717,465.913086 C726.141458,463.755895 725.141417,461.685867 724.084592,459.703001 L673.918479,612.623087 Z M636.531738,-75.1887207 L686.507812,-75.1887207 L686.507812,-55.4733887 C686.507812,-42.5335453 684.062524,-33.7203197 679.171875,-29.0334473 C674.281226,-24.3465749 668.320836,-22.0031738 661.290527,-22.0031738 C654.056442,-22.0031738 648.121524,-24.7031794 643.485596,-30.1032715 C638.849668,-35.5033636 636.531738,-44.8769678 636.531738,-58.2243652 L636.531738,-75.1887207 Z" id="Combined-Shape" fill="#000000" transform="translate(840.000000, 476.000000) rotate(-90.000000) translate(-840.000000, -476.000000) "></path>
    </g>
</svg>