<?xml version="1.0" encoding="UTF-8"?>
<svg width="375px" height="813px" viewBox="0 0 375 813" version="1.1" xmlns="http://www.w3.org/2000/svg" xmlns:xlink="http://www.w3.org/1999/xlink">
    <!-- Generator: Sketch 52.3 (67297) - http://www.bohemiancoding.com/sketch -->
    <title>3-mobile</title>
    <desc>Created with Sketch.</desc>
    <g id="3-mobile" stroke="none" stroke-width="1" fill="none" fill-rule="evenodd">
        <path d="M190.684082,320 L163.04248,320 L163.04248,362 L144.241211,362 L144.241211,320 L4.2885678,320 L-55,320 L-55,142 L4.2885678,142 L4.2885678,234.33522 L200.721202,234.33522 L200.938669,301.155273 L241.069824,301.155273 L241.069824,314.145996 L209.526855,314.145996 L209.526855,319 L266.214898,319 L373,407.06183 L373,479 L352.943604,479 L352.943604,482 L335.221436,482 L333.175473,479 L312.435791,479 L312.435791,482 L294.755127,482 L294.755127,479 L284.503662,479 L284.503662,482 L233.204834,482 L233.204834,479 L214.340134,479 C213.450592,479.548581 212.503312,480.043616 211.498291,480.485107 C207.624574,482.186776 202.740996,483.037598 196.847412,483.037598 C186.499053,483.037598 179.332784,481.04543 175.348389,477.061035 C171.363994,473.07664 169.108971,468.013214 168.583252,461.870605 L185.45937,460.813401 L158,439.518961 L170.93513,439.518961 C170.889021,438.997912 170.865967,438.465876 170.865967,437.922852 C170.865967,434.796208 171.772126,431.842543 173.584473,429.061768 C175.396819,426.280992 178.122215,424.095141 181.760742,422.50415 C185.399269,420.913159 190.386606,420.117676 196.7229,420.117676 C198.215563,420.117676 199.640151,420.170959 200.996666,420.277526 L200.996666,407.06183 L200.996666,362 L190.684082,362 L190.684082,320 Z M198.614416,471.014994 L186.618849,461.712564 C187.04299,464.148871 187.782421,466.041543 188.837158,467.390625 C190.774017,469.853202 193.540916,471.084473 197.137939,471.084473 C197.65275,471.084473 198.144909,471.061313 198.614416,471.014994 Z M190.700911,439.518961 L200.996666,439.518961 L200.996666,433.231045 C199.49756,432.042504 197.450432,431.448242 194.855225,431.448242 C192.669341,431.448242 191.023036,431.911698 189.91626,432.838623 C188.809483,433.765548 188.256104,434.89306 188.256104,436.221191 C188.256104,437.189621 188.712642,438.061194 189.625732,438.835938 C189.882079,439.068251 190.240471,439.295926 190.700911,439.518961 Z M15.9318848,440 L15.9318848,421.155273 L47.1843262,421.155273 C53.9910008,421.155273 59.089013,422.77391 62.4785156,426.01123 C65.8680182,429.248551 67.5627441,433.855439 67.5627441,439.832031 C67.5627441,445.97464 65.7158388,450.775211 62.0219727,454.233887 C58.3281065,457.692563 52.690549,459.421875 45.1091309,459.421875 L44,459.421875 L44,585 L-77,585 L-77,440 L15.9318848,440 Z M34.8161621,440 L44,440 L44,446.63555 C45.2969153,446.320869 46.3168501,445.844615 47.0598145,445.206787 C48.5262931,443.947829 49.2595215,442.33611 49.2595215,440.371582 C49.2595215,438.462393 48.6231346,436.843757 47.3503418,435.515625 C46.077549,434.187493 43.684181,433.523438 40.170166,433.523438 L34.8161621,433.523438 L34.8161621,440 Z M84,421.155273 L84,408 L113.875535,408 L129.968883,420.335169 C131.63586,420.190173 133.425772,420.117676 135.338623,420.117676 C143.113727,420.117676 149.041809,421.563381 153.123047,424.454834 C157.204285,427.346287 159.632239,431.946258 160.406982,438.254883 L153.849155,438.638831 L156,440.287402 L156,448.826785 C157.673997,450.125663 158.997721,451.582159 159.971191,453.196289 C161.589852,455.880222 162.39917,458.882308 162.39917,462.202637 C162.39917,466.104023 161.320079,469.700993 159.161865,472.993652 C158.258263,474.372225 157.20431,475.611347 156,476.711022 L156,478 L154.43384,478 C153.137184,478.96125 151.697244,479.789617 150.114014,480.485107 C146.240296,482.186776 141.356719,483.037598 135.463135,483.037598 C125.96239,483.037598 119.143805,481.358414 115.007214,478 L96.9890137,478 L96.9890137,482 L78.1462402,482 L78.1462402,421.155273 L84,421.155273 Z M305,698 L496,698 L496,781 L305,781 L305,743 L114,569 L114,585 L44,585 L44,759 L114,759 L114,585.240265 L305,585.240265 L305,698 Z M-77,37 L146,37 L146,234 L-77,37 Z M498,403 L721,403 L721,600 L498,403 Z M659,814 L659,744 L689.290473,744 L732,776.287402 L732,814 L659,814 Z M578.520164,508 L578.520164,600.33522 L775.720113,600.33522 L776,686 L578.520164,686 L519,686 L519,508 L578.520164,508 Z M470,585 L275,585 L470,408 L470,585 Z M174,234 L203.789356,141 L293,141 L260.420429,234 L174,234 Z M375,407 L375,334 L426.724513,373.362782 L426.724513,261 L496,261 L496,407 L375,407 Z M294,141 L294,56 L473,56 L473,141 L294,141 Z M190.684082,320 L200.996666,320 L200.996666,362 L241.98291,362 L241.98291,348.220703 L209.526855,348.220703 L209.526855,336.226074 L238.787109,336.226074 L238.787109,323.816406 L209.526855,323.816406 L209.526855,319 L200.996745,319 L200.938669,301.155273 L190.684082,301.155273 L190.684082,320 Z M163.04248,320 L163.04248,316.179688 L182.217285,316.179688 L182.217285,301.155273 L125.066406,301.155273 L125.066406,316.179688 L144.241211,316.179688 L144.241211,320 L163.04248,320 Z M352.943604,479 L352.943604,421.155273 L335.221436,421.155273 L335.221436,454.814941 L312.311279,421.155273 L294.755127,421.155273 L294.755127,479 L312.435791,479 L312.435791,448.589355 L333.175473,479 L352.943604,479 Z M284.503662,479 L284.503662,468.220703 L252.047607,468.220703 L252.047607,456.226074 L281.307861,456.226074 L281.307861,443.816406 L252.047607,443.816406 L252.047607,434.145996 L283.590576,434.145996 L283.590576,421.155273 L233.204834,421.155273 L233.204834,479 L284.503662,479 Z M214.340134,479 C216.879212,477.43415 218.947869,475.432044 220.546143,472.993652 C222.704356,469.700993 223.783447,466.104023 223.783447,462.202637 C223.783447,458.882308 222.974129,455.880222 221.355469,453.196289 C219.736808,450.512356 217.149757,448.264251 213.594238,446.451904 C210.038719,444.639558 204.152141,442.847991 195.934326,441.077148 C193.575296,440.585684 191.830832,440.066291 190.700911,439.518961 L170.93513,439.518961 C171.293127,443.564455 173.040894,446.947593 176.178467,449.668457 C179.692482,452.739761 185.572143,455.202302 193.817627,457.056152 C198.853459,458.162929 202.063063,459.338861 203.446533,460.583984 C204.830004,461.829108 205.521729,463.240226 205.521729,464.817383 C205.521729,466.477547 204.795417,467.937087 203.342773,469.196045 C202.168764,470.21352 200.592656,470.819833 198.614416,471.014994 L208.911152,479 L214.340134,479 Z M186.618849,461.712564 C186.564542,461.400622 186.515404,461.079767 186.471436,460.75 L185.45937,460.813401 L186.618849,461.712564 Z M200.996666,433.231045 C201.031935,433.259007 201.0669,433.287298 201.101563,433.315918 C202.609545,434.561041 203.598712,436.553209 204.069092,439.29248 L221.79126,438.254883 C221.016516,431.946258 218.588562,427.346287 214.507324,424.454834 C211.209601,422.118481 206.70608,420.726053 200.996666,420.277526 L200.996666,433.231045 Z M15.9318848,440 L15.9318848,482 L34.8161621,482 L34.8161621,459.421875 L44,459.421875 L44,446.63555 C42.7370365,446.941994 41.2114048,447.095215 39.4230957,447.095215 L34.8161621,447.095215 L34.8161621,440 L15.9318848,440 Z M84,421.155273 L84,478 L96.9890137,478 L96.9890137,421.155273 L84,421.155273 Z M129.968883,420.335169 C126.11402,420.670469 122.916564,421.39346 120.376465,422.50415 C116.737938,424.095141 114.012542,426.280992 112.200195,429.061768 C110.387849,431.842543 109.481689,434.796208 109.481689,437.922852 C109.481689,442.68199 111.252505,446.597153 114.794189,449.668457 C118.308204,452.739761 124.187866,455.202302 132.43335,457.056152 C137.469182,458.162929 140.678785,459.338861 142.062256,460.583984 C143.445726,461.829108 144.137451,463.240226 144.137451,464.817383 C144.137451,466.477547 143.41114,467.937087 141.958496,469.196045 C140.505852,470.455003 138.437595,471.084473 135.753662,471.084473 C132.156639,471.084473 129.38974,469.853202 127.452881,467.390625 C126.263096,465.868807 125.47453,463.655288 125.087158,460.75 L107.198975,461.870605 C107.724693,468.013214 109.979716,473.07664 113.964111,477.061035 C114.290465,477.387389 114.638166,477.700377 115.007214,478 L154.43384,478 C154.981449,477.594041 155.503502,477.164382 156,476.711022 L156,448.826785 C154.890519,447.965922 153.627174,447.174297 152.209961,446.451904 C148.654442,444.639558 142.767863,442.847991 134.550049,441.077148 C131.22972,440.385413 129.126876,439.63835 128.241455,438.835938 C127.328365,438.061194 126.871826,437.189621 126.871826,436.221191 C126.871826,434.89306 127.425206,433.765548 128.531982,432.838623 C129.638759,431.911698 131.285064,431.448242 133.470947,431.448242 C136.127211,431.448242 138.209302,432.070795 139.717285,433.315918 C141.225268,434.561041 142.214434,436.553209 142.684814,439.29248 L153.849155,438.638831 L129.968883,420.335169 Z M200.996666,320 L200.996666,319 L201,320 L200.996666,320 Z" id="Combined-Shape" fill="#000000"></path>
    </g>
</svg>