<?xml version="1.0" encoding="UTF-8"?>
<svg width="1536px" height="1971px" viewBox="0 0 1536 1971" version="1.1" xmlns="http://www.w3.org/2000/svg" xmlns:xlink="http://www.w3.org/1999/xlink">
    <!-- Generator: Sketch 52.3 (67297) - http://www.bohemiancoding.com/sketch -->
    <title>3-tablet</title>
    <desc>Created with Sketch.</desc>
    <g id="3-tablet" stroke="none" stroke-width="1" fill="none" fill-rule="evenodd">
        <path d="M1011.38422,860 L826,860 L826,1104.76857 L559.240726,925.90757 L432.942377,1104.76857 L249.778243,1087.98331 L231.789949,1122.26296 C237.490589,1125.17683 242.526095,1128.72085 246.896484,1132.89502 C261.371654,1146.72028 268.609131,1166.3944 268.609131,1191.91797 C268.609131,1218.15052 260.721759,1238.65178 244.946777,1253.42236 C229.171796,1268.19294 205.096109,1275.57812 172.718994,1275.57812 L151.337588,1275.57812 L128.761963,1318.59968 L128.761963,1372 L100.740067,1372 L9.47178432,1545.92668 L232.72924,1772.82794 L38.1819238,1859.00253 L161.372994,1864.07282 L70.8562093,1971.09791 L-141,1974 L-141,605.120209 L185.273348,750.728955 L315.261953,403 L573.859746,476.420846 L539.222571,600.157227 L758.251465,600.157227 L758.251465,664.320312 L676.36377,664.320312 L676.36377,717.672487 L794.409668,788.331356 L794.409668,600.157227 L867.50264,600.157227 L985.113662,399.5 L1371.43242,520.865739 L1541.5,973.5 L1137.12555,961.771511 L1011.38422,860 Z M938.678829,801.154297 L875.390102,749.930176 L874.879395,749.930176 L874.879395,801.154297 L938.678829,801.154297 Z M545.225601,1376.15464 C508.166433,1374.5679 482.014874,1366.15233 466.770264,1350.90771 C449.754554,1333.892 440.124279,1312.2682 437.87915,1286.03564 L514.272217,1281.25 C515.926522,1293.65729 519.294164,1303.11032 524.375244,1309.60937 C532.64677,1320.12603 544.463058,1325.38428 559.824463,1325.38428 C561.795081,1325.38428 563.687981,1325.30482 565.503163,1325.1459 L584.056101,1278.4755 C577.149474,1273.91864 564.345789,1269.58521 545.644775,1265.4751 C510.431709,1257.55807 485.322097,1247.04157 470.315186,1233.92529 C455.19011,1220.80902 447.627686,1204.08897 447.627686,1183.76465 C447.627686,1170.41204 451.49752,1157.79816 459.237305,1145.92261 C466.977089,1134.04706 478.616133,1124.71219 494.154785,1117.91772 C509.693437,1111.12326 530.992296,1107.72607 558.052002,1107.72607 C591.25627,1107.72607 616.572667,1113.90008 634.001953,1126.24829 C636.836685,1128.25663 639.484651,1130.45797 641.94585,1132.85232 L642.949125,1130.32856 L714.105959,1208.34163 C711.21842,1200.83738 709.774658,1192.64506 709.774658,1183.76465 C709.774658,1170.41204 713.644493,1157.79816 721.384277,1145.92261 C729.124062,1134.04706 740.763106,1124.71219 756.301758,1117.91772 C771.84041,1111.12326 793.139269,1107.72607 820.198975,1107.72607 C853.403242,1107.72607 878.719639,1113.90008 896.148926,1126.24829 C913.578212,1138.5965 923.947005,1158.24108 927.255615,1185.18262 L851.571533,1189.61377 C849.562734,1177.91547 845.338411,1169.40774 838.898438,1164.09033 C832.458464,1158.77292 823.566707,1156.11426 812.2229,1156.11426 C802.887893,1156.11426 795.857201,1158.09349 791.130615,1162.052 C786.404029,1166.01052 784.040771,1170.82566 784.040771,1176.49756 C784.040771,1180.63332 785.990459,1184.35545 789.889893,1187.66406 C793.671161,1191.09084 802.65154,1194.28124 816.831299,1197.23535 C851.926201,1204.79789 877.065354,1212.44894 892.249512,1220.18872 C907.43367,1227.92851 918.481899,1237.52924 925.394531,1248.99121 C932.307163,1260.45318 935.763428,1273.27385 935.763428,1287.45361 C935.763428,1304.11483 931.155075,1319.476 921.938232,1333.5376 C912.721389,1347.59919 899.841635,1358.26339 883.298584,1365.53052 C877.249636,1368.18773 870.624083,1370.35914 863.421897,1372.04474 L902.475439,1414.86124 L975.998291,1312.27709 L975.998291,1112.15723 L1191.17505,1112.15723 L1191.17505,1167.63525 L1185.24959,1167.63525 L1238.85425,1205.06438 L1238.85425,1112.15723 L1313.82935,1112.15723 L1411.66919,1255.90381 L1411.66919,1112.15723 L1487.35327,1112.15723 L1487.35327,1372 L1477.93349,1372 L1540.5,1415.68668 L1347.15971,1658.5 L511.5,1460.99227 L545.225601,1376.15464 Z M610.451386,1212.07747 L620.095256,1187.81806 L589.424561,1189.61377 C587.415761,1177.91547 583.191438,1169.40774 576.751465,1164.09033 C570.311491,1158.77292 561.419734,1156.11426 550.075928,1156.11426 C540.74092,1156.11426 533.710229,1158.09349 528.983643,1162.052 C524.257056,1166.01052 521.893799,1170.82566 521.893799,1176.49756 C521.893799,1180.63332 523.843486,1184.35545 527.74292,1187.66406 C531.524189,1191.09084 540.504568,1194.28124 554.684326,1197.23535 C577.46999,1202.14539 596.058941,1207.09275 610.451386,1212.07747 Z M746.376483,1243.72154 L820.853665,1325.37489 C821.224146,1325.38115 821.596736,1325.38428 821.971436,1325.38428 C833.433407,1325.38428 842.266082,1322.69607 848.469727,1317.31958 C854.673371,1311.94309 857.775146,1305.71 857.775146,1298.62012 C857.775146,1291.88473 854.821074,1285.85843 848.912842,1280.54102 C843.004609,1275.22361 829.297715,1270.20168 807.791748,1265.4751 C781.826706,1259.63732 761.355051,1252.38618 746.376483,1243.72154 Z M1056.46802,1200.00018 L1079.66421,1167.63525 L1056.46802,1167.63525 L1056.46802,1200.00018 Z M1314.36108,1257.78657 L1351.42815,1283.66842 L1314.36108,1229.31689 L1314.36108,1257.78657 Z M188.456382,1204.84217 C187.872652,1206.26151 187.160321,1207.61898 186.319388,1208.91457 L188.456382,1204.84217 Z M587.231217,664.320312 L596.071289,669.611724 L596.071289,664.320312 L587.231217,664.320312 Z M1477.5,99.0802341 L1183.16493,319.10151 L986.904736,111.17665 L915.945395,111.17665 L915.945395,162.694222 L676.633331,184.609645 L662.025799,401.673256 L382.797204,211.374933 L124.443453,438.5 L-190.5,-0.5 L915.945395,-0.5 L1477.5,-0.5 L1477.5,99.0802341 Z M1622.64585,80 L1704,80 L1692.23655,576 L1464,531.845202 L1505.14208,356.367272 L1585.5114,356.367272 L1622.64585,80 Z M1647.97999,1131 L1694,1390 L1489,1169.92777 L1647.97999,1131 Z M1646.5,1697.5 L1646.5,2001.5 L1275.32163,2001.5 L1095.5,1717.77278 L1646.5,1697.5 Z M983.5,1779.32862 L895.365815,2001.5 L125.5,1972.76684 L631.464345,1616.5 L983.5,1779.32862 Z M313.806885,1112.15723 L394.276611,1112.15723 L394.276611,1372 L313.806885,1372 L313.806885,1112.15723 Z M1011.38422,860 L1013.48584,860 L1013.48584,801.154297 L938.678829,801.154297 L1011.38422,860 Z M875.390102,749.930176 L999.837891,749.930176 L999.837891,696.933594 L874.879395,696.933594 L874.879395,655.635254 L1009.58643,655.635254 L1009.58643,600.157227 L867.50264,600.157227 L810.5,697.409946 L875.390102,749.930176 Z M545.225601,1376.15464 C549.531088,1376.33898 553.983801,1376.43115 558.58374,1376.43115 C583.752811,1376.43115 604.60856,1372.79764 621.151611,1365.53052 C637.694663,1358.26339 650.574417,1347.59919 659.79126,1333.5376 C669.008103,1319.476 673.616455,1304.11483 673.616455,1287.45361 C673.616455,1273.27385 670.160191,1260.45318 663.247559,1248.99121 C656.334926,1237.52924 645.286697,1227.92851 630.102539,1220.18872 C624.776825,1217.47406 618.226451,1214.77031 610.451386,1212.07747 L584.056101,1278.4755 C585.092022,1279.15898 585.995278,1279.84748 586.765869,1280.54102 C592.674102,1285.85843 595.628174,1291.88473 595.628174,1298.62012 C595.628174,1305.71 592.526398,1311.94309 586.322754,1317.31958 C581.185681,1321.77171 574.245868,1324.38047 565.503163,1325.1459 L545.225601,1376.15464 Z M620.095256,1187.81806 L665.108643,1185.18262 C662.338151,1162.6229 654.617281,1145.17958 641.94585,1132.85232 L620.095256,1187.81806 Z M714.105963,1208.34164 C717.827046,1218.01213 723.945764,1226.53998 732.462158,1233.92529 C736.40343,1237.37003 741.041534,1240.63544 746.376483,1243.72154 L714.105959,1208.34163 Z M820.853665,1325.37489 C806.035688,1325.12463 794.591981,1319.8695 786.522217,1309.60937 C781.441137,1303.11032 778.073495,1293.65729 776.419189,1281.25 L700.026123,1286.03564 C702.271251,1312.2682 711.901526,1333.892 728.917236,1350.90771 C745.932946,1367.92342 776.537133,1376.43115 820.730713,1376.43115 C836.696741,1376.43115 850.927082,1374.96902 863.421897,1372.04474 L820.853665,1325.37489 Z M975.998291,1312.27709 L975.998291,1372 L1195.07446,1372 L1195.07446,1313.1543 L1056.46802,1313.1543 L1056.46802,1261.93018 L1181.42651,1261.93018 L1181.42651,1208.93359 L1056.46802,1208.93359 L1056.46802,1200.00018 L975.998291,1312.27709 Z M1079.66421,1167.63525 L1185.24959,1167.63525 L1114.87983,1118.5 L1079.66421,1167.63525 Z M1238.85425,1205.06438 L1238.85425,1372 L1314.36108,1372 L1314.36108,1257.78657 L1238.85425,1205.06438 Z M1351.42815,1283.66842 L1411.66919,1372 L1477.93349,1372 L1351.42815,1283.66842 Z M826,860 L826,807.240418 L794.409668,788.331356 L794.409668,860 L826,860 Z M231.789949,1122.26296 C218.609491,1115.52578 201.873349,1112.15723 181.581299,1112.15723 L48.1149902,1112.15723 L48.1149902,1372 L100.740067,1372 L128.761963,1318.59968 L128.761963,1275.57812 L151.337588,1275.57812 L186.319388,1208.91457 C184.919273,1211.07167 183.162665,1213.05726 181.049561,1214.87134 C174.786834,1220.24783 163.915849,1222.93604 148.436279,1222.93604 L128.761963,1222.93604 L128.761963,1164.97656 L151.626709,1164.97656 C166.63362,1164.97656 176.854709,1167.81247 182.290283,1173.48437 C187.725857,1179.15628 190.443604,1186.06881 190.443604,1194.22217 C190.443604,1198.08089 189.781199,1201.62089 188.456382,1204.84217 L231.789949,1122.26296 Z M539.222571,600.157227 L514.183594,600.157227 L514.183594,664.320312 L587.231217,664.320312 L530.728901,630.499656 L539.222571,600.157227 Z M596.071289,669.611724 L596.071289,860 L676.36377,860 L676.36377,717.672487 L596.071289,669.611724 Z" id="Combined-Shape" fill="#000000"></path>
    </g>
</svg>