<?xml version="1.0" encoding="UTF-8"?>
<svg width="1680px" height="950px" viewBox="0 0 1680 950" version="1.1" xmlns="http://www.w3.org/2000/svg" xmlns:xlink="http://www.w3.org/1999/xlink">
    <!-- Generator: Sketch 52.3 (67297) - http://www.bohemiancoding.com/sketch -->
    <title>4-desktop</title>
    <desc>Created with Sketch.</desc>
    <g id="4-desktop" stroke="none" stroke-width="1" fill="none" fill-rule="evenodd">
        <path d="M89.4312723,403.835938 L145.712891,403.835938 C159.515043,403.835938 170.11064,407.253872 177.5,414.089844 C184.88936,420.925815 188.583984,429.389272 188.583984,439.480469 C188.583984,447.944053 185.947292,455.203095 180.673828,461.257812 C177.158186,465.294291 172.015008,468.484363 165.244141,470.828125 C175.53065,473.302096 183.098934,477.5501 187.949219,483.572266 C192.799503,489.594431 195.224609,497.162715 195.224609,506.277344 C195.224609,509.912312 194.810781,513.367668 193.983119,516.643435 L218.956206,517.675634 C218.342207,516.262935 217.820998,514.839808 217.392578,513.40625 C214.658189,504.291621 213.291016,496.218785 213.291016,489.1875 L213.291016,403.835938 L257.431641,403.835938 L257.431641,491.238281 C257.431641,499.05082 259.596333,505.154275 263.925781,509.548828 C268.25523,513.943381 274.261029,516.140625 281.943359,516.140625 C289.560585,516.140625 295.533833,513.975933 299.863281,509.646484 C304.19273,505.317036 306.357422,499.181029 306.357422,491.238281 L306.357422,403.835938 L350.498047,403.835938 L350.498047,489.1875 C350.498047,497.651084 349.179701,505.642541 346.542969,513.162109 C343.906237,520.681678 339.772164,527.257133 334.140625,532.888672 C328.509086,538.52021 322.600942,542.475249 316.416016,544.753906 C307.822223,547.944026 297.503315,549.539062 285.458984,549.539062 C279.741151,549.539062 273.595745,549.210105 267.022638,548.552183 L129.377745,672.599236 L330.242389,812.93056 L-58,984 L-58,383.006416 L-58,77.9839392 L30.0666697,77.9839392 L224.64887,237.859419 L40.764486,344.463069 L40.764486,383.006416 L86.3255463,383.006416 L89.4312723,403.835938 Z M107.529297,513.070086 L142.15979,514.501449 C143.774806,513.890607 145.121931,513.118641 146.201172,512.185547 C149.326188,509.48371 150.888672,505.854189 150.888672,501.296875 C150.888672,497.065083 149.342463,493.663424 146.25,491.091797 C143.157537,488.520169 137.737669,487.234375 129.990234,487.234375 L107.529297,487.234375 L107.529297,513.070086 Z M798.721325,125.688918 C799.984572,126.12533 801.195302,126.598816 802.353516,127.109375 C810.328816,130.625018 816.920547,135.67054 822.128906,142.246094 C827.337266,148.821647 831.11327,156.471311 833.457031,165.195312 C835.800793,173.919314 836.972656,183.164014 836.972656,192.929688 C836.972656,208.229243 835.231137,220.094359 831.748047,228.525391 C828.264957,236.956422 823.431021,244.020154 817.246094,249.716797 C811.061167,255.41344 804.420608,259.20572 797.324219,261.09375 C795.615413,261.55249 793.934894,261.970824 792.282662,262.348754 L792.249787,263.046511 L607.146293,403.835937 L720.517578,403.835938 L720.517578,430.998461 L746.494141,430.998461 L746.494141,403.835938 L790.732422,403.835938 L790.732422,430.998461 L909.03894,430.998461 L919.248047,403.835938 L967.490234,403.835938 L1002.40311,496.725741 L1035.75195,478.067079 L1035.75195,403.835938 L1077.06055,403.835938 L1102.25843,440.856734 L1130.9668,424.794411 L1130.9668,403.835938 L1168.42611,403.835938 L1193.19231,389.979261 L930.719677,274.587005 L941.632561,265 L860.117188,265 L860.117188,121.835938 L978.671875,121.835938 L978.671875,152.402344 L904.453125,152.402344 L904.453125,175.15625 L973.300781,175.15625 L973.300781,204.355469 L904.453125,204.355469 L904.453125,232.578125 L978.538369,232.578125 L1193.92336,43.3616925 L1408.97122,148.397056 L1307.02839,412.974365 C1311.83619,416.027233 1316.00705,419.78446 1319.54102,424.246094 C1324.74938,430.821647 1328.52538,438.471311 1330.86914,447.195312 C1333.2129,455.919314 1334.38477,465.164014 1334.38477,474.929688 C1334.38477,490.229243 1332.64325,502.094359 1329.16016,510.525391 C1325.67707,518.956422 1320.84313,526.020154 1314.6582,531.716797 C1308.47328,537.41344 1301.83272,541.20572 1294.73633,543.09375 C1285.03576,545.69793 1276.24678,547 1268.36914,547 L1255.38771,547 L1234.0483,602.38324 L1006.92764,547 L975.009766,547 L972.512974,538.608004 L941.19565,530.971293 L954.786554,523.367188 L917.587891,523.367188 L910.654297,547 L865.439453,547 L903.036434,446.968832 L832.290739,511.746094 L859.775391,511.746094 L859.775391,547 L793.788615,547 L762.305057,575.82746 L920.478279,644.397386 L914.2928,685.835938 L989.707031,685.835938 L989.707031,716.402344 L915.488281,716.402344 L915.488281,739.15625 L984.335938,739.15625 L984.335938,768.355469 L981.72875,768.355469 L1016.26953,779.483146 L1016.26953,685.835938 L1090,685.835938 C1103.67194,685.835938 1114.12106,687.007801 1121.34766,689.351562 C1128.57425,691.695324 1134.40102,696.040984 1138.82812,702.388672 C1143.25523,708.73636 1145.46875,716.467402 1145.46875,725.582031 C1145.46875,733.524779 1143.77606,740.376924 1140.39062,746.138672 C1137.00519,751.900419 1132.35029,756.571597 1126.42578,760.152344 C1122.64972,762.431001 1117.47399,764.319003 1110.89844,765.816406 C1116.1719,767.574228 1120.01301,769.332022 1122.42188,771.089844 C1124.04949,772.261725 1126.40949,774.76821 1129.50195,778.609375 C1132.59442,782.45054 1134.66145,785.41275 1135.70312,787.496094 L1154.52564,824.02381 L1310.61029,874.308127 L1511.26725,753.097143 L1587.47454,858.720812 L1591.95838,791.837891 L1686.60452,840.981282 L1689.17095,956.002299 L478.621239,956.002299 L570.941868,829 L538.242188,829 L538.242188,762.992858 L299.879058,708.288466 L364.807756,567.890499 L501.065198,591.307106 L601.962891,487.820501 L601.962891,407.778425 L582.041016,422.930972 L582.041016,439.1875 L560.667676,439.1875 L558.951754,440.492628 L555.33469,439.1875 L536.923828,439.1875 L536.923828,547 L492.685547,547 L492.685547,439.1875 L447.568359,439.1875 L447.568359,403.835938 L457.360469,403.835938 L296.047406,345.630129 L403.152191,135.754438 L802.600132,43.3616925 L798.721325,125.688918 Z M1288.82014,460.231143 L1268.1351,513.916075 C1272.11276,513.413913 1275.21811,512.576656 1277.45117,511.404297 C1281.35744,509.353505 1284.41731,505.772812 1286.63086,500.662109 C1288.84441,495.551407 1289.95117,487.266984 1289.95117,475.808594 C1289.95117,469.886868 1289.57416,464.694391 1288.82014,460.231143 Z M1380.3031,544.241753 C1374.32873,542.007506 1369.5044,539.053226 1365.83008,535.378906 C1356.45503,526.003859 1351.14909,514.089916 1349.91211,499.636719 L1392.00195,497 C1392.49872,500.725723 1393.27589,503.967951 1394.33347,506.726709 L1408.3604,488.0982 C1389.44483,483.760869 1375.91922,478.03679 1367.7832,470.925781 C1359.44983,463.699183 1355.2832,454.487035 1355.2832,443.289062 C1355.2832,435.932255 1357.41534,428.982455 1361.67969,422.439453 C1365.94403,415.896452 1372.35673,410.753274 1380.91797,407.009766 C1389.47921,403.266257 1401.21412,401.394531 1416.12305,401.394531 C1434.41741,401.394531 1448.36584,404.79619 1457.96875,411.599609 C1459.72519,412.844003 1461.35149,414.222887 1462.84765,415.736263 L1515.63631,345.630129 L1712,393.479572 L1686.60452,811.451903 L1380.3031,544.241757 Z M1433.09396,455.250725 L1439.96326,446.127933 L1433.4082,446.511719 C1432.30143,440.066374 1429.97398,435.378921 1426.42578,432.449219 C1422.87759,429.519517 1417.97855,428.054688 1411.72852,428.054688 C1406.58526,428.054688 1402.7116,429.145171 1400.10742,431.326172 C1397.50324,433.507172 1396.20117,436.160141 1396.20117,439.285156 C1396.20117,441.563813 1397.27538,443.614574 1399.42383,445.4375 C1401.50717,447.32553 1406.45504,449.083325 1414.26758,450.710938 C1421.26045,452.21782 1427.53591,453.73108 1433.09396,455.250725 Z M1060.70312,793.797897 L1093.84126,804.473697 L1083.45703,785.25 C1080.46222,779.585909 1077.79298,775.907561 1075.44922,774.214844 C1072.2591,772.001291 1068.64585,770.894531 1064.60938,770.894531 L1060.70312,770.894531 L1060.70312,793.797897 Z M582.480469,813.126745 L607.388298,778.861906 L582.480469,773.145553 L582.480469,813.126745 Z M646.298828,442.346957 L654.044692,434.402344 L646.298828,434.402344 L646.298828,442.346957 Z M14.5222086,-0.897519546 L14.5222086,-45 L452.690517,-38.6229771 L413.683998,85.1051694 L258.66612,62.8018449 L258.66612,19.2332476 L14.5222086,-0.897519546 Z M943.317366,-15.3247447 L1172.54432,-40.348772 L977.770238,71.1228518 L943.317366,-15.3247447 Z M1443.45705,-13.8242278 L1712,-13.8242278 L1712,187.651814 L1461.36531,285.259201 L1443.45705,-13.8242278 Z M107.529297,459.988281 L126.767578,459.988281 C133.668654,459.988281 138.470039,458.800142 141.171875,456.423828 C143.873711,454.047514 145.224609,450.613304 145.224609,446.121094 C145.224609,441.954406 143.873711,438.69923 141.171875,436.355469 C138.470039,434.011707 133.76631,432.839844 127.060547,432.839844 L107.529297,432.839844 L107.529297,459.988281 Z M381.552734,403.835938 L425.888672,403.835938 L425.888672,547 L381.552734,547 L381.552734,403.835938 Z M958.701172,492.410156 L942.880859,440.945312 L927.158203,492.410156 L958.701172,492.410156 Z M1060.70312,743.84375 L1079.35547,743.84375 C1081.37371,743.84375 1085.27992,743.192715 1091.07422,741.890625 C1094.00392,741.304685 1096.39648,739.807304 1098.25195,737.398438 C1100.10743,734.989571 1101.03516,732.222672 1101.03516,729.097656 C1101.03516,724.475237 1099.57033,720.927096 1096.64062,718.453125 C1093.71092,715.979154 1088.20968,714.742188 1080.13672,714.742188 L1060.70312,714.742188 L1060.70312,743.84375 Z M89.4312723,403.835938 L62.9003906,403.835938 L62.9003906,547 L139.267578,547 C142.522803,547 149.13081,546.348965 159.091797,545.046875 C166.578813,544.070308 172.177716,542.507823 175.888672,540.359375 C181.878285,536.908837 186.59829,532.221384 190.048828,526.296875 C191.809425,523.273964 193.120853,520.056159 193.983119,516.643435 L142.15979,514.501449 C139.098418,515.659341 135.074467,516.238281 130.087891,516.238281 L107.529297,516.238281 L107.529297,513.070086 L105.707087,512.994769 L89.4312723,403.835938 Z M218.956206,517.675634 C220.768163,521.844607 223.388216,525.922758 226.816406,529.910156 C231.406273,535.248725 236.468071,539.366522 242.001953,542.263672 C247.535835,545.160822 254.420532,547.097651 262.65625,548.074219 C264.1321,548.249221 265.587562,548.408542 267.022638,548.552183 L297.67359,520.929217 L218.956206,517.675634 Z M798.721325,125.688918 C791.286019,123.120253 782.03132,121.835938 770.957031,121.835938 L705.234375,121.835938 L705.234375,265 L770.957031,265 C777.446987,265 784.555481,264.116259 792.282662,262.348754 L798.721325,125.688918 Z M607.146293,403.835938 L601.962891,403.835938 L601.962891,407.778425 L607.146293,403.835937 Z M582.041016,422.930972 L582.041016,403.835938 L457.360469,403.835938 L555.33469,439.1875 L560.667676,439.1875 L582.041016,422.930972 Z M1307.02839,412.974365 C1304.75046,411.527918 1302.32954,410.23959 1299.76562,409.109375 C1291.79032,405.593732 1281.32493,403.835938 1268.36914,403.835938 L1202.64648,403.835938 L1202.64648,547 L1255.38771,547 L1268.1351,513.916075 C1265.15469,514.292338 1261.68453,514.480469 1257.72461,514.480469 L1246.88477,514.480469 L1246.88477,436.257812 L1257.91992,436.257812 C1269.37831,436.257812 1277.58136,439.057264 1282.5293,444.65625 C1285.54569,448.069535 1287.64263,453.261143 1288.82014,460.231143 L1307.02839,412.974365 Z M1006.92764,547 L1021.29883,547 L1002.40311,496.725741 L954.786554,523.367188 L967.978516,523.367188 L972.512974,538.608004 L1006.92764,547 Z M1035.75195,478.067079 L1035.75195,547 L1077.35352,547 L1077.35352,468.386719 L1130.9668,547 L1172.66602,547 L1172.66602,403.835938 L1168.42611,403.835938 L1130.9668,424.794411 L1130.9668,483.035156 L1102.25843,440.856734 L1035.75195,478.067079 Z M941.632561,265 L980.820312,265 L980.820312,232.578125 L978.538369,232.578125 L941.632561,265 Z M1380.3031,544.241753 C1389.57236,547.708199 1401.60996,549.441406 1416.41602,549.441406 C1430.28327,549.441406 1441.77404,547.439473 1450.88867,543.435547 C1460.0033,539.431621 1467.09958,533.556028 1472.17773,525.808594 C1477.25588,518.061159 1479.79492,509.597702 1479.79492,500.417969 C1479.79492,492.60543 1477.89064,485.541698 1474.08203,479.226562 C1470.27342,472.911427 1464.18624,467.621766 1455.82031,463.357422 C1450.47992,460.635278 1442.90451,457.933056 1433.09396,455.250725 L1408.3604,488.0982 C1408.66789,488.168686 1408.97679,488.238823 1409.28711,488.308594 C1421.13613,490.912773 1428.68813,493.679673 1431.94336,496.609375 C1435.19858,499.539077 1436.82617,502.859356 1436.82617,506.570312 C1436.82617,510.476582 1435.1172,513.910792 1431.69922,516.873047 C1428.28123,519.835301 1423.41475,521.316406 1417.09961,521.316406 C1408.63603,521.316406 1402.12567,518.4193 1397.56836,512.625 C1396.29464,510.995822 1395.21634,509.02973 1394.33347,506.726709 L1371.72206,536.755855 L1380.3031,544.241757 Z M1439.96326,446.127933 L1475.10742,444.070312 C1473.61792,431.941529 1469.53136,422.496905 1462.84765,415.736263 L1439.96326,446.127933 Z M720.517578,430.998461 L657.36342,430.998461 L654.044692,434.402344 L720.517578,434.402344 L720.517578,430.998461 Z M746.494141,430.998461 L746.494141,547 L793.788615,547 L832.290739,511.746094 L790.732422,511.746094 L790.732422,430.998461 L746.494141,430.998461 Z M909.03894,430.998461 L903.036434,446.968832 L920.478279,430.998461 L909.03894,430.998461 Z M914.2928,685.835938 L871.152344,685.835938 L871.152344,829 L991.855469,829 L991.855469,796.578125 L915.488281,796.578125 L915.488281,768.355469 L981.72875,768.355469 L905.634474,743.840895 L914.2928,685.835938 Z M1016.26953,779.483146 L1016.26953,829 L1060.70312,829 L1060.70312,793.797897 L1016.26953,779.483146 Z M1093.84126,804.473697 L1107.08984,829 L1157.08984,829 L1154.52564,824.02381 L1093.84126,804.473697 Z M570.941868,829 L582.480469,829 L582.480469,813.126745 L570.941868,829 Z M582.480469,773.145553 L582.480469,771.089844 L630.820312,771.089844 L630.820312,829 L675.253906,829 L675.253906,685.835938 L630.820312,685.835938 L630.820312,735.933594 L582.480469,735.933594 L582.480469,685.835938 L538.242188,685.835938 L538.242188,762.992858 L582.480469,773.145553 Z M601.962891,487.820501 L601.962891,547 L722.666016,547 L722.666016,514.578125 L646.298828,514.578125 L646.298828,486.355469 L715.146484,486.355469 L715.146484,457.15625 L646.298828,457.15625 L646.298828,442.346957 L601.962891,487.820501 Z M749.472656,154.257812 L760.507812,154.257812 C771.966203,154.257812 780.169246,157.057264 785.117188,162.65625 C790.065129,168.255236 792.539062,178.639247 792.539062,193.808594 C792.539062,205.266984 791.432303,213.551407 789.21875,218.662109 C787.005197,223.772812 783.945332,227.353505 780.039062,229.404297 C776.132793,231.455088 769.557338,232.480469 760.3125,232.480469 L749.472656,232.480469 L749.472656,154.257812 Z M1501.96289,403.835938 L1501.96289,547 L1622.66602,547 L1622.66602,514.578125 L1546.29883,514.578125 L1546.29883,486.355469 L1615.14648,486.355469 L1615.14648,457.15625 L1546.29883,457.15625 L1546.29883,434.402344 L1620.51758,434.402344 L1620.51758,403.835938 L1501.96289,403.835938 Z M699.082031,757.515625 C699.082031,774.247479 702.369759,788.179632 708.945312,799.3125 C715.520866,810.445368 724.098254,818.583308 734.677734,823.726562 C745.257214,828.869817 758.619711,831.441406 774.765625,831.441406 C790.651121,831.441406 803.915962,828.46292 814.560547,822.505859 C825.205131,816.548798 833.343071,808.215548 838.974609,797.505859 C844.606148,786.79617 847.421875,773.075604 847.421875,756.34375 C847.421875,733.29676 840.976627,715.377017 828.085938,702.583984 C815.195248,689.790952 796.836057,683.394531 773.007812,683.394531 C749.765509,683.394531 731.63418,689.904883 718.613281,702.925781 C705.592383,715.94668 699.082031,734.143112 699.082031,757.515625 Z M743.320312,757.710938 C743.320312,743.127531 746.022108,732.678417 751.425781,726.363281 C756.829454,720.048146 763.990841,716.890625 772.910156,716.890625 C782.220099,716.890625 789.593072,719.999318 795.029297,726.216797 C800.465522,732.434276 803.183594,742.281183 803.183594,755.757812 C803.183594,771.773518 800.579453,782.873667 795.371094,789.058594 C790.162734,795.243521 782.806037,798.335938 773.300781,798.335938 C764.055943,798.335938 756.748074,795.178417 751.376953,788.863281 C746.005833,782.548146 743.320312,772.164135 743.320312,757.710938 Z" id="Combined-Shape" fill="#000000"></path>
    </g>
</svg>