<?xml version="1.0" encoding="UTF-8"?>
<svg width="1536px" height="1971px" viewBox="0 0 1536 1971" version="1.1" xmlns="http://www.w3.org/2000/svg" xmlns:xlink="http://www.w3.org/1999/xlink">
    <!-- Generator: Sketch 52.3 (67297) - http://www.bohemiancoding.com/sketch -->
    <title>4-tablet</title>
    <desc>Created with Sketch.</desc>
    <g id="4-tablet" stroke="none" stroke-width="1" fill="none" fill-rule="evenodd">
        <path d="M93.0423896,916.84668 L98.0129395,916.84668 C111.332016,916.84668 121.556768,920.144987 128.6875,926.741699 C135.818232,933.338412 139.383545,941.505648 139.383545,951.243652 C139.383545,959.411011 136.839137,966.415986 131.750244,972.258789 C128.357649,976.153991 123.394483,979.232411 116.860596,981.494141 C126.787078,983.881522 134.090471,987.980847 138.770996,993.792236 C143.451521,999.603626 145.791748,1006.90702 145.791748,1015.70264 C145.791748,1022.86478 144.126888,1029.30433 140.797119,1035.02148 C137.46735,1040.73864 132.912545,1045.26203 127.132568,1048.5918 C123.551496,1050.66505 118.148555,1052.17285 110.923584,1053.11523 C108.027701,1053.49378 105.425488,1053.81531 103.116942,1054.07981 L105.60488,1087.96991 L297.451534,1104.07497 L129.26076,1411.92952 L330,1696.76918 L-58,2044 L-58,824.124052 L-58,205 L30.0116875,205 L224.472405,529.509708 L40.7028249,745.890102 L40.7028249,824.124052 L86.2354403,824.124052 L93.0423896,916.84668 Z M95.4991851,950.312556 L96.4752262,963.607954 C97.1862426,961.901004 97.541748,959.915642 97.541748,957.651855 C97.541748,954.746035 96.8608987,952.299613 95.4991851,950.312556 Z M99.2724307,1001.7108 L100.553226,1019.15749 C102.18946,1016.88958 103.007568,1014.13593 103.007568,1010.89648 C103.007568,1007.16618 101.762534,1004.10431 99.2724307,1001.7108 Z M742.862307,656.636675 C745.782641,658.951623 748.41333,661.586887 750.754395,664.54248 C755.780461,670.88789 759.424305,678.269815 761.686035,686.688477 C763.947765,695.107138 765.078613,704.028273 765.078613,713.452148 C765.078613,728.21622 763.398047,739.666056 760.036865,747.802002 C756.675683,755.937948 752.010935,762.754448 746.04248,768.251709 C740.074026,773.74897 733.665887,777.40852 726.817871,779.230469 C717.456822,781.743502 708.975461,783 701.373535,783 L660.93143,783 L574.14853,916.84668 L652.699463,916.84668 L652.699463,930.810489 L657.409255,921 L677.766846,921 L677.766846,916.84668 L720.456787,916.84668 L720.456787,921 L842.913329,921 L844.474365,916.84668 L891.028076,916.84668 L892.589113,921 L920.468835,921 L904.058553,951.515788 L942.953369,1055 L898.284424,1055 L891.499268,1032.19434 L860.672561,1032.19434 L763.342106,1213.18547 C764.646968,1215.07867 765.843793,1217.05781 766.93258,1219.12288 L798.062012,1246.52965 L798.062012,1188.84668 L912.467285,1188.84668 L912.467285,1218.34326 L840.846191,1218.34326 L840.846191,1240.30078 L907.28418,1240.30078 L907.28418,1268.47803 L840.846191,1268.47803 L840.846191,1284.19742 L853.925809,1295.71289 L914.540527,1295.71289 L914.540527,1327 L889.462644,1327 L920.468835,1354.29827 L905.628148,1556.21447 L1310.51888,1821.12314 L1511.13368,1575.00892 L1587.32496,1789.4737 L1591.80786,1653.67052 L1686.43411,1753.45427 L1689,1987 L478.704628,1987 L607.444633,1627.32328 L300,1484.02664 L364.915057,1198.95399 L476.803711,1238.00532 L476.803711,1188.84668 L519.493652,1188.84668 L519.493652,1208.27795 L593.078906,1055 L538.294189,1055 L538.294189,924.750332 L296,747.47112 L403.199355,321.516373 L803,134 L792.640516,579.862933 L742.862307,656.636675 Z M719.523876,692.631918 L681.278326,751.618652 L691.101562,751.618652 C700.022831,751.618652 706.368145,750.62916 710.137695,748.650146 C713.907245,746.671133 716.860015,743.215764 718.996094,738.283936 C721.132172,733.352108 722.200195,725.35764 722.200195,714.300293 C722.200195,705.351931 721.308094,698.129162 719.523876,692.631918 Z M1301.02703,916.511643 C1307.52865,915.164359 1315.17253,914.490723 1323.95874,914.490723 C1341.6128,914.490723 1355.07303,917.773323 1364.33984,924.338623 C1373.60665,930.903923 1379.11954,941.348561 1380.87866,955.672852 L1340.63892,958.028809 C1339.57088,951.809051 1337.32489,947.285659 1333.90088,944.458496 C1330.47687,941.631334 1325.7493,940.217773 1319.71802,940.217773 C1314.75478,940.217773 1311.0167,941.27009 1308.50366,943.374756 C1305.99063,945.479421 1304.73413,948.039536 1304.73413,951.055176 C1304.73413,953.25408 1305.77074,955.233064 1307.84399,956.992188 C1309.85442,958.814137 1314.62911,960.510409 1322.16821,962.081055 C1340.82749,966.101908 1354.19348,970.16982 1362.2666,974.284912 C1370.33972,978.400004 1376.21385,983.504527 1379.88916,989.598633 C1383.56447,995.692739 1385.4021,1002.50924 1385.4021,1010.04834 C1385.4021,1018.90678 1382.95193,1027.07402 1378.05151,1034.55029 C1373.1511,1042.02657 1366.30319,1047.69651 1357.50757,1051.5603 C1348.71195,1055.42409 1337.62336,1057.35596 1324.24146,1057.35596 C1301.78034,1057.35596 1285.92151,1053.22256 1276.66452,1044.95565 L1234.16908,1269 L941.470463,1124.00995 L1028.43695,1025.16659 L997.046143,979.138184 L997.046143,1055 L956.900635,1055 L956.900635,916.84668 L996.763428,916.84668 L1048.78296,993.273926 L1048.78296,916.84668 L1089.02271,916.84668 L1089.02271,956.306735 L1117.95386,923.424501 L1117.95386,916.84668 L1123.7413,916.84668 L1193.33458,837.749151 L931,603.464426 L1194.06525,134 L1409,347.256785 L1301.02703,916.511643 Z M1287.41526,988.275583 L1283.70947,1007.81324 L1300.68188,1006.75 C1301.56145,1013.34671 1303.35196,1018.3727 1306.05347,1021.82812 C1310.45128,1027.41962 1316.73376,1030.21533 1324.90112,1030.21533 C1330.99523,1030.21533 1335.69139,1028.78607 1338.98975,1025.92749 C1342.2881,1023.06891 1343.93726,1019.7549 1343.93726,1015.98535 C1343.93726,1012.40428 1342.36663,1009.20021 1339.22534,1006.37305 C1336.08405,1003.54588 1328.79636,1000.87583 1317.36206,998.362793 C1305.06077,995.597066 1295.07854,992.234678 1287.41526,988.275583 Z M1406.79419,1042.22399 L1406.79419,916.84668 L1453.2433,916.84668 L1515.7967,748 L1712,845.173589 L1686.62526,1694 L1372,1136.14188 L1406.79419,1042.22399 Z M880.433739,995.44738 L876.737463,1002.3208 L882.546631,1002.3208 L880.433739,995.44738 Z M608.099135,1023.71289 L621.173973,996.478027 L581.078369,996.478027 L581.078369,1023.71289 L608.099135,1023.71289 Z M634.701227,968.300781 L645.242532,946.343262 L581.078369,946.343262 L581.078369,968.300781 L634.701227,968.300781 Z M15,44.4895637 L15,-45 L453,-32.0602063 L414.008464,219 L259.050131,173.743707 L259.050131,85.3374604 L15,44.4895637 Z M943,15.7342585 L1172,-35 L977.418761,191 L943,15.7342585 Z M1443,18 L1712,18 L1712,426.902486 L1460.93875,625 L1443,18 Z M787.413086,644.84668 L901.818359,644.84668 L901.818359,674.343262 L830.197266,674.343262 L830.197266,696.300781 L896.635254,696.300781 L896.635254,724.478027 L830.197266,724.478027 L830.197266,751.712891 L903.891602,751.712891 L903.891602,783 L787.413086,783 L787.413086,644.84668 Z M253.034912,916.84668 L295.630615,916.84668 L295.630615,999.210938 C295.630615,1007.3783 294.358411,1015.09005 291.813965,1022.34644 C289.269519,1029.60282 285.280138,1035.94813 279.845703,1041.38257 C274.411268,1046.817 268.709909,1050.63362 262.741455,1052.83252 C254.448445,1055.91099 244.490699,1057.4502 232.86792,1057.4502 C226.145556,1057.4502 218.810749,1056.97901 210.863281,1056.03662 C202.915813,1055.09423 196.272081,1053.22519 190.931885,1050.42944 C185.591689,1047.63369 180.707053,1043.66002 176.277832,1038.5083 C171.848611,1033.35658 168.81731,1028.04788 167.183838,1022.58203 C164.545153,1013.78641 163.22583,1005.99613 163.22583,999.210938 L163.22583,916.84668 L205.821533,916.84668 L205.821533,1001.18994 C205.821533,1008.72904 207.910461,1014.61888 212.088379,1018.85962 C216.266297,1023.10036 222.061893,1025.2207 229.475342,1025.2207 C236.825964,1025.2207 242.590148,1023.13178 246.768066,1018.95386 C250.945984,1014.77594 253.034912,1008.85469 253.034912,1001.18994 L253.034912,916.84668 Z M325.598389,916.84668 L368.382568,916.84668 L368.382568,1055 L325.598389,1055 L325.598389,916.84668 Z M389.303467,916.84668 L519.06958,916.84668 L519.06958,950.960938 L475.531494,950.960938 L475.531494,1055 L432.841553,1055 L432.841553,950.960938 L389.303467,950.960938 L389.303467,916.84668 Z M938.100098,1327 L938.100098,1188.84668 L1009.25,1188.84668 C1022.44343,1188.84668 1032.52682,1189.97753 1039.50049,1192.23926 C1046.47416,1194.50099 1052.09698,1198.69455 1056.36914,1204.82007 C1060.6413,1210.94559 1062.77734,1218.40604 1062.77734,1227.20166 C1062.77734,1234.86641 1061.1439,1241.47873 1057.87695,1247.03882 C1054.61001,1252.5989 1050.11803,1257.10659 1044.40088,1260.56201 C1040.75698,1262.76092 1035.7624,1264.58284 1029.41699,1266.02783 C1034.50588,1267.72413 1038.21255,1269.4204 1040.53711,1271.1167 C1042.10776,1272.24756 1044.38516,1274.66632 1047.36938,1278.37305 C1050.35361,1282.07977 1052.3483,1284.9383 1053.35352,1286.94873 L1073.9917,1327 L1025.7417,1327 L1002.93604,1284.78125 C1000.04605,1279.3154 997.470226,1275.7658 995.208496,1274.13232 C992.13003,1271.99625 988.643249,1270.92822 984.748047,1270.92822 L980.978516,1270.92822 L980.978516,1327 L938.100098,1327 Z M980.978516,1244.82422 L998.978027,1244.82422 C1000.92563,1244.82422 1004.69512,1244.19597 1010.28662,1242.93945 C1013.11378,1242.37402 1015.4226,1240.92905 1017.21313,1238.60449 C1019.00367,1236.27994 1019.89893,1233.60988 1019.89893,1230.59424 C1019.89893,1226.1336 1018.48537,1222.70965 1015.6582,1220.32227 C1012.83104,1217.93488 1007.52234,1216.74121 999.731934,1216.74121 L980.978516,1216.74121 L980.978516,1244.82422 Z M93.0423896,916.84668 L18.098877,916.84668 L18.098877,1055 L91.7932129,1055 C93.9881376,1055 97.7626921,1054.69327 103.116942,1054.07981 L100.553226,1019.15749 C99.9681378,1019.96845 99.2784396,1020.71731 98.4841309,1021.40405 C95.4684908,1024.01132 90.2854371,1025.31494 82.9348145,1025.31494 L61.1657715,1025.31494 L61.1657715,997.326172 L82.8405762,997.326172 C90.3168505,997.326172 95.5470228,998.566964 98.53125,1001.04858 C98.7894832,1001.26333 99.0365434,1001.48406 99.2724307,1001.7108 L96.4752262,963.607954 C95.8246994,965.169685 94.8765785,966.498362 93.6308594,967.593994 C91.0235872,969.887137 86.3902514,971.033691 79.7307129,971.033691 L61.1657715,971.033691 L61.1657715,944.835449 L80.0134277,944.835449 C86.4844887,944.835449 91.0235872,945.966297 93.6308594,948.228027 C94.3538883,948.855233 94.9766632,949.550076 95.4991851,950.312556 L93.0423896,916.84668 Z M742.862307,656.636675 C739.512931,653.981626 735.782553,651.747924 731.671143,649.935547 C723.974978,646.542952 713.875876,644.84668 701.373535,644.84668 L637.951172,644.84668 L637.951172,783 L660.93143,783 L681.278326,751.618652 L680.641113,751.618652 L680.641113,676.133789 L691.290039,676.133789 C702.347386,676.133789 710.263322,678.835259 715.038086,684.238281 C716.89407,686.338474 718.389332,689.136347 719.523876,692.631918 L742.862307,656.636675 Z M574.14853,916.84668 L538.294189,916.84668 L538.294189,924.750332 L559.136486,940 L574.14853,916.84668 Z M1301.02703,916.511643 C1296.88247,917.37049 1293.20208,918.503083 1289.98584,919.909424 C1281.72424,923.521909 1275.53599,928.485076 1271.4209,934.799072 C1267.30581,941.113069 1265.24829,947.819626 1265.24829,954.918945 C1265.24829,965.724989 1269.26908,974.614711 1277.31079,981.588379 C1280.04717,983.980021 1283.41533,986.209087 1287.41526,988.275583 L1301.02703,916.511643 Z M1283.70947,1007.81324 L1260.06519,1009.29443 C1261.25888,1023.24177 1266.37911,1034.73872 1275.42603,1043.78564 C1275.82482,1044.18444 1276.23765,1044.57444 1276.66452,1044.95565 L1283.70947,1007.81324 Z M1028.43695,1025.16659 L1048.78296,1055 L1089.02271,1055 L1089.02271,956.306735 L1028.43695,1025.16659 Z M1117.95386,923.424501 L1117.95386,1055 L1181.37622,1055 C1188.97815,1055 1197.45951,1053.7435 1206.82056,1051.23047 C1213.66857,1049.40852 1220.07671,1045.74897 1226.04517,1040.25171 C1232.01362,1034.75445 1236.67837,1027.93795 1240.03955,1019.802 C1243.40073,1011.66606 1245.0813,1000.21622 1245.0813,985.452148 C1245.0813,976.028273 1243.95045,967.107138 1241.68872,958.688477 C1239.42699,950.269815 1235.78315,942.88789 1230.75708,936.54248 C1225.73101,930.197071 1219.36999,925.328142 1211.67383,921.935547 C1203.97766,918.542952 1193.87856,916.84668 1181.37622,916.84668 L1123.7413,916.84668 L1117.95386,923.424501 Z M1406.79419,1042.22399 L1406.79419,1055 L1523.27271,1055 L1523.27271,1023.71289 L1449.57837,1023.71289 L1449.57837,996.478027 L1516.01636,996.478027 L1516.01636,968.300781 L1449.57837,968.300781 L1449.57837,946.343262 L1521.19946,946.343262 L1521.19946,916.84668 L1453.2433,916.84668 L1406.79419,1042.22399 Z M677.766846,921 L677.766846,1055 L787.083252,1055 L787.083252,1020.97998 L720.456787,1020.97998 L720.456787,921 L677.766846,921 Z M842.913329,921 L792.549072,1055 L836.181396,1055 L842.872314,1032.19434 L860.672561,1032.19434 L876.737463,1002.3208 L852.107666,1002.3208 L867.280029,952.657227 L880.433739,995.44738 L904.058553,951.515788 L892.589113,921 L842.913329,921 Z M763.342106,1213.18547 C761.321458,1210.25376 759.041733,1207.52811 756.50293,1205.00854 C744.063414,1192.66327 726.346795,1186.49072 703.352539,1186.49072 C680.923716,1186.49072 663.426983,1192.77321 650.861816,1205.33838 C638.296649,1217.90355 632.01416,1235.4631 632.01416,1258.01758 C632.01416,1274.16382 635.186817,1287.60834 641.532227,1298.35156 C647.877636,1309.09478 656.154815,1316.94789 666.364014,1321.91113 C676.573212,1326.87437 689.468021,1329.35596 705.048828,1329.35596 C720.378332,1329.35596 733.178904,1326.48172 743.450928,1320.73315 C753.722952,1314.98459 761.576063,1306.943 767.010498,1296.60815 C772.444933,1286.2733 775.162109,1273.03296 775.162109,1256.88672 C775.162109,1242.11662 772.418951,1229.52872 766.93258,1219.12288 L762.328844,1215.06969 L763.342106,1213.18547 Z M798.062012,1246.52965 L798.062012,1327 L889.462644,1327 L853.925809,1295.71289 L840.846191,1295.71289 L840.846191,1284.19742 L798.062012,1246.52965 Z M476.803711,1238.00532 L476.803711,1327 L519.493652,1327 L519.493652,1271.1167 L566.141602,1271.1167 L566.141602,1327 L609.02002,1327 L609.02002,1188.84668 L566.141602,1188.84668 L566.141602,1237.19092 L519.493652,1237.19092 L519.493652,1208.27795 L501.143872,1246.50051 L476.803711,1238.00532 Z M593.078906,1055 L654.772705,1055 L654.772705,1023.71289 L608.099135,1023.71289 L593.078906,1055 Z M621.173973,996.478027 L647.516357,996.478027 L647.516357,968.300781 L634.701227,968.300781 L621.173973,996.478027 Z M645.242532,946.343262 L652.699463,946.343262 L652.699463,930.810489 L645.242532,946.343262 Z M1160.6438,948.133789 L1171.29272,948.133789 C1182.35007,948.133789 1190.26601,950.835259 1195.04077,956.238281 C1199.81553,961.641303 1202.20288,971.661873 1202.20288,986.300293 C1202.20288,997.35764 1201.13486,1005.35211 1198.99878,1010.28394 C1196.8627,1015.21576 1193.90993,1018.67113 1190.14038,1020.65015 C1186.37083,1022.62916 1180.02552,1023.61865 1171.10425,1023.61865 L1160.6438,1023.61865 L1160.6438,948.133789 Z M674.704102,1258.20605 C674.704102,1244.13307 677.311335,1234.04967 682.525879,1227.95557 C687.740423,1221.86146 694.651161,1218.81445 703.258301,1218.81445 C712.242395,1218.81445 719.357314,1221.81434 724.603271,1227.81421 C729.849229,1233.81408 732.472168,1243.31634 732.472168,1256.32129 C732.472168,1271.77644 729.959172,1282.48809 724.933105,1288.45654 C719.907039,1294.425 712.807826,1297.40918 703.635254,1297.40918 C694.713985,1297.40918 687.661891,1294.36217 682.47876,1288.26807 C677.295628,1282.17396 674.704102,1272.15339 674.704102,1258.20605 Z" id="Combined-Shape" fill="#000000"></path>
    </g>
</svg>