<?xml version="1.0" encoding="UTF-8"?>
<svg width="1680px" height="950px" viewBox="0 0 1680 950" version="1.1" xmlns="http://www.w3.org/2000/svg" xmlns:xlink="http://www.w3.org/1999/xlink">
    <!-- Generator: Sketch 52.3 (67297) - http://www.bohemiancoding.com/sketch -->
    <title>5-desktop</title>
    <desc>Created with Sketch.</desc>
    <g id="5-desktop" stroke="none" stroke-width="1" fill="none" fill-rule="evenodd">
        <path d="M217.218401,231.754288 C220.258219,231.431768 223.431837,231.270508 226.739258,231.270508 C242.276445,231.270508 254.314085,233.370096 262.852539,237.569336 C271.390993,241.768576 277.9872,247.909872 282.641357,255.993408 C287.295515,264.076945 290.042476,274.067486 290.882324,285.965332 L245.425781,292.15918 C245.355794,285.370409 244.760911,280.331397 243.641113,277.041992 C242.521316,273.752588 240.631686,271.093109 237.972168,269.063477 C236.152497,267.733717 233.563005,267.068848 230.203613,267.068848 C224.884576,267.068848 220.982841,269.04596 218.498291,273.000244 C216.013741,276.954528 214.771484,283.620721 214.771484,292.999023 L214.771484,387.901367 L167.110352,387.901367 L167.110352,304.231934 C167.110352,289.767729 168.166064,278.150569 170.277516,269.380229 L135.196289,289.717937 L135.196289,387.901367 L87.0553939,387.901367 L105.707087,512.994769 L297.67359,520.929217 L129.377745,672.599236 L330.242389,812.93056 L-58,984 L-58,383.006416 L-58,77.9839392 L30.0666697,77.9839392 L217.218401,231.754288 Z M69.2354884,327.95752 L40.764486,344.463069 L40.764486,354.83252 L87.4301758,354.83252 L87.4301758,327.95752 L69.2354884,327.95752 Z M793.6183,234 L900.083984,234 L900.083984,387.901367 L772.637695,387.901367 L772.637695,355.04248 L852.422852,355.04248 L852.422852,330.582031 L778.411621,330.582031 L778.411621,299.192871 L852.422852,299.192871 L852.422852,268.853516 L784.615004,268.853516 L744.083008,299.682088 L744.083008,387.901367 L664.822754,387.901367 C650.9756,387.901367 640.203759,386.783143 632.506949,384.546662 L558.951754,440.492628 L413.198994,387.901367 L378.121094,387.901367 L380.704403,376.176502 L360.589355,368.918487 L360.589355,387.901367 L312.928223,387.901367 L312.928223,351.721152 L296.047406,345.630129 L312.928223,312.551559 L312.928223,234 L353.015037,234 L403.152191,135.754438 L802.600132,43.3616925 L793.6183,234 Z M696.316895,336.012918 L669.296041,356.564937 C671.157574,356.739745 673.200819,356.827148 675.425781,356.827148 L696.316895,356.827148 L696.316895,336.012918 Z M1366.19926,259.405273 L1384.88379,259.405273 L1392.3374,234 L1440.94336,234 L1383.09912,387.901367 L1331.23877,387.901367 L1324.05429,368.786212 L1246.83447,569.198645 L1246.83447,691.901367 L1167.57422,691.901367 C1152.87688,691.901367 1141.64408,690.641614 1133.87549,688.12207 C1126.10689,685.602526 1119.84312,680.930942 1115.08398,674.107178 C1110.32485,667.283413 1107.94531,658.972542 1107.94531,649.174316 C1107.94531,640.635862 1109.76496,633.269806 1113.4043,627.075928 C1117.04364,620.882049 1122.04766,615.860534 1128.4165,612.01123 C1132.47577,609.561674 1138.03968,607.532072 1145.1084,605.922363 C1139.43942,604.032705 1135.31023,602.143076 1132.7207,600.253418 C1130.97102,598.993646 1128.43402,596.299174 1125.10962,592.169922 C1121.78522,588.040669 1119.56316,584.856294 1118.44336,582.616699 L1113.47889,572.982461 L1075.16944,563.640724 C1076.61422,565.623053 1077.98629,567.714165 1079.28564,569.914063 C1086.35436,581.881896 1089.88867,596.85896 1089.88867,614.845703 C1089.88867,639.971154 1082.89004,659.532319 1068.89258,673.529785 C1054.89511,687.527251 1035.40393,694.525879 1010.41846,694.525879 C984.803095,694.525879 965.066964,687.649727 951.209473,673.897217 C937.351981,660.144707 930.42334,640.880983 930.42334,616.105469 C930.42334,598.118725 933.450246,583.369117 939.50415,571.856201 C945.558054,560.343286 954.306339,551.385042 965.749268,544.981201 C969.395286,542.940769 973.327271,541.225409 977.545237,539.835119 L941.19565,530.971293 L1193.19231,389.979261 L1155.50146,373.409031 L1155.50146,387.901367 L1110.6748,387.901367 L1110.6748,353.701646 L1078.86572,339.717248 L1078.86572,387.901367 L1031.30957,387.901367 L1031.30957,329.742188 L981.443848,387.901367 L918.245605,387.901367 L974.305176,329.847168 L944.136798,280.485646 L930.719677,274.587005 L937.103912,268.978433 L915.726074,234 L974.305176,234 L975.116848,235.583943 L1193.92336,43.3616925 L1408.97122,148.397056 L1366.19926,259.405273 Z M1353.37678,292.684082 L1346.31833,311.003239 L1357.69385,348.008789 L1374.5957,292.684082 L1353.37678,292.684082 Z M1199.06836,593.853403 L1176.44349,588.336341 C1178.92834,592.575115 1181.18594,595.427662 1183.21631,596.894043 C1186.64569,599.273612 1190.52993,600.463379 1194.86914,600.463379 L1199.06836,600.463379 L1199.06836,593.853403 Z M1592.98787,234 L1604.29297,234 L1604.29297,367.233775 L1712,393.479572 L1686.60452,811.451903 L1371.72206,536.755855 L1483.80682,387.901367 L1443.67285,387.901367 L1499.73242,329.847168 L1470.34436,281.762394 L1461.36531,285.259201 L1460.15796,265.095409 L1441.15332,234 L1458.29606,234 L1443.45705,-13.8242278 L1712,-13.8242278 L1712,187.651814 L1592.98787,234 Z M1556.73682,248.117641 L1515.24676,264.275562 L1532.17139,297.303223 L1556.73682,271.583008 L1556.73682,248.117641 Z M1538.36566,351.168762 L1556.73682,355.645404 L1556.73682,329.742188 L1538.36566,351.168762 Z M825.12793,603.061904 L825.12793,538 L872.684082,538 L872.684082,623.678047 L920.478279,644.397386 L919.060069,653.898438 L921.185059,653.898438 L921.185059,691.901367 L913.387421,691.901367 L905.634474,743.840895 L1310.61029,874.308127 L1511.26725,753.097143 L1587.47454,858.720812 L1591.95838,791.837891 L1686.60452,840.981282 L1689.17095,956.002299 L478.621239,956.002299 L607.388298,778.861906 L299.879058,708.288466 L364.807756,567.890499 L456.751465,583.691542 L456.751465,538 L504.517578,538 L504.517578,587.766143 L657.36342,430.998461 L920.478279,430.998461 L762.305057,575.82746 L825.12793,603.061904 Z M14.5222086,-0.897519546 L14.5222086,-45 L452.690517,-38.6229771 L413.683998,85.1051694 L258.66612,62.8018449 L258.66612,19.2332476 L14.5222086,-0.897519546 Z M943.317366,-15.3247447 L1172.54432,-40.348772 L977.770238,71.1228518 L943.317366,-15.3247447 Z M1199.06836,629.542969 L1179.01709,629.542969 C1176.84748,629.542969 1172.64831,630.242832 1166.41943,631.642578 C1163.27,632.272464 1160.69801,633.882149 1158.70337,636.47168 C1156.70873,639.061211 1155.71143,642.035628 1155.71143,645.39502 C1155.71143,650.36412 1157.28612,654.178372 1160.43555,656.837891 C1163.58498,659.497409 1169.49882,660.827148 1178.17725,660.827148 L1199.06836,660.827148 L1199.06836,629.542969 Z M1042.33252,614.635742 C1042.33252,599.098555 1039.44559,587.935744 1033.67163,581.146973 C1027.89768,574.358202 1020.04172,570.963867 1010.10352,570.963867 C999.885366,570.963867 991.976916,574.288215 986.37793,580.937012 C980.778943,587.585808 977.979492,599.518469 977.979492,616.735352 C977.979492,631.222729 980.901419,641.808153 986.745361,648.491943 C992.589303,655.175733 1000.51525,658.517578 1010.52344,658.517578 C1020.1117,658.517578 1027.81019,655.123244 1033.61914,648.334473 C1039.42809,641.545702 1042.33252,630.312904 1042.33252,614.635742 Z M217.218401,231.754288 C206.750039,232.864967 197.868458,235.888099 190.573486,240.82373 C181.160191,247.192577 174.896419,254.961054 171.781982,264.129395 C171.231917,265.748688 170.730428,267.498965 170.277516,269.380229 L224.64887,237.859419 L217.218401,231.754288 Z M135.196289,289.717937 L135.196289,234 L87.4301758,234 L87.4301758,296.883301 L27.8012695,296.883301 L27.8012695,327.95752 L69.2354884,327.95752 L135.196289,289.717937 Z M40.764486,354.83252 L17.6181641,354.83252 L17.6181641,387.901367 L87.0553939,387.901367 L86.3255463,383.006416 L40.764486,383.006416 L40.764486,354.83252 Z M793.6183,234 L770.328125,234 L770.328125,268.853516 L784.615004,268.853516 L792.249787,263.046511 L793.6183,234 Z M744.083008,299.682088 L744.083008,234 L696.316895,234 L696.316895,296.463379 L692.117676,296.463379 C687.778461,296.463379 683.894223,295.273612 680.464844,292.894043 C677.9453,291.074372 675.075862,287.120148 671.856445,281.03125 L646.451172,234 L592.701172,234 L615.691895,278.616699 C616.811692,280.856294 619.033756,284.040669 622.358154,288.169922 C625.682552,292.299174 628.219555,294.993646 629.969238,296.253418 C632.558769,298.143076 636.68796,300.032705 642.356934,301.922363 C635.288213,303.532072 629.724304,305.561674 625.665039,308.01123 C619.296192,311.860534 614.292173,316.882049 610.652832,323.075928 C607.013491,329.269806 605.193848,336.635862 605.193848,345.174316 C605.193848,354.972542 607.573381,363.283413 612.33252,370.107178 C617.091658,376.930942 623.35543,381.602526 631.124023,384.12207 C631.573407,384.267816 632.034382,384.409347 632.506949,384.546662 L669.296041,356.564937 C663.896695,356.057909 660.026066,354.815566 657.684082,352.837891 C654.534652,350.178372 652.959961,346.36412 652.959961,341.39502 C652.959961,338.035628 653.957265,335.061211 655.951904,332.47168 C657.946543,329.882149 660.518539,328.272464 663.667969,327.642578 C669.896841,326.242832 674.096018,325.542969 676.265625,325.542969 L696.316895,325.542969 L696.316895,336.012918 L744.083008,299.682088 Z M413.198994,387.901367 L423.052734,387.901367 L439.324707,301.922363 L463.155273,387.901367 L508.191895,387.901367 L531.91748,301.922363 L548.189453,387.901367 L593.331055,387.901367 L559.107422,234 L512.496094,234 L485.621094,330.896973 L458.641113,234 L412.029785,234 L380.704403,376.176502 L413.198994,387.901367 Z M360.589355,368.918487 L360.589355,234 L353.015037,234 L312.928223,312.551559 L312.928223,351.721152 L360.589355,368.918487 Z M1366.19926,259.405273 L1330.71387,259.405273 L1323.15527,234 L1273.39453,234 L1324.05429,368.786212 L1346.31833,311.003239 L1340.68701,292.684082 L1353.37678,292.684082 L1366.19926,259.405273 Z M1246.83447,569.198645 L1246.83447,538 L1199.06836,538 L1199.06836,593.853403 L1234.0483,602.38324 L1246.83447,569.198645 Z M1176.44349,588.336341 C1175.84482,587.315108 1175.23296,586.213412 1174.60791,585.03125 L1149.20264,538 L1095.45264,538 L1113.47889,572.982461 L1176.44349,588.336341 Z M1075.16944,563.640724 C1068.75435,554.838829 1060.90569,548.181618 1051.62329,543.668945 C1040.25035,538.139946 1025.88567,535.375488 1008.52881,535.375488 C996.893053,535.375488 986.565241,536.862022 977.545237,539.835119 L1075.16944,563.640724 Z M1155.50146,373.409031 L1155.50146,302.762207 L1213.45068,387.901367 L1257.85742,387.901367 L1257.85742,234 L1213.13574,234 L1213.13574,318.509277 L1155.50146,234 L1110.6748,234 L1110.6748,353.701646 L1155.50146,373.409031 Z M1078.86572,339.717248 L1078.86572,234 L1031.30957,234 L1031.30957,271.583008 L1006.74414,297.303223 L975.116848,235.583943 L937.103912,268.978433 L944.136798,280.485646 L1078.86572,339.717248 Z M1592.98787,234 L1556.73682,234 L1556.73682,248.117641 L1592.98787,234 Z M1515.24676,264.275562 L1499.73242,234 L1458.29606,234 L1460.15796,265.095409 L1470.34436,281.762394 L1515.24676,264.275562 Z M1538.36566,351.168762 L1515.63631,345.630129 L1483.80682,387.901367 L1506.87109,387.901367 L1538.36566,351.168762 Z M1556.73682,355.645404 L1556.73682,387.901367 L1604.29297,387.901367 L1604.29297,367.233775 L1556.73682,355.645404 Z M825.12793,603.061904 L825.12793,653.898438 L776.626953,653.898438 L776.626953,691.901367 L913.387421,691.901367 L919.060069,653.898438 L872.684082,653.898438 L872.684082,623.678047 L825.12793,603.061904 Z M456.751465,583.691542 L456.751465,595.109375 L430.716309,595.109375 C411.53978,595.109375 397.280076,599.483517 387.936768,608.231934 C378.593459,616.98035 373.921875,629.122969 373.921875,644.660156 C373.921875,659.777419 378.208535,671.430135 386.781982,679.618652 C395.35543,687.80717 408.250402,691.901367 425.467285,691.901367 L504.517578,691.901367 L504.517578,587.766143 L501.065198,591.307106 L456.751465,583.691542 Z M689.388184,614.845703 C689.388184,596.85896 685.853876,581.881896 678.785156,569.914063 C671.716436,557.946229 662.495744,549.197944 651.122803,543.668945 C639.749862,538.139946 625.385178,535.375488 608.02832,535.375488 C590.951412,535.375488 576.691708,538.577361 565.248779,544.981201 C553.805851,551.385042 545.057566,560.343286 539.003662,571.856201 C532.949758,583.369117 529.922852,598.118725 529.922852,616.105469 C529.922852,640.880983 536.851493,660.144707 550.708984,673.897217 C564.566476,687.649727 584.302606,694.525879 609.917969,694.525879 C634.903445,694.525879 654.394624,687.527251 668.39209,673.529785 C682.389556,659.532319 689.388184,639.971154 689.388184,614.845703 Z M641.832031,614.635742 C641.832031,630.312904 638.927601,641.545702 633.118652,648.334473 C627.309704,655.123244 619.611213,658.517578 610.022949,658.517578 C600.014761,658.517578 592.088815,655.175733 586.244873,648.491943 C580.400931,641.808153 577.479004,631.222729 577.479004,616.735352 C577.479004,599.518469 580.278455,587.585808 585.877441,580.937012 C591.476428,574.288215 599.384877,570.963867 609.603027,570.963867 C619.541228,570.963867 627.397188,574.358202 633.171143,581.146973 C638.945097,587.935744 641.832031,599.098555 641.832031,614.635742 Z M456.751465,626.288574 L456.751465,660.617188 L443.208984,660.617188 C434.320594,660.617188 428.26678,658.937517 425.047363,655.578125 C421.827946,652.218733 420.218262,648.124536 420.218262,643.29541 C420.218262,638.32631 422.072898,634.249609 425.782227,631.065186 C429.491555,627.880762 435.930293,626.288574 445.098633,626.288574 L456.751465,626.288574 Z" id="Combined-Shape" fill="#000000" transform="translate(827.000000, 469.500000) rotate(-180.000000) translate(-827.000000, -469.500000) "></path>
    </g>
</svg>