<?xml version="1.0" encoding="UTF-8"?>
<svg width="1536px" height="1971px" viewBox="0 0 1536 1971" version="1.1" xmlns="http://www.w3.org/2000/svg" xmlns:xlink="http://www.w3.org/1999/xlink">
    <!-- Generator: Sketch 52.3 (67297) - http://www.bohemiancoding.com/sketch -->
    <title>5-tablet</title>
    <desc>Created with Sketch.</desc>
    <g id="5-tablet" stroke="none" stroke-width="1" fill="none" fill-rule="evenodd">
        <path d="M1005.34504,1187.0658 L978.867926,1068 L953.736249,1068 C955.436013,1069.62772 956.994468,1071.45755 958.411621,1073.4895 C962.905133,1079.93241 965.151855,1087.77941 965.151855,1097.03076 C965.151855,1105.09265 963.433774,1112.04758 959.997559,1117.89575 C956.561343,1123.74393 951.836619,1128.48517 945.823242,1132.11963 C941.990541,1134.43247 936.737175,1136.34879 930.062988,1137.86865 C935.415554,1139.65284 939.314278,1141.437 941.759277,1143.22119 C943.411304,1144.41065 945.806706,1146.95473 948.945557,1150.85352 C952.084407,1154.7523 954.182449,1157.75894 955.239746,1159.87354 L976.947266,1202 L926.197266,1202 L902.209961,1157.59375 C899.170232,1151.8447 896.460949,1148.11117 894.082031,1146.39307 C890.844059,1144.14631 887.176616,1143.02295 883.07959,1143.02295 L879.114746,1143.02295 L879.114746,1202 L834.014648,1202 L834.014648,1068 L807.053711,1068 L807.053711,1087.71338 L731.72168,1087.71338 L731.72168,1110.80859 L801.602051,1110.80859 L801.602051,1140.4458 L731.72168,1140.4458 L731.72168,1169.0918 L809.234375,1169.0918 L809.234375,1202 L686.720703,1202 L686.720703,1056.68848 L739.614092,1056.68848 L891.671156,773.930315 L733.531165,634.701731 L748.371852,432.785529 L343.481119,167.876858 L142.866319,413.991076 L66.6750354,199.526299 L62.1921448,335.329484 L-32.4341142,235.545728 L-35,2 L1175.29537,2 L1046.55537,361.676721 L1354,504.973362 L1289.08494,790.046007 L1152.85613,742.499492 L1139.27512,770.788707 C1153.33162,771.440643 1164.03092,775.272927 1171.37329,782.285645 C1179.46822,790.017129 1183.51563,801.01946 1183.51563,815.292969 C1183.51563,829.962964 1179.10478,841.427856 1170.28296,849.687988 C1161.46114,857.948121 1147.99732,862.078125 1129.89111,862.078125 L1105.30908,862.078125 L1105.30908,916 L1069.56248,916 L1002.02115,1056.68848 L1018.97461,1056.68848 L1034.33838,1137.86865 L1056.73975,1056.68848 L1089.87849,1056.68848 L1094.86351,1049 L1133.26456,1077.09686 L1137.12695,1056.68848 L1179.55078,1056.68848 L1169.25272,1103.42829 L1196.104,1123.07456 L1196.104,1056.68848 L1241.10498,1056.68848 L1241.10498,1156.00039 L1266.50737,1174.58653 C1264.02606,1168.3217 1262.49708,1161.10458 1261.92041,1152.93506 L1304.83984,1147.08691 C1304.90592,1153.49678 1305.46761,1158.25454 1306.5249,1161.36035 C1307.5822,1164.46616 1309.36636,1166.9772 1311.87744,1168.89355 C1313.59555,1170.14909 1316.04051,1170.77686 1319.2124,1170.77686 C1324.23456,1170.77686 1327.91853,1168.91009 1330.2644,1165.17651 C1332.61028,1161.44293 1333.7832,1155.14881 1333.7832,1146.29395 L1333.7832,1056.68848 L1378.78418,1056.68848 L1378.78418,1135.68799 C1378.78418,1152.27433 1377.3139,1164.89563 1374.37329,1173.55225 C1371.43268,1182.20886 1365.51852,1189.54375 1356.63062,1195.55713 C1347.74271,1201.57051 1336.36042,1204.57715 1322.4834,1204.57715 C1316.4811,1204.57715 1311.03195,1204.24528 1306.13593,1203.58154 L1358,1241.52888 L1250.80064,1667.48363 L851,1855 L861.359484,1409.13707 L1005.34504,1187.0658 Z M328.407949,1202 L287.262695,1202 L280.125977,1178.0127 L228.979492,1178.0127 L221.941895,1202 L176.048828,1202 L230.664551,1056.68848 L279.630371,1056.68848 L330.366027,1191.67663 L348.916016,1093.87741 L348.916016,1056.68848 L355.969798,1056.68848 L382.654774,916 L359.32373,916 L359.32373,770.688477 L410.216624,770.688477 L419.830921,720 L538.862779,778.963158 C550.609681,771.794659 565.170159,768.210449 582.544434,768.210449 C606.730101,768.210449 625.364681,774.702816 638.44873,787.687744 C650.724548,799.870563 657.241523,816.633971 657.999819,837.978417 L712.529537,864.990046 L543.865313,1056.68848 L562.819336,1056.68848 L562.819336,1111.60156 L609.901855,1056.68848 L669.572754,1056.68848 L616.64209,1111.50244 L671.95166,1202 L616.64209,1202 L586.013672,1142.22998 L562.819336,1166.51465 L562.819336,1202 L517.91748,1202 L517.91748,1086.17996 L487.883789,1120.31531 L487.883789,1175.55892 L723,1385.53557 L459.93475,1855 L245,1641.74322 L328.407949,1202 Z M404.423828,801.229241 L404.651612,800.02832 L404.423828,800.02832 L404.423828,801.229241 Z M586.132298,802.378402 L604.893443,811.67185 C600.114207,806.20736 593.860541,803.109565 586.132298,802.378402 Z M59.4583566,1202 L21.8164063,1202 L21.8164063,1183.35707 L-58,1143.82641 L-32.6252641,295 L282,852.858124 L161.407055,1178.36748 L175.850586,1202 L152.651808,1202 L138.203299,1241 L59.4583566,1202 Z M1124.93642,800.656203 L1109.58213,832.63916 L1116.31152,832.63916 C1124.96814,832.63916 1131.04751,831.135839 1134.5498,828.12915 C1138.0521,825.122462 1139.80322,821.273298 1139.80322,816.581543 C1139.80322,812.02195 1138.28338,808.156266 1135.24365,804.984375 C1133.11737,802.76565 1129.68165,801.322932 1124.93642,800.656203 Z M1623.98831,1784 L1429.5276,1459.49029 L1613.29718,1243.1099 L1613.29718,1164.87595 L1567.76456,1164.87595 L1548.39512,901.030094 L1356.54847,884.925027 L1524.73924,577.070478 L1324,292.230821 L1712,-55 L1712,1164.87595 L1712,1784 L1623.98831,1784 Z M1639,1944.51044 L1639,2034 L1201,2021.06021 L1239.99154,1770 L1394.94987,1815.25629 L1394.94987,1903.66254 L1639,1944.51044 Z M711,1973.26574 L482,2024 L676.581239,1798 L711,1973.26574 Z M211,1971 L-58,1971 L-58,1562.09751 L193.061253,1364 L211,1971 Z M666.797363,770.688477 L803.287109,770.688477 L803.287109,806.570312 L757.493164,806.570312 L757.493164,916 L712.591309,916 L712.591309,806.570312 L666.797363,806.570312 L666.797363,770.688477 Z M270.709473,1146.59131 L254.651855,1094.35449 L238.693359,1146.59131 L270.709473,1146.59131 Z M879.114746,1115.56641 L898.046875,1115.56641 C900.095388,1115.56641 904.060192,1114.90561 909.941406,1113.58398 C912.915054,1112.98925 915.343496,1111.46941 917.226807,1109.02441 C919.110117,1106.57941 920.051758,1103.77101 920.051758,1100.59912 C920.051758,1095.90737 918.564956,1092.306 915.591309,1089.79492 C912.617661,1087.28384 907.033895,1086.02832 898.839844,1086.02832 L879.114746,1086.02832 L879.114746,1115.56641 Z M1408.91699,1056.68848 L1519.93262,1056.68848 L1519.93262,1087.91162 L1454.01709,1087.91162 L1454.01709,1113.28662 L1510.31787,1113.28662 L1510.31787,1142.62646 L1454.01709,1142.62646 L1454.01709,1202 L1408.91699,1202 L1408.91699,1056.68848 Z M1005.34504,1187.0658 L1008.66602,1202 L1052.67578,1202 L1078.05078,1110.51123 L1103.5249,1202 L1147.53467,1202 L1169.25272,1103.42829 L1133.26456,1077.09686 L1121.76318,1137.86865 L1099.2627,1056.68848 L1089.87849,1056.68848 L1005.34504,1187.0658 Z M1196.104,1123.07456 L1196.104,1202 L1241.10498,1202 L1241.10498,1156.00039 L1196.104,1123.07456 Z M1266.50737,1174.58653 C1267.43807,1176.93637 1268.50275,1179.15224 1269.70142,1181.23413 C1274.09581,1188.86649 1280.32385,1194.66502 1288.38574,1198.62988 C1293.14907,1200.9725 1299.06578,1202.62305 1306.13593,1203.58154 L1266.50737,1174.58653 Z M328.407949,1202 L334.246094,1202 L330.366027,1191.67663 L328.407949,1202 Z M348.916016,1093.87741 L348.916016,1202 L391.141602,1202 L391.141602,1122.20752 L445.559082,1202 L487.883789,1202 L487.883789,1175.55892 L460.665419,1151.25085 L487.883789,1120.31531 L487.883789,1056.68848 L445.559082,1056.68848 L445.559082,1137.07568 L390.844238,1056.68848 L355.969798,1056.68848 L348.916016,1093.87741 Z M382.654774,916 L404.423828,916 L404.423828,857.022949 L408.388672,857.022949 C412.485698,857.022949 416.153141,858.14631 419.391113,860.393066 C421.770031,862.111174 424.479314,865.844698 427.519043,871.59375 L451.506348,916 L502.256348,916 L480.548828,873.873535 C479.491531,871.758941 477.393489,868.752298 474.254639,864.853516 C471.115788,860.954733 468.720386,858.41065 467.068359,857.221191 C464.62336,855.437003 460.724636,853.652841 455.37207,851.868652 C462.046257,850.348788 467.299623,848.432466 471.132324,846.119629 C477.145701,842.485171 481.870426,837.743926 485.306641,831.895752 C488.742856,826.047578 490.460938,819.092651 490.460938,811.030762 C490.460938,801.779413 488.214215,793.932405 483.720703,787.489502 C479.227191,781.046599 473.313025,776.635754 465.978027,774.256836 C458.64303,771.877918 448.037179,770.688477 434.160156,770.688477 L410.216624,770.688477 L404.651612,800.02832 L424.148926,800.02832 C432.342977,800.02832 437.926743,801.283842 440.900391,803.794922 C443.874038,806.306002 445.36084,809.907366 445.36084,814.599121 C445.36084,817.771012 444.419199,820.579415 442.535889,823.024414 C440.652578,825.469413 438.224136,826.989255 435.250488,827.583984 C429.369274,828.905606 425.40447,829.566406 423.355957,829.566406 L404.423828,829.566406 L404.423828,801.229241 L382.654774,916 Z M538.862779,778.963158 C534.659637,781.528108 530.816709,784.551943 527.333984,788.034668 C514.117772,801.25088 507.509766,819.720259 507.509766,843.443359 C507.509766,860.426192 510.846809,874.567326 517.520996,885.867187 C524.195183,897.167049 532.901232,905.427057 543.639404,910.647461 C554.377576,915.867865 567.940511,918.478027 584.328613,918.478027 C600.452392,918.478027 613.916206,915.454864 624.720459,909.408447 C635.524712,903.36203 643.784721,894.903782 649.500732,884.033447 C655.216744,873.163113 658.074707,859.236739 658.074707,842.253906 C658.074707,840.808885 658.049744,839.383722 657.999819,837.978417 L604.893443,811.67185 C604.894375,811.672916 604.895308,811.673982 604.89624,811.675049 C610.414009,817.98579 613.172852,827.9804 613.172852,841.65918 C613.172852,857.91512 610.529649,869.181772 605.243164,875.459473 C599.956679,881.737173 592.489632,884.875977 582.841797,884.875977 C573.458286,884.875977 566.040799,881.671093 560.589111,875.26123 C555.137424,868.851368 552.411621,858.311597 552.411621,843.641602 C552.411621,828.839444 555.153944,818.233593 560.638672,811.82373 C566.1234,805.413868 573.392207,802.208984 582.445313,802.208984 C583.709494,802.208984 584.938489,802.265457 586.132298,802.378402 L538.862779,778.963158 Z M543.865313,1056.68848 L517.91748,1056.68848 L517.91748,1086.17996 L543.865313,1056.68848 Z M59.4583566,1202 L66.7182617,1202 L66.7182617,1166.51465 L89.9125977,1142.22998 L120.541016,1202 L152.651808,1202 L161.407055,1178.36748 L120.541016,1111.50244 L173.47168,1056.68848 L113.800781,1056.68848 L66.7182617,1111.60156 L66.7182617,1056.68848 L21.8164063,1056.68848 L21.8164063,1183.35707 L59.4583566,1202 Z M978.867926,1068 L996.590745,1068 L1002.02115,1056.68848 L976.352539,1056.68848 L978.867926,1068 Z M953.736249,1068 C950.046398,1064.46654 945.690649,1061.8855 940.668945,1060.25684 C933.333948,1057.87792 922.728097,1056.68848 908.851074,1056.68848 L834.014648,1056.68848 L834.014648,1068 L953.736249,1068 Z M807.053711,1068 L807.053711,1056.68848 L739.614092,1056.68848 L733.531165,1068 L807.053711,1068 Z M1139.27512,770.788707 C1137.8344,770.721887 1136.35842,770.688477 1134.84717,770.688477 L1060.20898,770.688477 L1060.20898,916 L1069.56248,916 L1109.58213,832.63916 L1105.30908,832.63916 L1105.30908,800.226562 L1118.0957,800.226562 C1120.61762,800.226562 1122.89786,800.369776 1124.93642,800.656203 L1139.27512,770.788707 Z M885.656738,843.443359 C885.656738,860.426192 888.993782,874.567326 895.667969,885.867187 C902.342156,897.167049 911.048205,905.427057 921.786377,910.647461 C932.524549,915.867865 946.087483,918.478027 962.475586,918.478027 C978.599364,918.478027 992.063178,915.454864 1002.86743,909.408447 C1013.67168,903.36203 1021.93169,894.903782 1027.64771,884.033447 C1033.36372,873.163113 1036.22168,859.236739 1036.22168,842.253906 C1036.22168,818.861211 1029.67975,800.672672 1016.5957,787.687744 C1003.51165,774.702816 984.877074,768.210449 960.691406,768.210449 C937.100468,768.210449 918.697169,774.818456 905.480957,788.034668 C892.264745,801.25088 885.656738,819.720259 885.656738,843.443359 Z M930.558594,843.641602 C930.558594,828.839444 933.300917,818.233593 938.785645,811.82373 C944.270372,805.413868 951.53918,802.208984 960.592285,802.208984 C970.041877,802.208984 977.525444,805.364308 983.043213,811.675049 C988.560981,817.98579 991.319824,827.9804 991.319824,841.65918 C991.319824,857.91512 988.676621,869.181772 983.390137,875.459473 C978.103652,881.737173 970.636604,884.875977 960.98877,884.875977 C951.605259,884.875977 944.187771,881.671093 938.736084,875.26123 C933.284397,868.851368 930.558594,858.311597 930.558594,843.641602 Z" id="Combined-Shape" fill="#000000"></path>
    </g>
</svg>