<?xml version="1.0" encoding="UTF-8"?>
<svg width="1680px" height="950px" viewBox="0 0 1680 950" version="1.1" xmlns="http://www.w3.org/2000/svg" xmlns:xlink="http://www.w3.org/1999/xlink">
    <!-- Generator: Sketch 52.3 (67297) - http://www.bohemiancoding.com/sketch -->
    <title>6-desktop</title>
    <desc>Created with Sketch.</desc>
    <g id="6-desktop" stroke="none" stroke-width="1" fill="none" fill-rule="evenodd">
        <path d="M538.458008,588.942787 L538.458008,553.984131 C538.458008,543.166043 539.925767,534.427442 542.861328,527.768066 C545.79689,521.108691 550.009901,515.604595 555.500488,511.255615 C560.991076,506.906635 567.378544,503.753672 574.663086,501.796631 C581.947628,499.83959 589.666951,498.861084 597.821289,498.861084 C610.596418,498.861084 620.50379,500.315252 627.543701,503.223633 C634.583613,506.132013 640.481828,510.16835 645.238525,515.332764 C649.995222,520.497178 653.161776,526.042044 654.738281,531.967529 C656.912771,540.067505 658,547.406298 658,553.984131 L658,608.862549 L554.261251,608.862549 L465.074859,859.433637 L538.458008,1019.26186 L538.458008,1011.19556 L658,1037.53394 L658,1073.73901 L582.73584,1094.69556 L658,1115.57056 L658,1151.77563 L538.458008,1178.35864 L538.458008,1162.48784 L359,1409 L359,348.354375 L359,-189.955458 L408.854691,-189.955458 L519.008004,92.1960203 L414.910743,280.332297 L414.910743,348.354375 L440.702936,348.354375 L451.674859,577.760448 L538.458008,588.942787 Z M551.951008,1048.64957 L562.074967,1070.69951 L605.241699,1058.73511 L551.951008,1048.64957 Z M568.926436,1120.63494 L554.662662,1140.22835 L605.241699,1130.65601 L568.926436,1120.63494 Z M627.645091,-93.4710697 C626.562647,-93.8489184 625.428021,-94.0378418 624.241211,-94.0378418 C621.142563,-94.0378418 618.370129,-92.6788059 615.923828,-89.9606934 C613.477527,-87.2425808 611.167166,-80.9366543 608.992676,-71.0427246 C605.350405,-54.8427738 600.512237,-43.2909688 594.478027,-36.3869629 C588.443817,-29.4285948 580.751674,-25.9494629 571.401367,-25.9494629 C565.258433,-25.9494629 559.45535,-27.7297999 553.991943,-31.2905273 C548.528537,-34.8512548 544.233984,-40.2058562 541.108154,-47.3544922 C537.982325,-54.5031282 536.419434,-64.3017769 536.419434,-76.7507324 C536.419434,-92.0265249 539.259819,-103.673463 544.940674,-111.691895 C550.621529,-119.710327 559.659118,-124.480543 572.053711,-126.002686 L574.092285,-91.1838379 C568.710422,-90.2596796 564.796399,-88.3162583 562.350098,-85.3535156 C559.903796,-82.3907729 558.680664,-78.3000749 558.680664,-73.0812988 C558.680664,-68.786681 559.591218,-65.5521756 561.412354,-63.3776855 C563.233489,-61.2031955 565.448717,-60.1159668 568.058105,-60.1159668 C569.960784,-60.1159668 571.673169,-61.0129305 573.195313,-62.8068848 C574.771818,-64.5464768 576.239577,-68.6779459 577.598633,-75.201416 C581.077817,-91.3470046 584.59772,-102.9124 588.158447,-109.897949 C591.719175,-116.883498 596.136041,-121.966293 601.40918,-125.146484 C606.682318,-128.326676 612.580534,-129.916748 619.104004,-129.916748 C626.769081,-129.916748 633.836068,-127.796652 640.305176,-123.556396 C645.152185,-120.379365 649.12176,-116.256325 652.213962,-111.187202 L846.187194,-251.057499 L842.748485,-23.5233252 C851.307997,-22.9830168 858.239693,-21.6172564 863.543701,-19.4260254 C870.583613,-16.517645 876.481828,-12.4813084 881.238525,-7.31689453 C885.995222,-2.15248069 889.161776,3.39238574 890.738281,9.31787109 C892.912771,17.4178465 894,24.7566403 894,31.3344727 L894,86.2128906 L841.090049,86.2128906 L840.373049,133.655656 C840.678251,134.746249 840.967801,135.892931 841.241699,137.095703 C842.70948,132.692361 844.177239,129.485036 845.64502,127.473633 C846.62354,126.114577 848.716455,124.143974 851.923828,121.561768 C855.131201,118.979561 857.604646,117.253585 859.344238,116.383789 L894,98.5258789 L894,140.275879 L857.46875,160.009277 C852.739234,162.509941 849.667813,164.73876 848.254395,166.695801 C846.406078,169.359551 845.481934,172.376611 845.481934,175.74707 L845.481934,179.008789 L894,179.008789 L894,216.11084 L806.815124,216.11084 L784.221319,269.684437 L894,228.423828 L894,267.075195 L874.266602,272.946289 L874.266602,315.022461 L894,320.812012 L894,358.566406 L774.458008,313.63623 L774.458008,292.834841 L708.257434,449.807203 L658,393.274062 L658,479.5354 L538.458008,479.5354 L538.458008,380.542236 L563.980957,380.542236 L563.980957,442.514893 L582.980469,442.514893 L582.980469,385.0271 L607.361816,385.0271 L607.361816,442.514893 L630.927734,442.514893 L630.927734,378.748291 L645.086725,378.748291 L627.398937,358.851807 L538.458008,358.851807 L538.458008,321.912842 L594.560543,321.912842 L559.426837,282.391947 L565.09798,247.7478 C560.490492,245.326732 556.367181,242.296624 552.728027,238.657471 C541.855577,227.785021 536.419434,212.645361 536.419434,193.238037 C536.419434,173.341453 541.760445,158.011528 552.442627,147.247803 C560.523729,139.105013 571.054721,134.042291 584.035796,132.059568 L586.801885,115.16195 C572.719045,113.383874 561.361168,108.178307 552.728027,99.545166 C541.855577,88.6727158 536.419434,73.533056 536.419434,54.1257324 C536.419434,34.2291486 541.760445,18.8992237 552.442627,8.13549805 C563.124809,-2.62822765 578.087794,-8.01000977 597.332031,-8.01000977 C600.66407,-8.01000977 603.853088,-7.87627757 606.899091,-7.60881223 L620.059037,-88.0009147 L627.645091,-93.4710697 Z M842.188271,13.5451602 L841.648305,49.2739258 L866.846191,49.2739258 L866.846191,40.2226563 C866.846191,32.5032166 865.989999,27.0127116 864.277588,23.7509766 C862.565177,20.4892415 859.575298,17.934254 855.307861,16.0859375 C852.274051,14.7719304 847.900879,13.925008 842.188271,13.5451602 Z M822.894531,177.983942 L822.462319,179.008789 L822.894531,179.008789 L822.894531,177.983942 Z M571.229724,210.28991 L577.594149,171.410607 C575.5216,172.357515 573.715561,173.504011 572.176025,174.850098 C566.98443,179.389346 564.388672,185.545778 564.388672,193.31958 C564.388672,200.245867 566.669001,205.902595 571.229724,210.28991 Z M592.765188,78.7330415 L600.906274,29.0003917 C599.596721,28.9527673 598.242221,28.9289551 596.842773,28.9289551 C585.589787,28.9289551 577.36762,31.198545 572.176025,35.737793 C566.98443,40.2770409 564.388672,46.4334735 564.388672,54.2072754 C564.388672,61.6549038 567.025201,67.6346617 572.29834,72.1467285 C576.707346,75.9193837 583.529578,78.1148081 592.765188,78.7330415 Z M1085.0434,-224.673447 L1130,-252.149658 L1130,-206.648682 L1105.22031,-193.950632 L1125.96002,-162.37085 L1130,-162.37085 L1130,-156.219286 L1189.4549,-65.6889656 L1130,415.360286 L1130,459.231201 L1124.57781,459.231201 L1119.7836,498.021119 C1123.14386,502.319153 1125.46207,506.866527 1126.73828,511.66333 C1128.91277,519.763305 1130,527.102099 1130,533.679932 L1130,588.55835 L1108.59372,588.55835 L1105.51236,613.489676 L1130,600.871338 L1130,642.621338 L1099.90245,658.879388 L1097.12469,681.354248 L1130,681.354248 L1130,718.456299 L1092.53909,718.456299 L1090.43073,735.515028 L1067.99093,718.456299 L1010.45801,718.456299 L1010.45801,674.719782 L924.646351,609.485781 L1010.78973,459.231201 L1010.45801,459.231201 L1010.45801,360.238037 L1035.98096,360.238037 L1035.98096,415.291705 L1054.98047,382.15203 L1054.98047,364.7229 L1064.97287,364.7229 L1067.30209,360.660192 L1050.98964,338.302979 L1010.45801,338.302979 L1010.45801,303.810303 L1020.72439,296.822578 L918.715885,157.013607 L1021.84593,-125.431885 L1010.45801,-125.431885 L1010.45801,-162.37085 L1035.33355,-162.37085 L1040.17336,-175.625791 L1010.45801,-201.10376 L1010.45801,-250.192627 L1052.55669,-209.540378 L1067.71594,-251.057499 L1085.0434,-224.673447 Z M816.289551,433.051706 L816.289551,408.144531 L774.458008,408.144531 L774.458008,371.04248 L894,371.04248 L894,408.144531 L845.64502,408.144531 L845.64502,433.051706 L912.918212,433.051706 L864.364401,571.648091 L894,553.535645 L894,599.036621 L846.185932,623.538358 L845.663439,625.029809 L864.807617,643.314453 L894,643.314453 L894,680.253418 L826.317215,680.253418 L823.376083,688.648851 L835.385622,704.879395 L845.726563,704.879395 C852.793655,704.879395 859.466521,705.980214 865.745361,708.181885 C872.024201,710.383556 877.514706,713.835507 882.217041,718.537842 C886.919376,723.240177 890.221833,728.173477 892.124512,733.337891 C894.788262,740.513708 896.120117,749.129995 896.120117,759.187012 C896.120117,765.003773 895.712406,771.35047 894.896973,778.227295 C894.655385,780.264685 894.343417,782.203056 893.961068,784.042411 L912.918212,809.662442 L904.515109,985.162357 L1010.45801,1091.56446 L1010.45801,1043.89429 L1035.98096,1043.89429 L1035.98096,1105.86694 L1054.98047,1105.86694 L1054.98047,1048.37915 L1079.36182,1048.37915 L1079.36182,1105.86694 L1102.92773,1105.86694 L1102.92773,1042.10034 L1130,1042.10034 L1130,1142.88745 L1061.5595,1142.88745 L1083.3187,1164.74097 L1112.79443,1164.74097 C1120.24206,1175.66778 1125.31127,1185.33052 1128.0022,1193.72949 C1129.85293,1199.50601 1131.06721,1206.02175 1131.64507,1213.27681 L1133.77261,1215.41356 L1247.36485,1001.49797 L1290.50593,1187.90476 L1293.04423,1069.86843 L1346.62358,1156.59768 L1348.07643,1359.58909 L662.782193,1359.58909 L735.677443,1046.96814 L658,991.392558 L658,1011.11401 L538.458008,966.183838 L538.458008,925.901611 L562.415008,916.897309 L572.476508,849.071832 L538.458008,836.285889 L538.458008,796.003662 L582.822408,779.329184 L588.840528,738.760498 L538.458008,738.760498 L538.458008,677.195557 C538.458008,665.779484 539.436514,657.054474 541.393555,651.020264 C543.350596,644.986054 546.979222,640.120705 552.279541,636.424072 C557.57986,632.727439 564.035281,630.87915 571.645996,630.87915 C578.278191,630.87915 583.999732,632.292548 588.810791,635.119385 C593.62185,637.946222 597.522283,641.833064 600.512207,646.780029 C602.414886,649.93304 603.991367,654.254774 605.241699,659.745361 C606.70948,655.342019 608.177239,652.134694 609.64502,650.123291 C610.62354,648.764235 612.716455,646.793633 615.923828,644.211426 C619.131201,641.629219 621.604646,639.903243 623.344238,639.033447 L658,621.175537 L658,662.925537 L621.46875,682.658936 C619.995338,683.437981 618.682851,684.190643 617.531286,684.916923 L648.779503,701.658447 L658,701.658447 L658,706.598414 L675.487756,715.967643 L763.968445,433.051706 L816.289551,433.051706 Z M612.41748,958.779806 L587.449095,940.91577 L569.444336,946.450439 L612.41748,959.578857 L612.41748,958.779806 Z M576.959952,818.848532 L577.675924,814.022097 L569.444336,816.55249 L576.959952,818.848532 Z M400.054945,-329.167051 L400.054945,-407 L648.102767,-395.745701 L626.021111,-177.387767 L538.265227,-216.749125 L538.265227,-293.639866 L400.054945,-329.167051 Z M925.847458,-354.62851 L1055.61323,-398.791419 L945.351288,-202.064044 L925.847458,-354.62851 Z M1208.97738,-351.980367 L1361,-351.980367 L1361,3.58862391 L1219.11528,175.848113 L1208.97738,-351.980367 Z M1249.83818,282.391947 L1361,366.837612 L1346.62358,1104.48363 L1168.36808,619.694492 L1249.83818,282.391947 Z M586.894531,701.658447 L586.894531,686.08374 C586.894531,684.39851 586.350917,681.136824 585.263672,676.298584 C584.774412,673.852283 583.524099,671.8545 581.512695,670.305176 C579.501292,668.755852 577.190931,667.981201 574.581543,667.981201 C570.721823,667.981201 567.759125,669.204333 565.693359,671.650635 C563.627594,674.096936 562.594727,678.690477 562.594727,685.431396 L562.594727,701.658447 L586.894531,701.658447 Z M565.530273,571.923584 L630.846191,571.923584 L630.846191,562.872314 C630.846191,555.152875 629.989999,549.66237 628.277588,546.400635 C626.565177,543.1389 623.575298,540.583912 619.307861,538.735596 C615.040425,536.887279 608.122932,535.963135 598.555176,535.963135 C585.888771,535.963135 577.218122,538.028869 572.542969,542.1604 C567.867815,546.291931 565.530273,553.141472 565.530273,562.709229 L565.530273,571.923584 Z M848.41748,280.692871 L805.444336,293.902832 L848.41748,307.03125 L848.41748,280.692871 Z M1010.45801,1034.51685 L1010.45801,999.453369 L1077.2417,986.814209 L1010.45801,968.385498 L1010.45801,933.403564 L1077.2417,914.893311 L1010.45801,902.25415 L1010.45801,867.35376 L1130,893.692139 L1130,929.897217 L1054.73584,950.85376 L1130,971.72876 L1130,1007.93384 L1010.45801,1034.51685 Z M1070.31055,862.705811 C1050.7945,862.705811 1035.60048,857.269667 1024.72803,846.397217 C1013.85558,835.524767 1008.41943,820.385107 1008.41943,800.977783 C1008.41943,781.081199 1013.76044,765.751275 1024.44263,754.987549 C1035.12481,744.223823 1050.08779,738.842041 1069.33203,738.842041 C1083.30313,738.842041 1094.7598,741.193173 1103.70239,745.895508 C1112.64498,750.597843 1119.60325,757.393022 1124.57739,766.28125 C1129.55154,775.169478 1132.03857,786.245621 1132.03857,799.51001 C1132.03857,812.991848 1129.8913,824.149533 1125.59668,832.983398 C1121.30206,841.817264 1114.50688,848.979383 1105.21094,854.469971 C1095.91499,859.960558 1084.28165,862.705811 1070.31055,862.705811 Z M1070.47363,825.766846 C1082.54205,825.766846 1091.2127,823.524436 1096.48584,819.039551 C1101.75898,814.554665 1104.39551,808.452594 1104.39551,800.733154 C1104.39551,792.796266 1101.81334,786.653423 1096.64893,782.304443 C1091.48451,777.955463 1082.21589,775.781006 1068.84277,775.781006 C1057.58979,775.781006 1049.36762,778.050596 1044.17603,782.589844 C1038.98443,787.129092 1036.38867,793.285524 1036.38867,801.059326 C1036.38867,808.506955 1039.0252,814.486712 1044.29834,818.998779 C1049.57148,823.510846 1058.29649,825.766846 1070.47363,825.766846 Z M538.458008,588.942787 L538.458008,608.862549 L554.261251,608.862549 L560.347422,591.763321 L538.458008,588.942787 Z M538.458008,1019.26186 L538.458008,1046.09595 L551.951008,1048.64957 L538.458008,1019.26186 Z M562.074967,1070.69951 L538.458008,1077.24536 L538.458008,1112.22729 L568.926436,1120.63494 L578.784675,1107.09319 L562.074967,1070.69951 Z M554.662662,1140.22835 L538.458008,1143.29517 L538.458008,1162.48784 L554.662662,1140.22835 Z M627.645091,-93.4710697 C629.537549,-92.8104691 631.27051,-91.5723949 632.843994,-89.7568359 C635.317477,-86.9028178 636.554199,-82.8393005 636.554199,-77.5661621 C636.554199,-70.4990695 634.135115,-65.0629259 629.296875,-61.2575684 C626.306951,-58.9199916 621.958036,-57.3706907 616.25,-56.6096191 L618.45166,-21.4645996 C630.52008,-22.4974824 640.468223,-26.9279394 648.296387,-34.7561035 C656.124551,-42.5842677 660.038574,-56.6638795 660.038574,-76.9953613 C660.038574,-88.5745208 658.36696,-98.1693142 655.023682,-105.780029 C654.18537,-107.688381 653.248798,-109.49077 652.213962,-111.187202 L627.645091,-93.4710697 Z M842.748485,-23.5233252 C839.947115,-23.7001581 836.971384,-23.7885742 833.821289,-23.7885742 C825.666951,-23.7885742 817.947628,-22.8100684 810.663086,-20.8530273 C803.378544,-18.8959863 796.991076,-15.743023 791.500488,-11.394043 C786.009901,-7.04506289 781.79689,-1.54096754 778.861328,5.1184082 C775.925767,11.7777839 774.458008,20.5163847 774.458008,31.3344727 L774.458008,86.2128906 L841.090049,86.2128906 L841.648305,49.2739258 L801.530273,49.2739258 L801.530273,40.0595703 C801.530273,30.4918141 803.867815,23.6422733 808.542969,19.5107422 C813.218122,15.3792111 821.888771,13.3134766 834.555176,13.3134766 C837.321013,13.3134766 839.865376,13.3907042 842.188271,13.5451602 L842.748485,-23.5233252 Z M840.373049,133.655656 C839.285023,129.767755 837.998084,126.592681 836.512207,124.130371 C833.522283,119.183406 829.62185,115.296564 824.810791,112.469727 C819.999732,109.64289 814.278191,108.229492 807.645996,108.229492 C800.035281,108.229492 793.57986,110.077781 788.279541,113.774414 C782.979222,117.471047 779.350596,122.336396 777.393555,128.370605 C775.436514,134.404815 774.458008,143.129826 774.458008,154.545898 L774.458008,216.11084 L806.815124,216.11084 L822.462319,179.008789 L798.594727,179.008789 L798.594727,162.781738 C798.594727,156.040819 799.627594,151.447278 801.693359,149.000977 C803.759125,146.554675 806.721823,145.331543 810.581543,145.331543 C813.190931,145.331543 815.501292,146.106193 817.512695,147.655518 C819.524099,149.204842 820.774412,151.202624 821.263672,153.648926 C822.350917,158.487166 822.894531,161.748852 822.894531,163.434082 L822.894531,177.983942 L840.327846,136.646709 L840.373049,133.655656 Z M784.221319,269.684437 L774.458008,273.354004 L774.458008,292.834841 L784.221319,269.684437 Z M658,393.274062 L658,378.748291 L645.086725,378.748291 L658,393.274062 Z M627.398937,358.851807 L658,358.851807 L658,264.261963 L628.562988,264.261963 L628.562988,321.912842 L594.560543,321.912842 L627.398937,358.851807 Z M565.09798,247.7478 C574.255968,252.559992 585.326779,254.966064 598.310547,254.966064 C612.281645,254.966064 623.914993,252.220812 633.210938,246.730225 C642.506882,241.239637 649.302062,234.077518 653.59668,225.243652 C657.891298,216.409787 660.038574,205.252102 660.038574,191.770264 C660.038574,178.505874 657.551539,167.429732 652.577393,158.541504 C647.603247,149.653276 640.644983,142.858096 631.702393,138.155762 C622.759802,133.453427 611.30313,131.102295 597.332031,131.102295 C592.646116,131.102295 588.21404,131.421385 584.035796,132.059568 L577.594149,171.410607 C582.510612,169.164367 588.926792,168.04126 596.842773,168.04126 C610.215887,168.04126 619.484512,170.215717 624.648926,174.564697 C629.81334,178.913677 632.395508,185.05652 632.395508,192.993408 C632.395508,200.712848 629.758978,206.814919 624.48584,211.299805 C619.212701,215.78469 610.542053,218.0271 598.473633,218.0271 C586.296489,218.0271 577.571478,215.7711 572.29834,211.259033 C571.929215,210.943184 571.573009,210.620143 571.229724,210.28991 L565.09798,247.7478 Z M586.801885,115.16195 C590.454767,115.623157 594.290986,115.85376 598.310547,115.85376 C612.281645,115.85376 623.914993,113.108507 633.210938,107.61792 C642.506882,102.127333 649.302062,94.9652134 653.59668,86.1313477 C657.891298,77.2974819 660.038574,66.1397972 660.038574,52.657959 C660.038574,39.3935697 657.551539,28.3174273 652.577393,19.4291992 C647.603247,10.5409712 640.644983,3.74579174 631.702393,-0.956542969 C624.892566,-4.53739387 616.62485,-6.75480657 606.899091,-7.60881223 L600.906274,29.0003917 C612.110798,29.4078661 620.024949,31.5585175 624.648926,35.4523926 C629.81334,39.8013727 632.395508,45.9442149 632.395508,53.8811035 C632.395508,61.6005432 629.758978,67.7026143 624.48584,72.1875 C619.212701,76.6723857 610.542053,78.9147949 598.473633,78.9147949 C596.478112,78.9147949 594.575298,78.8542106 592.765188,78.7330415 L586.801885,115.16195 Z M1085.0434,-224.673447 L1055.55127,-206.648682 L1052.55669,-209.540378 L1040.17336,-175.625791 L1055.63281,-162.37085 L1035.33355,-162.37085 L1021.84593,-125.431885 L1130,-125.431885 L1130,-156.219286 L1125.96002,-162.37085 L1100.80762,-162.37085 L1080.82959,-181.451904 L1105.22031,-193.950632 L1085.0434,-224.673447 Z M1130,415.360286 L1130,358.444092 L1102.92773,358.444092 L1102.92773,422.210693 L1079.36182,422.210693 L1079.36182,364.7229 L1064.97287,364.7229 L1054.98047,382.15203 L1054.98047,422.210693 L1035.98096,422.210693 L1035.98096,415.291705 L1010.78973,459.231201 L1124.57781,459.231201 L1130,415.360286 Z M1119.7836,498.021119 C1118.99294,497.009796 1118.14458,496.012278 1117.23853,495.028564 C1112.48183,489.864151 1106.58361,485.827814 1099.5437,482.919434 C1092.50379,480.011053 1082.59642,478.556885 1069.82129,478.556885 C1061.66695,478.556885 1053.94763,479.535391 1046.66309,481.492432 C1039.37854,483.449473 1032.99108,486.602436 1027.50049,490.951416 C1022.0099,495.300396 1017.79689,500.804491 1014.86133,507.463867 C1011.92577,514.123243 1010.45801,522.861844 1010.45801,533.679932 L1010.45801,588.55835 L1108.59372,588.55835 L1119.7836,498.021119 Z M1105.51236,613.489676 L1095.34424,618.729248 C1093.60465,619.599044 1091.1312,621.32502 1087.92383,623.907227 C1084.71646,626.489433 1082.62354,628.460036 1081.64502,629.819092 C1080.17724,631.830495 1078.70948,635.03782 1077.2417,639.441162 C1075.99137,633.950575 1074.41489,629.628841 1072.51221,626.47583 C1069.52228,621.528865 1065.62185,617.642023 1060.81079,614.815186 C1055.99973,611.988348 1050.27819,610.574951 1043.646,610.574951 C1036.03528,610.574951 1029.57986,612.42324 1024.27954,616.119873 C1018.97922,619.816506 1015.3506,624.681855 1013.39355,630.716064 C1011.43651,636.750274 1010.45801,645.475285 1010.45801,656.891357 L1010.45801,674.719782 L1067.99093,718.456299 L1092.53909,718.456299 L1097.12469,681.354248 L1081.48193,681.354248 L1081.48193,678.092529 C1081.48193,674.72207 1082.40608,671.70501 1084.25439,669.04126 C1085.66781,667.084219 1088.73923,664.8554 1093.46875,662.354736 L1099.90245,658.879388 L1105.51236,613.489676 Z M1050.98964,338.302979 L1130,338.302979 L1130,303.565674 L1064.35791,303.565674 L1130,258.798584 L1130,223.979736 L1010.45801,223.979736 L1010.45801,258.798584 L1076.58936,258.798584 L1020.72439,296.822578 L1050.98964,338.302979 Z M816.289551,433.051706 L816.289551,448.508301 L774.458008,448.508301 L774.458008,485.447266 L894,485.447266 L894,448.508301 L845.64502,448.508301 L845.64502,433.051706 L816.289551,433.051706 Z M864.364401,571.648091 L819.55127,599.036621 L774.458008,555.492676 L774.458008,604.581543 L819.632813,643.314453 L774.458008,643.314453 L774.458008,680.253418 L826.317215,680.253418 L845.663439,625.029809 L844.82959,624.233398 L846.185932,623.538358 L864.364401,571.648091 Z M835.385622,704.879395 L774.458008,704.879395 L774.458008,741.736816 L847.438965,741.736816 C854.071159,741.736816 859.194725,743.544334 862.809814,747.159424 C866.424904,750.774514 868.232422,755.762175 868.232422,762.122559 C868.232422,768.537304 866.397723,773.552147 862.728271,777.167236 C859.05882,780.782326 853.962435,782.589844 847.438965,782.589844 L774.458008,782.589844 L774.458008,819.447266 L845.726563,819.447266 C851.597686,819.447266 858.338504,818.305675 865.949219,816.022461 C870.678735,814.609042 875.272276,811.986103 879.72998,808.153564 C884.187685,804.321026 887.626046,800.094424 890.045166,795.473633 C891.747576,792.221839 893.052871,788.411452 893.961068,784.042411 L835.385622,704.879395 Z M1010.45801,1091.56446 L1010.45801,1142.88745 L1061.5595,1142.88745 L1010.45801,1091.56446 Z M1083.3187,1164.74097 L1061.83008,1164.74097 L1061.83008,1221.82104 L1086.70068,1221.82104 L1086.70068,1197.11353 L1097.95361,1197.11353 C1100.83481,1201.95177 1102.87337,1206.24632 1104.06934,1209.99731 C1105.26531,1213.74831 1105.86328,1217.68951 1105.86328,1221.82104 C1105.86328,1230.51901 1103.09085,1237.30059 1097.5459,1242.16602 C1092.00095,1247.03144 1082.7595,1249.46411 1069.82129,1249.46411 C1057.64414,1249.46411 1048.74246,1247.05862 1043.11597,1242.24756 C1037.48947,1237.4365 1034.67627,1230.98108 1034.67627,1222.8811 C1034.67627,1217.44488 1035.87222,1212.97365 1038.26416,1209.46729 C1040.6561,1205.96092 1044.10805,1203.47388 1048.62012,1202.0061 L1042.25977,1166.37183 C1034.54033,1168.54632 1028.16645,1171.79441 1023.13794,1176.11621 C1018.10943,1180.43801 1014.39926,1185.87415 1012.00732,1192.4248 C1009.61539,1198.97546 1008.41943,1208.85565 1008.41943,1222.06567 C1008.41943,1235.76496 1010.34926,1246.66443 1014.20898,1254.7644 C1019.21031,1265.14759 1026.53551,1273.03 1036.18481,1278.41187 C1045.83411,1283.79373 1057.18206,1286.48462 1070.229,1286.48462 C1082.6236,1286.48462 1093.60461,1284.02476 1103.17236,1279.10498 C1112.74012,1274.1852 1119.94301,1267.25411 1124.78125,1258.31152 C1129.61949,1249.36893 1132.03857,1237.80354 1132.03857,1223.61499 C1132.03857,1220.01655 1131.90741,1216.57049 1131.64507,1213.27681 L1083.3187,1164.74097 Z M658,991.392558 L658,973.359619 L638.266602,967.570068 L638.266602,925.493896 L658,919.622803 L658,880.971436 L562.415008,916.897309 L561.595941,922.418712 L587.449095,940.91577 L612.41748,933.240479 L612.41748,958.779806 L658,991.392558 Z M572.476508,849.071832 L658,881.216064 L658,843.46167 L638.266602,837.672119 L638.266602,795.595947 L658,789.724854 L658,751.073486 L582.822408,779.329184 L577.675924,814.022097 L612.41748,803.342529 L612.41748,829.680908 L576.959952,818.848532 L572.476508,849.071832 Z M588.840528,738.760498 L658,738.760498 L658,706.598414 L648.779503,701.658447 L609.481934,701.658447 L609.481934,698.396729 C609.481934,695.026269 610.406078,692.009209 612.254395,689.345459 C613.227483,687.998106 614.986437,686.521934 617.531286,684.916923 L598.352188,674.641542 L588.840528,738.760498 Z M854.45166,1067.1748 C866.52008,1066.14192 876.468223,1061.71146 884.296387,1053.8833 C892.124551,1046.05514 896.038574,1031.97552 896.038574,1011.64404 C896.038574,1000.06488 894.36696,990.47009 891.023682,982.859375 C887.680403,975.24866 882.774284,969.323263 876.305176,965.083008 C869.836068,960.842752 862.769081,958.722656 855.104004,958.722656 C848.580534,958.722656 842.682318,960.312728 837.40918,963.49292 C832.136041,966.673112 827.719175,971.755906 824.158447,978.741455 C820.59772,985.727004 817.077817,997.2924 813.598633,1013.43799 C812.239577,1019.96146 810.771818,1024.09293 809.195313,1025.83252 C807.673169,1027.62647 805.960784,1028.52344 804.058105,1028.52344 C801.448717,1028.52344 799.233489,1027.43621 797.412354,1025.26172 C795.591218,1023.08723 794.680664,1019.85272 794.680664,1015.55811 C794.680664,1010.33933 795.903796,1006.24863 798.350098,1003.28589 C800.796399,1000.32315 804.710422,998.379725 810.092285,997.455566 L808.053711,962.636719 C795.659118,964.158862 786.621529,968.929078 780.940674,976.94751 C775.259819,984.965942 772.419434,996.612879 772.419434,1011.88867 C772.419434,1024.33763 773.982325,1034.13628 777.108154,1041.28491 C780.233984,1048.43355 784.528537,1053.78815 789.991943,1057.34888 C795.45535,1060.9096 801.258433,1062.68994 807.401367,1062.68994 C816.751674,1062.68994 824.443817,1059.21081 830.478027,1052.25244 C836.512237,1045.34844 841.350405,1033.79663 844.992676,1017.59668 C847.167166,1007.70275 849.477527,1001.39682 851.923828,998.678711 C854.370129,995.960598 857.142563,994.601563 860.241211,994.601563 C863.502946,994.601563 866.370512,996.02855 868.843994,998.882568 C871.317477,1001.73659 872.554199,1005.8001 872.554199,1011.07324 C872.554199,1018.14033 870.135115,1023.57648 865.296875,1027.38184 C862.306951,1029.71941 857.958036,1031.26871 852.25,1032.02979 L854.45166,1067.1748 Z M774.458008,948.529785 L803.976563,948.529785 L803.976563,910.856934 L894,910.856934 L894,873.917969 L803.976563,873.917969 L803.976563,836.245117 L774.458008,836.245117 L774.458008,948.529785 Z M1058.89453,681.354248 L1034.59473,681.354248 L1034.59473,665.127197 C1034.59473,658.386278 1035.62759,653.792737 1037.69336,651.346436 C1039.75912,648.900134 1042.72182,647.677002 1046.58154,647.677002 C1049.19093,647.677002 1051.50129,648.451652 1053.5127,650.000977 C1055.5241,651.550301 1056.77441,653.548083 1057.26367,655.994385 C1058.35092,660.832625 1058.89453,664.094311 1058.89453,665.779541 L1058.89453,681.354248 Z M1037.53027,551.619385 L1037.53027,542.405029 C1037.53027,532.837273 1039.86782,525.987732 1044.54297,521.856201 C1049.21812,517.72467 1057.88877,515.658936 1070.55518,515.658936 C1080.12293,515.658936 1087.04042,516.58308 1091.30786,518.431396 C1095.5753,520.279713 1098.56518,522.8347 1100.27759,526.096436 C1101.99,529.358171 1102.84619,534.848676 1102.84619,542.568115 L1102.84619,551.619385 L1037.53027,551.619385 Z M1010.45801,143.578369 L1130,143.578369 L1130,106.639404 L1100.80762,106.639404 L1080.82959,87.5583496 L1130,62.3615723 L1130,16.8605957 L1055.55127,62.3615723 L1010.45801,18.817627 L1010.45801,67.9064941 L1055.63281,106.639404 L1010.45801,106.639404 L1010.45801,143.578369 Z M1110.2666,-68.9226074 L1130,-74.7937012 L1130,-113.445068 L1010.45801,-68.5148926 L1010.45801,-28.232666 L1130,16.6975098 L1130,-21.0568848 L1110.2666,-26.8464355 L1110.2666,-68.9226074 Z M1084.41748,-61.1760254 L1084.41748,-34.8376465 L1041.44434,-47.9660645 L1084.41748,-61.1760254 Z" id="Combined-Shape" fill="#000000" transform="translate(860.000000, 501.000000) rotate(-270.000000) translate(-860.000000, -501.000000) "></path>
    </g>
</svg>