<?xml version="1.0" encoding="UTF-8"?>
<svg width="375px" height="813px" viewBox="0 0 375 813" version="1.1" xmlns="http://www.w3.org/2000/svg" xmlns:xlink="http://www.w3.org/1999/xlink">
    <!-- Generator: Sketch 52.3 (67297) - http://www.bohemiancoding.com/sketch -->
    <title>6-mobile</title>
    <desc>Created with Sketch.</desc>
    <g id="6-mobile" stroke="none" stroke-width="1" fill="none" fill-rule="evenodd">
        <path d="M492,352.617966 C493.955485,352.164971 496.174059,351.938477 498.655762,351.938477 C502.563984,351.938477 505.749662,352.604811 508.212891,353.9375 C510.676119,355.270189 512.58528,357.254219 513.94043,359.889648 C515.29558,362.525078 515.973145,365.549788 515.973145,368.963867 C515.973145,372.557635 515.231941,375.683418 513.749512,378.341309 C512.267082,380.999199 510.09588,383.01692 507.23584,384.394531 C505.004709,385.457688 502.00246,385.989258 498.229004,385.989258 C495.714766,385.989258 493.638441,385.831976 492,385.51741 L492,421.451311 C493.09449,420.118347 494.500731,419.074526 496.21875,418.319824 C498.315115,417.398921 500.957992,416.938477 504.147461,416.938477 C509.747749,416.938477 513.625966,418.016591 515.782227,420.172852 C517.938487,422.329112 519.158853,425.069319 519.443359,428.393555 L509.762695,429 C509.553059,427.427727 509.126305,426.229822 508.482422,425.40625 C507.43424,424.073561 505.936859,423.407227 503.990234,423.407227 C502.537753,423.407227 501.418461,423.747881 500.632324,424.429199 C499.846187,425.110518 499.453125,425.900386 499.453125,426.798828 C499.453125,427.652348 499.82747,428.416012 500.576172,429.089844 C501.324874,429.763675 503.061835,430.400062 505.787109,430.999023 C510.249371,432.002284 513.431306,433.334953 515.333008,434.99707 C517.249684,436.659188 518.208008,438.777982 518.208008,441.353516 C518.208008,443.045581 517.717616,444.644035 516.736816,446.148926 C515.756017,447.653816 514.281097,448.836747 512.312012,449.697754 C510.342926,450.558761 507.643897,450.989258 504.214844,450.989258 C500.00714,450.989258 496.799002,450.206876 494.590332,448.64209 C492.381662,447.077303 491.06771,444.587908 490.648437,441.173828 L500.239258,440.612305 C500.493816,442.094734 501.02913,443.172848 501.845215,443.84668 C502.6613,444.520511 503.788079,444.857422 505.225586,444.857422 C506.408535,444.857422 507.299476,444.606611 507.898437,444.10498 C508.497399,443.60335 508.796875,442.993168 508.796875,442.274414 C508.796875,441.750323 508.549807,441.278648 508.055664,440.859375 C507.576495,440.425128 506.438486,440.020835 504.641602,439.646484 C500.194314,438.688146 497.008636,437.718592 495.084473,436.737793 C493.160309,435.756994 491.760258,434.540372 490.884277,433.087891 C490.008296,431.635409 489.570312,430.010751 489.570312,428.213867 C489.570312,427.803006 489.592427,427.398384 489.636655,427 L476.385742,427 L476.385742,442.296875 L486.762695,442.296875 L486.762695,450.427734 L455.833984,450.427734 L455.833984,442.296875 L466.210937,442.296875 L466.210937,427 L464.199155,427 L425,390.561361 L425,385.427734 L418.717285,385.427734 L413.618652,367.032227 L411.399121,378.759943 L423.5,390.409681 L384.103055,390.409681 L384.103055,417.5 L390.495117,417.5 L397.435547,431.043945 L402.691406,425.541016 L402.691406,417.5 L412.866211,417.5 L412.866211,450.427734 L402.691406,450.427734 L402.691406,437.984375 L392.022461,450.427734 L384.103055,450.427734 L384.103055,482.5 L393.20166,482.5 L393.20166,515.427734 L384.103055,515.427734 L384.103055,527.5 L324.344954,527.5 L295.711255,498.185794 C295.717879,498.434844 295.721191,498.686715 295.721191,498.941406 C295.721191,504.317084 294.223811,508.502264 291.229004,511.49707 C288.234197,514.491877 284.063992,515.989258 278.718262,515.989258 C273.237766,515.989258 269.015152,514.518081 266.050293,511.575684 C263.085434,508.633286 261.603027,504.511745 261.603027,499.210938 C261.603027,495.362611 262.250645,492.206881 263.545898,489.743652 C264.841152,487.280424 266.712878,485.363776 269.161133,483.993652 C271.609387,482.623528 274.660301,481.938477 278.313965,481.938477 C278.84822,481.938477 279.369225,481.950718 279.876979,481.975202 L249.061862,450.427734 L234.12207,450.427734 C231.142238,450.427734 228.735198,450.023442 226.900879,449.214844 C226.223911,448.916425 225.590285,448.57008 225,448.175808 L225,490.197416 C225.073485,490.043637 225.149332,489.892382 225.227539,489.743652 C226.522793,487.280424 228.394519,485.363776 230.842773,483.993652 C233.291028,482.623528 236.341941,481.938477 239.995605,481.938477 C243.709166,481.938477 246.78254,482.529942 249.21582,483.712891 C251.649101,484.895839 253.6219,486.767565 255.134277,489.328125 C256.646655,491.888685 257.402832,495.09308 257.402832,498.941406 C257.402832,504.317084 255.905451,508.502264 252.910645,511.49707 C249.915838,514.491877 245.745632,515.989258 240.399902,515.989258 C234.919406,515.989258 230.696792,514.518081 227.731934,511.575684 C226.608408,510.46067 225.697764,509.17633 225,507.722656 L225,510 L217.73224,503.08268 C218.139589,504.075891 218.343262,505.166168 218.343262,506.353516 C218.343262,508.045581 217.852869,509.644035 216.87207,511.148926 C215.891271,512.653816 214.416351,513.836747 212.447266,514.697754 C210.47818,515.558761 207.779151,515.989258 204.350098,515.989258 C200.142394,515.989258 196.934256,515.206876 194.725586,513.64209 C192.516916,512.077303 191.202964,509.587908 190.783691,506.173828 L200.374512,505.612305 C200.62907,507.094734 201.164384,508.172848 201.980469,508.84668 C202.796554,509.520511 203.923333,509.857422 205.36084,509.857422 C206.543788,509.857422 207.43473,509.606611 208.033691,509.10498 C208.632653,508.60335 208.932129,507.993168 208.932129,507.274414 C208.932129,506.750323 208.685061,506.278648 208.190918,505.859375 C207.711749,505.425128 206.573739,505.020835 204.776855,504.646484 C200.329568,503.688146 197.14389,502.718592 195.219727,501.737793 C193.295563,500.756994 191.895512,499.540372 191.019531,498.087891 C190.14355,496.635409 189.705566,495.010751 189.705566,493.213867 C189.705566,491.102529 190.289545,489.155933 191.45752,487.374023 C192.625494,485.592113 194.257639,484.240727 196.354004,483.319824 C196.493886,483.258376 196.636202,483.198978 196.780951,483.141629 L177.977715,465.245056 L177.977715,593 L115,593 L115,427 L219.750339,427 C219.867575,426.604683 219.997507,426.234404 220.140137,425.88916 C220.941247,423.950023 222.053053,422.325365 223.475586,421.015137 C224.435956,420.130585 225.444089,419.445666 226.5,418.96037 L226.5,385.427734 L223.307129,385.427734 L223.307129,352.5 L226.5,352.5 L226.5,345.5 L376.851177,345.5 L383.587148,351.984844 C386.526891,352.145155 389.016704,352.721168 391.056641,353.712891 C393.489921,354.895839 395.46272,356.767565 396.975098,359.328125 C398.22439,361.443264 398.957689,363.997725 399.175006,366.991562 L403.639039,371.289169 L407.778809,352.5 L417.751465,352.5 L423.523926,373.231445 L425,367.909506 L425,348 L492,348 L492,352.617966 Z M492,360.955166 L492,364.426758 L498.161621,364.426758 L498.161621,371.277344 L492,371.277344 L492,375.041603 L492.703613,374.916016 C493.107912,376.15886 493.792964,377.109697 494.758789,377.768555 C495.724614,378.427412 496.95621,378.756836 498.453613,378.756836 C500.684744,378.756836 502.462884,377.981941 503.788086,376.432129 C505.113288,374.882316 505.775879,372.430355 505.775879,369.076172 C505.775879,365.512352 505.105801,362.966805 503.765625,361.439453 C502.425449,359.912102 500.557466,359.148438 498.161621,359.148438 C497.023595,359.148438 495.937993,359.313149 494.904785,359.642578 C494.041142,359.917943 493.072887,360.355469 492,360.955166 Z M384.103055,427.548139 L384.103055,444.626331 L390.495117,438.006836 L384.103055,427.548139 Z M239.063477,440.191728 L229.376296,430.274322 C229.2309,431.265747 229.158203,432.465645 229.158203,433.874023 C229.158203,437.362973 229.727208,439.751296 230.865234,441.039063 C232.003261,442.326829 233.889961,442.970703 236.525391,442.970703 L239.063477,442.970703 L239.063477,440.191728 Z M466.531735,486.994996 L455.845215,515.427734 L444.749512,515.427734 L432.373535,482.5 L443.02002,482.5 L444.637207,487.935547 L456.227051,487.935547 L457.821777,482.5 L466.519843,482.5 L466.5,475 L647.074948,475 L701.5,475 L701.5,676 L647.074948,676 L647.074948,571.733825 L466.755928,571.733825 L466.531735,486.994996 Z M212.549972,498.150292 L202.496438,488.581524 C201.805342,488.746692 201.229058,489.02925 200.767578,489.429199 C199.981441,490.110518 199.588379,490.900386 199.588379,491.798828 C199.588379,492.652348 199.962724,493.416012 200.711426,494.089844 C201.460127,494.763675 203.197089,495.400062 205.922363,495.999023 C208.588686,496.598499 210.797882,497.315585 212.549972,498.150292 Z M528.5,29.5 L528.5,225.5 L463.5,225.5 L463.5,29.5 L528.5,29.5 Z M639,225 L639,389 L529,389 L529,225 L639,225 Z M643.5,846.5 L439.5,846.5 L439.5,623.5 L643.5,846.5 Z M114,432 L-91,432 L-91,209 L114,432 Z M-33,-33 L-33,46 L-60.8008449,46 L-100,9.56136081 L-100,-33 L-33,-33 Z M34,528 L34,607 L6.19915512,607 L-33,570.561361 L-33,528 L34,528 Z M38.5749475,313 L38.5749475,208.733825 L-141.744072,208.733825 L-142,112 L38.5749475,112 L93,112 L93,313 L38.5749475,313 Z M378.574948,746 L378.574948,641.733825 L198.255928,641.733825 L198,545 L378.574948,545 L433,545 L433,746 L378.574948,746 Z M141,846 L141,827.706368 L-33,827.706368 L-33,650 L141,846 Z M412.5,46 L412.5,140 L237.5,140 L237.5,46 L412.5,46 Z M138,226 L316,226 L138,426 L138,226 Z M449,173 L421.713951,278 L340,278 L369.841792,173 L449,173 Z M303.5,728.5 L303.5,824.5 L138.5,824.5 L138.5,728.5 L303.5,728.5 Z M446.770996,495.055664 L450.409668,506.892578 L454.025879,495.055664 L446.770996,495.055664 Z M428.981934,482.5 L428.981934,515.427734 L412.023926,515.427734 C408.879379,515.427734 406.476083,515.158206 404.813965,514.619141 C403.151847,514.080075 401.811691,513.080574 400.793457,511.620605 C399.775223,510.160637 399.266113,508.382497 399.266113,506.286133 C399.266113,504.459301 399.655432,502.883307 400.434082,501.558105 C401.212732,500.232904 402.283359,499.158533 403.645996,498.334961 C404.51449,497.81087 405.704908,497.376629 407.217285,497.032227 C406.004388,496.627928 405.120934,496.223635 404.566895,495.819336 C404.192544,495.549803 403.649743,494.973312 402.938477,494.089844 C402.22721,493.206376 401.751792,492.525068 401.512207,492.045898 L396.593262,482.5 L408.093262,482.5 L413.528809,492.5625 C414.217614,493.865241 414.83154,494.711261 415.370605,495.100586 C416.104333,495.609703 416.935379,495.864258 417.86377,495.864258 L418.762207,495.864258 L418.762207,482.5 L428.981934,482.5 Z M418.762207,502.085938 L414.472168,502.085938 C414.007973,502.085938 413.109544,502.235676 411.776855,502.535156 C411.103024,502.669923 410.552737,503.01432 410.125977,503.568359 C409.699217,504.122399 409.48584,504.758785 409.48584,505.477539 C409.48584,506.540695 409.822751,507.356768 410.496582,507.925781 C411.170414,508.494795 412.4357,508.779297 414.29248,508.779297 L418.762207,508.779297 L418.762207,502.085938 Z M285.546387,498.896484 C285.546387,495.572249 284.928717,493.183927 283.693359,491.731445 C282.458002,490.278964 280.777192,489.552734 278.650879,489.552734 C276.46467,489.552734 274.77263,490.26399 273.574707,491.686523 C272.376784,493.109057 271.777832,495.662091 271.777832,499.345703 C271.777832,502.445328 272.402989,504.710117 273.65332,506.140137 C274.903652,507.570157 276.599436,508.285156 278.740723,508.285156 C280.792165,508.285156 282.439284,507.558927 283.682129,506.106445 C284.924974,504.653964 285.546387,502.250668 285.546387,498.896484 Z M247.228027,498.896484 C247.228027,495.572249 246.610358,493.183927 245.375,491.731445 C244.139642,490.278964 242.458832,489.552734 240.33252,489.552734 C238.146311,489.552734 236.45427,490.26399 235.256348,491.686523 C234.058425,493.109057 233.459473,495.662091 233.459473,499.345703 C233.459473,502.445328 234.084629,504.710117 235.334961,506.140137 C236.585293,507.570157 238.281077,508.285156 240.422363,508.285156 C242.473806,508.285156 244.120925,507.558927 245.36377,506.106445 C246.606614,504.653964 247.228027,502.250668 247.228027,498.896484 Z M429.801758,450.427734 L419.649414,450.427734 L419.649414,430.796875 C419.649414,428.850251 419.952634,427.012216 420.559082,425.282715 C421.16553,423.553214 422.116367,422.040859 423.411621,420.745605 C424.706875,419.450352 426.065748,418.540693 427.488281,418.016602 C429.464854,417.282874 431.838202,416.916016 434.608398,416.916016 C436.21062,416.916016 437.958812,417.028319 439.853027,417.25293 C441.747243,417.47754 443.330723,417.923011 444.603516,418.589355 C445.876308,419.2557 447.040522,420.202793 448.096191,421.430664 C449.151861,422.658535 449.874347,423.923822 450.263672,425.226563 C450.892581,427.322927 451.207031,429.179679 451.207031,430.796875 L451.207031,450.427734 L441.054687,450.427734 L441.054687,430.325195 C441.054687,428.528311 440.556808,427.124517 439.561035,426.11377 C438.565262,425.103022 437.183928,424.597656 435.416992,424.597656 C433.66503,424.597656 432.291183,425.095535 431.29541,426.091309 C430.299637,427.087082 429.801758,428.498363 429.801758,430.325195 L429.801758,450.427734 Z M421.794434,320.427734 L411.619629,320.427734 L411.619629,307.984375 L400.950684,320.427734 L387.429199,320.427734 L399.42334,308.006836 L386.890137,287.5 L399.42334,287.5 L406.36377,301.043945 L411.619629,295.541016 L411.619629,287.5 L421.794434,287.5 L421.794434,320.427734 Z M363.26123,292.935547 L374.851074,292.935547 L376.445801,287.5 L386.845215,287.5 L374.469238,320.427734 L363.373535,320.427734 L350.997559,287.5 L361.644043,287.5 L363.26123,292.935547 Z M365.39502,300.055664 L369.033691,311.892578 L372.649902,300.055664 L365.39502,300.055664 Z M347.695801,320.427734 L337.520996,320.427734 L337.520996,307.984375 L326.852051,320.427734 L313.330566,320.427734 L325.324707,308.006836 L312.791504,287.5 L325.324707,287.5 L332.265137,301.043945 L337.520996,295.541016 L337.520996,287.5 L347.695801,287.5 L347.695801,320.427734 Z M492,352.617966 C491.454107,352.744423 490.928717,352.888533 490.423828,353.050293 C488.11034,353.791508 485.448746,355.187815 482.438965,357.239258 L482.438965,371.277344 L492,371.277344 L492,364.426758 L491.355957,364.426758 L491.355957,361.327148 C491.574672,361.196903 491.789352,361.072909 492,360.955166 L492,352.617966 Z M492,375.041603 L482.888184,376.667969 C483.487145,378.794281 484.38183,380.549961 485.572266,381.935059 C486.762701,383.320157 488.260082,384.342119 490.064453,385.000977 C490.622052,385.204581 491.267234,385.376726 492,385.51741 L492,375.041603 Z M492,421.451311 C491.758969,421.744859 491.533058,422.05243 491.322266,422.374023 C490.381576,423.809179 489.819709,425.351161 489.636655,427 L492,427 L492,421.451311 Z M476.385742,427 L476.385742,417.5 L466.210937,417.5 L466.210937,427 L476.385742,427 Z M425,385.427734 L428.353027,385.427734 L433.429199,367.032227 L436.910645,385.427734 L446.568848,385.427734 L439.246582,352.5 L429.273926,352.5 L425,367.909506 L425,385.427734 Z M384.103055,417.5 L377.961914,417.5 L384.103055,427.548139 L384.103055,427.329668 L384.103055,417.5 Z M384.103055,444.626331 L378.500977,450.427734 L384.103055,450.427734 L384.103055,444.626331 Z M384.103055,482.5 L378.085449,482.5 C376.273591,482.5 374.252127,482.799476 372.020996,483.398438 C370.388826,483.832684 368.861498,484.704909 367.438965,486.015137 C366.016432,487.325365 364.904626,488.950023 364.103516,490.88916 C363.302405,492.828297 362.901855,495.557274 362.901855,499.076172 C362.901855,501.322277 363.171384,503.448558 363.710449,505.455078 C364.249514,507.461599 365.117995,509.221021 366.315918,510.733398 C367.513841,512.245776 369.029939,513.406246 370.864258,514.214844 C372.698577,515.023442 375.105617,515.427734 378.085449,515.427734 L384.103055,515.427734 L384.103055,482.5 Z M295.711255,498.185794 C295.617788,494.671751 294.864921,491.719221 293.452637,489.328125 C291.940259,486.767565 289.96746,484.895839 287.53418,483.712891 C285.450966,482.700128 282.898585,482.120902 279.876979,481.975202 L295.711255,498.185794 Z M249.061862,450.427734 L249.238281,450.427734 L249.238281,417.5 L234.12207,417.5 C232.310212,417.5 230.288748,417.799476 228.057617,418.398438 C227.527346,418.539519 227.008141,418.72683 226.5,418.96037 L226.5,427.329668 L229.376296,430.274322 C229.502971,429.410541 229.684831,428.705008 229.921875,428.157715 C230.430992,426.982253 231.134761,426.158694 232.033203,425.687012 C232.931645,425.21533 234.444,424.979492 236.570312,424.979492 L239.063477,424.979492 L239.063477,440.191728 L249.061862,450.427734 Z M226.5,385.427734 L232.897949,385.427734 L232.897949,367.211914 L245.296387,385.427734 L254.797363,385.427734 L254.797363,352.5 L245.229004,352.5 L245.229004,370.581055 L232.897949,352.5 L226.5,352.5 L226.5,385.427734 Z M383.587148,351.984844 C383.020303,351.953932 382.436729,351.938477 381.836426,351.938477 C378.182762,351.938477 375.131848,352.623528 372.683594,353.993652 C370.235339,355.363776 368.363613,357.280424 367.068359,359.743652 C365.773106,362.206881 365.125488,365.362611 365.125488,369.210938 C365.125488,374.511745 366.607895,378.633286 369.572754,381.575684 C372.537612,384.518081 376.760227,385.989258 382.240723,385.989258 C387.586453,385.989258 391.756658,384.491877 394.751465,381.49707 C397.746271,378.502264 399.243652,374.317084 399.243652,368.941406 C399.243652,368.271973 399.22077,367.622025 399.175006,366.991562 L383.587148,351.984844 Z M403.639039,371.289169 L400.523926,385.427734 L410.137207,385.427734 L411.399121,378.759943 L403.639039,371.289169 Z M466.531735,486.994996 L468.221191,482.5 L466.519843,482.5 L466.531735,486.994996 Z M225,448.175808 L225,427 L219.750339,427 C219.209095,428.825069 218.938477,431.183777 218.938477,434.076172 C218.938477,436.322277 219.208005,438.448558 219.74707,440.455078 C220.286136,442.461599 221.154616,444.221021 222.352539,445.733398 C223.10836,446.687622 223.990843,447.501756 225,448.175808 Z M225,490.197416 C223.85644,492.590492 223.284668,495.594973 223.284668,499.210938 C223.284668,502.503018 223.856442,505.340248 225,507.722656 L225,490.197416 Z M217.73224,503.08268 C217.255988,501.921468 216.50133,500.892935 215.468262,499.99707 C214.702878,499.328113 213.730117,498.712521 212.549972,498.150292 L217.73224,503.08268 Z M202.496437,488.581523 C202.98263,488.465325 203.525646,488.407227 204.125488,488.407227 C206.072113,488.407227 207.569493,489.073561 208.617676,490.40625 C209.261559,491.229822 209.688313,492.427727 209.897949,494 L219.578613,493.393555 C219.294107,490.069319 218.073741,487.329112 215.91748,485.172852 C213.76122,483.016591 209.883003,481.938477 204.282715,481.938477 C201.306067,481.938477 198.805501,482.339524 196.780951,483.141629 L202.496438,488.581524 Z M550.068848,515.427734 L542.746582,482.5 L532.773926,482.5 L527.023926,503.231445 L521.251465,482.5 L511.278809,482.5 L504.023926,515.427734 L513.637207,515.427734 L517.118652,497.032227 L522.217285,515.427734 L531.853027,515.427734 L536.929199,497.032227 L540.410645,515.427734 L550.068848,515.427734 Z M480.41748,487.935547 L478.800293,482.5 L468.153809,482.5 L480.529785,515.427734 L491.625488,515.427734 L504.001465,482.5 L493.602051,482.5 L492.007324,487.935547 L480.41748,487.935547 Z M482.55127,495.055664 L489.806152,495.055664 L486.189941,506.892578 L482.55127,495.055664 Z M383.026855,507.970703 L380.48877,507.970703 C377.85334,507.970703 375.96664,507.326829 374.828613,506.039063 C373.690587,504.751296 373.121582,502.362973 373.121582,498.874023 C373.121582,496.238594 373.376137,494.333176 373.885254,493.157715 C374.394371,491.982253 375.09814,491.158694 375.996582,490.687012 C376.895024,490.21533 378.407379,489.979492 380.533691,489.979492 L383.026855,489.979492 L383.026855,507.970703 Z M357.578613,515.427734 L357.578613,482.5 L329.816895,482.5 L329.816895,489.957031 L347.381348,489.957031 L347.381348,496.448242 L331.546387,496.448242 L331.546387,503.164063 L347.381348,503.164063 L347.381348,508.397461 L330.311035,508.397461 L330.311035,515.427734 L357.578613,515.427734 Z M324.336426,515.427734 L324.336426,482.5 L298.281738,482.5 L298.281738,490.608398 L314.161621,490.608398 L314.161621,515.427734 L324.336426,515.427734 Z M359.207031,450.427734 L359.207031,417.5 L349.032227,417.5 L349.032227,430.819336 L337.914062,430.819336 L337.914062,417.5 L327.694336,417.5 L327.694336,450.427734 L337.914062,450.427734 L337.914062,438.905273 L349.032227,438.905273 L349.032227,450.427734 L359.207031,450.427734 Z M300.673828,422.935547 L299.056641,417.5 L288.410156,417.5 L300.786133,450.427734 L311.881836,450.427734 L324.257812,417.5 L313.858398,417.5 L312.263672,422.935547 L300.673828,422.935547 Z M302.807617,430.055664 L310.0625,430.055664 L306.446289,441.892578 L302.807617,430.055664 Z M285.018555,417.5 L274.798828,417.5 L274.798828,430.864258 L273.900391,430.864258 C272.972001,430.864258 272.140954,430.609703 271.407227,430.100586 C270.868161,429.711261 270.254235,428.865241 269.56543,427.5625 L264.129883,417.5 L252.629883,417.5 L257.548828,427.045898 C257.788413,427.525068 258.263831,428.206376 258.975098,429.089844 C259.686364,429.973312 260.229165,430.549803 260.603516,430.819336 C261.157555,431.223635 262.04101,431.627928 263.253906,432.032227 C261.741529,432.376629 260.551111,432.81087 259.682617,433.334961 C258.31998,434.158533 257.249353,435.232904 256.470703,436.558105 C255.692053,437.883307 255.302734,439.459301 255.302734,441.286133 C255.302734,443.382497 255.811844,445.160637 256.830078,446.620605 C257.848312,448.080574 259.188468,449.080075 260.850586,449.619141 C262.512704,450.158206 264.916,450.427734 268.060547,450.427734 L285.018555,450.427734 L285.018555,417.5 Z M274.798828,437.085938 L274.798828,443.779297 L270.329102,443.779297 C268.472321,443.779297 267.207035,443.494795 266.533203,442.925781 C265.859372,442.356768 265.522461,441.540695 265.522461,440.477539 C265.522461,439.758785 265.735838,439.122399 266.162598,438.568359 C266.589358,438.01432 267.139645,437.669923 267.813477,437.535156 C269.146166,437.235676 270.044594,437.085938 270.508789,437.085938 L274.798828,437.085938 Z M476.419434,385.427734 L476.419434,352.5 L448.657715,352.5 L448.657715,359.957031 L466.222168,359.957031 L466.222168,366.448242 L450.387207,366.448242 L450.387207,373.164063 L466.222168,373.164063 L466.222168,378.397461 L449.151855,378.397461 L449.151855,385.427734 L476.419434,385.427734 Z M389.068848,368.896484 C389.068848,372.250668 388.447435,374.653964 387.20459,376.106445 C385.961745,377.558927 384.314626,378.285156 382.263184,378.285156 C380.121897,378.285156 378.426113,377.570157 377.175781,376.140137 C375.925449,374.710117 375.300293,372.445328 375.300293,369.345703 C375.300293,365.662091 375.899245,363.109057 377.097168,361.686523 C378.295091,360.26399 379.987131,359.552734 382.17334,359.552734 C384.299653,359.552734 385.980463,360.278964 387.21582,361.731445 C388.451178,363.183927 389.068848,365.572249 389.068848,368.896484 Z M359.510254,352.5 L349.290527,352.5 L349.290527,365.864258 L348.39209,365.864258 C347.4637,365.864258 346.632653,365.609703 345.898926,365.100586 C345.359861,364.711261 344.745934,363.865241 344.057129,362.5625 L338.621582,352.5 L327.121582,352.5 L332.040527,362.045898 C332.280112,362.525068 332.75553,363.206376 333.466797,364.089844 C334.178063,364.973312 334.720864,365.549803 335.095215,365.819336 C335.649254,366.223635 336.532709,366.627928 337.745605,367.032227 C336.233228,367.376629 335.04281,367.81087 334.174316,368.334961 C332.811679,369.158533 331.741052,370.232904 330.962402,371.558105 C330.183753,372.883307 329.794434,374.459301 329.794434,376.286133 C329.794434,378.382497 330.303543,380.160637 331.321777,381.620605 C332.340012,383.080574 333.680167,384.080075 335.342285,384.619141 C337.004403,385.158206 339.407699,385.427734 342.552246,385.427734 L359.510254,385.427734 L359.510254,352.5 Z M349.290527,372.085938 L349.290527,378.779297 L344.820801,378.779297 C342.964021,378.779297 341.698734,378.494795 341.024902,377.925781 C340.351071,377.356768 340.01416,376.540695 340.01416,375.477539 C340.01416,374.758785 340.227537,374.122399 340.654297,373.568359 C341.081057,373.01432 341.631344,372.669923 342.305176,372.535156 C343.637865,372.235676 344.536293,372.085938 345.000488,372.085938 L349.290527,372.085938 Z M323.72998,385.427734 L323.72998,352.5 L308.61377,352.5 C306.801912,352.5 304.780447,352.799476 302.549316,353.398438 C300.917147,353.832684 299.389818,354.704909 297.967285,356.015137 C296.544752,357.325365 295.432947,358.950023 294.631836,360.88916 C293.830725,362.828297 293.430176,365.557274 293.430176,369.076172 C293.430176,371.322277 293.699704,373.448558 294.23877,375.455078 C294.777835,377.461599 295.646316,379.221021 296.844238,380.733398 C298.042161,382.245776 299.558259,383.406246 301.392578,384.214844 C303.226897,385.023442 305.633937,385.427734 308.61377,385.427734 L323.72998,385.427734 Z M313.555176,377.970703 L311.01709,377.970703 C308.38166,377.970703 306.49496,377.326829 305.356934,376.039063 C304.218907,374.751296 303.649902,372.362973 303.649902,368.874023 C303.649902,366.238594 303.904457,364.333176 304.413574,363.157715 C304.922691,361.982253 305.62646,361.158694 306.524902,360.687012 C307.423344,360.21533 308.935699,359.979492 311.062012,359.979492 L313.555176,359.979492 L313.555176,377.970703 Z M288.106934,385.427734 L288.106934,352.5 L260.345215,352.5 L260.345215,359.957031 L277.909668,359.957031 L277.909668,366.448242 L262.074707,366.448242 L262.074707,373.164063 L277.909668,373.164063 L277.909668,378.397461 L260.839355,378.397461 L260.839355,385.427734 L288.106934,385.427734 Z" id="Combined-Shape" fill="#000000" transform="translate(279.750000, 406.750000) rotate(-180.000000) translate(-279.750000, -406.750000) "></path>
    </g>
</svg>