<?xml version="1.0" encoding="UTF-8"?>
<svg width="1536px" height="1971px" viewBox="0 0 1536 1971" version="1.1" xmlns="http://www.w3.org/2000/svg" xmlns:xlink="http://www.w3.org/1999/xlink">
    <!-- Generator: Sketch 52.3 (67297) - http://www.bohemiancoding.com/sketch -->
    <title>6-tablet</title>
    <desc>Created with Sketch.</desc>
    <g id="6-tablet" stroke="none" stroke-width="1" fill="none" fill-rule="evenodd">
        <path d="M1422.26118,546.715082 C1422.52265,548.474201 1423.50883,550.079578 1425.21973,551.53125 C1427.17807,553.305998 1431.82906,554.958326 1439.17285,556.488281 C1457.34872,560.404968 1470.36845,564.367493 1478.23242,568.375977 C1486.09639,572.38446 1491.81834,577.356741 1495.39844,583.292969 C1498.97853,589.229196 1500.76855,595.869104 1500.76855,603.212891 C1500.76855,611.84184 1498.38186,619.79749 1493.6084,627.080078 C1488.83494,634.362667 1482.16443,639.885723 1473.59668,643.649414 C1465.02893,647.413105 1454.2276,649.294922 1441.19238,649.294922 C1418.30425,649.294922 1402.45415,644.888716 1393.6416,636.076172 C1384.82906,627.263628 1379.84148,616.064521 1378.67871,602.478516 L1418.24316,600 C1419.09994,606.425813 1420.84406,611.321598 1423.47559,614.6875 C1427.75946,620.134142 1433.87919,622.857422 1441.83496,622.857422 C1447.77119,622.857422 1452.34569,621.465183 1455.55859,618.680664 C1458.7715,615.896145 1460.37793,612.667987 1460.37793,608.996094 C1460.37793,605.507795 1458.848,602.386733 1455.78809,599.632813 C1452.72817,596.878892 1445.62929,594.278007 1434.49121,591.830078 C1416.25414,587.729797 1403.24971,582.283237 1395.47754,575.490234 C1387.64417,568.697232 1383.72754,560.037813 1383.72754,549.511719 C1383.72754,542.59632 1385.73175,536.063507 1389.74023,529.913086 C1393.74872,523.762665 1399.77665,518.928077 1407.82422,515.40918 C1410.42396,514.272411 1413.33503,513.31926 1416.55744,512.549725 L1447.1993,365.382 L1519.86656,365.382 L1553.44229,84 L1627,84 L1616.36388,589 L1422.26118,546.715082 Z M1355.48011,617.606917 L1481,993 L1114.24178,981.046749 L1013.89763,889.785156 L999.878906,889.785156 L993.361328,912 L950.859375,912 L973.140874,852.717462 L936.814453,819.679094 L936.814453,912 L895.046875,912 L895.046875,857.564453 L849.607422,857.564453 L849.607422,912 L832.5,912 L832.5,1042.42578 L876.09082,1042.42578 C888.942447,1042.42578 898.764614,1043.52733 905.557617,1045.73047 C912.35062,1047.9336 917.827779,1052.01852 921.989258,1057.98535 C926.150737,1063.95218 928.231445,1071.21936 928.231445,1079.78711 C928.231445,1087.25329 926.640315,1093.69431 923.458008,1099.11035 C920.2757,1104.52639 915.900093,1108.9173 910.331055,1112.2832 C906.781558,1114.42514 901.916372,1116.19986 895.735352,1117.60742 C900.692408,1119.25977 904.303049,1120.9121 906.567383,1122.56445 C908.097338,1123.66602 910.315741,1126.02212 913.222656,1129.63281 C916.129572,1133.24351 918.072586,1136.02799 919.051758,1137.98633 L939.155273,1177 L892.155273,1177 L869.94043,1135.875 C867.125311,1130.55075 864.616222,1127.09311 862.413086,1125.50195 C859.414373,1123.42121 856.017923,1122.38086 852.223633,1122.38086 L848.551758,1122.38086 L848.551758,1177 L806.78418,1177 L806.78418,1109.72936 L782.35026,1091.30882 C783.340062,1096.71323 783.834961,1102.51133 783.834961,1108.70313 C783.834961,1124.43107 781.188178,1137.3284 775.894531,1147.39551 C770.600885,1157.46262 762.951222,1165.29587 752.945312,1170.89551 C742.939403,1176.49515 730.470452,1179.29492 715.538086,1179.29492 C703.162912,1179.29492 692.527251,1177.68779 683.630901,1174.47349 L855.069336,1386.15006 L855.069336,1307.42578 L896.65332,1307.42578 L896.65332,1358.28125 L940.256836,1307.42578 L988.761306,1307.42578 L1094.67421,1141 L1098.60645,1144.09215 L1098.60645,1042.42578 L1210.04785,1042.42578 L1210.04785,1071.1582 L1140.28223,1071.1582 L1140.28223,1092.54688 L1204.99902,1092.54688 L1204.99902,1119.99414 L1140.28223,1119.99414 L1140.28223,1146.52344 L1212.06738,1146.52344 L1212.06738,1177 L1140.45481,1177 L1481,1444.79083 L1305.50939,1693 L547,1491.1032 L564.332739,1442 L552.231445,1442 L552.231445,1307.42578 L593.81543,1307.42578 L593.81543,1358.28125 L593.932455,1358.14476 L663.292482,1161.64958 C659.692982,1158.04924 656.484493,1153.86397 653.666992,1149.09375 C647.485972,1138.62885 644.395508,1125.53263 644.395508,1109.80469 C644.395508,1087.83453 650.515238,1070.72988 662.754883,1058.49023 C674.994527,1046.25059 692.037977,1040.13086 713.885742,1040.13086 C714.07991,1040.13086 714.273692,1040.13131 714.467087,1040.13221 L590.568373,946.725924 L530.467593,1042.42578 L564.807617,1042.42578 L585.645508,1117.60742 L599.874023,1042.42578 L639.163086,1042.42578 L609.512695,1177 L568.754883,1177 L545.163086,1092.27148 L521.663086,1177 L480.905273,1177 L470.121946,1128.5081 L387.493237,1119.99414 L370.657227,1119.99414 L370.657227,1146.52344 L442.442383,1146.52344 L442.442383,1177 L328.981445,1177 L328.981445,1113.96516 L309.907982,1111.99985 L304.379883,1123.84486 L304.379883,1157.63086 C296.569484,1162.95436 289.33279,1167.19841 282.669717,1170.36303 L91.9671715,1578.97966 L294.445754,1810.35828 L118.005219,1898.23333 L229.73073,1903.40366 L147.638465,2012.54064 L-44.5,2015.5 L-44.5,619.608577 L251.406646,768.09057 L299.05126,624.785156 L265.274414,624.785156 L258.756836,647 L216.254883,647 L266.834961,512.425781 L312.182617,512.425781 L325.036807,546.625859 L369.297035,413.5 L603.826781,488.369634 L597.818686,512.502279 C607.933405,512.786475 615.87041,513.862532 621.629883,515.730469 C628.422886,517.933605 633.900044,522.018525 638.061523,527.985352 C642.223003,533.952178 644.303711,541.219358 644.303711,549.787109 C644.303711,557.253293 642.712581,563.694309 639.530273,569.110352 C636.347966,574.526394 631.972359,578.917301 626.40332,582.283203 C622.853823,584.425141 617.988638,586.199863 611.807617,587.607422 C616.764673,589.259774 620.375314,590.912101 622.639648,592.564453 C624.169604,593.666021 626.388006,596.022117 629.294922,599.632813 C632.201837,603.243508 634.144852,606.027985 635.124023,607.986328 L655.227539,647 L608.227539,647 L586.012695,605.875 C583.197577,600.550755 580.688488,597.093107 578.485352,595.501953 C578.109079,595.240866 577.726544,594.99616 577.337747,594.767834 L564.710182,645.488828 L808.023437,809.243899 L808.023437,777.425781 L849.607422,777.425781 L849.607422,824.517578 L895.046875,824.517578 L895.046875,781.69207 L818,711.619022 L851.705888,647 L814.678711,647 L814.678711,512.425781 L921.901063,512.425781 L976.370531,408 L1272.19157,512.430459 C1278.7203,510.897389 1285.85077,510.130859 1293.58301,510.130859 C1315.98156,510.130859 1333.2392,516.143495 1345.35645,528.168945 C1357.47369,540.194396 1363.53223,557.038954 1363.53223,578.703125 C1363.53223,594.431068 1360.88544,607.3284 1355.5918,617.395508 C1355.55468,617.466087 1355.51745,617.536557 1355.48011,617.606917 Z M867.602749,616.523438 L881.440679,589.994141 L856.354492,589.994141 L856.354492,616.523438 L867.602749,616.523438 Z M895.757431,562.546875 L906.913963,541.158203 L856.354492,541.158203 L856.354492,562.546875 L895.757431,562.546875 Z M896.65332,1437.49417 L901.879553,1443.94705 L927.149209,1404.23968 L918.133789,1386.64648 L896.65332,1409.13672 L896.65332,1437.49417 Z M951.376578,1366.17011 L975.700218,1327.94926 L946.499023,1358.18945 L951.376578,1366.17011 Z M521.475806,1056.74361 L499.718541,1091.38821 L504.680664,1117.60742 L521.475806,1056.74361 Z M590.930206,540.17116 L584.302397,566.793002 C586.377931,566.538288 589.334736,565.979685 593.172852,565.117188 C595.926772,564.566403 598.175773,563.158865 599.919922,560.894531 C601.664071,558.630197 602.536133,556.029312 602.536133,553.091797 C602.536133,548.746723 601.159193,545.41147 598.405273,543.085938 C596.767998,541.703349 594.27632,540.731759 590.930206,540.17116 Z M1423.5,100.121742 L1156.51621,324.653705 L978.493625,112.466148 L914.128227,112.466148 L914.128227,165.03989 L697.054395,187.404604 L683.804277,408.918266 L430.523183,214.71861 L196.177125,446.5 L-89.5,-1.5 L914.128227,-1.5 L1423.5,-1.5 L1423.5,100.121742 Z M1577.24526,1156 L1619,1420 L1433,1195.67927 L1577.24526,1156 Z M1576.5,1731.5 L1576.5,2041.5 L1240.35117,2041.5 L1077.5,1752.17291 L1576.5,1731.5 Z M975,1815.78914 L895.083454,2042 L197,2012.74442 L655.788182,1650 L975,1815.78914 Z M27.9794922,512.425781 L67.4521484,512.425781 L81.6806641,587.607422 L102.426758,512.425781 L141.807617,512.425781 L162.645508,587.607422 L176.874023,512.425781 L216.163086,512.425781 L186.512695,647 L145.754883,647 L122.163086,562.271484 L98.6630859,647 L57.9052734,647 L27.9794922,512.425781 Z M303.920898,595.685547 L289.049805,547.308594 L274.270508,595.685547 L303.920898,595.685547 Z M669.088867,512.425781 L730.868164,512.425781 C743.04661,512.425781 752.884077,514.078108 760.380859,517.382813 C767.877642,520.687517 774.073869,525.430308 778.969727,531.611328 C783.865584,537.792349 787.415028,544.983032 789.618164,553.183594 C791.8213,561.384156 792.922852,570.074173 792.922852,579.253906 C792.922852,593.635489 791.285824,604.788697 788.011719,612.713867 C784.737614,620.639037 780.193714,627.278945 774.379883,632.633789 C768.566052,637.988634 762.323927,641.553377 755.65332,643.328125 C746.534785,645.776054 738.273149,647 730.868164,647 L669.088867,647 L669.088867,512.425781 Z M710.672852,542.902344 L710.672852,616.431641 L720.862305,616.431641 C729.552452,616.431641 735.73338,615.467783 739.405273,613.540039 C743.077167,611.612295 745.95344,608.246443 748.03418,603.442383 C750.114919,598.638322 751.155273,590.850965 751.155273,580.080078 C751.155273,565.820892 748.829776,556.059922 744.178711,550.796875 C739.527646,545.533828 731.816786,542.902344 721.045898,542.902344 L710.672852,542.902344 Z M685.979492,1109.98828 C685.979492,1123.57429 688.503881,1133.33526 693.552734,1139.27148 C698.601588,1145.20771 705.470985,1148.17578 714.161133,1148.17578 C723.096073,1148.17578 730.011369,1145.26891 734.907227,1139.45508 C739.803084,1133.64125 742.250977,1123.20711 742.250977,1108.15234 C742.250977,1095.48431 739.695989,1086.22822 734.585937,1080.38379 C729.475886,1074.53936 722.545291,1071.61719 713.793945,1071.61719 C705.409789,1071.61719 698.678085,1074.58526 693.598633,1080.52148 C688.51918,1086.45771 685.979492,1096.27988 685.979492,1109.98828 Z M848.551758,1096.95313 L866.084961,1096.95313 C867.982106,1096.95313 871.653944,1096.34115 877.100586,1095.11719 C879.854506,1094.5664 882.103507,1093.15887 883.847656,1090.89453 C885.591806,1088.6302 886.463867,1086.02931 886.463867,1083.0918 C886.463867,1078.74672 885.086928,1075.41147 882.333008,1073.08594 C879.579088,1070.76041 874.407916,1069.59766 866.819336,1069.59766 L848.551758,1069.59766 L848.551758,1096.95313 Z M953.016602,1042.42578 L1014.7959,1042.42578 C1026.97434,1042.42578 1036.81181,1044.07811 1044.30859,1047.38281 C1051.80538,1050.68752 1058.0016,1055.43031 1062.89746,1061.61133 C1067.79332,1067.79235 1071.34276,1074.98303 1073.5459,1083.18359 C1075.74903,1091.38416 1076.85059,1100.07417 1076.85059,1109.25391 C1076.85059,1123.63549 1075.21356,1134.7887 1071.93945,1142.71387 C1068.66535,1150.63904 1064.12145,1157.27894 1058.30762,1162.63379 C1052.49379,1167.98863 1046.25166,1171.55338 1039.58105,1173.32813 C1030.46252,1175.77605 1022.20088,1177 1014.7959,1177 L953.016602,1177 L953.016602,1042.42578 Z M994.600586,1072.90234 L994.600586,1146.43164 L1004.79004,1146.43164 C1013.48019,1146.43164 1019.66111,1145.46778 1023.33301,1143.54004 C1027.0049,1141.6123 1029.88117,1138.24644 1031.96191,1133.44238 C1034.04265,1128.63832 1035.08301,1120.85097 1035.08301,1110.08008 C1035.08301,1095.82089 1032.75751,1086.05992 1028.10645,1080.79688 C1023.45538,1075.53383 1015.74452,1072.90234 1004.97363,1072.90234 L994.600586,1072.90234 Z M1234.74121,1042.42578 L1273.57129,1042.42578 L1324.24316,1116.87305 L1324.24316,1042.42578 L1363.44043,1042.42578 L1363.44043,1177 L1324.24316,1177 L1273.84668,1103.10352 L1273.84668,1177 L1234.74121,1177 L1234.74121,1042.42578 Z M1422.26118,546.715082 C1422.21401,546.39774 1422.19043,546.075395 1422.19043,545.748047 C1422.19043,542.810532 1423.41438,540.316742 1425.8623,538.266602 C1428.31023,536.216461 1431.95147,535.191406 1436.78613,535.191406 C1442.66116,535.191406 1447.26626,536.568346 1450.60156,539.322266 C1453.93687,542.076186 1456.12467,546.482392 1457.16504,552.541016 L1496.3623,550.246094 C1494.64875,536.292899 1489.27869,526.118847 1480.25195,519.723633 C1471.22522,513.328419 1458.11369,510.130859 1440.91699,510.130859 C1431.4299,510.130859 1423.31009,510.937142 1416.55744,512.549725 L1410,544.044006 L1422.26118,546.715082 Z M1355.48011,617.606917 L1326.75266,531.691564 L1272.19157,512.430459 C1260.2731,515.229134 1250.36001,520.582377 1242.45215,528.490234 C1230.2125,540.729879 1224.09277,557.834526 1224.09277,579.804688 C1224.09277,595.532631 1227.18324,608.628854 1233.36426,619.09375 C1239.54528,629.558646 1247.60802,637.208309 1257.55273,642.042969 C1267.49745,646.877628 1280.05819,649.294922 1295.23535,649.294922 C1310.16772,649.294922 1322.63667,646.495145 1332.64258,640.895508 C1342.57834,635.335129 1350.19077,627.572342 1355.48011,617.606917 Z M1013.89763,889.785156 L1047.24609,889.785156 L1053.85547,912 L1097.36719,912 L1046.78711,777.425781 L1001.43945,777.425781 L973.140874,852.717462 L1013.89763,889.785156 Z M936.814453,819.679094 L936.814453,777.425781 L895.046875,777.425781 L895.046875,781.69207 L936.814453,819.679094 Z M851.705888,647 L928.139648,647 L928.139648,616.523438 L867.602749,616.523438 L851.705888,647 Z M881.440679,589.994141 L921.071289,589.994141 L921.071289,562.546875 L895.757431,562.546875 L881.440679,589.994141 Z M906.913963,541.158203 L926.120117,541.158203 L926.120117,512.425781 L921.901063,512.425781 L906.913963,541.158203 Z M564.332739,1442 L593.81543,1442 L593.81543,1409.13672 L615.295898,1386.64648 L643.661133,1442 L694.883789,1442 L643.661133,1358.18945 L692.680664,1307.42578 L637.418945,1307.42578 L593.932455,1358.14476 L564.332739,1442 Z M663.292482,1161.64958 C667.589549,1165.94765 672.443865,1169.4121 677.855469,1172.04297 C679.691447,1172.93554 681.61659,1173.74571 683.630901,1174.47349 L666.313394,1153.09141 L663.292482,1161.64958 Z M855.069336,1386.15006 L855.069336,1442 L896.65332,1442 L896.65332,1437.49417 L855.069336,1386.15006 Z M927.149209,1404.23968 L946.499023,1442 L997.72168,1442 L951.376578,1366.17011 L927.149209,1404.23968 Z M975.700218,1327.94926 L995.518555,1307.42578 L988.761306,1307.42578 L975.700218,1327.94926 Z M1098.60645,1144.09215 L1098.60645,1177 L1140.45481,1177 L1098.60645,1144.09215 Z M832.5,912 L832.5,825.717154 L808.023437,809.243899 L808.023437,912 L832.5,912 Z M832.5,1042.42578 L806.78418,1042.42578 L806.78418,1109.72936 L832.5,1129.11632 L832.5,1042.42578 Z M782.35026,1091.30882 C779.876892,1077.80399 774.313221,1066.75743 765.65918,1058.16895 C753.646973,1046.24774 736.583111,1040.23556 714.467087,1040.13221 L782.35026,1091.30882 Z M530.467593,1042.42578 L525.426758,1042.42578 L521.475806,1056.74361 L530.467593,1042.42578 Z M499.718541,1091.38821 L490.452148,1042.42578 L450.979492,1042.42578 L470.121946,1128.5081 L476.024783,1129.11632 L499.718541,1091.38821 Z M387.493237,1119.99414 L435.374023,1119.99414 L435.374023,1092.54688 L370.657227,1092.54688 L370.657227,1071.1582 L440.422852,1071.1582 L440.422852,1042.42578 L328.981445,1042.42578 L328.981445,1113.96516 L387.493237,1119.99414 Z M304.379883,1123.84486 L304.379883,1100.25781 L240.12207,1100.25781 L240.12207,1128.25586 L267.936523,1128.25586 L267.936523,1140.92383 C262.489882,1144.16733 257.655295,1146.46223 253.432617,1147.80859 C249.20994,1149.15495 244.773135,1149.82813 240.12207,1149.82813 C230.330355,1149.82813 222.695991,1146.70706 217.21875,1140.46484 C211.741509,1134.22263 209.00293,1123.81908 209.00293,1109.25391 C209.00293,1095.5455 211.71091,1085.52445 217.126953,1079.19043 C222.542996,1072.85641 229.810176,1069.68945 238.928711,1069.68945 C245.048533,1069.68945 250.082012,1071.03579 254.029297,1073.72852 C257.976582,1076.42124 260.776359,1080.30727 262.428711,1085.38672 L302.543945,1078.22656 C300.096016,1069.53641 296.439477,1062.36103 291.574219,1056.7002 C286.70896,1051.03936 280.58923,1046.86264 273.214844,1044.16992 C265.840458,1041.4772 254.717848,1040.13086 239.84668,1040.13086 C224.424728,1040.13086 212.154668,1042.30336 203.036133,1046.64844 C191.347272,1052.27867 182.473663,1060.52501 176.415039,1071.3877 C170.356415,1082.25038 167.327148,1095.02532 167.327148,1109.71289 C167.327148,1123.66609 170.096326,1136.02794 175.634766,1146.79883 C181.173205,1157.56972 188.975861,1165.67836 199.042969,1171.125 C209.110076,1176.57164 222.129803,1179.29492 238.102539,1179.29492 C251.076562,1179.29492 262.290968,1177.78029 271.746094,1174.75098 C275.197704,1173.64512 278.838906,1172.18248 282.669717,1170.36303 L304.379883,1123.84486 Z M299.05126,624.785156 L312.641602,624.785156 L319.250977,647 L362.762695,647 L325.036807,546.625859 L299.05126,624.785156 Z M597.818686,512.502279 C596.003613,512.451281 594.118413,512.425781 592.163086,512.425781 L522.856445,512.425781 L522.856445,647 L564.624023,647 L564.624023,592.380859 L568.295898,592.380859 C571.614088,592.380859 574.628015,593.176511 577.337747,594.767834 L584.302397,566.793002 C583.432556,566.899751 582.7175,566.953125 582.157227,566.953125 L564.624023,566.953125 L564.624023,539.597656 L582.891602,539.597656 C585.968578,539.597656 588.648109,539.788823 590.930206,540.17116 L597.818686,512.502279 Z M458.874023,624.785156 L465.483398,647 L508.995117,647 L458.415039,512.425781 L413.067383,512.425781 L362.487305,647 L404.989258,647 L411.506836,624.785156 L458.874023,624.785156 Z M450.15332,595.685547 L420.50293,595.685547 L435.282227,547.308594 L450.15332,595.685547 Z M950.538086,512.425781 L950.538086,647 L1057.02246,647 L1057.02246,613.861328 L992.12207,613.861328 L992.12207,512.425781 L950.538086,512.425781 Z M1067.4873,579.804688 C1067.4873,595.532631 1070.57777,608.628854 1076.75879,619.09375 C1082.93981,629.558646 1091.00255,637.208309 1100.94727,642.042969 C1110.89198,646.877628 1123.45272,649.294922 1138.62988,649.294922 C1153.56225,649.294922 1166.0312,646.495145 1176.03711,640.895508 C1186.04302,635.29587 1193.69268,627.462615 1198.98633,617.395508 C1204.27997,607.3284 1206.92676,594.431068 1206.92676,578.703125 C1206.92676,557.038954 1200.86822,540.194396 1188.75098,528.168945 C1176.63373,516.143495 1159.37609,510.130859 1136.97754,510.130859 C1115.12977,510.130859 1098.08632,516.25059 1085.84668,528.490234 C1073.60704,540.729879 1067.4873,557.834526 1067.4873,579.804688 Z M1109.07129,579.988281 C1109.07129,566.279879 1111.61098,556.457712 1116.69043,550.521484 C1121.76988,544.585257 1128.50159,541.617188 1136.88574,541.617188 C1145.63709,541.617188 1152.56768,544.539359 1157.67773,550.383789 C1162.78779,556.228219 1165.34277,565.484312 1165.34277,578.152344 C1165.34277,593.207107 1162.89488,603.641247 1157.99902,609.455078 C1153.10317,615.268909 1146.18787,618.175781 1137.25293,618.175781 C1128.56278,618.175781 1121.69338,615.207712 1116.64453,609.271484 C1111.59568,603.335257 1109.07129,593.574287 1109.07129,579.988281 Z M1265.67676,579.988281 C1265.67676,566.279879 1268.21645,556.457712 1273.2959,550.521484 C1278.37535,544.585257 1285.10705,541.617188 1293.49121,541.617188 C1302.24256,541.617188 1309.17315,544.539359 1314.2832,550.383789 C1319.39325,556.228219 1321.94824,565.484312 1321.94824,578.152344 C1321.94824,593.207107 1319.50035,603.641247 1314.60449,609.455078 C1309.70863,615.268909 1302.79334,618.175781 1293.8584,618.175781 C1285.16825,618.175781 1278.29885,615.207712 1273.25,609.271484 C1268.20115,603.335257 1265.67676,593.574287 1265.67676,579.988281 Z M153.144531,867.478516 C154.307297,881.064521 159.294878,892.263628 168.107422,901.076172 C176.919966,909.888716 192.770068,914.294922 215.658203,914.294922 C228.693425,914.294922 239.494749,912.413105 248.0625,908.649414 C256.630251,904.885723 263.300757,899.362667 268.074219,892.080078 C272.84768,884.79749 275.234375,876.84184 275.234375,868.212891 C275.234375,860.869104 273.444354,854.229196 269.864258,848.292969 C266.284162,842.356741 260.562214,837.38446 252.698242,833.375977 C244.834271,829.367493 231.814544,825.404968 213.638672,821.488281 C206.294885,819.958326 201.64389,818.305998 199.685547,816.53125 C197.666006,814.8177 196.65625,812.889985 196.65625,810.748047 C196.65625,807.810532 197.880196,805.316742 200.328125,803.266602 C202.776054,801.216461 206.417294,800.191406 211.251953,800.191406 C217.126982,800.191406 221.73208,801.568346 225.067383,804.322266 C228.402686,807.076186 230.59049,811.482392 231.630859,817.541016 L270.828125,815.246094 C269.114575,801.292899 263.744511,791.118847 254.717773,784.723633 C245.691036,778.328419 232.579513,775.130859 215.382812,775.130859 C201.36842,775.130859 190.337605,776.890282 182.290039,780.40918 C174.242473,783.928077 168.214538,788.762665 164.206055,794.913086 C160.197571,801.063507 158.193359,807.59632 158.193359,814.511719 C158.193359,825.037813 162.109987,833.697232 169.943359,840.490234 C177.715534,847.283237 190.719961,852.729797 208.957031,856.830078 C220.095108,859.278007 227.193995,861.878892 230.253906,864.632813 C233.313817,867.386733 234.84375,870.507795 234.84375,873.996094 C234.84375,877.667987 233.237321,880.896145 230.024414,883.680664 C226.811507,886.465183 222.237009,887.857422 216.300781,887.857422 C208.345012,887.857422 202.225282,885.134142 197.941406,879.6875 C195.309883,876.321598 193.565759,871.425813 192.708984,865 L153.144531,867.478516 Z M286.708984,777.425781 L286.708984,810.65625 L329.119141,810.65625 L329.119141,912 L370.703125,912 L370.703125,810.65625 L413.113281,810.65625 L413.113281,777.425781 L286.708984,777.425781 Z M519.505859,777.425781 L519.505859,859.583984 C519.505859,867.050168 517.471049,872.818014 513.401367,876.887695 C509.331685,880.957377 503.716833,882.992188 496.556641,882.992188 C489.33525,882.992188 483.689799,880.926778 479.620117,876.795898 C475.550435,872.665018 473.515625,866.927771 473.515625,859.583984 L473.515625,777.425781 L432.023437,777.425781 L432.023437,857.65625 C432.023437,864.265658 433.308581,871.854124 435.878906,880.421875 C437.47006,885.74612 440.42283,890.917293 444.737305,895.935547 C449.051779,900.953801 453.80987,904.824531 459.011719,907.547852 C464.213568,910.271172 470.685183,912.091792 478.426758,913.009766 C486.168333,913.927739 493.313118,914.386719 499.861328,914.386719 C511.182999,914.386719 520.882772,912.887385 528.960937,909.888672 C534.774769,907.746734 540.328424,904.028998 545.62207,898.735352 C550.915717,893.441705 554.801745,887.260778 557.280273,880.192383 C559.758801,873.123988 560.998047,865.612019 560.998047,857.65625 L560.998047,777.425781 L519.505859,777.425781 Z M588.720703,777.425781 L588.720703,912 L630.304687,912 L630.304687,879.136719 L651.785156,856.646484 L680.150391,912 L731.373047,912 L680.150391,828.189453 L729.169922,777.425781 L673.908203,777.425781 L630.304687,828.28125 L630.304687,777.425781 L588.720703,777.425781 Z M1038.52539,860.685547 L1008.875,860.685547 L1023.6543,812.308594 L1038.52539,860.685547 Z M1111.22852,912 L1152.99609,912 L1152.99609,857.380859 L1156.66797,857.380859 C1160.46226,857.380859 1163.85871,858.421214 1166.85742,860.501953 C1169.06056,862.093107 1171.56965,865.550755 1174.38477,870.875 L1196.59961,912 L1243.59961,912 L1223.49609,872.986328 C1222.51692,871.027985 1220.57391,868.243508 1217.66699,864.632813 C1214.76008,861.022117 1212.54167,858.666021 1211.01172,857.564453 C1208.74738,855.912101 1205.13674,854.259774 1200.17969,852.607422 C1206.36071,851.199863 1211.22589,849.425141 1214.77539,847.283203 C1220.34443,843.917301 1224.72004,839.526394 1227.90234,834.110352 C1231.08465,828.694309 1232.67578,822.253293 1232.67578,814.787109 C1232.67578,806.219358 1230.59507,798.952178 1226.43359,792.985352 C1222.27211,787.018525 1216.79496,782.933605 1210.00195,780.730469 C1203.20895,778.527333 1193.38678,777.425781 1180.53516,777.425781 L1111.22852,777.425781 L1111.22852,912 Z M1152.99609,831.953125 L1152.99609,804.597656 L1171.26367,804.597656 C1178.85225,804.597656 1184.02342,805.760405 1186.77734,808.085938 C1189.53126,810.41147 1190.9082,813.746723 1190.9082,818.091797 C1190.9082,821.029312 1190.03614,823.630197 1188.29199,825.894531 C1186.54784,828.158865 1184.29884,829.566403 1181.54492,830.117188 C1176.09828,831.341152 1172.42644,831.953125 1170.5293,831.953125 L1152.99609,831.953125 Z M1257.46094,777.425781 L1257.46094,912 L1319.24023,912 C1326.64522,912 1334.90686,910.776054 1344.02539,908.328125 C1350.696,906.553377 1356.93812,902.988634 1362.75195,897.633789 C1368.56578,892.278945 1373.10968,885.639037 1376.38379,877.713867 C1379.65789,869.788697 1381.29492,858.635489 1381.29492,844.253906 C1381.29492,835.074173 1380.19337,826.384156 1377.99023,818.183594 C1375.7871,809.983032 1372.23765,802.792349 1367.3418,796.611328 C1362.44594,790.430308 1356.24971,785.687517 1348.75293,782.382813 C1341.25615,779.078108 1331.41868,777.425781 1319.24023,777.425781 L1257.46094,777.425781 Z M1299.04492,807.902344 L1309.41797,807.902344 C1320.18886,807.902344 1327.89972,810.533828 1332.55078,815.796875 C1337.20185,821.059922 1339.52734,830.820892 1339.52734,845.080078 C1339.52734,855.850965 1338.48699,863.638322 1336.40625,868.442383 C1334.32551,873.246443 1331.44924,876.612295 1327.77734,878.540039 C1324.10545,880.467783 1317.92452,881.431641 1309.23437,881.431641 L1299.04492,881.431641 L1299.04492,807.902344 Z M791.454102,1419.78516 L798.063477,1442 L841.575195,1442 L790.995117,1307.42578 L745.647461,1307.42578 L695.067383,1442 L737.569336,1442 L744.086914,1419.78516 L791.454102,1419.78516 Z M782.733398,1390.68555 L753.083008,1390.68555 L767.862305,1342.30859 L782.733398,1390.68555 Z" id="Combined-Shape" fill="#000000"></path>
    </g>
</svg>