<?xml version="1.0" encoding="UTF-8"?>
<svg width="1680px" height="950px" viewBox="0 0 1680 950" version="1.1" xmlns="http://www.w3.org/2000/svg" xmlns:xlink="http://www.w3.org/1999/xlink">
    <!-- Generator: Sketch 52.3 (67297) - http://www.bohemiancoding.com/sketch -->
    <title>7-desktop</title>
    <desc>Created with Sketch.</desc>
    <g id="7-desktop" stroke="none" stroke-width="1" fill="none" fill-rule="evenodd">
        <path d="M134.938965,164.150652 L134.938965,140.516602 L226.608887,140.516602 L261.984863,277.713867 L297.207031,140.516602 L388.569336,140.516602 L388.569336,164.330068 L403.152191,135.754438 L802.600132,43.3616925 L798.022725,140.516602 L856.455078,140.516602 L856.455078,196.195312 L795.39945,196.195312 L792.249787,263.046511 L785.395508,268.259865 L785.395508,366 L715.720215,366 L715.720215,321.254783 L558.951754,440.492628 L352.500987,366 L331.660156,366 L331.660156,358.480104 L296.047406,345.630129 L331.660156,275.845659 L331.660156,194.041992 L287.51709,366 L235.991211,366 L205.979757,248.6825 L192.001953,256.785879 L192.001953,366 L134.938965,366 L134.938965,289.867116 L40.764486,344.463069 L40.764486,383.006416 L86.3255463,383.006416 L105.707087,512.994769 L297.67359,520.929217 L176.159668,630.438866 L176.159668,670.726562 L249.21875,585.516602 L341.811523,585.516602 L259.677734,670.572754 L345.50293,811 L327.479064,811 L330.242389,812.93056 L-58,984 L-58,383.006416 L-58,77.9839392 L30.0666697,77.9839392 L134.938965,164.150652 Z M192.001953,211.035581 L197.506027,215.557919 L192.001953,194.041992 L192.001953,211.035581 Z M205.176877,725.555258 L221.868261,737.216464 L212.150879,718.253418 L205.176877,725.555258 Z M1398.10989,176.586007 L1458.46191,265.255371 L1458.46191,236.76995 L1443.45705,-13.8242278 L1712,-13.8242278 L1712,187.651814 L1524.13818,260.81288 L1524.13818,347.701845 L1712,393.479572 L1686.60452,811.451903 L1553.42445,695.268745 C1550.55499,699.99125 1547.07342,704.269013 1542.97974,708.102051 C1529.2907,720.919498 1508.39858,727.328125 1480.30273,727.328125 L1442.1582,727.328125 L1442.1582,794.843891 L1511.26725,753.097143 L1587.47454,858.720812 L1591.95838,791.837891 L1686.60452,840.981282 L1689.17095,956.002299 L478.621239,956.002299 L607.388298,778.861906 L572.660253,770.891812 C569.005716,777.405527 564.474367,783.366453 559.066162,788.774658 C550.196489,797.644331 540.891162,803.873517 531.149902,807.462402 C517.614678,812.486842 501.3624,814.999023 482.392578,814.999023 C471.420844,814.999023 459.449528,814.229988 446.478271,812.691895 C433.507015,811.153801 422.663618,808.103294 413.947754,803.540283 C405.23189,798.977272 397.259558,792.491741 390.030518,784.083496 C382.801478,775.675251 377.854017,767.010787 375.187988,758.089844 C371.41175,745.502383 369.291108,734.176458 368.826019,724.111809 L299.879058,708.288466 L364.807756,567.890499 L501.065198,591.307106 L657.36342,430.998461 L920.478279,430.998461 L762.305057,575.82746 L784.65542,585.516602 L826.923828,585.516602 L826.923828,603.840447 L858.762207,617.642753 L858.762207,585.516602 L928.4375,585.516602 L928.4375,670.726562 L1001.49658,585.516602 L1094.08936,585.516602 L1011.95557,670.572754 L1093.78001,804.453963 L1310.61029,874.308127 L1415.41281,811 L1372.17529,811 L1372.17529,585.516602 L1427.61622,585.516602 L1371.72206,536.755855 L1500.29816,366 L1458.46191,366 L1374.021,242.184082 L1374.021,366 L1325.12783,366 L1241.45562,583.158658 C1267.68601,586.6368 1288.70051,596.215459 1304.49951,611.894775 C1324.80235,632.043802 1334.95361,660.267397 1334.95361,696.566406 C1334.95361,722.919077 1330.51884,744.528968 1321.64917,761.396729 C1312.7795,778.264489 1299.96224,791.389357 1283.19702,800.771729 C1266.4318,810.1541 1245.53968,814.845215 1220.52002,814.845215 C1195.0902,814.845215 1174.04427,810.794962 1157.38159,802.694336 C1140.71891,794.593709 1127.20952,781.776455 1116.85303,764.242188 C1106.49653,746.70792 1101.31836,724.76478 1101.31836,698.412109 C1101.31836,661.600402 1111.57216,632.941021 1132.08008,612.433105 C1143.50581,601.007376 1157.42994,592.764546 1173.85263,587.704562 L941.19565,530.971293 L1193.19231,389.979261 L1138.64879,366 L975.195312,366 L975.195312,319.242188 L992.111447,301.576999 L930.719677,274.587005 L1028.53184,188.658691 L987.346191,188.658691 L987.346191,140.516602 L1083.33197,140.516602 L1193.92336,43.3616925 L1408.97122,148.397056 L1398.10989,176.586007 Z M1488.55012,638.673902 L1486.58341,636.958193 C1481.54251,633.220423 1473.34794,631.351562 1461.99951,631.351562 L1442.1582,631.351562 L1442.1582,681.646973 L1459.23096,681.646973 C1472.66364,681.646973 1482.09714,679.314232 1487.53174,674.648682 C1492.96634,669.983131 1495.68359,664.01029 1495.68359,656.72998 C1495.68359,649.65475 1493.32522,643.656275 1488.6084,638.734375 C1488.58904,638.714176 1488.56961,638.694018 1488.55012,638.673902 Z M931.906314,752.304646 L991.758716,771.586728 L964.428711,718.253418 L931.906314,752.304646 Z M502.20349,754.721969 L441.221216,740.726523 C442.915544,745.061132 445.334397,748.823749 448.477783,752.014404 C455.296665,758.935826 464.755799,762.396484 476.855469,762.396484 C487.247538,762.396484 495.696817,759.838335 502.20349,754.721969 Z M14.5222086,-0.897519546 L14.5222086,-45 L452.690517,-38.6229771 L413.683998,85.1051694 L258.66612,62.8018449 L258.66612,19.2332476 L14.5222086,-0.897519546 Z M943.317366,-15.3247447 L1172.54432,-40.348772 L977.770238,71.1228518 L943.317366,-15.3247447 Z M1170.99365,698.719727 C1170.99365,721.483512 1175.22335,737.838329 1183.68286,747.784668 C1192.14238,757.731007 1203.65227,762.704102 1218.21289,762.704102 C1233.18367,762.704102 1244.77047,757.833545 1252.97363,748.092285 C1261.1768,738.351026 1265.27832,720.86829 1265.27832,695.643555 C1265.27832,674.417863 1260.99736,658.908985 1252.4353,649.116455 C1243.87325,639.323926 1232.26082,634.427734 1217.59766,634.427734 C1203.54973,634.427734 1192.27055,639.400829 1183.75977,649.347168 C1175.24898,659.293507 1170.99365,675.750862 1170.99365,698.719727 Z M134.938965,164.150652 L134.938965,289.867116 L192.001953,256.785879 L192.001953,211.035581 L134.938965,164.150652 Z M197.506027,215.557919 L205.979757,248.6825 L224.64887,237.859419 L197.506027,215.557919 Z M176.159668,630.438866 L176.159668,585.516602 L106.484375,585.516602 L106.484375,811 L176.159668,811 L176.159668,755.936523 L205.176877,725.555258 L129.377745,672.599236 L176.159668,630.438866 Z M221.868261,737.216464 L259.677734,811 L327.479064,811 L221.868261,737.216464 Z M798.022725,140.516602 L644.660645,140.516602 L644.660645,196.195312 L715.720215,196.195312 L715.720215,321.254783 L785.395508,268.259865 L785.395508,196.195312 L795.39945,196.195312 L798.022725,140.516602 Z M352.500987,366 L388.569336,366 L388.569336,164.330068 L331.660156,275.845659 L331.660156,358.480104 L352.500987,366 Z M1398.10989,176.586007 L1373.55957,140.516602 L1308.49854,140.516602 L1308.49854,366 L1325.12783,366 L1398.10989,176.586007 Z M1241.45562,583.158658 C1233.97811,582.167143 1226.07673,581.671387 1217.75146,581.671387 C1201.53976,581.671387 1186.90684,583.682436 1173.85263,587.704562 L1234.0483,602.38324 L1241.45562,583.158658 Z M1138.64879,366 L1189.14307,366 L1189.14307,317.550293 L1058.09814,317.550293 L1184.52881,185.58252 L1184.52881,140.516602 L1083.33197,140.516602 L1028.53184,188.658691 L1100.2417,188.658691 L992.111447,301.576999 L1138.64879,366 Z M1524.13818,260.81288 L1524.13818,140.516602 L1458.46191,140.516602 L1458.46191,236.76995 L1461.36531,285.259201 L1524.13818,260.81288 Z M1524.13818,347.701845 L1515.63631,345.630129 L1500.29816,366 L1524.13818,366 L1524.13818,347.701845 Z M1553.42445,695.268745 C1560.1503,684.199478 1563.51318,670.68678 1563.51318,654.730469 C1563.51318,632.581921 1557.23273,615.509337 1544.67163,603.512207 C1532.11053,591.515077 1513.2179,585.516602 1487.99316,585.516602 L1427.61622,585.516602 L1486.58341,636.958193 C1487.3033,637.491981 1487.95886,638.063884 1488.55012,638.673902 L1553.42445,695.268745 Z M784.65542,585.516602 L615.129395,585.516602 L615.129395,641.195312 L686.188965,641.195312 L686.188965,811 L755.864258,811 L755.864258,641.195312 L826.923828,641.195312 L826.923828,603.840447 L784.65542,585.516602 Z M858.762207,617.642753 L858.762207,811 L928.4375,811 L928.4375,755.936523 L931.906314,752.304646 L905.634474,743.840895 L920.478279,644.397386 L858.762207,617.642753 Z M991.758716,771.586728 L1011.95557,811 L1097.78076,811 L1093.78001,804.453963 L991.758716,771.586728 Z M1415.41281,811 L1442.1582,811 L1442.1582,794.843891 L1415.41281,811 Z M572.660253,770.891812 C574.999303,766.722773 576.979166,762.327282 578.599854,757.705322 C582.752706,745.862001 584.829102,733.275457 584.829102,719.945312 L584.829102,585.516602 L515.307617,585.516602 L515.307617,723.175293 C515.307617,735.685121 511.898227,745.349331 505.079346,752.168213 C504.167067,753.080491 503.208449,753.931743 502.20349,754.721969 L572.660253,770.891812 Z M441.221217,740.726525 C439.240075,735.658161 438.249512,729.807766 438.249512,723.175293 L438.249512,585.516602 L368.728027,585.516602 L368.728027,719.945312 C368.728027,721.30926 368.760691,722.698092 368.826019,724.111809 L441.221216,740.726523 Z M432.866211,140.516602 L432.866211,366 L622.973633,366 L622.973633,314.935547 L502.695312,314.935547 L502.695312,270.484863 L611.130371,270.484863 L611.130371,224.496094 L502.695312,224.496094 L502.695312,188.658691 L619.589844,188.658691 L619.589844,140.516602 L432.866211,140.516602 Z M1208.21533,136.671387 L1208.21533,198.810059 L1240.20752,198.810059 C1239.69482,206.295448 1237.20827,212.780978 1232.7478,218.266846 C1228.28733,223.752713 1220.10992,229.264132 1208.21533,234.80127 L1222.82715,262.179199 C1241.89951,253.873494 1255.38326,244.209284 1263.27881,233.186279 C1271.17436,222.163275 1275.12207,207.167087 1275.12207,188.197266 L1275.12207,136.671387 L1208.21533,136.671387 Z" id="Combined-Shape" fill="#000000"></path>
    </g>
</svg>