<?xml version="1.0" encoding="UTF-8"?>
<svg width="1536px" height="1971px" viewBox="0 0 1536 1971" version="1.1" xmlns="http://www.w3.org/2000/svg" xmlns:xlink="http://www.w3.org/1999/xlink">
    <!-- Generator: Sketch 52.3 (67297) - http://www.bohemiancoding.com/sketch -->
    <title>7-tablet</title>
    <desc>Created with Sketch.</desc>
    <g id="7-tablet" stroke="none" stroke-width="1" fill="none" fill-rule="evenodd">
        <path d="M214.639071,1357 L201.298828,1357 L154.07373,1264.84229 L118.311035,1302.28613 L118.311035,1357 L49.078125,1357 L49.078125,1132.94824 L118.311035,1132.94824 L118.311035,1217.61719 L156.040534,1173.61268 L90.5,968.5 L443.981904,980.555415 L604.107121,1132.94824 L714,1132.94824 L714,916 L654.445801,916 L654.445801,747.273438 L583.837402,747.273438 L583.837402,691.948242 L785.183678,691.948242 L648.538975,515.906501 L541.168308,691.948242 L558.925781,691.948242 L558.925781,739.784668 L511.992109,739.784668 L490.273085,775.394531 L550.52002,775.394531 L550.52002,821.091309 L442.773438,821.091309 L442.773438,865.259766 L562.288086,865.259766 L562.288086,916 L373.387695,916 L373.387695,747.16783 L329.37207,711.052956 L329.37207,916 L272.824219,916 L272.824219,745.133789 L228.961426,916 L177.762695,916 L134.052734,745.133789 L134.052734,764.830678 L135,766.020129 L134.052734,766.29143 L134.052734,916 L77.3520508,916 L77.3520508,782.530778 L-4.59218352,806 L-45,540 L77.3520508,693.633479 L77.3520508,691.948242 L168.439941,691.948242 L203.591309,828.274414 L238.589844,691.948242 L306.087871,691.948242 L90.5,515.05813 L259.602296,265.5 L990.5,468.49406 L875.52992,808.342873 L794.287109,703.676351 L794.287109,747.273438 L723.678711,747.273438 L723.678711,839.643994 L947.379881,1015.77987 L1007.37854,916 L912.273438,916 L912.273438,869.539063 L1036.52588,739.784668 L924.347168,739.784668 L924.347168,691.948242 L1120.27783,691.948242 L1120.27783,736.728027 L994.649902,867.85791 L1036.32687,867.85791 L1057.87461,832.023255 L1218.11955,849.267941 L1243.46045,792.558968 L1243.46045,691.948242 L1288.41923,691.948242 L1428.35664,378.790155 L1233.03523,145.678357 L1403.23898,57.1450735 L1295.46272,51.9360128 L1374.6532,-58.018474 L1560,-61 L1560,1345.34754 L1423.14727,1273.62713 C1420.24314,1273.78196 1417.252,1273.85938 1414.17383,1273.85938 L1376.27148,1273.85938 L1376.27148,1357 L1306.73291,1357 L1306.73291,1212.61785 L1274.553,1195.75332 L1267.75463,1217.10951 C1269.08325,1225.30887 1269.74756,1234.03669 1269.74756,1243.29297 C1269.74756,1269.47832 1265.34095,1290.95101 1256.52759,1307.71167 C1249.61323,1320.86095 1240.28459,1331.72114 1228.5415,1340.29243 L1160.82977,1553 L934.590129,1477.56954 L963.330953,1357 L948.800293,1357 L905.340472,1272.19006 L898.888712,1267.65506 L865.8125,1302.28613 L865.8125,1357 L796.57959,1357 L796.57959,1195.74103 L764.943359,1173.50363 L764.943359,1188.27344 L694.334961,1188.27344 L694.334961,1218.81901 L729.5,1252.28594 L694.334961,1322.83229 L694.334961,1357 L677.303478,1357 L576.862339,1558.5 L239.163725,1433.75124 L214.639071,1357 Z M146,1867.69775 L403.454956,1641.66223 L575.123795,1855.27069 L637.191948,1855.27069 L637.191948,1802.34489 L846.518267,1779.83041 L859.295479,1556.8334 L1103.5368,1752.3335 L1329.51889,1519 L1605,1970 L637.191948,1970 L146,1970 L146,1867.69775 Z M18.6848802,1884.5 L-52.5,1884.5 L-42.2069822,1375.5 L157.5,1420.81208 L121.500676,1600.88923 L51.1775253,1600.88923 L18.6848802,1884.5 Z M-2,226 L-2,-87 L322.023222,-87 L479,205.127034 L-2,226 Z M577.5,141.019136 L654.643092,-87.5 L1328.5,-57.9458959 L885.633773,308.5 L577.5,141.019136 Z M1143.81396,688.127441 L1210.2959,688.127441 L1210.2959,739.326172 C1210.2959,758.17555 1206.37325,773.076524 1198.52783,784.029541 C1190.68242,794.982558 1177.28427,804.585408 1158.33301,812.838379 L1143.81396,785.634277 C1155.63303,780.132297 1163.75852,774.65587 1168.19067,769.204834 C1172.62282,763.753798 1175.09358,757.309445 1175.60303,749.871582 L1143.81396,749.871582 L1143.81396,688.127441 Z M214.639071,1357 L286.579102,1357 L201.298828,1217.46436 L282.911133,1132.94824 L190.90625,1132.94824 L156.040534,1173.61268 L214.639071,1357 Z M604.107121,1132.94824 L554.493652,1132.94824 L554.493652,1188.27344 L625.102051,1188.27344 L625.102051,1357 L677.303478,1357 L694.334961,1322.83229 L694.334961,1218.81901 L604.107121,1132.94824 Z M794.287109,703.676351 L794.287109,691.948242 L785.183678,691.948242 L794.287109,703.676351 Z M541.168308,691.948242 L373.387695,691.948242 L373.387695,747.16783 L462.76254,820.5 L490.273085,775.394531 L442.773438,775.394531 L442.773438,739.784668 L511.992109,739.784668 L541.168308,691.948242 Z M329.37207,711.052956 L329.37207,691.948242 L306.087871,691.948242 L329.37207,711.052956 Z M77.3520508,693.633479 L77.3520508,782.530778 L134.052734,766.29143 L134.052734,764.830678 L77.3520508,693.633479 Z M714,1132.94824 L714,1137.69508 L764.943359,1173.50363 L764.943359,1132.94824 L714,1132.94824 Z M714,916 L723.678711,916 L723.678711,839.643994 L714,832.023255 L714,916 Z M1007.37854,916 L1124.86279,916 L1124.86279,867.85791 L1036.32687,867.85791 L1007.37854,916 Z M1243.46045,792.558968 L1243.46045,916 L1308.56689,916 L1308.56689,792.970215 L1392.47168,916 L1457.73096,916 L1457.73096,691.948242 L1392.47168,691.948242 L1392.47168,815.89502 L1308.1084,691.948242 L1288.41923,691.948242 L1243.46045,792.558968 Z M1423.14727,1273.62713 C1446.58214,1272.3777 1464.35053,1266.08716 1476.45288,1254.75537 C1490.055,1242.0193 1496.85596,1224.34191 1496.85596,1201.72266 C1496.85596,1179.71473 1490.61538,1162.75055 1478.13403,1150.82959 C1465.65269,1138.90863 1446.88001,1132.94824 1421.81543,1132.94824 L1306.73291,1132.94824 L1306.73291,1212.61785 L1423.14727,1273.62713 Z M1267.75463,1217.10951 C1263.90607,1193.35875 1254.4835,1174.04201 1239.48682,1159.15894 C1219.31289,1139.13784 1190.58075,1129.12744 1153.28955,1129.12744 C1116.91535,1129.12744 1088.53982,1139.31614 1068.16211,1159.69385 C1047.7844,1180.07155 1037.5957,1208.54897 1037.5957,1245.12695 C1037.5957,1271.31231 1042.741,1293.11612 1053.03174,1310.53906 C1063.32248,1327.962 1076.74609,1340.69788 1093.30298,1348.74707 C1109.85986,1356.79626 1130.77217,1360.8208 1156.04053,1360.8208 C1180.90133,1360.8208 1201.66081,1356.15947 1218.31958,1346.83667 C1221.90901,1344.82791 1225.31632,1342.64649 1228.5415,1340.29243 L1267.75463,1217.10951 Z M963.330953,1357 L1034.08057,1357 L948.800293,1217.46436 L1030.4126,1132.94824 L938.407715,1132.94824 L865.8125,1217.61719 L865.8125,1132.94824 L796.57959,1132.94824 L796.57959,1195.74103 L898.888712,1267.65506 L901.575195,1264.84229 L905.340472,1272.19006 L972.324043,1319.27343 L963.330953,1357 Z M455.305664,1132.94824 L455.305664,1269.73291 C455.305664,1282.16331 451.917921,1291.76616 445.142334,1298.54175 C438.366747,1305.31734 429.018614,1308.70508 417.097656,1308.70508 C405.07481,1308.70508 395.675734,1305.26639 388.900146,1298.38892 C382.124559,1291.51144 378.736816,1281.95953 378.736816,1269.73291 L378.736816,1132.94824 L309.656738,1132.94824 L309.656738,1266.52344 C309.656738,1277.5274 311.796365,1290.16139 316.075684,1304.42578 C318.724785,1313.29008 323.640833,1321.89954 330.823975,1330.25439 C338.007116,1338.60925 345.92883,1345.05361 354.589355,1349.58765 C363.249881,1354.12169 374.024431,1357.15282 386.91333,1358.68115 C399.802229,1360.20948 411.697537,1360.97363 422.599609,1360.97363 C441.448987,1360.97363 457.598077,1358.4774 471.047363,1353.48486 C480.726774,1349.91876 489.973019,1343.72913 498.786377,1334.91577 C507.599735,1326.10241 514.069559,1315.81183 518.196045,1304.0437 C522.32253,1292.27558 524.385742,1279.76895 524.385742,1266.52344 L524.385742,1132.94824 L455.305664,1132.94824 Z M1106.82861,1245.43262 C1106.82861,1222.60959 1111.05692,1206.25672 1119.51367,1196.37354 C1127.97042,1186.49035 1139.17799,1181.54883 1153.13672,1181.54883 C1167.70678,1181.54883 1179.24548,1186.41393 1187.75317,1196.14429 C1196.26087,1205.87464 1200.51465,1221.28505 1200.51465,1242.37598 C1200.51465,1267.44056 1196.43917,1284.81229 1188.28809,1294.4917 C1180.137,1304.17111 1168.62377,1309.01074 1153.74805,1309.01074 C1139.27988,1309.01074 1127.84306,1304.06922 1119.43726,1294.18604 C1111.03145,1284.30285 1106.82861,1268.05187 1106.82861,1245.43262 Z M1376.27148,1228.46826 L1376.27148,1178.49219 L1395.98682,1178.49219 C1408.92666,1178.49219 1417.73989,1180.93748 1422.42676,1185.82812 C1427.11363,1190.71877 1429.45703,1196.67916 1429.45703,1203.70947 C1429.45703,1210.94356 1426.75703,1216.87848 1421.35693,1221.5144 C1415.95684,1226.15033 1406.58324,1228.46826 1393.23584,1228.46826 L1376.27148,1228.46826 Z" id="Combined-Shape" fill="#000000"></path>
    </g>
</svg>