<?xml version="1.0" encoding="UTF-8"?>
<svg width="1680px" height="950px" viewBox="0 0 1680 950" version="1.1" xmlns="http://www.w3.org/2000/svg" xmlns:xlink="http://www.w3.org/1999/xlink">
    <!-- Generator: Sketch 52.3 (67297) - http://www.bohemiancoding.com/sketch -->
    <title>8-desktop</title>
    <desc>Created with Sketch.</desc>
    <g id="8-desktop" stroke="none" stroke-width="1" fill="none" fill-rule="evenodd">
        <path d="M215.781701,243 L327.226562,243 L327.226562,284.533446 L403.152191,135.754438 L802.600132,43.3616925 L793.250242,241.811987 C807.533181,243.862314 818.054689,248.267579 824.814941,255.027832 C834.518115,264.731006 840.009759,277.061937 841.290039,292.020996 L797.727051,294.75 C796.783687,287.674769 794.863296,282.284198 791.96582,278.578125 C789.207574,275.071212 785.758104,272.589679 781.617371,271.13351 L753.795144,292.295053 C754.505538,293.28504 755.369722,294.238121 756.387695,295.154297 C759.756853,298.186539 767.573181,301.050279 779.836914,303.745605 C799.917093,308.260276 814.235797,314.257287 822.793457,321.736816 C831.4185,329.216346 835.730957,338.750919 835.730957,350.34082 C835.730957,357.955116 833.524192,365.148159 829.110596,371.920166 C824.696999,378.692173 818.059859,384.015361 809.198975,387.889893 C800.33809,391.764424 788.19246,393.70166 772.761719,393.70166 C753.827054,393.70166 739.390431,390.180943 729.451416,383.139404 C719.512401,376.097865 713.599619,364.895585 711.712891,349.532227 L754.871582,347.005371 C756.017096,353.676303 758.426007,358.527817 762.098389,361.560059 C765.77077,364.5923 770.841276,366.108398 777.310059,366.108398 C782.633327,366.108398 786.642565,364.979748 789.337891,362.722412 C792.033217,360.465077 793.380859,357.719254 793.380859,354.484863 C793.380859,352.126453 792.269054,350.003916 790.04541,348.117188 C787.889149,346.163076 782.768107,344.343758 774.682129,342.65918 C754.669334,338.346658 740.333784,333.983665 731.675049,329.570068 C726.066913,326.711447 721.448161,323.407654 717.818742,319.658647 L683.816406,345.52077 L683.816406,391.174805 L638.029785,391.174805 L638.029785,380.346002 L558.951754,440.492628 L403.537598,384.415292 L403.537598,391.174805 L357.649902,391.174805 L357.649902,367.857858 L327.226562,356.880352 L327.226562,391.174805 L204.522461,391.174805 L204.522461,359.538574 L281.338867,359.538574 L281.338867,335.988281 L210.081543,335.988281 L210.081543,305.76709 L281.338867,305.76709 L281.338867,276.556641 L202.298828,276.556641 L202.298828,250.816452 L177.030273,265.46544 L177.030273,391.174805 L100.719238,391.174805 C95.9234003,391.174805 91.5107093,391.035487 87.4811527,390.756851 L105.707087,512.994769 L297.67359,520.929217 L129.377745,672.599236 L330.242389,812.93056 L-58,984 L-58,383.006416 L-58,77.9839392 L30.0666697,77.9839392 L224.64887,237.859419 L215.781701,243 Z M131.041504,292.126598 L116.814269,300.374581 C119.856683,302.217642 123.251411,303.13916 126.998535,303.13916 L131.041504,303.13916 L131.041504,292.126598 Z M43.8177448,342.692997 L40.764486,344.463069 L40.764486,383.006416 L59.0627169,383.006416 C55.66381,380.645993 52.7036241,377.658104 50.1821289,374.042725 C45.6000747,367.472868 43.309082,359.471239 43.309082,350.037598 C43.309082,347.480156 43.4786358,345.031958 43.8177448,342.692997 Z M1372.52028,243 L1388.80908,243 L1388.80908,305.05957 L1446.52246,391.174805 L1395.68213,391.174805 L1365.76416,341.143066 L1335.84619,391.174805 L1315.42786,391.174805 L1234.0483,602.38324 L941.19565,530.971293 L1191.0555,391.174805 L1157.14697,391.174805 L1157.14697,374.132455 L1130.66553,362.490275 L1130.66553,391.174805 L1084.77783,391.174805 L1084.77783,342.31642 L1051.92871,327.874785 L1051.92871,391.174805 L1006.14209,391.174805 L1006.14209,307.745366 L941.867068,279.487793 L934.682617,279.487793 L934.682617,276.329254 L930.719677,274.587005 L934.682617,271.105549 L934.682617,243 L966.675153,243 L1193.92336,43.3616925 L1408.97122,148.397056 L1372.52028,243 Z M1560.02938,246.835381 C1565.09662,249.009159 1569.27415,251.739974 1572.56201,255.027832 C1582.26519,264.731006 1587.75683,277.061937 1589.03711,292.020996 L1545.47412,294.75 C1544.53076,287.674769 1542.61037,282.284198 1539.71289,278.578125 C1534.99607,272.581025 1528.25786,269.58252 1519.49805,269.58252 C1512.96188,269.58252 1507.92507,271.115463 1504.38745,274.181396 C1500.84984,277.24733 1499.08105,280.801738 1499.08105,284.844727 C1499.08105,288.685566 1500.76561,292.122055 1504.13477,295.154297 C1507.50392,298.186539 1515.32025,301.050279 1527.58398,303.745605 C1547.66416,308.260276 1561.98287,314.257287 1570.54053,321.736816 C1579.16557,329.216346 1583.47803,338.750919 1583.47803,350.34082 C1583.47803,354.250373 1582.89626,358.048872 1581.73271,361.736344 L1712,393.479572 L1686.60452,811.451903 L1371.72206,536.755855 L1484.31242,387.229905 C1481.72887,386.03255 1479.35756,384.669051 1477.19849,383.139404 C1467.25947,376.097865 1461.34669,364.895585 1459.45996,349.532227 L1502.61865,347.005371 C1503.36883,351.374077 1504.66086,354.962476 1506.49474,357.770611 L1515.63631,345.630129 L1540.56831,351.7055 C1540.03057,350.427193 1539.1053,349.231094 1537.79248,348.117188 C1535.63622,346.163076 1530.51518,344.343758 1522.4292,342.65918 C1502.4164,338.346658 1488.08085,333.983665 1479.42212,329.570068 C1470.76338,325.156472 1464.46315,319.681673 1460.52124,313.145508 C1456.57933,306.609342 1454.6084,299.29838 1454.6084,291.212402 C1454.6084,283.096484 1456.52594,275.521513 1460.36106,268.487327 L1443.45705,-13.8242278 L1712,-13.8242278 L1712,187.651814 L1560.02938,246.835381 Z M793.178711,547.55845 L793.178711,589.211547 L817.392216,599.708382 C818.008436,588.553566 819.724613,579.567904 822.540771,572.751221 C826.14577,564.025103 831.148894,556.714141 837.550293,550.818115 C843.951692,544.92209 850.82467,540.99708 858.169434,539.042969 C868.209523,536.347643 877.306112,535 885.459473,535 L953.482422,535 L953.482422,683.174805 L914.690024,683.174805 L905.634474,743.840895 L1310.61029,874.308127 L1511.26725,753.097143 L1587.47454,858.720812 L1591.95838,791.837891 L1686.60452,840.981282 L1689.17095,956.002299 L478.621239,956.002299 L607.388298,778.861906 L299.879058,708.288466 L364.807756,567.890499 L501.065198,591.307106 L657.36342,430.998461 L920.478279,430.998461 L793.178711,547.55845 Z M863.623814,619.750316 L907.695801,638.856033 L907.695801,568.657715 L896.476562,568.657715 C886.908155,568.657715 880.102559,569.718984 876.05957,571.841553 C872.016581,573.964122 868.849621,577.67014 866.558594,582.959717 C864.267567,588.249294 863.12207,596.823671 863.12207,608.683105 C863.12207,612.695683 863.289318,616.384753 863.623816,619.75032 Z M14.5222086,-0.897519546 L14.5222086,-45 L452.690517,-38.6229771 L413.683998,85.1051694 L258.66612,62.8018449 L258.66612,19.2332476 L14.5222086,-0.897519546 Z M943.317366,-15.3247447 L1172.54432,-40.348772 L977.770238,71.1228518 L943.317366,-15.3247447 Z M912.041992,391.174805 L866.154297,391.174805 L866.154297,243 L912.041992,243 L912.041992,391.174805 Z M131.041504,331.136719 L111.736328,331.136719 C109.64745,331.136719 105.604522,331.81054 99.6074219,333.158203 C96.5751802,333.764651 94.0988866,335.314441 92.1784668,337.807617 C90.258047,340.300794 89.2978516,343.164535 89.2978516,346.398926 C89.2978516,351.183129 90.8139497,354.855456 93.8461914,357.416016 C96.8784331,359.976575 102.572224,361.256836 110.927734,361.256836 L131.041504,361.256836 L131.041504,331.136719 Z M215.781701,243 L202.298828,243 L202.298828,250.816452 L215.781701,243 Z M177.030273,265.46544 L177.030273,243 L131.041504,243 L131.041504,292.126598 L177.030273,265.46544 Z M116.814269,300.374581 C116.464625,300.162771 116.119634,299.938789 115.779297,299.702637 C113.353503,297.950675 110.590836,294.143584 107.491211,288.28125 L83.03125,243 L31.28125,243 L53.4165039,285.956543 C54.4946343,288.112804 56.6340172,291.178691 59.8347168,295.154297 C63.0354164,299.129903 65.4780189,301.724115 67.1625977,302.937012 C69.6557742,304.756357 73.6313204,306.575674 79.0893555,308.39502 C72.2836574,309.944832 66.9267774,311.898914 63.0185547,314.257324 C56.8866881,317.963397 52.0688652,322.798066 48.5649414,328.761475 C46.1510747,332.86969 44.5686816,337.513508 43.8177448,342.692997 L116.814269,300.374581 Z M59.0627169,383.006416 C61.8402943,384.935347 64.9108545,386.445249 68.2744141,387.536133 C73.2190007,389.139783 79.6212157,390.213352 87.4811527,390.756851 L86.3255463,383.006416 L59.0627169,383.006416 Z M793.250242,241.811987 C787.032492,240.919424 780.101915,240.473145 772.458496,240.473145 C758.105885,240.473145 746.212938,242.545145 736.779297,246.689209 C727.345656,250.833273 720.001003,256.914511 714.745117,264.933105 C709.489232,272.9517 706.861328,281.711378 706.861328,291.212402 C706.861328,299.29838 708.832256,306.609342 712.77417,313.145508 C714.162964,315.448294 715.844485,317.619338 717.818742,319.658647 L753.795144,292.295053 C752.154365,290.008507 751.333984,287.525076 751.333984,284.844727 C751.333984,280.801738 753.102766,277.24733 756.640381,274.181396 C760.177996,271.115463 765.214811,269.58252 771.750977,269.58252 C775.388328,269.58252 778.677122,270.099514 781.617371,271.13351 L792.249787,263.046511 L793.250242,241.811987 Z M683.816406,345.52077 L683.816406,243 L566.570312,243 L566.570312,279.487793 L638.029785,279.487793 L638.029785,380.346002 L683.816406,345.52077 Z M403.537598,384.415292 L403.537598,299.803711 C403.537598,290.774369 404.733631,284.35622 407.125732,280.549072 C409.517834,276.741924 413.274388,274.838379 418.395508,274.838379 C421.629899,274.838379 424.123038,275.478509 425.875,276.758789 C428.43556,278.7129 430.254877,281.273422 431.333008,284.44043 C432.411138,287.607438 432.983886,292.458952 433.05127,298.995117 L476.816406,293.031738 C476.007808,281.576603 473.36306,271.957803 468.88208,264.175049 C464.401101,256.392295 458.050334,250.479512 449.82959,246.436523 C441.608846,242.393534 430.019118,240.37207 415.060059,240.37207 C400.909597,240.37207 389.303024,243.437958 380.23999,249.569824 C371.176957,255.701691 365.146255,263.181108 362.147705,272.008301 C359.149155,280.835493 357.649902,293.705482 357.649902,310.618652 L357.649902,367.857858 L403.537598,384.415292 Z M327.226562,356.880352 L327.226562,284.533446 L296.047406,345.630129 L327.226562,356.880352 Z M1372.52028,243 L1342.92139,243 L1342.92139,305.05957 L1285.30908,391.174805 L1315.42786,391.174805 L1372.52028,243 Z M1191.0555,391.174805 L1270.3501,391.174805 L1270.3501,243 L1224.36133,243 L1224.36133,303.543457 L1166.95117,303.543457 L1166.95117,333.461426 L1224.36133,333.461426 L1224.36133,359.336426 L1157.14697,359.336426 L1157.14697,374.132455 L1193.19231,389.979261 L1191.0555,391.174805 Z M1130.66553,362.490275 L1130.66553,243 L1084.77783,243 L1084.77783,342.31642 L1130.66553,362.490275 Z M1051.92871,327.874785 L1051.92871,243 L966.675153,243 L934.682617,271.105549 L934.682617,276.329254 L941.867068,279.487793 L1006.14209,279.487793 L1006.14209,307.745366 L1051.92871,327.874785 Z M1560.02938,246.835381 C1550.14212,242.593876 1536.86757,240.473145 1520.20557,240.473145 C1505.85296,240.473145 1493.96001,242.545145 1484.52637,246.689209 C1475.09273,250.833273 1467.74807,256.914511 1462.49219,264.933105 C1461.72596,266.102095 1461.01558,267.286836 1460.36106,268.487327 L1461.36531,285.259201 L1560.02938,246.835381 Z M1540.56831,351.7055 C1540.94139,352.592383 1541.12793,353.518836 1541.12793,354.484863 C1541.12793,357.719254 1539.78029,360.465077 1537.08496,362.722412 C1534.38963,364.979748 1530.3804,366.108398 1525.05713,366.108398 C1518.58835,366.108398 1513.51784,364.5923 1509.84546,361.560059 C1508.57807,360.513592 1507.46117,359.250445 1506.49474,357.770611 L1484.31242,387.229905 C1493.62195,391.544425 1505.68734,393.70166 1520.50879,393.70166 C1535.93953,393.70166 1548.08516,391.764424 1556.94604,387.889893 C1565.80693,384.015361 1572.44407,378.692173 1576.85767,371.920166 C1579.00511,368.62524 1580.63012,365.230641 1581.73271,361.736344 L1540.56831,351.7055 Z M793.178711,547.55845 L793.178711,535 L668.250977,535 L668.250977,568.556641 L747.291016,568.556641 L747.291016,597.76709 L676.033691,597.76709 L676.033691,627.988281 L747.291016,627.988281 L747.291016,651.538574 L670.474609,651.538574 L670.474609,683.174805 L793.178711,683.174805 L793.178711,589.211547 L762.305057,575.82746 L793.178711,547.55845 Z M817.392216,599.708382 C817.219606,602.83298 817.133301,606.127776 817.133301,609.592773 C817.133301,619.700246 818.346179,629.26851 820.771973,638.297852 C823.197766,647.327194 827.10593,655.244595 832.496582,662.050293 C837.887234,668.855991 844.709676,674.078107 852.964111,677.716797 C861.218547,681.355487 872.050226,683.174805 885.459473,683.174805 L914.690024,683.174805 L920.478279,644.397386 L907.695801,638.856033 L907.695801,649.618164 L896.274414,649.618164 C884.41498,649.618164 875.92483,646.720732 870.803711,640.925781 C866.991415,636.611868 864.598127,629.553425 863.623816,619.75032 L817.392216,599.708382 Z M543.929687,391.174805 L543.929687,243 L498.041992,243 L498.041992,391.174805 L543.929687,391.174805 Z" id="Combined-Shape" fill="#000000" transform="translate(827.000000, 469.500000) rotate(-180.000000) translate(-827.000000, -469.500000) "></path>
    </g>
</svg>