<?xml version="1.0" encoding="UTF-8"?>
<svg width="1536px" height="1971px" viewBox="0 0 1536 1971" version="1.1" xmlns="http://www.w3.org/2000/svg" xmlns:xlink="http://www.w3.org/1999/xlink">
    <!-- Generator: Sketch 52.3 (67297) - http://www.bohemiancoding.com/sketch -->
    <title>8-tablet</title>
    <desc>Created with Sketch.</desc>
    <g id="8-tablet" stroke="none" stroke-width="1" fill="none" fill-rule="evenodd">
        <path d="M102.862842,1050.61851 C104.927798,1050.53332 107.064989,1050.49072 109.274414,1050.49072 C126.928474,1050.49072 140.388707,1053.77332 149.655518,1060.33862 C158.922328,1066.90392 164.435213,1077.34856 166.194336,1091.67285 L156.486007,1092.24125 L207.53039,1096.52631 L178.256836,1052.84668 L225.658691,1052.84668 L253.553223,1099.49463 L281.447754,1052.84668 L328.566895,1052.84668 L294.462325,1103.82404 L297.451534,1104.07497 L274.851074,1145.44261 L274.851074,1191 L249.961615,1191 L129.26076,1411.92952 L330,1696.76918 L-58,2044 L-58,824.124052 L-58,205 L30.0116875,205 L224.472405,529.509708 L40.7028249,745.890102 L40.7028249,824.124052 L86.2354403,824.124052 L102.862842,1050.61851 Z M104.742222,1076.21898 L105.60488,1087.96991 L124.904139,1089.59003 C123.660823,1085.60652 121.76497,1082.56269 119.216553,1080.4585 C115.792545,1077.63133 111.064972,1076.21777 105.033691,1076.21777 C104.936061,1076.21777 104.838904,1076.21818 104.742222,1076.21899 Z M662.32759,780.84668 L701.373535,780.84668 C713.875876,780.84668 723.974978,782.542952 731.671143,785.935547 C739.367307,789.328142 745.728328,794.197071 750.754395,800.54248 C755.780461,806.88789 759.424305,814.269815 761.686035,822.688477 C763.947765,831.107138 765.078613,840.028273 765.078613,849.452148 C765.078613,864.21622 763.398047,875.666056 760.036865,883.802002 C756.675683,891.937948 752.010935,898.754448 746.04248,904.251709 C740.074026,909.74897 733.665887,913.40852 726.817871,915.230469 C717.456822,917.743502 708.975461,919 701.373535,919 L637.951172,919 L637.951172,818.442827 L559.136486,940 L296,747.47112 L403.199355,321.516373 L803,134 L792.640516,579.862933 L662.32759,780.84668 Z M1275.16779,1052.84668 L1336.25684,1052.84668 L1336.25684,1082.34326 L1269.57305,1082.34326 L1265.40827,1104.30078 L1331.07373,1104.30078 L1331.07373,1132.47803 L1264.63574,1132.47803 L1264.63574,1159.71289 L1338.33008,1159.71289 L1338.33008,1191 L1248.96367,1191 L1234.16908,1269 L1062.58887,1184.00669 L1062.58887,1191 L1019.80469,1191 L1019.80469,1162.81329 L941.470463,1124.00995 L1193.33458,837.749151 L931,603.464426 L1194.06525,134 L1409,347.256785 L1275.16779,1052.84668 Z M1402.93932,1191 L1361.88965,1191 L1361.88965,1052.84668 L1402.85875,1052.84668 L1515.7967,748 L1712,845.173589 L1686.62526,1694 L1402.93932,1191 Z M845.886051,1059.69063 C846.205503,1059.90296 846.52026,1060.11895 846.830322,1060.33862 C856.097133,1066.90392 861.610017,1077.34856 863.369141,1091.67285 L827.559718,1093.76942 L822.877622,1102.47603 C832.319828,1105.05985 839.612947,1107.66281 844.75708,1110.28491 C852.8302,1114.4 858.704327,1119.50453 862.379639,1125.59863 C866.05495,1131.69274 867.892578,1138.50924 867.892578,1146.04834 C867.892578,1154.90678 865.442407,1163.07402 860.541992,1170.55029 C855.641577,1178.02657 848.793664,1183.69651 839.998047,1187.5603 C831.20243,1191.42409 820.113836,1193.35596 806.731934,1193.35596 C794.530955,1193.35596 784.278117,1192.13631 775.973352,1189.697 L762.328844,1215.06969 L920.468835,1354.29827 L905.628148,1556.21447 L1310.51888,1821.12314 L1511.13368,1575.00892 L1587.32496,1789.4737 L1591.80786,1653.67052 L1686.43411,1753.45427 L1689,1987 L478.704628,1987 L607.444633,1627.32328 L300,1484.02664 L364.915057,1198.95399 L501.143872,1246.50051 L546.163086,1152.72557 L546.163086,1052.84668 L588.853027,1052.84668 L588.853027,1063.8025 L657.409255,921 L920.468835,921 L845.886051,1059.69063 Z M805.068623,1135.5928 L791.462539,1160.89404 C795.576425,1164.44158 800.886081,1166.21533 807.391602,1166.21533 C813.485708,1166.21533 818.181868,1164.78607 821.480225,1161.92749 C824.778581,1159.06891 826.427734,1155.7549 826.427734,1151.98535 C826.427734,1148.40428 824.857112,1145.20021 821.71582,1142.37305 C819.081912,1140.00253 813.532889,1137.74246 805.068623,1135.5928 Z M15,44.4895637 L15,-45 L453,-32.0602063 L414.008464,219 L259.050131,173.743707 L259.050131,85.3374604 L15,44.4895637 Z M943,15.7342585 L1172,-35 L977.418761,191 L943,15.7342585 Z M1443,18 L1712,18 L1712,426.902486 L1460.93875,625 L1443,18 Z M680.641113,812.133789 L680.641113,887.618652 L691.101562,887.618652 C700.022831,887.618652 706.368145,886.62916 710.137695,884.650146 C713.907245,882.671133 716.860015,879.215764 718.996094,874.283936 C721.132172,869.352108 722.200195,861.35764 722.200195,850.300293 C722.200195,835.661873 719.812849,825.641303 715.038086,820.238281 C710.263322,814.835259 702.347386,812.133789 691.290039,812.133789 L680.641113,812.133789 Z M787.413086,780.84668 L901.818359,780.84668 L901.818359,810.343262 L830.197266,810.343262 L830.197266,832.300781 L896.635254,832.300781 L896.635254,860.478027 L830.197266,860.478027 L830.197266,887.712891 L903.891602,887.712891 L903.891602,919 L787.413086,919 L787.413086,780.84668 Z M342.51416,1052.84668 L448.061035,1052.84668 L448.061035,1082.53174 L385.392578,1082.53174 L385.392578,1106.65674 L438.919922,1106.65674 L438.919922,1134.55127 L385.392578,1134.55127 L385.392578,1191 L342.51416,1191 L342.51416,1052.84668 Z M472.751465,1052.84668 L515.535645,1052.84668 L515.535645,1191 L472.751465,1191 L472.751465,1052.84668 Z M889.378906,1052.84668 L932.068848,1052.84668 L932.068848,1156.97998 L998.695312,1156.97998 L998.695312,1191 L889.378906,1191 L889.378906,1052.84668 Z M102.862842,1050.61851 C91.4814204,1051.08808 82.2943797,1052.85171 75.3015137,1055.90942 C67.0399164,1059.52191 60.8516645,1064.48508 56.7365723,1070.79907 C52.6214801,1077.11307 50.5639648,1083.81963 50.5639648,1090.91895 C50.5639648,1101.72499 54.584758,1110.61471 62.6264648,1117.58838 C70.6053459,1124.56205 83.9556356,1130.15346 102.677734,1134.36279 C114.112036,1136.87583 121.399724,1139.54588 124.541016,1142.37305 C127.682307,1145.20021 129.25293,1148.40428 129.25293,1151.98535 C129.25293,1155.7549 127.603776,1159.06891 124.30542,1161.92749 C121.007064,1164.78607 116.310903,1166.21533 110.216797,1166.21533 C102.049438,1166.21533 95.7669491,1163.41962 91.3691406,1157.82812 C88.6676297,1154.3727 86.8771203,1149.34671 85.9975586,1142.75 L45.3808594,1145.29443 C46.5745502,1159.24177 51.694779,1170.73872 60.7416992,1179.78564 C69.7886195,1188.83256 86.0602666,1193.35596 109.557129,1193.35596 C122.939032,1193.35596 134.027625,1191.42409 142.823242,1187.5603 C151.618859,1183.69651 158.466772,1178.02657 163.367188,1170.55029 C168.267603,1163.07402 170.717773,1154.90678 170.717773,1146.04834 C170.717773,1138.50924 168.880145,1131.69274 165.204834,1125.59863 C161.529523,1119.50453 155.655395,1114.4 147.582275,1110.28491 C139.509156,1106.16982 126.14316,1102.10191 107.483887,1098.08105 C99.9447865,1096.51041 95.1700947,1094.81414 93.159668,1092.99219 C91.0864154,1091.23306 90.0498047,1089.25408 90.0498047,1087.05518 C90.0498047,1084.03954 91.3063025,1081.47942 93.8193359,1079.37476 C96.2829362,1077.31149 99.923863,1076.25958 104.742222,1076.21899 L102.862842,1050.61851 Z M124.904139,1089.59003 C125.33132,1090.9587 125.68147,1092.43829 125.95459,1094.02881 L156.486007,1092.24125 L124.904139,1089.59003 Z M207.53039,1096.52631 L232.066895,1133.1377 L232.066895,1191 L249.961615,1191 L274.851074,1145.44261 L274.851074,1133.1377 L294.462325,1103.82404 L207.53039,1096.52631 Z M662.32759,780.84668 L637.951172,780.84668 L637.951172,818.442827 L662.32759,780.84668 Z M1275.16779,1052.84668 L1221.85156,1052.84668 L1221.85156,1191 L1248.96367,1191 L1265.40827,1104.30078 L1264.63574,1104.30078 L1264.63574,1082.34326 L1269.57305,1082.34326 L1275.16779,1052.84668 Z M1062.58887,1184.00669 L1062.58887,1052.84668 L1019.80469,1052.84668 L1019.80469,1162.81329 L1062.58887,1184.00669 Z M1402.93932,1191 L1404.76807,1191 L1404.76807,1134.92822 L1408.5376,1134.92822 C1412.4328,1134.92822 1415.91958,1135.99625 1418.99805,1138.13232 C1421.25978,1139.7658 1423.8356,1143.3154 1426.72559,1148.78125 L1449.53125,1191 L1497.78125,1191 L1477.14307,1150.94873 C1476.13785,1148.9383 1474.14316,1146.07977 1471.15894,1142.37305 C1468.17471,1138.66632 1465.89731,1136.24756 1464.32666,1135.1167 C1462.0021,1133.4204 1458.29544,1131.72413 1453.20654,1130.02783 C1459.55195,1128.58284 1464.54653,1126.76092 1468.19043,1124.56201 C1473.90758,1121.10659 1478.39956,1116.5989 1481.6665,1111.03882 C1484.93345,1105.47873 1486.56689,1098.86641 1486.56689,1091.20166 C1486.56689,1082.40604 1484.43085,1074.94559 1480.15869,1068.82007 C1475.88653,1062.69455 1470.26371,1058.50099 1463.29004,1056.23926 C1456.31637,1053.97753 1446.23298,1052.84668 1433.03955,1052.84668 L1402.85875,1052.84668 L1372,1136.14188 L1402.93932,1191 Z M845.886051,1059.69063 C836.658073,1053.55733 823.512583,1050.49072 806.449219,1050.49072 C792.062103,1050.49072 780.737916,1052.29694 772.476318,1055.90942 C764.214721,1059.52191 758.026469,1064.48508 753.911377,1070.79907 C749.796285,1077.11307 747.73877,1083.81963 747.73877,1090.91895 C747.73877,1101.72499 751.759563,1110.61471 759.80127,1117.58838 C767.780151,1124.56205 781.13044,1130.15346 799.852539,1134.36279 C801.699414,1134.7687 803.438109,1135.1787 805.068623,1135.5928 L822.877622,1102.47603 C817.501381,1101.00484 811.428411,1099.53985 804.658691,1098.08105 C797.119591,1096.51041 792.344899,1094.81414 790.334473,1092.99219 C788.26122,1091.23306 787.224609,1089.25408 787.224609,1087.05518 C787.224609,1084.03954 788.481107,1081.47942 790.994141,1079.37476 C793.507174,1077.27009 797.245255,1076.21777 802.208496,1076.21777 C808.239776,1076.21777 812.967349,1077.63133 816.391357,1080.4585 C819.815365,1083.28566 822.061355,1087.80905 823.129395,1094.02881 L827.559718,1093.76942 L845.886051,1059.69063 Z M791.462539,1160.89404 C790.411645,1159.98782 789.438781,1158.96584 788.543945,1157.82812 C785.842434,1154.3727 784.051925,1149.34671 783.172363,1142.75 L742.555664,1145.29443 C743.749355,1159.24177 748.869584,1170.73872 757.916504,1179.78564 C762.265721,1184.13486 768.284653,1187.43864 775.973352,1189.697 L791.462539,1160.89404 Z M546.163086,1152.72557 L546.163086,1191 L655.479492,1191 L655.479492,1156.97998 L588.853027,1156.97998 L588.853027,1063.8025 L546.163086,1152.72557 Z M676.588867,1052.84668 L676.588867,1191 L719.373047,1191 L719.373047,1052.84668 L676.588867,1052.84668 Z M1150.70166,1052.84668 L1150.70166,1138.03809 C1150.70166,1146.45675 1149.58652,1152.44082 1147.3562,1155.99048 C1145.12588,1159.54014 1141.6234,1161.31494 1136.84863,1161.31494 C1133.83299,1161.31494 1131.50847,1160.7181 1129.875,1159.52441 C1127.48762,1157.70246 1125.79135,1155.31512 1124.78613,1152.3623 C1123.78092,1149.40949 1123.24691,1144.8861 1123.18408,1138.79199 L1082.37891,1144.35205 C1083.13282,1155.03244 1085.59869,1164.0007 1089.77661,1171.25708 C1093.95453,1178.51346 1099.87578,1184.02635 1107.54053,1187.7959 C1115.20528,1191.56545 1126.01116,1193.4502 1139.9585,1193.4502 C1153.15192,1193.4502 1163.97351,1190.59166 1172.42358,1184.87451 C1180.87366,1179.15736 1186.49649,1172.1838 1189.29224,1163.95361 C1192.08799,1155.72343 1193.48584,1143.72387 1193.48584,1127.95459 L1193.48584,1052.84668 L1150.70166,1052.84668 Z M1404.76807,1108.82422 L1404.76807,1080.74121 L1423.52148,1080.74121 C1431.31189,1080.74121 1436.62059,1081.93488 1439.44775,1084.32227 C1442.27492,1086.70965 1443.68848,1090.1336 1443.68848,1094.59424 C1443.68848,1097.60988 1442.79322,1100.27994 1441.00269,1102.60449 C1439.21215,1104.92905 1436.90333,1106.37402 1434.07617,1106.93945 C1428.48467,1108.19597 1424.71518,1108.82422 1422.76758,1108.82422 L1404.76807,1108.82422 Z" id="Combined-Shape" fill="#000000"></path>
    </g>
</svg>