<?xml version="1.0" encoding="UTF-8"?>
<svg width="1680px" height="950px" viewBox="0 0 1680 950" version="1.1" xmlns="http://www.w3.org/2000/svg" xmlns:xlink="http://www.w3.org/1999/xlink">
    <!-- Generator: Sketch 52.3 (67297) - http://www.bohemiancoding.com/sketch -->
    <title>9-desktop</title>
    <desc>Created with Sketch.</desc>
    <g id="9-desktop" stroke="none" stroke-width="1" fill="none" fill-rule="evenodd">
        <path d="M749.438254,187.522461 L783.848145,187.522461 C791.945516,187.522461 798.486385,188.621083 803.470947,190.818359 C808.45551,193.015636 812.575342,196.169088 815.830566,200.278809 C819.085791,204.38853 821.445793,209.169569 822.910645,214.62207 C824.375496,220.074572 825.10791,225.852509 825.10791,231.956055 C825.10791,241.518277 824.019461,248.933974 821.842529,254.203369 C819.665598,259.472764 816.644388,263.887596 812.778809,267.447998 C808.913229,271.0084 804.76288,273.378575 800.327637,274.558594 C794.264781,276.186206 788.771672,277 783.848145,277 L742.771484,277 L742.771484,197.771132 L485.583164,104.696151 L242.873136,218 L-53,-1 L986.448401,-1 L1514,-1 L1514,48.6766999 L1237.48738,158.436744 L1053.11104,54.7111305 L986.448401,54.7111305 L986.448401,80.4112408 L761.627057,91.3439917 L749.438254,187.522461 Z M1488.02978,364.522461 L1495.79272,364.522461 L1495.79272,375.438027 L1512.39429,398.781661 L1512.39429,364.522461 L1558.47583,364.522461 C1567.02079,364.522461 1573.55149,365.254875 1578.06812,366.719727 C1582.58474,368.184578 1586.22647,370.900615 1588.99341,374.86792 C1591.76035,378.835225 1593.1438,383.667126 1593.1438,389.36377 C1593.1438,394.327987 1592.08587,398.610578 1589.96997,402.21167 C1587.85407,405.812762 1584.94476,408.732248 1581.24194,410.970215 C1578.88191,412.394376 1575.64707,413.574377 1571.53735,414.510254 C1574.83327,415.608892 1577.23396,416.707514 1578.7395,417.806152 C1579.75676,418.538578 1581.23176,420.105131 1583.16455,422.505859 C1585.09734,424.906588 1586.38924,426.757969 1587.04028,428.060059 L1600.40698,454 L1569.15698,454 L1554.38647,426.65625 C1552.51472,423.116193 1550.84644,420.817225 1549.38159,419.759277 C1547.38777,418.375807 1545.12949,417.684082 1542.60669,417.684082 L1540.16528,417.684082 L1540.16528,437.830755 L1573,484 L1192.96546,478.176621 L1136.42572,454 L1109.19604,454 L1109.19604,442.356482 L1090.09529,434.188923 C1088.07783,438.162312 1085.51329,441.581981 1082.40161,444.447998 C1078.53603,448.0084 1074.38568,450.378575 1069.95044,451.558594 C1063.88758,453.186206 1058.39447,454 1053.47095,454 L1012.39429,454 L1012.39429,400.963663 L971.849302,383.626465 L949.406006,383.626465 L949.406006,397.847656 L992.435791,397.847656 L992.435791,416.097168 L949.406006,416.097168 L949.406006,433.736328 L997.135498,433.736328 L997.135498,454 L921.696045,454 L921.696045,364.522461 L927.172443,364.522461 L886,346.916959 L1050.1034,199 L1413.16905,259.259993 L1488.02978,364.522461 Z M1065.4083,423.632669 L1040.04321,412.786454 L1040.04321,433.675293 L1046.81812,433.675293 C1052.59614,433.675293 1056.7058,433.03443 1059.14722,431.752686 C1061.58864,430.470941 1063.50105,428.233008 1064.88452,425.038818 C1065.07179,424.606447 1065.24639,424.13773 1065.4083,423.632669 Z M1064.05737,785 L1043.67114,785 L1043.67114,782.445894 L1011.32251,778.393068 L1011.32251,785 L851.390869,785 L851.390869,758.355894 L803.246797,752.324123 C796.301105,762.24489 787.354469,770.268552 776.406738,776.395264 C762.302664,784.28837 744.726749,788.234863 723.678467,788.234863 C702.285131,788.234863 684.579823,784.827508 670.562012,778.012695 C656.544201,771.197883 645.179161,760.415113 636.466553,745.664062 C633.711357,740.999325 631.391807,735.963675 629.507898,730.557095 L606,727.611888 L623.964951,703.65655 C623.586787,699.359779 623.397705,694.901999 623.397705,690.283203 C623.397705,659.314624 632.023921,635.204351 649.276611,617.95166 C663.78216,603.446112 683.074317,595.038572 707.153513,592.728885 L729.528964,562.892373 L851.390869,633.714041 L851.390869,595.307617 L1008.47583,595.307617 L1008.47583,635.808105 L910.135986,635.808105 L910.135986,665.957031 L1001.35913,665.957031 L1001.35913,683.966234 L1043.67114,652.671662 L1043.67114,595.307617 L1121.23054,595.307617 L1173.02458,557 L1276.52225,595.307617 L1413.8689,595.307617 L1413.8689,642.148438 L1403.07452,642.148438 L1573,705.042996 L1391.30898,826 L1064.05737,785 Z M731.804132,743.373367 L702.100852,739.651966 C707.681691,742.79741 714.227234,744.370117 721.737549,744.370117 C725.323915,744.370117 728.679441,744.037868 731.804132,743.373367 Z M901,454 L901,550.320827 L650.516628,461.288809 L531.924176,550.320827 L359.935517,541.965595 L307.133325,595.307617 L362.279541,595.307617 C380.567393,595.307617 394.606559,599.83638 404.397461,608.894043 C414.188363,617.951705 419.08374,629.165786 419.08374,642.536621 C419.08374,653.75087 415.590123,663.369101 408.602783,671.391602 C403.944557,676.739936 397.129846,680.966781 388.158447,684.072266 C401.788073,687.350277 411.816049,692.978883 418.242676,700.958252 C424.669303,708.937621 427.882568,718.965597 427.882568,731.04248 C427.882568,740.876514 425.596621,749.718385 421.024658,757.568359 C416.452695,765.418334 410.198689,771.629209 402.262451,776.201172 C397.345434,779.047866 389.926889,781.118158 380.006592,782.412109 C366.808284,784.137378 358.052675,785 353.739502,785 L252.552979,785 L252.552979,650.445973 L134.290983,769.917037 L343.926732,882.862159 L161.249418,925.757467 L276.924176,928.281312 L191.930132,981.555419 L-7,983 L-7,301.609805 L289.154655,371.673916 C291.33666,370.031076 293.728384,368.583132 296.329834,367.330078 C299.197767,365.963479 302.534574,364.920109 306.340281,364.199962 L421.42384,201 L664.243691,237.54685 L623.744408,314.242986 L782.198609,364.522461 L785.404541,364.522461 L785.404541,365.539743 L803.470947,371.272437 L803.470947,364.522461 L839.8479,364.522461 L844.984968,384.445348 L861.41026,389.657296 L867.863037,364.522461 L904.11792,364.522461 L904.11792,454 L901,454 Z M879.094625,395.268763 L881.534912,396.043097 L881.534912,385.762695 L879.094625,395.268763 Z M1648.56946,40.5 L1724.5,40.5 L1713.52078,287.5 L1500.5,265.511623 L1538.89928,178.126444 L1613.91064,178.126444 L1648.56946,40.5 Z M1674.39833,564.5 L1717.5,693.5 L1525.5,583.888734 L1674.39833,564.5 Z M1672.5,845.5 L1672.5,996.5 L1323.55191,996.5 L1154.5,855.569705 L1672.5,845.5 Z M1047.5,886.279911 L964.70728,996.5 L241.5,982.245369 L716.799839,805.5 L1047.5,886.279911 Z M770.42041,207.786133 L770.42041,256.675293 L777.195312,256.675293 C782.973336,256.675293 787.082996,256.03443 789.524414,254.752686 C791.965833,253.470941 793.878248,251.233008 795.261719,248.038818 C796.645189,244.844629 797.336914,239.666865 797.336914,232.505371 C797.336914,223.024529 795.790706,216.534523 792.698242,213.035156 C789.605779,209.53579 784.478877,207.786133 777.317383,207.786133 L770.42041,207.786133 Z M839.573242,187.522461 L913.669922,187.522461 L913.669922,206.626465 L867.283203,206.626465 L867.283203,220.847656 L910.312988,220.847656 L910.312988,239.097168 L867.283203,239.097168 L867.283203,256.736328 L915.012695,256.736328 L915.012695,277 L839.573242,277 L839.573242,187.522461 Z M1540.16528,400.777344 L1551.823,400.777344 C1553.0844,400.777344 1555.52578,400.370447 1559.14722,399.556641 C1560.97828,399.190428 1562.47363,398.254565 1563.6333,396.749023 C1564.79297,395.243482 1565.3728,393.51417 1565.3728,391.561035 C1565.3728,388.672023 1564.45728,386.454435 1562.62622,384.908203 C1560.79516,383.361971 1557.35688,382.588867 1552.31128,382.588867 L1540.16528,382.588867 L1540.16528,400.777344 Z M311.686279,669.709473 L337.177002,669.709473 C346.320928,669.709473 352.682762,668.135188 356.262695,664.986572 C359.842629,661.837956 361.632568,657.287627 361.632568,651.335449 C361.632568,645.814588 359.842629,641.50148 356.262695,638.395996 C352.682762,635.290512 346.450321,633.737793 337.565186,633.737793 L311.686279,633.737793 L311.686279,669.709473 Z M311.686279,744.240723 L341.576416,744.240723 C351.66924,744.240723 358.785868,742.450783 362.926514,738.87085 C367.067159,735.290916 369.137451,730.481801 369.137451,724.443359 C369.137451,718.836235 367.088725,714.329037 362.991211,710.921631 C358.893697,707.514224 351.712372,705.810547 341.447021,705.810547 L311.686279,705.810547 L311.686279,744.240723 Z M458.549072,595.307617 L517.164795,595.307617 L517.164795,738.288574 L608.646729,738.288574 L608.646729,785 L458.549072,785 L458.549072,595.307617 Z M749.438254,187.522461 L742.771484,187.522461 L742.771484,197.771132 L747.904033,199.628572 L749.438254,187.522461 Z M1488.02978,364.522461 L1421.69604,364.522461 L1421.69604,454 L1497.1355,454 L1497.1355,433.736328 L1449.40601,433.736328 L1449.40601,416.097168 L1492.43579,416.097168 L1492.43579,397.847656 L1449.40601,397.847656 L1449.40601,383.626465 L1495.79272,383.626465 L1495.79272,375.438027 L1488.02978,364.522461 Z M1512.39429,398.781661 L1512.39429,454 L1540.16528,454 L1540.16528,437.830755 L1512.39429,398.781661 Z M1136.42572,454 L1184.6355,454 L1184.6355,433.736328 L1136.90601,433.736328 L1136.90601,416.097168 L1179.93579,416.097168 L1179.93579,397.847656 L1136.90601,397.847656 L1136.90601,383.626465 L1183.29272,383.626465 L1183.29272,364.522461 L1109.19604,364.522461 L1109.19604,442.356482 L1136.42572,454 Z M1090.09529,434.188923 C1090.58409,433.226243 1091.04077,432.231058 1091.46533,431.203369 C1093.64226,425.933974 1094.73071,418.518277 1094.73071,408.956055 C1094.73071,402.852509 1093.9983,397.074572 1092.53345,391.62207 C1091.0686,386.169569 1088.70859,381.38853 1085.45337,377.278809 C1082.19814,373.169088 1078.07831,370.015636 1073.09375,367.818359 C1068.10919,365.621083 1061.56832,364.522461 1053.47095,364.522461 L1012.39429,364.522461 L1012.39429,400.963663 L1040.04321,412.786454 L1040.04321,384.786133 L1046.94019,384.786133 C1054.10168,384.786133 1059.22858,386.53579 1062.32104,390.035156 C1065.41351,393.534523 1066.95972,400.024529 1066.95972,409.505371 C1066.95972,415.697472 1066.44258,420.406537 1065.4083,423.632669 L1090.09529,434.188923 Z M971.849302,383.626465 L995.792725,383.626465 L995.792725,364.522461 L927.172443,364.522461 L971.849302,383.626465 Z M1064.05737,785 L1130.75366,785 C1141.19154,785 1152.83693,783.274757 1165.69019,779.824219 C1175.0929,777.322579 1183.89164,772.297808 1192.08667,764.749756 C1200.2817,757.201704 1206.68666,747.84226 1211.30176,736.671143 C1215.91685,725.500026 1218.22437,709.778747 1218.22437,689.506836 C1218.22437,676.567318 1216.67165,664.318092 1213.56616,652.758789 C1210.46068,641.199486 1205.45747,631.063683 1198.5564,622.351074 C1191.65532,613.638466 1182.92128,606.953148 1172.354,602.294922 C1161.78673,597.636695 1147.92009,595.307617 1130.75366,595.307617 L1121.23054,595.307617 L1043.67114,652.671662 L1043.67114,782.445894 L1064.05737,785 Z M1011.32251,778.393068 L1011.32251,742.041016 L910.135986,742.041016 L910.135986,704.645996 L1001.35913,704.645996 L1001.35913,683.966234 L973.418124,704.631804 L851.390869,633.714041 L851.390869,758.355894 L1011.32251,778.393068 Z M803.246797,752.324123 C805.249311,749.463864 807.085501,746.445912 808.755371,743.270264 C816.21716,729.079926 819.947998,710.900176 819.947998,688.730469 C819.947998,658.193207 811.408044,634.449548 794.327881,617.498779 C777.247717,600.548011 752.921789,592.072754 721.349365,592.072754 C716.445716,592.072754 711.713767,592.291464 707.153513,592.728885 L623.964951,703.65655 C624.827928,713.461852 626.675572,722.42868 629.507898,730.557095 L702.100852,739.651966 C698.579277,737.667154 695.441824,735.056117 692.688477,731.818848 C685.571742,723.451293 682.013428,709.692479 682.013428,690.541992 C682.013428,671.218979 685.593307,657.373903 692.753174,649.006348 C699.91304,640.638793 709.401878,636.455078 721.219971,636.455078 C733.555644,636.455078 743.324834,640.574096 750.527832,648.812256 C757.73083,657.050416 761.332275,670.097567 761.332275,687.954102 C761.332275,709.174911 757.881789,723.882609 750.980713,732.077637 C746.044769,737.93907 739.652611,741.704298 731.804132,743.373367 L803.246797,752.324123 Z M1276.52225,595.307617 L1235.69263,595.307617 L1235.69263,642.148438 L1295.4729,642.148438 L1295.4729,785 L1354.08862,785 L1354.08862,642.148438 L1403.07452,642.148438 L1276.52225,595.307617 Z M901,454 L901,402.21961 L881.534912,396.043097 L881.534912,454 L901,454 Z M307.133325,595.307617 L252.552979,595.307617 L252.552979,650.445973 L307.133325,595.307617 Z M289.154655,371.673916 C284.817905,374.939071 281.309584,378.974101 278.629639,383.779053 C274.601298,391.001582 272.587158,399.495557 272.587158,409.26123 C272.587158,418.538621 274.428367,426.757939 278.11084,433.919434 C281.793313,441.080928 286.981249,446.472313 293.674805,450.09375 C300.36836,453.715187 309.025093,455.525879 319.645264,455.525879 C328.271609,455.525879 335.727996,454.518809 342.014648,452.504639 C348.301301,450.490468 355.533895,446.696154 363.712646,441.121582 L363.712646,402.974609 L320.988037,402.974609 L320.988037,421.590332 L339.481689,421.590332 L339.481689,430.013184 C335.860252,432.16977 332.645766,433.695634 329.838135,434.59082 C327.030504,435.486007 324.0805,435.933594 320.988037,435.933594 C314.477588,435.933594 309.401548,433.858419 305.759766,429.708008 C302.117983,425.557596 300.297119,418.640348 300.297119,408.956055 C300.297119,399.841426 302.097638,393.178488 305.69873,388.967041 C309.299823,384.755594 314.131724,382.649902 320.19458,382.649902 C324.263611,382.649902 327.610338,383.545076 330.234863,385.335449 C332.859388,387.125823 334.720942,389.709619 335.81958,393.086914 L362.491943,388.326172 C360.864331,382.548148 358.433122,377.777281 355.198242,374.013428 C351.963363,370.249574 347.894393,367.472502 342.991211,365.682129 C338.088029,363.891755 330.692676,362.996582 320.804932,362.996582 C315.401438,362.996582 310.579899,363.397706 306.340281,364.199962 L299.366288,374.089779 L289.154655,371.673916 Z M782.198609,364.522461 L759.342529,364.522461 L759.342529,414.021973 L725.651123,364.522461 L699.833252,364.522461 L699.833252,454 L725.834229,454 L725.834229,404.866699 L759.342529,454 L785.404541,454 L785.404541,365.539743 L782.198609,364.522461 Z M803.470947,371.272437 L803.470947,454 L826.11499,454 L826.11499,385.762695 L843.571045,454 L864.017822,454 L879.094625,395.268763 L861.41026,389.657296 L853.885986,418.96582 L844.984968,384.445348 L803.470947,371.272437 Z M62.748291,364.522461 L62.748291,454 L85.392334,454 L85.392334,385.762695 L102.848389,454 L123.295166,454 L140.812256,385.762695 L140.812256,454 L163.395264,454 L163.395264,364.522461 L127.140381,364.522461 L113.16333,418.96582 L99.1252441,364.522461 L62.748291,364.522461 Z M236.088135,439.229492 L240.482666,454 L269.41333,454 L235.782959,364.522461 L205.631592,364.522461 L172.001221,454 L200.260498,454 L204.593994,439.229492 L236.088135,439.229492 Z M230.289795,419.881348 L210.575439,419.881348 L220.4021,387.71582 L230.289795,419.881348 Z M435.184814,439.229492 L439.579346,454 L468.51001,454 L434.879639,364.522461 L404.728271,364.522461 L371.0979,454 L399.357178,454 L403.690674,439.229492 L435.184814,439.229492 Z M429.386475,419.881348 L409.672119,419.881348 L419.498779,387.71582 L429.386475,419.881348 Z M475.101807,364.522461 L475.101807,383.626465 L519.901611,383.626465 L470.280029,435.445312 L470.280029,454 L555.179932,454 L555.179932,434.773926 L503.177979,434.773926 L553.348877,382.405762 L553.348877,364.522461 L475.101807,364.522461 Z M568.729736,364.522461 L568.729736,454 L596.439697,454 L596.439697,364.522461 L568.729736,364.522461 Z M653.507568,364.522461 L653.507568,419.698242 C653.507568,425.150743 652.785326,429.026437 651.34082,431.325439 C649.896314,433.624442 647.627864,434.773926 644.5354,434.773926 C642.582266,434.773926 641.076747,434.387374 640.018799,433.614258 C638.472567,432.434239 637.373945,430.88803 636.7229,428.975586 C636.071855,427.063141 635.725993,424.133483 635.685303,420.186523 L609.25708,423.787598 C609.745364,430.70495 611.342434,436.513404 614.04834,441.213135 C616.754245,445.912865 620.589249,449.483386 625.553467,451.924805 C630.517684,454.366223 637.516312,455.586914 646.549561,455.586914 C655.094525,455.586914 662.103326,453.735533 667.576172,450.032715 C673.049018,446.329897 676.690746,441.81334 678.501465,436.48291 C680.312184,431.15248 681.217529,423.380748 681.217529,413.16748 L681.217529,364.522461 L653.507568,364.522461 Z M1199.89429,454 L1227.66528,454 L1227.66528,417.684082 L1230.10669,417.684082 C1232.62949,417.684082 1234.88777,418.375807 1236.88159,419.759277 C1238.34644,420.817225 1240.01472,423.116193 1241.88647,426.65625 L1256.65698,454 L1287.90698,454 L1274.54028,428.060059 C1273.88924,426.757969 1272.59734,424.906588 1270.66455,422.505859 C1268.73176,420.105131 1267.25676,418.538578 1266.2395,417.806152 C1264.73396,416.707514 1262.33327,415.608892 1259.03735,414.510254 C1263.14707,413.574377 1266.38191,412.394376 1268.74194,410.970215 C1272.44476,408.732248 1275.35407,405.812762 1277.46997,402.21167 C1279.58587,398.610578 1280.6438,394.327987 1280.6438,389.36377 C1280.6438,383.667126 1279.26035,378.835225 1276.49341,374.86792 C1273.72647,370.900615 1270.08474,368.184578 1265.56812,366.719727 C1261.05149,365.254875 1254.52079,364.522461 1245.97583,364.522461 L1199.89429,364.522461 L1199.89429,454 Z M1227.66528,400.777344 L1227.66528,382.588867 L1239.81128,382.588867 C1244.85688,382.588867 1248.29516,383.361971 1250.12622,384.908203 C1251.95728,386.454435 1252.8728,388.672023 1252.8728,391.561035 C1252.8728,393.51417 1252.29297,395.243482 1251.1333,396.749023 C1249.97363,398.254565 1248.47828,399.190428 1246.64722,399.556641 C1243.02578,400.370447 1240.5844,400.777344 1239.323,400.777344 L1227.66528,400.777344 Z M1287.54077,364.522461 L1307.43823,454 L1334.53784,454 L1350.16284,397.664551 L1365.84888,454 L1392.94849,454 L1412.66284,364.522461 L1386.53979,364.522461 L1377.07935,414.510254 L1363.22437,364.522461 L1337.04028,364.522461 L1323.24634,414.510254 L1313.78589,364.522461 L1287.54077,364.522461 Z M1102.28687,638.266602 L1116.90845,638.266602 C1132.09081,638.266602 1142.95985,641.975874 1149.51587,649.394531 C1156.07189,656.813188 1159.34985,670.572002 1159.34985,690.671387 C1159.34985,705.853754 1157.8834,716.830614 1154.95044,723.602295 C1152.01748,730.373976 1147.96316,735.118395 1142.78735,737.835693 C1137.61155,740.552992 1128.89907,741.911621 1116.64966,741.911621 L1102.28687,741.911621 L1102.28687,638.266602 Z" id="Combined-Shape" fill="#000000"></path>
    </g>
</svg>