<?xml version="1.0" encoding="UTF-8"?>
<svg width="375px" height="813px" viewBox="0 0 375 813" version="1.1" xmlns="http://www.w3.org/2000/svg" xmlns:xlink="http://www.w3.org/1999/xlink">
    <!-- Generator: Sketch 52.3 (67297) - http://www.bohemiancoding.com/sketch -->
    <title>9-mobile</title>
    <desc>Created with Sketch.</desc>
    <g id="9-mobile" stroke="none" stroke-width="1" fill="none" fill-rule="evenodd">
        <path d="M127.288086,530 L127.288086,517.041016 L146.887695,511.987305 L127.288086,506.955566 L127.288086,493.903809 L131.848274,493.903809 L85.9777155,450.245056 L85.9777155,578 L23,578 L23,412 L63.2880859,412 L63.2880859,408.034668 C63.2880859,405.119614 63.6835898,402.764902 64.4746094,400.970459 C65.265629,399.176016 66.4008715,397.692877 67.8803711,396.520996 C69.3598707,395.349115 71.0810449,394.499514 73.0439453,393.972168 C75.0068458,393.444822 77.0869031,393.181152 79.2841797,393.181152 C82.7265797,393.181152 85.3962307,393.572994 87.2932129,394.356689 C89.190195,395.140385 90.7795346,396.22802 92.0612793,397.619629 C93.343024,399.011237 94.1962869,400.505363 94.6210938,402.102051 C95.2070342,404.284679 95.5,406.262198 95.5,408.034668 L95.5,412 L133,412 L133,423.329589 C133.861184,422.889883 134.813656,422.523022 135.857422,422.229004 L137.571289,431.831055 C136.355463,432.226564 135.425296,432.896724 134.780762,433.841553 C134.136227,434.786382 133.813965,435.991204 133.813965,437.456055 C133.813965,439.638683 134.572014,441.378167 136.088135,442.674561 C137.604256,443.970954 140.002913,444.619141 143.28418,444.619141 C146.770525,444.619141 149.260735,443.96363 150.754883,442.652588 C152.249031,441.341546 152.996094,439.514172 152.996094,437.17041 C152.996094,436.057123 152.834963,434.995122 152.512695,433.984375 C152.190428,432.973628 151.641117,431.816413 150.864746,430.512695 L147.83252,430.512695 L147.83252,437.17041 L141.130859,437.17041 L141.130859,421.789551 L143.740279,421.789551 L134.5,412.329668 L134.5,409.734543 L127.288086,407.023926 L127.288086,396.169434 L134.5,393.458817 L134.5,365.881814 L134.165527,365.561523 L134.165527,381.689453 L127.288086,381.689453 L127.288086,353.520508 L133.726074,353.520508 L134.5,354.261961 L134.5,347.983398 L127.288086,347.983398 L127.288086,338.007813 L134.5,338.007813 L134.5,330.5 L148.229263,330.5 L147.327148,323.879395 C148.748054,323.864746 149.802731,323.740236 150.491211,323.505859 C151.179691,323.271483 151.736326,322.875979 152.161133,322.319336 C152.439455,321.938475 152.578613,321.396488 152.578613,320.693359 C152.578613,319.580073 152.164799,318.76343 151.337158,318.243408 C150.509517,317.723386 149.114268,317.463379 147.151367,317.463379 L129.247593,317.463379 L90.6642676,360.81543 L95.5,360.81543 L95.5,387.973633 L66.4934668,387.973633 L46,411 L46,211 L224,211 L222.102154,213.132411 L223.5,212.412109 L223.5,223.662109 L213.65625,228.979492 C212.38183,229.653324 211.554201,230.253904 211.17334,230.78125 C210.67529,231.499027 210.42627,232.312007 210.42627,233.220215 L210.42627,234.099121 L223.5,234.099121 L223.5,244.09668 L194.543955,244.09668 L152.421055,291.425781 L159.5,291.425781 L159.5,300.786133 L144.090342,300.786133 L138.125864,307.487793 L144.800293,307.487793 C148.477069,307.487793 151.274893,307.813717 153.193848,308.465576 C155.112803,309.117435 156.738763,310.428457 158.071777,312.398682 C159.404792,314.368906 160.071289,316.892074 160.071289,319.968262 C160.071289,323.220231 159.63184,325.739737 158.75293,327.526855 C158.18082,328.690145 157.436482,329.68119 156.519904,330.5 L191.329278,330.5 C191.422156,328.381226 191.672096,326.694388 192.079102,325.439453 C192.606448,323.813468 193.584221,322.502446 195.012451,321.506348 C196.440681,320.510249 198.180166,320.012207 200.230957,320.012207 C202.018075,320.012207 203.559808,320.393063 204.856201,321.154785 C206.152594,321.916508 207.203609,322.963861 208.009277,324.296875 C208.521975,325.146489 208.946776,326.311028 209.283691,327.790527 C209.679201,326.603998 210.074705,325.739749 210.470215,325.197754 C210.733888,324.831541 211.297847,324.300541 212.162109,323.604736 C213.026372,322.908932 213.692869,322.443849 214.161621,322.209473 L223.5,317.397461 L223.5,328.647461 L220.070506,330.5 L258.683456,330.5 C259.053653,330.109154 259.452624,329.744327 259.880371,329.405518 C261.359871,328.233637 263.081045,327.384036 265.043945,326.856689 C267.006846,326.329343 269.086903,326.065674 271.28418,326.065674 C274.72658,326.065674 277.396231,326.457516 279.293213,327.241211 C281.188309,328.024127 282.776374,329.110379 284.057455,330.5 L284.851177,330.5 L331.5,375.409681 L292.103055,375.409681 L292.103055,412.329668 L292.103055,512.5 L232.344954,512.5 L223.5,503.444837 L223.5,526.730957 L191.288086,526.730957 L191.288086,500.056152 L198.165527,500.056152 L198.165527,516.755371 L203.285156,516.755371 L203.285156,501.264648 L209.85498,501.264648 L209.85498,516.755371 L216.205078,516.755371 L216.205078,499.572754 L219.717804,499.572754 L214.35216,494.07959 L191.288086,494.07959 L191.288086,479.291992 C191.288086,476.376939 191.68359,474.022226 192.474609,472.227783 C192.529797,472.102588 192.586661,471.978908 192.6452,471.856744 L160.039002,438.475628 C159.951196,441.926009 159.302784,444.768499 158.09375,447.003174 C156.790033,449.412854 154.849134,451.280511 152.270996,452.606201 C149.692858,453.931891 146.733903,454.594727 143.394043,454.594727 C139.8784,454.594727 136.82057,453.869636 134.220459,452.419434 C133.797031,452.183268 133.390212,451.929234 133,451.657329 L133,465.6974 L159.5,455.737305 L159.5,466.152344 L154.182617,467.734375 L154.182617,479.072266 L159.5,480.632324 L159.5,490.805664 L133,480.845569 L133,493.903809 L159.5,493.903809 L159.5,502.033691 L134.93457,502.033691 L159.5,508.339844 L159.5,515.700684 L134.93457,521.984863 L159.5,521.984863 L159.5,530 L286.574948,530 L341,530 L341,731 L286.574948,731 L286.574948,626.733825 L106.255928,626.733825 L106,530 L127.288086,530 Z M204.339844,233.090063 L203.441782,234.099121 L204.339844,234.099121 L204.339844,233.090063 Z M88.2050781,363.578564 L81.8549805,370.713505 L81.8549805,377.998047 L88.2050781,377.998047 L88.2050781,363.578564 Z M204.629612,484.125977 L199.031925,478.395256 C198.732646,479.303856 198.583008,480.386458 198.583008,481.643066 L198.583008,484.125977 L204.629612,484.125977 Z M199.1845,330.5 L202.699105,330.5 C202.203131,330.173176 201.644091,330.009766 201.021973,330.009766 C200.289643,330.009766 199.677155,330.173176 199.1845,330.5 Z M70.5830078,412 L88.1831055,412 L88.1831055,410.429688 C88.1831055,408.349599 87.9523949,406.870122 87.4909668,405.991211 C87.0295387,405.1123 86.2238827,404.423831 85.0739746,403.925781 C83.9240665,403.427732 82.0600715,403.178711 79.4819336,403.178711 C76.0688306,403.178711 73.7324282,403.735346 72.4726563,404.848633 C71.2128843,405.96192 70.5830078,407.807604 70.5830078,410.385742 L70.5830078,412 Z M436.5,14.5 L436.5,210.5 L371.5,210.5 L371.5,14.5 L436.5,14.5 Z M547,210 L547,374 L437,374 L437,210 L547,210 Z M551.5,831.5 L347.5,831.5 L347.5,608.5 L551.5,831.5 Z M22,417 L-183,417 L-183,194 L22,417 Z M-125,-48 L-125,31 L-152.800845,31 L-192,-5.43863919 L-192,-48 L-125,-48 Z M-58,513 L-58,592 L-85.8008449,592 L-125,555.561361 L-125,513 L-58,513 Z M-53.4250525,298 L-53.4250525,193.733825 L-233.744072,193.733825 L-234,97 L-53.4250525,97 L1,97 L1,298 L-53.4250525,298 Z M49,831 L49,812.706368 L-125,812.706368 L-125,635 L49,831 Z M320.5,31 L320.5,125 L145.5,125 L145.5,31 L320.5,31 Z M400,333 L400,412 L372.199155,412 L333,375.561361 L333,333 L400,333 Z M555.074948,661 L555.074948,556.733825 L374.755928,556.733825 L374.5,460 L555.074948,460 L609.5,460 L609.5,661 L555.074948,661 Z M357,158 L329.713951,263 L248,263 L277.841792,158 L357,158 Z M211.5,713.5 L211.5,809.5 L46.5,809.5 L46.5,713.5 L211.5,713.5 Z M147.217285,469.821777 L135.637695,473.381348 L147.217285,476.918945 L147.217285,469.821777 Z M191.288086,314.16748 L191.288086,304.213867 L203.460938,304.213867 L191.288086,293.776855 L191.288086,280.549316 L203.438965,292.282715 L223.5,280.021973 L223.5,292.282715 L210.250488,299.072266 L215.633789,304.213867 L223.5,304.213867 L223.5,314.16748 L191.288086,314.16748 Z M191.288086,276.748047 L191.288086,250.073242 L198.165527,250.073242 L198.165527,266.772461 L203.285156,266.772461 L203.285156,251.281738 L209.85498,251.281738 L209.85498,266.772461 L216.205078,266.772461 L216.205078,249.589844 L223.5,249.589844 L223.5,276.748047 L191.288086,276.748047 Z M255.288086,323.099365 L255.288086,292.843018 L263.242188,292.843018 L263.242188,302.994385 L287.5,302.994385 L287.5,312.947998 L263.242188,312.947998 L263.242188,323.099365 L255.288086,323.099365 Z M127.288086,530 L127.288086,530.136719 L159.5,530.136719 L159.5,530 L127.288086,530 Z M222.102154,213.132411 L214.161621,217.224121 C213.692869,217.458497 213.026372,217.923581 212.162109,218.619385 C211.297847,219.315189 210.733888,219.84619 210.470215,220.212402 C210.074705,220.754397 209.679201,221.618646 209.283691,222.805176 C208.946776,221.325676 208.521975,220.161137 208.009277,219.311523 C207.203609,217.978509 206.152594,216.931156 204.856201,216.169434 C203.559808,215.407711 202.018075,215.026855 200.230957,215.026855 C198.180166,215.026855 196.440681,215.524897 195.012451,216.520996 C193.584221,217.517095 192.606448,218.828117 192.079102,220.454102 C191.551755,222.080086 191.288086,224.431137 191.288086,227.507324 L191.288086,244.09668 L194.543955,244.09668 L203.441782,234.099121 L197.791992,234.099121 L197.791992,229.726563 C197.791992,227.910147 198.07031,226.672367 198.626953,226.013184 C199.183597,225.354001 199.981928,225.024414 201.021973,225.024414 C201.725101,225.024414 202.347654,225.233152 202.889648,225.650635 C203.431643,226.068117 203.768554,226.606442 203.900391,227.265625 C204.193361,228.569342 204.339844,229.44824 204.339844,229.902344 L204.339844,233.090063 L222.102154,213.132411 Z M152.421055,291.425781 L141.812012,291.425781 L159.5,279.362793 L159.5,269.980469 L127.288086,269.980469 L127.288086,279.362793 L145.10791,279.362793 L127.288086,291.491699 L127.288086,300.786133 L144.090342,300.786133 L152.421055,291.425781 Z M138.125864,307.487793 L127.288086,307.487793 L127.288086,317.463379 L129.247593,317.463379 L138.125864,307.487793 Z M90.6642676,360.81543 L88.2050781,360.81543 L88.2050781,363.578564 L90.6642676,360.81543 Z M81.8549805,370.713505 L81.8549805,362.507324 L75.2851563,362.507324 L75.2851563,377.998047 L70.1655273,377.998047 L70.1655273,361.298828 L63.2880859,361.298828 L63.2880859,387.973633 L66.4934668,387.973633 L81.8549805,370.713505 Z M223.5,503.444837 L223.5,499.572754 L219.717804,499.572754 L223.5,503.444837 Z M214.35216,494.07959 L223.5,494.07959 L223.5,479.291992 C223.5,477.519522 223.207034,475.542003 222.621094,473.359375 C222.196287,471.762687 221.343024,470.268562 220.061279,468.876953 C218.779535,467.485345 217.190195,466.397709 215.293213,465.614014 C213.396231,464.830318 210.72658,464.438477 207.28418,464.438477 C205.086903,464.438477 203.006846,464.702146 201.043945,465.229492 C199.081045,465.756839 197.359871,466.606439 195.880371,467.77832 C194.504094,468.868441 193.425712,470.227904 192.6452,471.856744 L199.031925,478.395256 C199.346666,477.439714 199.826909,476.676617 200.472656,476.105957 C201.732428,474.99267 204.068831,474.436035 207.481934,474.436035 C210.060071,474.436035 211.924067,474.685056 213.073975,475.183105 C214.223883,475.681155 215.029539,476.369625 215.490967,477.248535 C215.952395,478.127446 216.183105,479.606923 216.183105,481.687012 L216.183105,484.125977 L204.629612,484.125977 L214.35216,494.07959 Z M160.039002,438.475628 C160.045878,438.205417 160.049316,437.931477 160.049316,437.653809 C160.049316,434.548324 159.686771,431.864025 158.96167,429.60083 C158.236569,427.337635 156.870616,424.733901 154.86377,421.789551 L143.740279,421.789551 L160.039002,438.475628 Z M134.5,409.734543 L159.5,419.130859 L159.5,408.95752 L154.182617,407.397461 L154.182617,396.05957 L159.5,394.477539 L159.5,384.0625 L134.5,393.458817 L134.5,409.734543 Z M134.5,365.881814 L152.820313,383.425293 L159.5,383.425293 L159.5,352.861328 L152.578613,352.861328 L152.578613,371.582031 L134.5,354.261961 L134.5,365.881814 Z M134.5,347.983398 L159.5,347.983398 L159.5,338.007813 L134.5,338.007813 L134.5,347.983398 Z M148.229263,330.5 L148.623535,333.393555 C151.113782,333.217773 153.204826,332.642827 154.896729,331.668701 C155.48732,331.328664 156.028378,330.939097 156.519904,330.5 L148.229263,330.5 Z M191.329278,330.5 C191.301817,331.126464 191.288086,331.790689 191.288086,332.492676 L191.288086,349.082031 L223.5,349.082031 L223.5,339.084473 L210.42627,339.084473 L210.42627,338.205566 C210.42627,337.297359 210.67529,336.484379 211.17334,335.766602 C211.554201,335.239255 212.38183,334.638675 213.65625,333.964844 L220.070506,330.5 L202.699105,330.5 C202.763689,330.542558 202.827203,330.587887 202.889648,330.635986 C203.431643,331.053469 203.768554,331.591794 203.900391,332.250977 C204.193361,333.554694 204.339844,334.433591 204.339844,334.887695 L204.339844,339.084473 L197.791992,339.084473 L197.791992,334.711914 C197.791992,332.895499 198.07031,331.657718 198.626953,330.998535 C198.791645,330.803505 198.977494,330.637327 199.1845,330.5 L191.329278,330.5 Z M258.683456,330.5 C257.773211,331.461019 257.036932,332.57934 256.474609,333.85498 C255.68359,335.649423 255.288086,338.004136 255.288086,340.919189 L255.288086,355.706787 L287.5,355.706787 L287.5,340.919189 C287.5,339.14672 287.207034,337.1692 286.621094,334.986572 C286.196287,333.389885 285.343024,331.895759 284.061279,330.50415 C284.060005,330.502767 284.05873,330.501383 284.057455,330.5 L258.683456,330.5 Z M133,423.329589 C132.144957,423.76616 131.379903,424.274542 130.704834,424.854736 C129.349847,426.019293 128.350101,427.484122 127.705566,429.249268 C127.061032,431.014413 126.73877,433.67674 126.73877,437.236328 C126.73877,440.927753 127.258784,443.864735 128.298828,446.047363 C129.427024,448.389597 130.99407,450.259573 133,451.657329 L133,423.329589 Z M133,465.6974 L127.288086,467.844238 L127.288086,478.69873 L133,480.845569 L133,465.6974 Z M133,493.903809 L131.848274,493.903809 L133,495 L133,493.903809 Z M63.2880859,412 L63.2880859,422.822266 L95.5,422.822266 L95.5,412 L88.1831055,412 L88.1831055,412.868652 L70.5830078,412.868652 L70.5830078,412 L63.2880859,412 Z M147.217285,398.146973 L147.217285,405.244141 L135.637695,401.706543 L147.217285,398.146973 Z M144.294922,265.673828 L151.216309,265.673828 L151.216309,252.666016 L144.294922,252.666016 L144.294922,265.673828 Z M191.288086,569.291992 L223.5,569.291992 L223.5,561.140137 L198.93457,561.140137 L223.5,554.855957 L223.5,547.495117 L198.93457,541.188965 L223.5,541.188965 L223.5,533.059082 L191.288086,533.059082 L191.288086,546.11084 L210.887695,551.142578 L191.288086,556.196289 L191.288086,569.291992 Z M191.288086,459.230957 L223.5,459.230957 L223.5,432.072754 L216.205078,432.072754 L216.205078,449.255371 L209.85498,449.255371 L209.85498,433.764648 L203.285156,433.764648 L203.285156,449.255371 L198.165527,449.255371 L198.165527,432.556152 L191.288086,432.556152 L191.288086,459.230957 Z M191.288086,430.029297 L223.5,422.866211 L223.5,413.110352 L203.219238,407.485352 L223.5,401.838379 L223.5,392.08252 L191.288086,384.985352 L191.288086,394.389648 L209.283691,397.79541 L191.288086,402.783203 L191.288086,412.209473 L209.283691,417.175293 L191.288086,420.581055 L191.288086,430.029297 Z M191.288086,381.733398 L223.5,381.733398 L223.5,354.575195 L216.205078,354.575195 L216.205078,371.757813 L209.85498,371.757813 L209.85498,356.26709 L203.285156,356.26709 L203.285156,371.757813 L198.165527,371.757813 L198.165527,355.058594 L191.288086,355.058594 L191.288086,381.733398 Z M255.288086,490.047607 L287.5,490.047607 L287.5,472.86499 C287.5,472.132565 287.353517,470.645763 287.060547,468.404541 C286.840819,466.719962 286.48926,465.460209 286.005859,464.625244 C285.229488,463.277581 284.174811,462.21558 282.841797,461.439209 C281.508782,460.662838 280.007333,460.274658 278.337402,460.274658 C276.286611,460.274658 274.583747,460.820307 273.22876,461.911621 C271.873773,463.002935 270.917972,464.705799 270.361328,467.020264 C269.833982,465.496819 269.116215,464.339604 268.208008,463.548584 C266.845696,462.362055 265.212412,461.768799 263.308105,461.768799 C261.037586,461.768799 259.133308,462.600089 257.595215,464.262695 C256.057121,465.925301 255.288086,468.309311 255.288086,471.414795 L255.288086,490.047607 Z M267.922363,480.006104 L261.813965,480.006104 L261.813965,475.611572 C261.813965,474.102776 262.077634,473.044437 262.60498,472.436523 C263.132327,471.82861 263.864741,471.524658 264.802246,471.524658 C265.812993,471.524658 266.585691,471.82861 267.120361,472.436523 C267.655032,473.044437 267.922363,474.124748 267.922363,475.67749 L267.922363,480.006104 Z M280.578613,480.006104 L274.052734,480.006104 L274.052734,474.952393 C274.052734,473.20922 274.342038,471.98975 274.920654,471.293945 C275.49927,470.598141 276.264644,470.250244 277.216797,470.250244 C278.242193,470.250244 279.058835,470.601803 279.666748,471.304932 C280.274661,472.00806 280.578613,473.216544 280.578613,474.93042 L280.578613,480.006104 Z M255.288086,455.067139 L287.5,455.067139 L287.5,429.578857 L279.567871,429.578857 L279.567871,445.113525 L255.288086,445.113525 L255.288086,455.067139 Z M271.416016,427.073975 C275.180683,427.073975 278.315417,426.334236 280.820313,424.854736 C283.325208,423.375237 285.156244,421.445324 286.313477,419.064941 C287.470709,416.684558 288.049316,413.677997 288.049316,410.045166 C288.049316,406.470929 287.379157,403.48634 286.038818,401.091309 C284.69848,398.696277 282.823498,396.865241 280.413818,395.598145 C278.004138,394.331048 274.917011,393.69751 271.152344,393.69751 C265.966771,393.69751 261.934829,395.147691 259.056396,398.048096 C256.177964,400.948501 254.73877,405.079319 254.73877,410.440674 C254.73877,415.670192 256.203599,419.749741 259.133301,422.679443 C262.063003,425.609146 266.1572,427.073975 271.416016,427.073975 Z M271.459961,417.120361 C268.178695,417.120361 265.827644,416.512457 264.406738,415.296631 C262.985833,414.080804 262.275391,412.469492 262.275391,410.462646 C262.275391,408.367909 262.974847,406.70899 264.373779,405.48584 C265.772712,404.262689 267.988266,403.651123 271.020508,403.651123 C274.624041,403.651123 277.121575,404.237055 278.513184,405.408936 C279.904792,406.580816 280.600586,408.236073 280.600586,410.374756 C280.600586,412.454844 279.890144,414.099115 278.469238,415.307617 C277.048333,416.516119 274.71193,417.120361 271.459961,417.120361 Z M255.288086,388.358154 L287.5,388.358154 L287.5,361.199951 L280.205078,361.199951 L280.205078,378.382568 L273.85498,378.382568 L273.85498,362.891846 L267.285156,362.891846 L267.285156,378.382568 L262.165527,378.382568 L262.165527,361.68335 L255.288086,361.68335 L255.288086,388.358154 Z M262.583008,345.753174 L262.583008,343.270264 C262.583008,340.692126 263.212884,338.846441 264.472656,337.733154 C265.732428,336.619867 268.068831,336.063232 271.481934,336.063232 C274.060071,336.063232 275.924067,336.312253 277.073975,336.810303 C278.223883,337.308352 279.029539,337.996822 279.490967,338.875732 C279.952395,339.754643 280.183105,341.23412 280.183105,343.314209 L280.183105,345.753174 L262.583008,345.753174 Z" id="Combined-Shape" fill="#000000" transform="translate(187.750000, 391.750000) rotate(-270.000000) translate(-187.750000, -391.750000) "></path>
    </g>
</svg>