<?xml version="1.0" encoding="UTF-8"?>
<svg width="1536px" height="1971px" viewBox="0 0 1536 1971" version="1.1" xmlns="http://www.w3.org/2000/svg" xmlns:xlink="http://www.w3.org/1999/xlink">
    <!-- Generator: Sketch 52.3 (67297) - http://www.bohemiancoding.com/sketch -->
    <title>9-tablet</title>
    <desc>Created with Sketch.</desc>
    <g id="9-tablet" stroke="none" stroke-width="1" fill="none" fill-rule="evenodd">
        <path d="M875.126614,1476 L786.684326,1476 L786.684326,1330.68848 L907.017334,1330.68848 L907.017334,1361.71338 L831.685303,1361.71338 L831.685303,1384.80859 L901.565674,1384.80859 L901.565674,1414.4458 L831.685303,1414.4458 L831.685303,1443.0918 L896.454928,1443.0918 L933.978271,1385.19571 L933.978271,1330.68848 L969.305251,1330.68848 L1060.48762,1190 L1047.76929,1190 L1047.76929,1044.68848 L1168.10229,1044.68848 L1168.10229,1074.14962 L1195.06323,1093.88402 L1195.06323,1044.68848 L1269.89966,1044.68848 C1283.77668,1044.68848 1294.38253,1045.87792 1301.71753,1048.25684 C1309.05253,1050.63575 1314.96669,1055.0466 1319.46021,1061.4895 C1323.95372,1067.93241 1326.20044,1075.77941 1326.20044,1085.03076 C1326.20044,1093.09265 1324.48236,1100.04758 1321.04614,1105.89575 C1317.60993,1111.74393 1312.8852,1116.48517 1306.87183,1120.11963 C1303.03912,1122.43247 1297.78576,1124.34879 1291.11157,1125.86865 C1296.46414,1127.65284 1300.36286,1129.437 1302.80786,1131.22119 C1304.45989,1132.41065 1306.85529,1134.95473 1309.99414,1138.85352 C1313.13299,1142.7523 1315.23103,1145.75894 1316.28833,1147.87354 L1337.99585,1190 L1326.37588,1190 L1459,1287.07593 L1331.50254,1793.88809 L856,2017 L868.321043,1486.50055 L875.126614,1476 Z M1092.77026,1140.18998 L1100.38185,1128.4458 L1092.77026,1128.4458 L1092.77026,1140.18998 Z M1119.59018,1098.80859 L1134.55854,1075.71338 L1092.77026,1075.71338 L1092.77026,1098.80859 L1119.59018,1098.80859 Z M1245.90083,1131.09525 L1261.58553,1142.57587 C1259.21565,1138.517 1257.06402,1135.78942 1255.13062,1134.39307 C1252.36692,1132.4754 1249.29034,1131.37613 1245.90083,1131.09525 Z M242.835848,1190 L235.769287,1190 L235.769287,1044.68848 L270.419694,1044.68848 L307.681641,848.392776 L307.681641,793.182617 L279.233887,904 L246.02832,904 L217.679688,793.182617 L217.679688,904 L180.905762,904 L180.905762,758.688477 L239.981934,758.688477 L262.779785,847.104492 L285.478516,758.688477 L324.709812,758.688477 L342.114631,667 L549.48508,769.640302 C552.784733,767.243725 556.370432,765.112976 560.242188,763.248047 C570.088265,758.556292 583.337319,756.210449 599.989746,756.210449 C616.047444,756.210449 628.057496,757.664211 636.020264,760.571777 C643.983031,763.479344 650.591038,767.989309 655.844482,774.101807 C661.097927,780.214305 665.046211,787.962193 667.689453,797.345703 L624.373535,805.077148 C622.589347,799.59242 619.566183,795.396336 615.303955,792.48877 C611.041727,789.581203 605.606641,788.127441 598.998535,788.127441 C595.547469,788.127441 592.341991,788.547549 589.382092,789.38777 L653.522478,821.134766 L669.671875,821.134766 L669.671875,829.128088 L690.536206,839.455121 L669.671875,863.14995 L669.671875,883.085449 C657.246325,891.554606 646.165503,897.493566 636.429123,900.902483 L496.532261,1059.77804 C498.386872,1061.51172 500.113177,1063.3873 501.711182,1065.40479 C506.997666,1072.07897 510.83031,1079.84338 513.209229,1088.69824 C515.588147,1097.5531 516.777588,1106.93647 516.777588,1116.84863 C516.777588,1132.37768 515.009946,1144.42077 511.474609,1152.97827 C507.939273,1161.53577 503.032828,1168.70546 496.755127,1174.48755 C490.477426,1180.26964 483.737259,1184.11881 476.534424,1186.03516 C466.688346,1188.6784 457.767537,1190 449.771729,1190 L401.994767,1190 L614.630145,1379.74813 C617.682316,1367.03831 623.424643,1356.4672 631.857178,1348.03467 C645.07339,1334.81846 663.476689,1328.21045 687.067627,1328.21045 C711.253295,1328.21045 729.887874,1334.70282 742.971924,1347.68774 C756.055974,1360.67267 762.5979,1378.86121 762.5979,1402.25391 C762.5979,1419.23674 759.739937,1433.16311 754.023926,1444.03345 C748.307914,1454.90378 740.047906,1463.36203 729.243652,1469.40845 C719.122044,1475.07283 706.666337,1478.08393 691.876197,1478.44182 L389.853291,2017 L134,1763.34656 L242.835848,1190 Z M467.887583,1092.30872 L427.965088,1137.64718 L427.965088,1156.99268 L438.967529,1156.99268 C448.35104,1156.99268 455.025127,1155.95191 458.98999,1153.87036 C462.954854,1151.78881 466.060617,1148.1544 468.307373,1142.96704 C470.554129,1137.77968 471.67749,1129.37099 471.67749,1117.74072 C471.67749,1106.81983 470.414197,1098.34254 467.887583,1092.30872 Z M658.110682,1418.54858 L687.612884,1444.87528 C697.14082,1444.82187 704.525238,1441.6833 709.766357,1435.45947 C715.052842,1429.18177 717.696045,1417.91512 717.696045,1401.65918 C717.696045,1387.9804 714.937202,1377.98579 709.419434,1371.67505 C703.901665,1365.36431 696.418097,1362.20898 686.968506,1362.20898 C677.915401,1362.20898 670.646593,1365.41387 665.161865,1371.82373 C659.677137,1378.23359 656.934814,1388.83944 656.934814,1403.6416 C656.934814,1409.20449 657.326769,1414.17348 658.110682,1418.54858 Z M97.6308716,1044.68848 L102.8479,1044.68848 L125.645752,1133.10449 L148.344482,1044.68848 L207.222412,1044.68848 L207.222412,1190 L170.547607,1190 L170.547607,1079.18262 L142.099854,1190 L108.894287,1190 L82.2941891,1086.0178 L80.5456543,1090.72975 L80.5456543,1190 L43.7717285,1190 L43.7717285,1189.8282 L7.71275324,1287 L-226,1171.43944 L-195.774212,162 L179,825.414788 L97.6308716,1044.68848 Z M1025.09894,1081 L1001.08325,1190 L957.073486,1190 L931.599365,1098.51123 L906.224365,1190 L862.2146,1190 L837.975855,1081 L818.551638,1081 C818.650839,1082.31258 818.700439,1083.65617 818.700439,1085.03076 C818.700439,1093.09265 816.982358,1100.04758 813.546143,1105.89575 C810.109927,1111.74393 805.385203,1116.48517 799.371826,1120.11963 C795.539125,1122.43247 790.285759,1124.34879 783.611572,1125.86865 C788.964138,1127.65284 792.862862,1129.437 795.307861,1131.22119 C796.959888,1132.41065 799.35529,1134.95473 802.494141,1138.85352 C805.632991,1142.7523 807.731033,1145.75894 808.78833,1147.87354 L830.49585,1190 L779.74585,1190 L755.758545,1145.59375 C752.718816,1139.8447 750.009533,1136.11117 747.630615,1134.39307 C744.392643,1132.14631 740.7252,1131.02295 736.628174,1131.02295 L732.66333,1131.02295 L732.66333,1190 L687.563232,1190 L687.563232,1044.68848 L735.138281,1044.68848 L810.831772,904 L792.879395,904 L785.742676,880.012695 L734.596191,880.012695 L727.558594,904 L681.665527,904 L736.28125,758.688477 L785.24707,758.688477 L827.923096,872.233038 L872.320486,789.713379 L850.567871,789.713379 L850.567871,758.688477 L889.012565,758.688477 L903.798719,731.206041 L750.603111,596.395313 C748.849171,598.573303 746.949731,600.604046 744.904785,602.487549 C738.627084,608.269642 731.886918,612.118806 724.684082,614.035156 C714.838004,616.678399 705.917195,618 697.921387,618 L631.212891,618 L631.212891,472.688477 L697.921387,472.688477 C707.315032,472.688477 715.418813,473.598898 722.232846,475.41976 L733.263263,325.416558 L251.417055,10.3094338 L12.6724441,303.060679 L-78.0001199,47.9562352 L-83.3350501,209.493233 L-195.94643,90.8011101 L-199,-187 L1241.32991,-187 L1088.12097,240.833098 L1454,411.283512 L1376.74688,750.375551 L1214.62576,693.819283 L1183.46858,758.688477 L1185.2998,758.688477 L1185.2998,837.687988 C1185.2998,854.274334 1183.82952,866.895627 1180.88892,875.552246 C1177.94831,884.208865 1172.03414,891.543752 1163.14624,897.557129 C1154.25834,903.570505 1142.87605,906.577148 1128.99902,906.577148 C1123.09755,906.577148 1117.7308,906.256335 1112.89876,905.614704 L1028.65983,1081 L1025.09894,1081 Z M983.803393,1081 L962.875645,1081 L975.311768,1125.86865 L983.803393,1081 Z M900.2683,1081 L879.395338,1081 L887.886963,1125.86865 L900.2683,1081 Z M771.812996,1081 L732.66333,1081 L732.66333,1103.56641 L751.595459,1103.56641 C753.643972,1103.56641 757.608776,1102.90561 763.48999,1101.58398 C766.463638,1100.98925 768.89208,1099.46941 770.775391,1097.02441 C772.658701,1094.57941 773.600342,1091.77101 773.600342,1088.59912 C773.600342,1085.62916 773.004564,1083.09613 771.812996,1081 Z M717.682152,567.425172 L715.601884,565.594555 L718.354239,528.165135 C717.115499,521.972496 715.095405,517.291167 712.293945,514.121094 C707.271785,508.438123 698.945696,505.59668 687.31543,505.59668 L676.114746,505.59668 L676.114746,584.992676 L687.117188,584.992676 C696.500698,584.992676 703.174785,583.951915 707.139648,581.870361 C711.104512,579.788808 714.210275,576.154404 716.457031,570.967041 C716.911337,569.918129 717.319711,568.737507 717.682152,567.425172 Z M1140.29845,848.568601 L1128.79667,872.51528 C1132.28004,871.882775 1134.94114,870.103195 1136.78003,867.176514 C1139.10158,863.481653 1140.27437,857.279079 1140.29845,848.568608 Z M1775.20258,1933 L1543.65399,1546.9058 L1762.47241,1289.46137 L1762.47241,1196.38041 L1708.25574,1196.38041 L1685.19213,882.462667 L1456.75616,863.301228 L1657.02456,497.022951 L1418,158.127263 L1880,-255 L1880,1196.38041 L1880,1933 L1775.20258,1933 Z M1793,2123.56166 L1793,2230 L1272,2214.60949 L1318.38034,1916 L1502.70293,1969.82756 L1502.70293,2074.97741 L1793,2123.56166 Z M689,2157.61276 L417,2218 L648.118327,1949 L689,2157.61276 Z M94,2155 L-226,2155 L-226,1668.62834 L72.6602269,1433 L94,2155 Z M776.326172,848.591309 L760.268555,796.354492 L744.310059,848.591309 L776.326172,848.591309 Z M1215.53174,758.688477 L1257.45996,758.688477 L1312.1748,839.075684 L1312.1748,758.688477 L1354.49951,758.688477 L1354.49951,904 L1312.1748,904 L1257.75732,824.20752 L1257.75732,904 L1215.53174,904 L1215.53174,758.688477 Z M540.269287,1044.68848 L660.602295,1044.68848 L660.602295,1075.71338 L585.270264,1075.71338 L585.270264,1098.80859 L655.150635,1098.80859 L655.150635,1128.4458 L585.270264,1128.4458 L585.270264,1157.0918 L662.782959,1157.0918 L662.782959,1190 L540.269287,1190 L540.269287,1044.68848 Z M1240.16333,1103.56641 L1259.09546,1103.56641 C1261.14397,1103.56641 1265.10878,1102.90561 1270.98999,1101.58398 C1273.96364,1100.98925 1276.39208,1099.46941 1278.27539,1097.02441 C1280.1587,1094.57941 1281.10034,1091.77101 1281.10034,1088.59912 C1281.10034,1083.90737 1279.61354,1080.306 1276.63989,1077.79492 C1273.66624,1075.28384 1268.08248,1074.02832 1259.88843,1074.02832 L1240.16333,1074.02832 L1240.16333,1103.56641 Z M1352.56665,1044.68848 L1397.46851,1044.68848 L1397.46851,1099.60156 L1444.55103,1044.68848 L1504.22192,1044.68848 L1451.29126,1099.50244 L1506.60083,1190 L1451.29126,1190 L1420.66284,1130.22998 L1397.46851,1154.51465 L1397.46851,1190 L1352.56665,1190 L1352.56665,1044.68848 Z M875.126614,1476 L909.197998,1476 L909.197998,1443.0918 L896.454928,1443.0918 L875.126614,1476 Z M933.978271,1385.19571 L933.978271,1476 L1000.68677,1476 C1008.68258,1476 1017.60339,1474.6784 1027.44946,1472.03516 C1034.6523,1470.11881 1041.39247,1466.26964 1047.67017,1460.48755 C1053.94787,1454.70546 1058.85431,1447.53577 1062.38965,1438.97827 C1065.92499,1430.42077 1067.69263,1418.37768 1067.69263,1402.84863 C1067.69263,1392.93647 1066.50319,1383.5531 1064.12427,1374.69824 C1061.74535,1365.84338 1057.91271,1358.07897 1052.62622,1351.40479 C1047.33974,1344.7306 1040.64913,1339.60939 1032.5542,1336.04102 C1024.45927,1332.47264 1013.8369,1330.68848 1000.68677,1330.68848 L969.305251,1330.68848 L933.978271,1385.19571 Z M1060.48762,1190 L1170.28296,1190 L1170.28296,1157.0918 L1092.77026,1157.0918 L1092.77026,1140.18998 L1060.48762,1190 Z M1100.38185,1128.4458 L1162.65063,1128.4458 L1162.65063,1098.80859 L1119.59018,1098.80859 L1100.38185,1128.4458 Z M1134.55854,1075.71338 L1168.10229,1075.71338 L1168.10229,1074.14962 L1146.03885,1058 L1134.55854,1075.71338 Z M1195.06323,1093.88402 L1195.06323,1190 L1240.16333,1190 L1240.16333,1131.02295 L1244.12817,1131.02295 C1244.72827,1131.02295 1245.31916,1131.04705 1245.90083,1131.09525 L1195.06323,1093.88402 Z M1261.58553,1142.57587 C1262.13161,1143.51114 1262.68928,1144.5171 1263.25854,1145.59375 L1287.24585,1190 L1326.37588,1190 L1261.58553,1142.57587 Z M242.835848,1190 L358.282959,1190 L358.282959,1157.0918 L280.770264,1157.0918 L280.770264,1128.4458 L350.650635,1128.4458 L350.650635,1098.80859 L280.770264,1098.80859 L280.770264,1075.71338 L356.102295,1075.71338 L356.102295,1044.68848 L270.419694,1044.68848 L242.835848,1190 Z M307.681641,848.392776 L307.681641,904 L344.356445,904 L344.356445,758.688477 L324.709812,758.688477 L307.681641,848.392776 Z M549.48508,769.640302 C542.028241,775.056294 536.032269,781.829891 531.49707,789.961182 C524.955045,801.69057 521.684082,815.484784 521.684082,831.344238 C521.684082,846.41072 524.674205,859.758894 530.654541,871.38916 C536.634877,883.019427 545.060086,891.775036 555.93042,897.65625 C566.800754,903.537464 580.859289,906.478027 598.106445,906.478027 C612.11563,906.478027 624.224802,904.842546 634.434326,901.571533 C635.092867,901.360544 635.757799,901.137528 636.429123,900.902483 L669.671875,863.14995 L669.671875,829.128088 L653.522478,821.134766 L600.287109,821.134766 L600.287109,851.366699 L630.320801,851.366699 L630.320801,865.04541 C624.439586,868.547706 619.219261,871.025709 614.659668,872.479492 C610.100075,873.933275 605.30927,874.660156 600.287109,874.660156 C589.71414,874.660156 581.470651,871.290073 575.556396,864.549805 C569.642142,857.809537 566.685059,846.575925 566.685059,830.848633 C566.685059,816.046475 569.609102,805.225864 575.457275,798.386475 C579.255655,793.944302 583.897239,790.944743 589.382092,789.38777 L549.48508,769.640302 Z M496.532261,1059.77804 C492.251489,1055.7764 487.287145,1052.53074 481.63916,1050.04102 C473.54423,1046.47264 462.921859,1044.68848 449.771729,1044.68848 L383.063232,1044.68848 L383.063232,1190 L401.994767,1190 L390.723062,1179.94154 L427.965088,1137.64718 L427.965088,1077.59668 L439.165771,1077.59668 C450.796038,1077.59668 459.122127,1080.43812 464.144287,1086.12109 C465.604269,1087.77318 466.852034,1089.83572 467.887583,1092.30872 L496.532261,1059.77804 Z M614.630145,1379.74813 C612.898685,1386.95826 612.032959,1394.85666 612.032959,1403.44336 C612.032959,1420.42619 615.370002,1434.56733 622.044189,1445.86719 C628.718376,1457.16705 637.424425,1465.42706 648.162598,1470.64746 C658.90077,1475.86786 672.463704,1478.47803 688.851807,1478.47803 C689.870556,1478.47803 690.878686,1478.46596 691.876197,1478.44182 L703,1458.60619 L687.612884,1444.87528 C687.530413,1444.87575 687.447782,1444.87598 687.36499,1444.87598 C677.98148,1444.87598 670.563992,1441.67109 665.112305,1435.26123 C661.727908,1431.282 659.39404,1425.71114 658.110682,1418.54858 L614.630145,1379.74813 Z M97.6308716,1044.68848 L43.7717285,1044.68848 L43.7717285,1189.8282 L80.5456543,1090.72975 L80.5456543,1079.18262 L82.2941891,1086.0178 L97.6308716,1044.68848 Z M1025.09894,1081 L1033.09937,1044.68848 L990.675537,1044.68848 L983.803393,1081 L1025.09894,1081 Z M962.875645,1081 L952.811279,1044.68848 L910.28833,1044.68848 L900.2683,1081 L962.875645,1081 Z M879.395338,1081 L872.523193,1044.68848 L829.901123,1044.68848 L837.975855,1081 L879.395338,1081 Z M818.551638,1081 C817.983189,1073.47855 815.786059,1066.9751 811.960205,1061.4895 C807.466693,1055.0466 801.552527,1050.63575 794.217529,1048.25684 C786.882532,1045.87792 776.276681,1044.68848 762.399658,1044.68848 L735.138281,1044.68848 L715.601884,1081 L732.66333,1081 L732.66333,1074.02832 L752.388428,1074.02832 C760.582479,1074.02832 766.166245,1075.28384 769.139893,1077.79492 C770.231169,1078.71644 771.122203,1079.7848 771.812996,1081 L818.551638,1081 Z M810.831772,904 L839.862793,904 L827.923096,872.233038 L810.831772,904 Z M872.320486,789.713379 L923.322754,789.713379 L842.737305,873.867187 L842.737305,904 L980.614746,904 L980.614746,872.776855 L896.163574,872.776855 L977.641113,787.730957 L977.641113,758.688477 L889.012565,758.688477 L872.320486,789.713379 Z M750.603111,596.395313 C754.233521,591.887176 757.240558,586.748184 759.624268,580.978271 C763.159604,572.420774 764.927246,560.377682 764.927246,544.848633 C764.927246,534.936474 763.737805,525.553104 761.358887,516.698242 C758.979969,507.84338 755.147325,500.078972 749.86084,493.404785 C744.574355,486.730598 737.883748,481.609393 729.788818,478.041016 C727.476409,477.021668 724.957754,476.147916 722.232846,475.41976 L718.354239,528.165135 C719.336181,533.074002 719.827148,538.932523 719.827148,545.740723 C719.827148,555.019288 719.112155,562.247395 717.682152,567.425172 L750.603111,596.395313 Z M1183.46858,758.688477 L1140.29883,758.688477 L1140.29883,848.293945 C1140.29883,848.385775 1140.2987,848.477329 1140.29845,848.568608 L1183.46858,758.688477 Z M1128.79667,872.51528 C1127.83629,872.689664 1126.81341,872.776855 1125.72803,872.776855 C1122.55614,872.776855 1120.11117,872.149095 1118.39307,870.893555 C1115.88199,868.977204 1114.09782,866.466161 1113.04053,863.360352 C1111.98323,860.254542 1111.42155,855.496777 1111.35547,849.086914 L1068.43604,854.935059 C1069.22901,866.168839 1071.82265,875.601768 1076.21704,883.234131 C1080.61143,890.866493 1086.83948,896.665019 1094.90137,900.629883 C1099.72011,902.999754 1105.71921,904.661357 1112.89876,905.614704 L1128.79667,872.51528 Z M788.418945,472.688477 L788.418945,618 L910.932617,618 L910.932617,585.091797 L833.419922,585.091797 L833.419922,556.445801 L903.300293,556.445801 L903.300293,526.808594 L833.419922,526.808594 L833.419922,503.713379 L908.751953,503.713379 L908.751953,472.688477 L788.418945,472.688477 Z M462.409668,880.012695 L469.546387,904 L516.529785,904 L461.914063,758.688477 L412.948242,758.688477 L358.33252,904 L404.225586,904 L411.263184,880.012695 L462.409668,880.012695 Z M452.993164,848.591309 L420.977051,848.591309 L436.935547,796.354492 L452.993164,848.591309 Z M1002.61963,758.688477 L1002.61963,904 L1047.62061,904 L1047.62061,758.688477 L1002.61963,758.688477 Z M327.951904,1330.68848 L327.951904,1476 L405.4646,1476 C408.768653,1476 415.47578,1475.3392 425.586182,1474.01758 C433.185503,1473.02636 438.868389,1471.44044 442.63501,1469.25977 C448.714467,1465.75747 453.505272,1460.9997 457.007568,1454.98633 C460.509865,1448.97295 462.260986,1442.19974 462.260986,1434.6665 C462.260986,1425.41516 459.799504,1417.73335 454.876465,1411.62085 C449.953426,1405.50835 442.271618,1401.19663 431.830811,1398.68555 C438.703241,1396.30663 443.923566,1393.06871 447.491943,1388.97168 C452.844509,1382.82614 455.520752,1375.45821 455.520752,1366.86768 C455.520752,1356.62511 451.770708,1348.0347 444.270508,1341.09619 C436.770308,1334.15768 426.015776,1330.68848 412.006592,1330.68848 L327.951904,1330.68848 Z M373.250244,1387.68311 L373.250244,1360.12744 L393.074463,1360.12744 C399.880812,1360.12744 404.655097,1361.31688 407.397461,1363.6958 C410.139825,1366.07472 411.510986,1369.37872 411.510986,1373.60791 C411.510986,1378.1675 410.139825,1381.65323 407.397461,1384.06519 C404.655097,1386.47714 399.781692,1387.68311 392.7771,1387.68311 L373.250244,1387.68311 Z M373.250244,1444.77686 L373.250244,1415.33789 L396.048096,1415.33789 C403.911742,1415.33789 409.412907,1416.64297 412.551758,1419.25317 C415.690608,1421.86338 417.26001,1425.31606 417.26001,1429.61133 C417.26001,1434.237 415.674088,1437.92097 412.502197,1440.66333 C409.330306,1443.40569 403.878701,1444.77686 396.147217,1444.77686 L373.250244,1444.77686 Z M485.752686,1330.68848 L485.752686,1476 L600.733154,1476 L600.733154,1440.21729 L530.654541,1440.21729 L530.654541,1330.68848 L485.752686,1330.68848 Z M978.880127,1363.59668 L990.080811,1363.59668 C1001.71108,1363.59668 1010.03717,1366.43812 1015.05933,1372.12109 C1020.08149,1377.80406 1022.59253,1388.34384 1022.59253,1403.74072 C1022.59253,1415.37099 1021.46917,1423.77968 1019.22241,1428.96704 C1016.97566,1434.1544 1013.86989,1437.78881 1009.90503,1439.87036 C1005.94017,1441.95191 999.266079,1442.99268 989.882568,1442.99268 L978.880127,1442.99268 L978.880127,1363.59668 Z M1081.07397,1330.68848 L1081.07397,1366.57031 L1126.86792,1366.57031 L1126.86792,1476 L1171.76978,1476 L1171.76978,1366.57031 L1217.56372,1366.57031 L1217.56372,1330.68848 L1081.07397,1330.68848 Z" id="Combined-Shape" fill="#000000"></path>
    </g>
</svg>