<?xml version="1.0" encoding="UTF-8"?>
<svg width="375px" height="813px" viewBox="0 0 375 813" version="1.1" xmlns="http://www.w3.org/2000/svg" xmlns:xlink="http://www.w3.org/1999/xlink">
    <!-- Generator: Sketch 52.3 (67297) - http://www.bohemiancoding.com/sketch -->
    <title>ericBackground3 Copy</title>
    <desc>Created with Sketch.</desc>
    <g id="ericBackground3-Copy" stroke="none" stroke-width="1" fill="none" fill-rule="evenodd">
        <path d="M233.570522,513.37444 L231.474335,513.37444 L231.474335,511.228435 L215.331757,494.702213 L215.331757,513.37444 L202.060272,513.37444 L202.060272,481.115319 L201.977608,481.03069 L188.525116,481.03069 L188.525116,470.425221 L191.618337,470.425221 L150.5,428.329668 L150.5,424.917644 C148.668952,423.494479 147.100834,421.678002 145.795624,419.46819 C143.822958,416.12833 142.83664,411.948684 142.83664,406.929128 C142.83664,399.917374 144.789745,394.458444 148.696015,390.552175 C149.264834,389.983355 149.866162,389.455951 150.5,388.969963 L150.5,346.5 L300.851177,346.5 L347.5,391.409681 L308.103055,391.409681 L308.103055,428.329668 L308.103055,480.059069 L320.624726,513.37444 L308.103055,513.37444 L308.103055,528 L488.574948,528 L543,528 L543,729 L488.574948,729 L488.574948,624.733825 L358.713903,624.733825 L562.5,847.5 L358.5,847.5 L358.5,624.733825 L308.255928,624.733825 L308.001323,528.5 L248.344954,528.5 L233.570522,513.37444 Z M173.40006,301.831394 C173.541847,301.888287 173.681189,301.946907 173.818085,302.007253 C176.210675,303.061945 178.188194,304.575602 179.750702,306.548268 C181.31321,308.520934 182.446011,310.815833 183.14914,313.433034 C183.852268,316.050234 184.203827,318.823644 184.203827,321.753346 C184.203827,326.343213 183.681371,329.902748 182.636444,332.432057 C181.591517,334.961367 180.141336,337.080486 178.285858,338.789479 C176.43038,340.498472 174.438213,341.636156 172.309296,342.202565 C169.399125,342.983819 166.762433,343.37444 164.39914,343.37444 L144.682343,343.37444 L144.682343,334.098491 L62,427 L62,227 L240,227 L173.400063,301.83139 Z M165.491802,310.717076 L157.953827,319.186711 L157.953827,333.618581 L161.20578,333.618581 C163.979232,333.618581 165.951868,333.310967 167.123749,332.695729 C168.29563,332.080492 169.213589,331.006284 169.877655,329.473073 C170.541721,327.939862 170.873749,325.454535 170.873749,322.017018 C170.873749,317.466214 170.131569,314.351011 168.647186,312.671315 C167.865915,311.787244 166.814123,311.135833 165.491802,310.717076 Z M149,474.053727 C152.73315,471.146429 157.607373,469.6928 163.622772,469.6928 C170.771246,469.6928 176.279003,471.611726 180.14621,475.449635 C184.013417,479.287545 185.946991,484.663468 185.946991,491.577565 C185.946991,496.597122 185.102273,500.713291 183.412811,503.926198 C181.72335,507.139105 179.281968,509.63908 176.088593,511.426198 C172.895217,513.213316 168.915765,514.106862 164.150116,514.106862 C159.306342,514.106862 155.297593,513.335385 152.123749,511.792409 C151.008314,511.250136 149.967066,510.596897 149,509.83269 L149,511 L135.405807,498.061298 C134.984927,500.269635 134.327106,502.224595 133.432343,503.926198 C131.742881,507.139105 129.301499,509.63908 126.108124,511.426198 C122.914749,513.213316 118.935296,514.106862 114.169647,514.106862 C109.325873,514.106862 105.317124,513.335385 102.14328,511.792409 C102.087909,511.76549 102.032721,511.738298 101.977715,511.710832 L101.977715,594 L39,594 L39,513.37444 L33.398163,513.37444 L24.3454287,495.708425 L17.4899599,502.886159 L17.4899599,513.37444 L4.21847553,513.37444 L4.21847553,470.425221 L17.4899599,470.425221 L17.4899599,486.65569 L31.4059755,470.425221 L39,470.425221 L39,428 L106.709502,428 C105.36109,427.605349 104.127104,427.105163 103.007538,426.49944 C99.7946313,424.76115 97.3044219,422.173285 95.5368349,418.735768 C93.7692479,415.298251 92.8854677,411.352978 92.8854677,406.899831 C92.8854677,402.212307 93.8522549,398.1352 95.7858583,394.668385 C97.7194618,391.201571 100.551465,388.569762 104.281952,386.772878 C107.192123,385.386152 111.108099,384.6928 116.029999,384.6928 C120.776116,384.6928 124.325886,385.122483 126.679413,385.981862 C129.03294,386.841241 130.986046,388.174236 132.538788,389.980885 C134.09153,391.787535 135.258511,394.077551 136.039765,396.851003 L123.23703,399.136159 C122.709684,397.515057 121.816138,396.274835 120.556366,395.415456 C119.296594,394.556076 117.690165,394.126393 115.73703,394.126393 C112.826859,394.126393 110.507547,395.137125 108.779022,397.15862 C107.050498,399.180114 106.186249,402.378325 106.186249,406.753346 C106.186249,411.401807 107.060264,414.722086 108.808319,416.714284 C110.556375,418.706481 112.992874,419.702565 116.11789,419.702565 C117.602272,419.702565 119.018273,419.487724 120.365936,419.058034 C121.713599,418.628344 123.256553,417.89593 124.994843,416.860768 L124.994843,412.8178 L116.11789,412.8178 L116.11789,403.882253 L136.625702,403.882253 L136.625702,422.1928 C132.699901,424.868594 129.228256,426.689865 126.210663,427.656667 C125.829368,427.778829 125.439108,427.893274 125.039883,428 L149,428 L149,474.053727 Z M121.71325,485.028974 L116.600082,480.162355 C115.69177,479.881869 114.696079,479.741628 113.613007,479.741628 C110.937212,479.741628 108.788796,480.688884 107.167694,482.583425 C105.546592,484.477965 104.736054,487.6127 104.736054,491.987721 C104.736054,496.323681 105.54171,499.438884 107.153046,501.333425 C108.764382,503.227965 110.956743,504.175221 113.730194,504.175221 C116.581771,504.175221 118.78878,503.247496 120.351288,501.392018 C121.913796,499.53654 122.695038,496.206495 122.695038,491.401784 C122.695038,488.840497 122.367777,486.716234 121.71325,485.028974 Z M106.461461,470.512603 L101.977715,466.245056 L101.977715,472.174115 C103.354909,471.470737 104.84949,470.9169 106.461461,470.512603 Z M39,495.792123 L39,480.82524 L33.398163,486.626393 L39,495.792123 Z M224.5,730 L224.5,825.5 L59.5,825.5 L59.5,729.5 L224.142104,729.5 L253.841792,625 L333,625 L305.713951,730 L224.5,730 Z M213,102.5 L38.5,102.5 L38.5,8.5 L213.5,8.5 L213.5,49.5632184 L387,245 L387,226.706368 L213,226.706368 L213,102.5 Z M452.5,30.5 L452.5,226.5 L387.5,226.5 L387.5,30.5 L452.5,30.5 Z M563,226 L563,390 L453,390 L453,226 L563,226 Z M38,433 L-167,433 L-167,210 L38,433 Z M-109,-32 L-109,47 L-136.800845,47 L-176,10.5613608 L-176,-32 L-109,-32 Z M-37.4250525,314 L-37.4250525,209.733825 L-217.744072,209.733825 L-218,113 L-37.4250525,113 L17,113 L17,314 L-37.4250525,314 Z M213,102.5 L213.5,102.5 L213.5,49.5632184 L213,49 L213,102.5 Z M416,349 L416,428 L388.199155,428 L349,391.561361 L349,349 L416,349 Z M358.5,624.733825 L358.713903,624.733825 L358.5,624.5 L358.5,624.733825 Z M308.103055,528 L308,528 L308.001323,528.5 L308.103055,528.5 L308.103055,528 Z M224.5,730 L224.5,729.5 L224.142104,729.5 L224,730 L224.5,730 Z M191.147186,300.425221 L226.713593,300.425221 L226.713593,309.595143 L204.447968,309.595143 L204.447968,316.421315 L225.102265,316.421315 L225.102265,325.181081 L204.447968,325.181081 L204.447968,333.647878 L227.358124,333.647878 L227.358124,343.37444 L191.147186,343.37444 L191.147186,300.425221 Z M154.716522,491.987721 C154.716522,496.323681 155.522178,499.438884 157.133515,501.333425 C158.744851,503.227965 160.937212,504.175221 163.710663,504.175221 C166.56224,504.175221 168.769249,503.247496 170.331757,501.392018 C171.894265,499.53654 172.675507,496.206495 172.675507,491.401784 C172.675507,487.358795 171.860085,484.404723 170.229218,482.539479 C168.59835,480.674236 166.386458,479.741628 163.593476,479.741628 C160.917681,479.741628 158.769265,480.688884 157.148163,482.583425 C155.527061,484.477965 154.716522,487.6127 154.716522,491.987721 Z M324.931366,470.425221 L338.202851,470.425221 L338.202851,486.65569 L352.118866,470.425221 L369.755585,470.425221 L354.111054,486.626393 L370.45871,513.37444 L354.111054,513.37444 L345.058319,495.708425 L338.202851,502.886159 L338.202851,513.37444 L324.931366,513.37444 L324.931366,470.425221 Z M233.570522,513.37444 L272.226288,513.37444 L272.226288,504.145925 L247.265351,504.145925 L271.347382,479.009206 L271.347382,470.425221 L233.788788,470.425221 L233.788788,479.595143 L255.292694,479.595143 L231.474335,504.46819 L231.474335,511.228435 L233.570522,513.37444 Z M215.331757,494.702213 L215.331757,481.03069 L228.866913,481.03069 L228.866913,470.425221 L191.618337,470.425221 L201.977608,481.03069 L202.060272,481.03069 L202.060272,481.115319 L215.331757,494.702213 Z M150.5,424.917644 C151.436358,425.645419 152.441474,426.270339 153.515351,426.792409 C156.689195,428.335385 160.697943,429.106862 165.541718,429.106862 C170.307367,429.106862 174.286819,428.213316 177.480194,426.426198 C180.67357,424.63908 183.114951,422.139105 184.804413,418.926198 C186.493875,415.713291 187.338593,411.597122 187.338593,406.577565 C187.338593,399.663468 185.405018,394.287545 181.537811,390.449635 C177.670605,386.611726 172.162847,384.6928 165.014374,384.6928 C159.057025,384.6928 154.218935,386.118508 150.5,388.969963 L150.5,424.917644 Z M308.103055,480.059069 L304.482147,470.425221 L290.009491,470.425221 L273.866913,513.37444 L287.431366,513.37444 L289.511444,506.284596 L304.628632,506.284596 L306.738007,513.37444 L308.103055,513.37444 L308.103055,480.059069 Z M173.40006,301.831394 C171.063772,300.893941 168.063491,300.425221 164.39914,300.425221 L144.682343,300.425221 L144.682343,334.098491 L157.953827,319.186711 L157.953827,310.151784 L161.264374,310.151784 C162.89263,310.151784 164.30177,310.340214 165.491802,310.717076 L173.400063,301.83139 Z M149,474.053727 C148.405906,474.516394 147.840711,475.015877 147.304413,475.552175 C143.398143,479.458444 141.445038,484.917374 141.445038,491.929128 C141.445038,496.948684 142.431356,501.12833 144.404022,504.46819 C145.683403,506.63427 147.215389,508.42243 149,509.83269 L149,474.053727 Z M135.405807,498.061298 C135.779618,496.09993 135.966522,493.93869 135.966522,491.577565 C135.966522,484.663468 134.032948,479.287545 130.165741,475.449635 C126.298534,471.611726 120.790777,469.6928 113.642304,469.6928 C111.034163,469.6928 108.640552,469.966066 106.461461,470.512603 L116.600082,480.162355 C118.034088,480.605173 119.250305,481.397546 120.248749,482.539479 C120.84644,483.223066 121.334607,484.052896 121.71325,485.028974 L135.405807,498.061298 Z M101.977715,472.174115 C100.239453,473.061902 98.6881978,474.187921 97.3239443,475.552175 C93.4176747,479.458444 91.4645693,484.917374 91.4645693,491.929128 C91.4645693,496.948684 92.4508875,501.12833 94.4235537,504.46819 C96.3618045,507.749783 98.8798339,510.163974 101.977715,511.710832 L101.977715,472.174115 Z M39,513.37444 L49.7458193,513.37444 L39,495.792123 L39,513.37444 Z M39,480.82524 L49.0426943,470.425221 L39,470.425221 L39,480.82524 Z M106.709502,428 C109.230735,428.73791 112.152009,429.106862 115.473358,429.106862 C119.090803,429.106862 122.27962,428.737911 125.039883,428 L106.709502,428 Z M156.108124,406.987721 C156.108124,402.6127 156.918663,399.477965 158.539765,397.583425 C160.160866,395.688884 162.309282,394.741628 164.985077,394.741628 C167.77806,394.741628 169.989952,395.674236 171.620819,397.539479 C173.251687,399.404723 174.067108,402.358795 174.067108,406.401784 C174.067108,411.206495 173.285866,414.53654 171.723358,416.392018 C170.160851,418.247496 167.953841,419.175221 165.102265,419.175221 C162.328813,419.175221 160.136452,418.227965 158.525116,416.333425 C156.91378,414.438884 156.108124,411.323681 156.108124,406.987721 Z M194.662811,428.37444 L207.99289,428.37444 L207.99289,410.9428 L209.164765,410.9428 C210.375708,410.9428 211.459682,411.274827 212.416718,411.938893 C213.119846,412.446708 213.920619,413.550213 214.819061,415.24944 L221.908905,428.37444 L236.908905,428.37444 L230.49289,415.923268 C230.180388,415.298265 229.560277,414.409602 228.632538,413.257253 C227.704799,412.104903 226.996798,411.352958 226.508515,411.001393 C225.785855,410.474047 224.633522,409.946708 223.051483,409.419362 C225.024149,408.970141 226.576868,408.40374 227.709686,407.720143 C229.487039,406.645919 230.88351,405.244566 231.89914,403.516042 C232.91477,401.787517 233.422577,399.731874 233.422577,397.34905 C233.422577,394.614661 232.758521,392.295348 231.43039,390.391042 C230.102258,388.486735 228.354229,387.183037 226.186249,386.479909 C224.018269,385.77678 220.883535,385.425221 216.781952,385.425221 L194.662811,385.425221 L194.662811,428.37444 Z M207.99289,402.827565 L207.99289,394.097096 L213.822968,394.097096 C216.244855,394.097096 217.895229,394.468186 218.77414,395.210378 C219.65305,395.952569 220.092499,397.017011 220.092499,398.403737 C220.092499,399.341242 219.814181,400.171312 219.257538,400.893971 C218.700895,401.616631 217.983128,402.065846 217.104218,402.241628 C215.365928,402.632255 214.194064,402.827565 213.588593,402.827565 L207.99289,402.827565 Z M241.127655,385.425221 L241.127655,428.37444 L277.338593,428.37444 L277.338593,418.647878 L254.428436,418.647878 L254.428436,410.181081 L275.082733,410.181081 L275.082733,401.421315 L254.428436,401.421315 L254.428436,394.595143 L276.694061,394.595143 L276.694061,385.425221 L241.127655,385.425221 Z M54.1403505,470.425221 L54.1403505,513.37444 L88.1247255,513.37444 L88.1247255,502.798268 L67.4118349,502.798268 L67.4118349,470.425221 L54.1403505,470.425221 Z M301.845429,496.997487 L292.382538,496.997487 L297.099335,481.558034 L301.845429,496.997487 Z" id="Combined-Shape" fill="#000000"></path>
    </g>
</svg>