<?xml version="1.0" encoding="UTF-8"?>
<svg width="375px" height="813px" viewBox="0 0 375 813" version="1.1" xmlns="http://www.w3.org/2000/svg" xmlns:xlink="http://www.w3.org/1999/xlink">
    <!-- Generator: Sketch 52.3 (67297) - http://www.bohemiancoding.com/sketch -->
    <title>ericBackground3 Copy</title>
    <desc>Created with Sketch.</desc>
    <g id="ericBackground3-Copy" stroke="none" stroke-width="1" fill="none" fill-rule="evenodd">
        <path d="M9.96728516,443.02109 L9.96728516,433.986328 L17.4179285,433.986328 L66.0618302,375 L138,375 L138,433.309922 C146.202332,434.503568 152.798157,437.576191 157.787598,442.527832 C164.361849,449.052279 167.648926,458.191347 167.648926,469.945313 C167.648926,478.478558 166.212905,485.476047 163.34082,490.937988 C160.468736,496.39993 156.318387,500.649887 150.889648,503.687988 C147.207799,505.748473 142.911271,507.110222 138,507.773249 L138,539.088848 L98.5189613,590 L98.5189613,547.003334 L66.0618302,547.003334 L-21,547.003334 L-21,743.711432 L-21,803 L-199,803 L-199,743.711432 L-106.66478,743.711432 L-106.66478,547.278798 L-22,547.003255 L-22,481.785102 L9.96728516,443.02109 Z M138,452.046622 L138,489.308668 C139.162002,488.599498 140.196343,487.706571 141.103027,486.629883 C143.759291,483.47557 145.087402,477.814494 145.087402,469.646484 C145.087402,462.773403 143.701186,457.751481 140.928711,454.580566 C140.051383,453.577156 139.075147,452.732508 138,452.046622 Z M354,433.986328 L354,253 L437,253 L437,444 L401.089005,444 L359.984815,489.120117 L363.779785,489.120117 L363.779785,507 L343.696335,507 L228,634 L244,634 L244,704 L418,704 L418,634 L244.240265,634 L244.240265,507 L228.510254,507 L201.16748,466.907227 L201.16748,507 L179.950684,507 L179.950684,433.986328 L201.018066,433.986328 L228.510254,474.37793 L228.510254,455.935025 L144.153846,363 L117.769531,363 L117.769531,333.932534 L67,278 L244,278 L244,289.986328 L257.222656,289.986328 L257.222656,305.575195 L244,305.575195 L244,317.179688 L254.483398,317.179688 L254.483398,332.071289 L244,332.071289 L244,346.464844 L258.318359,346.464844 L258.318359,363 L244,363 L244,433.986328 L249.776855,433.986328 L249.776855,443 L265.066895,443 L265.066895,433.986328 L298.585449,433.986328 C305.192904,433.986328 310.530253,434.882804 314.597656,436.675781 C318.08138,438.211463 321.047467,440.31952 323.495983,443 L342.812012,443 L342.812012,433.986328 L354,433.986328 Z M364.477051,444 L401.089005,444 L402,443 L364.477051,443 L364.477051,444 Z M244,825 L99,825 L99,704 L244,704 L244,825 Z M-304,825 L-304,602 L-107,602 L-304,825 Z M62,250 L62,27 L259,27 L62,250 Z M473,89 L403,89 L403,58.7095272 L435.287402,16 L473,16 L473,89 Z M167,169.479836 L259.33522,169.479836 L259.33522,-27.7201128 L345,-28 L345,169.479836 L345,229 L167,229 L167,169.479836 Z M137,664 L67,664 L67,634.124465 L99.2874018,592 L137,592 L137,664 Z M-21,547.003334 L-21,547 L-22,547.003334 L-21,547.003334 Z M-107,574 L-200,544.210644 L-200,455 L-107,487.579571 L-107,574 Z M66,373 L-7,373 L32.362782,321.275487 L-80,321.275487 L-80,252 L66,252 L66,373 Z M-200,454 L-285,454 L-285,275 L-200,275 L-200,454 Z M9.96728516,443.02109 L9.96728516,507 L32.5288086,507 L32.5288086,477.46582 L57.1821289,477.46582 L57.1821289,507 L79.8432617,507 L79.8432617,433.986328 L57.1821289,433.986328 L57.1821289,459.536133 L32.5288086,459.536133 L32.5288086,433.986328 L17.4179285,433.986328 L9.96728516,443.02109 Z M138,433.309922 C135.394668,432.930781 132.627254,432.741211 129.697754,432.741211 C117.844179,432.741211 108.597201,436.06149 101.956543,442.702148 C95.3158848,449.342807 91.9956055,458.622987 91.9956055,470.542969 C91.9956055,479.076215 93.6723465,486.181612 97.0258789,491.859375 C100.379411,497.537138 104.753879,501.687487 110.149414,504.310547 C115.544949,506.933607 122.359822,508.245117 130.594238,508.245117 C133.201216,508.245117 135.669801,508.087828 138,507.773249 L138,489.308668 C135.757749,490.677112 133.040149,491.361328 129.847168,491.361328 C125.132301,491.361328 121.405287,489.750993 118.666016,486.530273 C115.926744,483.309554 114.557129,478.013709 114.557129,470.642578 C114.557129,463.205041 115.935045,457.875993 118.690918,454.655273 C121.446791,451.434554 125.099098,449.824219 129.647949,449.824219 C132.89353,449.824219 135.677535,450.565015 138,452.046622 L138,433.309922 Z M354,433.986328 L354,443 L342.812012,443 L342.812012,450.621094 L346.895996,484.040039 L360.293457,484.040039 L364.477051,450.621094 L364.477051,444 L354,444 L354,443 L364.477051,443 L364.477051,433.986328 L354,433.986328 Z M359.984815,489.120117 L343.559082,489.120117 L343.559082,507 L343.696335,507 L359.984815,489.120117 Z M244.240265,507 L249.776855,507 L249.776855,443 L244.240265,443 L244.240265,507 Z M265.066895,443 L265.066895,507 L298.585449,507 C302.603047,507 307.085424,506.335944 312.032715,505.007813 C315.651874,504.044917 319.038558,502.110854 322.192871,499.205566 C325.347184,496.300278 327.812491,492.697775 329.588867,488.397949 C331.365243,484.098123 332.253418,478.046914 332.253418,470.244141 C332.253418,465.263647 331.655768,460.54885 330.460449,456.099609 C329.265131,451.650368 327.339369,447.74904 324.683105,444.395508 C324.301927,443.91427 323.90622,443.449101 323.495983,443 L265.066895,443 Z M244,289.986328 L196.759766,289.986328 L196.759766,363 L244,363 L244,346.464844 L219.371094,346.464844 L219.371094,332.071289 L244,332.071289 L244,317.179688 L219.371094,317.179688 L219.371094,305.575195 L244,305.575195 L244,289.986328 Z M244,433.986328 L228.510254,433.986328 L228.510254,455.935025 L244,473 L244,433.986328 Z M144.153846,363 L151.288086,363 C155.305684,363 159.788061,362.335944 164.735352,361.007813 C168.35451,360.044917 171.741195,358.110854 174.895508,355.205566 C178.04982,352.300278 180.515128,348.697775 182.291504,344.397949 C184.06788,340.098123 184.956055,334.046914 184.956055,326.244141 C184.956055,321.263647 184.358404,316.54885 183.163086,312.099609 C181.967767,307.650368 180.042005,303.74904 177.385742,300.395508 C174.729479,297.041975 171.367696,294.468759 167.300293,292.675781 C163.23289,290.882804 157.895541,289.986328 151.288086,289.986328 L117.769531,289.986328 L117.769531,333.932534 L144.153846,363 Z M140.331055,306.521484 L145.958984,306.521484 C151.802764,306.521484 155.986316,307.949204 158.509766,310.804688 C161.033216,313.660171 162.294922,318.956016 162.294922,326.692383 C162.294922,332.536162 161.730474,336.761217 160.601562,339.367676 C159.472651,341.974134 157.912119,343.800288 155.919922,344.846191 C153.927724,345.892095 150.574242,346.415039 145.859375,346.415039 L140.331055,346.415039 L140.331055,306.521484 Z M287.628418,450.521484 L293.256348,450.521484 C299.100127,450.521484 303.283679,451.949204 305.807129,454.804688 C308.330579,457.660171 309.592285,462.956016 309.592285,470.692383 C309.592285,476.536162 309.027838,480.761217 307.898926,483.367676 C306.770014,485.974134 305.209483,487.800288 303.217285,488.846191 C301.225088,489.892095 297.871606,490.415039 293.156738,490.415039 L287.628418,490.415039 L287.628418,450.521484 Z" id="Combined-Shape" fill="#000000"></path>
    </g>
</svg>