<?xml version="1.0" encoding="UTF-8"?>
<svg width="375px" height="813px" viewBox="0 0 375 813" version="1.1" xmlns="http://www.w3.org/2000/svg" xmlns:xlink="http://www.w3.org/1999/xlink">
    <!-- Generator: Sketch 52.3 (67297) - http://www.bohemiancoding.com/sketch -->
    <title>ericBackground3</title>
    <desc>Created with Sketch.</desc>
    <g id="ericBackground3" stroke="none" stroke-width="1" fill="none" fill-rule="evenodd">
        <path d="M300.340485,230.977027 L279.032258,235.692815 C278.187934,233.01339 277.303417,231.053841 276.378682,229.814107 C274.850857,227.734553 272.981311,226.134921 270.769986,225.015162 C268.558661,223.895402 266.086035,223.335531 263.352034,223.335531 C257.160324,223.335531 252.416099,225.814961 249.119215,230.773896 C246.626448,234.453106 245.380084,240.231778 245.380084,248.110086 C245.380084,257.86799 246.86768,264.556453 249.842917,268.175676 C252.818154,271.794898 256.999506,273.604483 262.387097,273.604483 C267.613864,273.604483 271.564035,272.144818 274.237728,269.225445 C276.911421,266.306072 278.851326,262.067046 280.057504,256.50824 L304,263.706658 C302.391764,270.385223 299.85883,275.963942 296.401122,280.44298 C292.943414,284.922018 288.651498,288.301241 283.525245,290.580751 C278.398993,292.860262 271.875682,294 263.955119,294 C254.345908,294 246.495823,292.610319 240.404628,289.830916 C234.313434,287.051513 229.056591,282.162637 224.633941,275.16414 C220.211292,268.165643 218,259.207701 218,248.290046 C218,233.733173 221.889863,222.545743 229.669705,214.727423 C237.449548,206.909102 248.455749,203 262.68864,203 C273.825675,203 282.58038,205.239485 288.953015,209.718523 C293.632171,213.00729 297.427975,217.589645 300.340486,223.465669 L300.340485,179.10125 L370.5,179.10125 L370.5,206.78437 L338.139022,245.817533 L300.340485,245.817533 L300.340485,230.977027 Z M95,206.78437 L19.0542857,206.78437 L19.0542857,142.167118 L72,142.167118 L72,81 L144.682848,81 L144.682848,99.7885402 L99.1812298,99.7885402 L99.1812298,113.774898 L141.389968,113.774898 L141.389968,131.723056 L99.1812298,131.723056 L99.1812298,142.167118 L192.66,142.167118 L192.66,206.78437 L122,206.78437 L122,293 L95,293 L95,206.78437 Z M219.080888,532.509367 L192.717603,532.509367 L192.717603,381.21563 L101.336207,381.21563 L101.336207,400.33015 L144,400.33015 L144,422 L83.2690768,422 L83.2690768,463.137465 C90.4452256,458.379136 99.5850276,456 110.68864,456 C121.825675,456 130.58038,458.239485 136.953015,462.718523 C143.325651,467.197561 148.059826,474.075981 151.15568,483.353988 L127.032258,488.692815 C126.187934,486.01339 125.303417,484.053841 124.378682,482.814107 C122.850857,480.734553 120.981311,479.134921 118.769986,478.015162 C116.558661,476.895402 114.086035,476.335531 111.352034,476.335531 C105.160324,476.335531 100.416099,478.814961 97.1192146,483.773896 C94.6264485,487.453106 93.3800842,493.231778 93.3800842,501.110086 C93.3800842,510.86799 94.8676803,517.556453 97.8429173,521.175676 C100.818154,524.794898 104.999506,526.604483 110.387097,526.604483 C115.613864,526.604483 119.564035,525.144818 122.237728,522.225445 C124.911421,519.306072 126.851326,515.067046 128.057504,509.50824 L152,516.706658 C150.391764,523.385223 147.85883,528.963942 144.401122,533.44298 C140.943414,537.922018 136.651498,541.301241 131.525245,543.580751 C126.398993,545.860262 119.875682,547 111.955119,547 C102.345908,547 94.4958229,545.610319 88.4046283,542.830916 C86.6212593,542.017168 84.9094101,541.022597 83.2690768,539.8472 L83.2690768,556 L0,556 L0,381.21563 L35.35744,381.21563 L74,342.39874 L74,334 L82.3610202,334 L209.005313,206.78437 L192.797914,206.78437 L192.797914,354.107142 L219,380.570103 L219,334 L246.023488,334 L246.023488,387.38807 C246.023488,392.160212 247.348741,395.888391 249.999288,398.572721 C252.649835,401.257051 256.326667,402.599196 261.029893,402.599196 C265.693262,402.599196 269.350165,401.276935 272.000712,398.632373 C274.651259,395.987811 275.976512,392.239747 275.976512,387.38807 L275.976512,334 L298.585565,334 L298.585565,293.646906 L338.053578,247.031786 L338.053578,286.400267 L370.5,286.400267 L458.422117,286.400267 L458.422117,106.365852 L458.422117,52.0449044 L636.290545,52.0449044 L636.290545,106.365852 L544.023577,106.365852 L544.023577,286.339954 L458.532776,286.595062 L458.532776,346.115193 L370.5,443.889454 L298.585565,443.889454 L298.585565,405.318534 C297.113157,408.070111 295.246564,410.573729 292.985765,412.829424 C289.538061,416.269342 285.921015,418.685203 282.13452,420.077078 C276.873283,422.025702 270.555909,423 263.182206,423 C262.461341,423 261.729374,422.991479 260.986306,422.974436 L369.441429,532.509367 L304.919112,532.509367 L310,546 L281.488722,546 L277.466749,532.509367 L245.815736,532.509367 L241.849624,546 L214,546 L219.080888,532.509367 Z M291.022238,142.167118 C291.336025,142.657719 291.590979,143.098147 291.787101,143.488404 L305,169 L274.10957,169 L259.541234,142.167118 L245.451456,142.167118 L245.451456,169 L218,169 L218,142.167118 L192.66,142.167118 L192.66,32 L337.684286,32 L337.684286,142.167118 L291.022238,142.167118 Z M741,32 L741,236.319235 L544.065578,236.319235 L741,32 Z M192.717603,381.21563 L192.797914,381.21563 L192.797914,354.107142 L192.717603,354.026032 L192.717603,381.21563 Z M458.422117,286.400267 L458.422117,286.595393 L458.532776,286.595062 L458.532776,286.400267 L458.422117,286.400267 Z M544.034458,261.126396 L636.683816,288.369509 L636.683816,369.954879 L544.034458,340.160044 L544.034458,261.126396 Z M370.5,445.785327 L443.575407,445.785327 L404.171965,492.899379 L516.650815,492.899379 L516.650815,556 L370.5,556 L370.5,445.785327 Z M636.660167,370.63994 L721.600272,370.63994 L721.600272,535.303631 L636.660167,535.303631 L636.660167,370.63994 Z M83.2690768,463.137465 C81.2466567,464.478482 79.3802008,466.008467 77.6697055,467.727423 C69.8898629,475.545743 66,486.733173 66,501.290046 C66,512.207701 68.2112916,521.165643 72.6339411,528.16414 C75.7617352,533.113629 79.3067618,537.007965 83.2690768,539.8472 L83.2690768,463.137465 Z M291.022238,142.167118 C290.306365,141.047863 289.284278,139.66747 287.955964,138.025921 C286.045413,135.664836 284.587384,134.124151 283.581831,133.40382 C282.093613,132.323323 279.720543,131.242843 276.462552,130.162347 C280.524986,129.241924 283.722596,128.081408 286.055479,126.680764 C289.715691,124.479753 292.591529,121.608476 294.683079,118.066849 C296.774629,114.525221 297.820388,110.313349 297.820388,105.431105 C297.820388,99.8285304 296.452857,95.0764179 293.717753,91.1746248 C290.982649,87.2728318 287.382824,84.6016443 282.918169,83.1609823 C278.453514,81.7203202 271.997962,81 263.551318,81 L218,81 L218,142.167118 L245.451456,142.167118 L245.451456,133.283765 L247.864771,133.283765 C250.358542,133.283765 252.590836,133.964068 254.56172,135.324693 C256.009716,136.365171 257.658798,138.626176 259.509015,142.107776 L259.541234,142.167118 L291.022238,142.167118 Z M245.451456,116.656207 L245.451456,98.7680764 L257.457698,98.7680764 C262.44524,98.7680764 265.843958,99.5284144 267.653953,101.049113 C269.463948,102.569812 270.368932,104.750782 270.368932,107.592087 C270.368932,109.51297 269.795775,111.213726 268.649445,112.694407 C267.503115,114.175087 266.024974,115.095496 264.214979,115.455662 C260.635211,116.256029 258.22192,116.656207 256.975035,116.656207 L245.451456,116.656207 Z M260.986306,422.974436 L219,380.570103 L219,386.135389 C219,390.430316 219.837002,395.361456 221.511032,400.928954 C222.547336,404.388757 224.470449,407.74909 227.280427,411.010054 C230.090406,414.271017 233.189307,416.786296 236.577224,418.555965 C239.965141,420.325634 244.180046,421.50871 249.222064,422.105228 C253.411844,422.600918 257.333231,422.890652 260.986306,422.974436 Z M298.585565,334 L298.585565,405.318534 C299.358569,403.873975 300.022929,402.361074 300.578648,400.779826 C302.192891,396.186639 303,391.305209 303,386.135389 L303,334 L298.585565,334 Z M101.336207,381.21563 L101.336207,334 L82.3610202,334 L74,342.39874 L74,422 L83.2690768,422 L83.2690768,381.21563 L101.336207,381.21563 Z M72,142.167118 L72,169 L146,169 L146,149.070941 L99.1812298,149.070941 L99.1812298,142.167118 L72,142.167118 Z M219.080888,532.509367 L245.815736,532.509367 L246.120301,531.473397 L277.157895,531.473397 L277.466749,532.509367 L304.919112,532.509367 L276.857143,458 L247.142857,458 L219.080888,532.509367 Z M271.443609,512.444748 L252.015038,512.444748 L261.699248,480.810368 L271.443609,512.444748 Z M95,206.78437 L122,206.78437 L122,205 L95,205 L95,206.78437 Z M300.340485,230.977027 L303.15568,230.353988 C302.33298,227.888426 301.394583,225.592321 300.340486,223.465669 L300.340485,230.977027 Z" id="Combined-Shape" fill="#000000"></path>
        <path d="M92.1878261,800.38618 L71.7487771,800.38618 L71.7487771,712.246329 L92.1878261,712.246329 L92.1878261,675.414678 C86.2635469,673.984548 81.7205986,671.690717 78.5589301,668.53317 C72.7796774,662.76145 69.50883,655.426666 68.7462897,646.528598 L92.1878261,645.062017 L92.1878261,635.739288 C86.8782229,633.743936 82.7366095,631.448445 79.7629351,628.852795 C74.6258216,624.403761 72.0573033,618.73233 72.0573033,611.838331 C72.0573033,607.309134 73.3716623,603.03051 76.0004196,599.002331 C78.6291769,594.974152 82.5822869,591.807769 87.8598684,589.50309 C89.1800909,588.926559 90.6227423,588.42214 92.1878261,587.989834 L92.1878261,577.07676 L270.203729,577.07676 L270.203729,586.500275 C277.395795,587.323642 283.155815,589.266479 287.48389,592.328813 C293.40361,596.517318 296.92529,603.180749 298.049033,612.319305 L272.343528,613.82235 C271.920097,611.359703 271.206834,609.313898 270.203729,607.684916 L270.203729,618.683892 C277.203956,620.505429 282.522511,622.341908 286.159484,624.193357 C291.316665,626.818688 295.069109,630.075252 297.416931,633.963146 C297.871683,634.716197 298.282394,635.486537 298.649063,636.274169 L375,557 L375,761.643943 L303.941133,761.643943 L303.941133,800.38618 L278.336469,800.38618 L251.984442,761.643943 L245.416186,761.643943 L245.416186,800.38618 L219.871487,800.38618 L219.871487,761.643943 L177.902296,761.643943 L219.871487,718.067887 L219.871487,712.246329 L225.478375,712.246329 L259.270121,677.160805 C245.652863,676.841542 236.124564,673.965688 230.684956,668.53317 C224.905703,662.76145 221.634856,655.426666 220.872316,646.528598 L246.818623,644.90531 C247.380494,649.113856 248.524288,652.320319 250.250037,654.524795 C253.059396,658.092038 257.072705,659.875633 262.290086,659.875633 C266.183055,659.875633 269.183004,658.963796 271.290023,657.140092 C273.397042,655.316389 274.450536,653.202128 274.450536,650.797245 C274.450536,648.512606 273.447209,646.468485 271.440524,644.664823 C269.433839,642.861161 264.7784,641.157727 257.474066,639.554472 C247.9721,637.420908 240.636179,634.730781 235.466175,631.484035 L177.86026,631.484035 L177.86026,811.744156 L92.1878261,812 L92.1878261,800.38618 Z M-36,704.335026 L34.2176851,704.335026 L34.2176851,732.062141 L1.82987635,771.157335 L-36,771.157335 L-36,704.335026 Z M92.1878261,675.414678 C97.0926095,676.598699 102.944211,677.190706 109.742658,677.190706 C118.291136,677.190706 125.374628,675.958222 130.993346,673.493217 C136.612064,671.028211 140.986571,667.41092 144.117,662.641235 C147.247428,657.87155 148.812619,652.661048 148.812619,647.009572 C148.812619,642.199806 147.638726,637.851041 145.290905,633.963146 C142.943083,630.075252 139.190639,626.818688 134.033458,624.193357 C128.876278,621.568026 120.337962,618.972795 108.418253,616.407586 C103.602209,615.405552 100.552094,614.32337 99.2678153,613.16101 C97.9434032,612.038731 97.2812071,610.776187 97.2812071,609.373338 C97.2812071,607.449431 98.0838691,605.816139 99.6892171,604.473413 C101.294565,603.130686 103.682484,602.459333 106.853047,602.459333 C110.705882,602.459333 113.725897,603.361151 115.913184,605.164813 C118.10047,606.968476 119.535229,609.854292 120.217502,613.82235 L145.923007,612.319305 C144.799264,603.180749 141.277584,596.517318 135.357864,592.328813 C129.438143,588.140308 120.839627,586.046087 109.562058,586.046087 C102.670535,586.046087 96.8791552,586.693998 92.1878261,587.989834 L92.1878261,631.484035 L92.1878261,635.739288 C95.9790644,637.164037 100.365796,638.435763 105.34804,639.554472 C112.652374,641.157727 117.307813,642.861161 119.314498,644.664823 C121.321183,646.468485 122.32451,648.512606 122.32451,650.797245 C122.32451,653.202128 121.271016,655.316389 119.163997,657.140092 C117.056978,658.963796 114.057029,659.875633 110.16406,659.875633 C104.946679,659.875633 100.93337,658.092038 98.1240106,654.524795 C96.3982615,652.320319 95.2544683,649.113856 94.6925965,644.90531 L92.1878261,645.062017 L92.1878261,675.414678 Z M303.941133,761.643943 L303.941133,712.246329 L278.336469,712.246329 L278.336469,761.005823 L245.236294,712.246329 L225.478375,712.246329 L219.871487,718.067887 L219.871487,761.643943 L245.416186,761.643943 L245.416186,751.987421 L251.984442,761.643943 L303.941133,761.643943 Z M298.649063,636.274169 L259.270121,677.160805 C260.120362,677.180739 260.986553,677.190706 261.868684,677.190706 C270.417162,677.190706 277.500654,675.958222 283.119372,673.493217 C288.73809,671.028211 293.112597,667.41092 296.243026,662.641235 C299.373454,657.87155 300.938645,652.661048 300.938645,647.009572 C300.938645,643.131415 300.175457,639.55297 298.649063,636.274169 Z M235.466175,631.484035 L270.203729,631.484035 L270.203729,618.683892 C267.277725,617.922513 264.05791,617.163746 260.544279,616.407586 C255.728235,615.405552 252.67812,614.32337 251.393841,613.16101 C250.069429,612.038731 249.407233,610.776187 249.407233,609.373338 C249.407233,607.449431 250.209895,605.816139 251.815243,604.473413 C253.420591,603.130686 255.80851,602.459333 258.979073,602.459333 C262.831908,602.459333 265.851923,603.361151 268.03921,605.164813 C268.869027,605.849091 269.590533,606.689124 270.203729,607.684916 L270.203729,586.500275 C267.558851,586.197483 264.720305,586.046087 261.688084,586.046087 C252.497467,586.046087 245.263476,587.19841 239.985894,589.50309 C234.708313,591.807769 230.755203,594.974152 228.126446,599.002331 C225.497688,603.03051 224.183329,607.309134 224.183329,611.838331 C224.183329,618.73233 226.751848,624.403761 231.888961,628.852795 C232.936445,629.767119 234.128849,630.644199 235.466175,631.484035 Z M92.1878261,800.38618 L145.810132,800.38618 L145.810132,780.42545 L98.9525433,780.42545 L98.9525433,763.049995 L141.196277,763.049995 L141.196277,745.073313 L98.9525433,745.073313 L98.9525433,731.064728 L144.491888,731.064728 L144.491888,712.246329 L92.1878261,712.246329 L92.1878261,800.38618 Z" id="Combined-Shape-Copy" fill="#000000"></path>
    </g>
</svg>