<?xml version="1.0" encoding="UTF-8"?>
<svg width="375px" height="813px" viewBox="0 0 375 813" version="1.1" xmlns="http://www.w3.org/2000/svg" xmlns:xlink="http://www.w3.org/1999/xlink">
    <!-- Generator: Sketch 52.3 (67297) - http://www.bohemiancoding.com/sketch -->
    <title>ericBackground2</title>
    <desc>Created with Sketch.</desc>
    <g id="ericBackground2" stroke="none" stroke-width="1" fill="none" fill-rule="evenodd">
        <rect id="Rectangle" fill="#000000" x="19.0542857" y="142.167118" width="173.605714" height="64.617252"></rect>
        <rect id="Rectangle-Copy" fill="#000000" x="192.66" y="32" width="145.024286" height="110.167118"></rect>
        <polygon id="Path-2" fill="#000000" points="209.005313 206.78437 35.35744 381.21563 192.797914 381.21563 192.797914 206.78437"></polygon>
        <polygon id="Path-3" fill="#000000" points="0 380.21563 0 555 83.2690768 555 83.2690768 380.21563"></polygon>
        <polygon id="Path-4" fill="#000000" points="192.717603 532.509367 369.441429 532.509367 192.717603 354.026032"></polygon>
        <polygon id="Path-5" fill="#000000" points="300.340485 179.10125 300.340485 245.817533 338.139022 245.817533 370.5 206.78437 370.5 179.10125"></polygon>
        <polygon id="Path-6" fill="#000000" points="338.053578 247.031786 298.585565 293.646906 298.585565 443.889454 370.5 443.889454 458.532776 346.115193 458.532776 286.400267 370.5 286.400267 338.053578 286.400267"></polygon>
        <polygon id="Path-9" fill="#000000" points="370.5 445.785327 370.5 556 516.650815 556 516.650815 492.899379 404.171965 492.899379 443.575407 445.785327"></polygon>
        <polygon id="Path" fill="#000000" points="375 557 177.902296 761.643943 375 761.643943"></polygon>
        <polygon id="Path-5" fill="#000000" points="-36 704.335026 -36 771.157335 1.82987635 771.157335 34.2176851 732.062141 34.2176851 704.335026"></polygon>
        <polygon id="Path-7" fill="#000000" points="270.203729 632.484035 270.203729 578.07676 92.1878261 578.07676 92.1878261 632.484035 92.1878261 813 177.86026 812.744156 177.86026 632.484035"></polygon>
        <path d="M128.057504,509.50824 L152,516.706658 C150.391764,523.385223 147.85883,528.963942 144.401122,533.44298 C140.943414,537.922018 136.651498,541.301241 131.525245,543.580751 C126.398993,545.860262 119.875682,547 111.955119,547 C102.345908,547 94.4958229,545.610319 88.4046283,542.830916 C82.3134338,540.051513 77.0565906,535.162637 72.6339411,528.16414 C68.2112916,521.165643 66,512.207701 66,501.290046 C66,486.733173 69.8898629,475.545743 77.6697055,467.727423 C85.449548,459.909102 96.4557493,456 110.68864,456 C121.825675,456 130.58038,458.239485 136.953015,462.718523 C143.325651,467.197561 148.059826,474.075981 151.15568,483.353988 L127.032258,488.692815 C126.187934,486.01339 125.303417,484.053841 124.378682,482.814107 C122.850857,480.734553 120.981311,479.134921 118.769986,478.015162 C116.558661,476.895402 114.086035,476.335531 111.352034,476.335531 C105.160324,476.335531 100.416099,478.814961 97.1192146,483.773896 C94.6264485,487.453106 93.3800842,493.231778 93.3800842,501.110086 C93.3800842,510.86799 94.8676803,517.556453 97.8429173,521.175676 C100.818154,524.794898 104.999506,526.604483 110.387097,526.604483 C115.613864,526.604483 119.564035,525.144818 122.237728,522.225445 C124.911421,519.306072 126.851326,515.067046 128.057504,509.50824 Z" id="C" fill="#000000"></path>
        <path d="M218,169 L218,81 L263.551318,81 C271.997962,81 278.453514,81.7203202 282.918169,83.1609823 C287.382824,84.6016443 290.982649,87.2728318 293.717753,91.1746248 C296.452857,95.0764179 297.820388,99.8285304 297.820388,105.431105 C297.820388,110.313349 296.774629,114.525221 294.683079,118.066849 C292.591529,121.608476 289.715691,124.479753 286.055479,126.680764 C283.722596,128.081408 280.524986,129.241924 276.462552,130.162347 C279.720543,131.242843 282.093613,132.323323 283.581831,133.40382 C284.587384,134.124151 286.045413,135.664836 287.955964,138.025921 C289.866514,140.387006 291.143547,142.207815 291.787101,143.488404 L305,169 L274.10957,169 L259.509015,142.107776 C257.658798,138.626176 256.009716,136.365171 254.56172,135.324693 C252.590836,133.964068 250.358542,133.283765 247.864771,133.283765 L245.451456,133.283765 L245.451456,169 L218,169 Z M245.451456,116.656207 L256.975035,116.656207 C258.22192,116.656207 260.635211,116.256029 264.214979,115.455662 C266.024974,115.095496 267.503115,114.175087 268.649445,112.694407 C269.795775,111.213726 270.368932,109.51297 270.368932,107.592087 C270.368932,104.750782 269.463948,102.569812 267.653953,101.049113 C265.843958,99.5284144 262.44524,98.7680764 257.457698,98.7680764 L245.451456,98.7680764 L245.451456,116.656207 Z" id="R" fill="#000000"></path>
        <path d="M275.976512,334 L303,334 L303,386.135389 C303,391.305209 302.192891,396.186639 300.578648,400.779826 C298.964405,405.373012 296.433469,409.389505 292.985765,412.829424 C289.538061,416.269342 285.921015,418.685203 282.13452,420.077078 C276.873283,422.025702 270.555909,423 263.182206,423 C258.917416,423 254.264082,422.701746 249.222064,422.105228 C244.180046,421.50871 239.965141,420.325634 236.577224,418.555965 C233.189307,416.786296 230.090406,414.271017 227.280427,411.010054 C224.470449,407.74909 222.547336,404.388757 221.511032,400.928954 C219.837002,395.361456 219,390.430316 219,386.135389 L219,334 L246.023488,334 L246.023488,387.38807 C246.023488,392.160212 247.348741,395.888391 249.999288,398.572721 C252.649835,401.257051 256.326667,402.599196 261.029893,402.599196 C265.693262,402.599196 269.350165,401.276935 272.000712,398.632373 C274.651259,395.987811 275.976512,392.239747 275.976512,387.38807 L275.976512,334 Z" id="U" fill="#000000"></path>
        <polygon id="L" fill="#000000" points="74 334 101.336207 334 101.336207 400.33015 144 400.33015 144 422 74 422"></polygon>
        <polygon id="E" fill="#000000" points="72 81 144.682848 81 144.682848 99.7885402 99.1812298 99.7885402 99.1812298 113.774898 141.389968 113.774898 141.389968 131.723056 99.1812298 131.723056 99.1812298 149.070941 146 149.070941 146 169 72 169"></polygon>
        <path d="M277.157895,531.473397 L246.120301,531.473397 L241.849624,546 L214,546 L247.142857,458 L276.857143,458 L310,546 L281.488722,546 L277.157895,531.473397 Z M271.443609,512.444748 L261.699248,480.810368 L252.015038,512.444748 L271.443609,512.444748 Z" id="A" fill="#000000"></path>
        <polygon id="I" fill="#000000" points="95 205 122 205 122 293 95 293"></polygon>
        <path d="M280.057504,256.50824 L304,263.706658 C302.391764,270.385223 299.85883,275.963942 296.401122,280.44298 C292.943414,284.922018 288.651498,288.301241 283.525245,290.580751 C278.398993,292.860262 271.875682,294 263.955119,294 C254.345908,294 246.495823,292.610319 240.404628,289.830916 C234.313434,287.051513 229.056591,282.162637 224.633941,275.16414 C220.211292,268.165643 218,259.207701 218,248.290046 C218,233.733173 221.889863,222.545743 229.669705,214.727423 C237.449548,206.909102 248.455749,203 262.68864,203 C273.825675,203 282.58038,205.239485 288.953015,209.718523 C295.325651,214.197561 300.059826,221.075981 303.15568,230.353988 L279.032258,235.692815 C278.187934,233.01339 277.303417,231.053841 276.378682,229.814107 C274.850857,227.734553 272.981311,226.134921 270.769986,225.015162 C268.558661,223.895402 266.086035,223.335531 263.352034,223.335531 C257.160324,223.335531 252.416099,225.814961 249.119215,230.773896 C246.626448,234.453106 245.380084,240.231778 245.380084,248.110086 C245.380084,257.86799 246.86768,264.556453 249.842917,268.175676 C252.818154,271.794898 256.999506,273.604483 262.387097,273.604483 C267.613864,273.604483 271.564035,272.144818 274.237728,269.225445 C276.911421,266.306072 278.851326,262.067046 280.057504,256.50824 Z" id="C" fill="#000000"></path>
        <path d="M68.7462897,646.528598 L94.6925965,644.90531 C95.2544683,649.113856 96.3982615,652.320319 98.1240106,654.524795 C100.93337,658.092038 104.946679,659.875633 110.16406,659.875633 C114.057029,659.875633 117.056978,658.963796 119.163997,657.140092 C121.271016,655.316389 122.32451,653.202128 122.32451,650.797245 C122.32451,648.512606 121.321183,646.468485 119.314498,644.664823 C117.307813,642.861161 112.652374,641.157727 105.34804,639.554472 C93.388198,636.869019 84.8599148,633.301829 79.7629351,628.852795 C74.6258216,624.403761 72.0573033,618.73233 72.0573033,611.838331 C72.0573033,607.309134 73.3716623,603.03051 76.0004196,599.002331 C78.6291769,594.974152 82.5822869,591.807769 87.8598684,589.50309 C93.1374498,587.19841 100.371441,586.046087 109.562058,586.046087 C120.839627,586.046087 129.438143,588.140308 135.357864,592.328813 C141.277584,596.517318 144.799264,603.180749 145.923007,612.319305 L120.217502,613.82235 C119.535229,609.854292 118.10047,606.968476 115.913184,605.164813 C113.725897,603.361151 110.705882,602.459333 106.853047,602.459333 C103.682484,602.459333 101.294565,603.130686 99.6892171,604.473413 C98.0838691,605.816139 97.2812071,607.449431 97.2812071,609.373338 C97.2812071,610.776187 97.9434032,612.038731 99.2678153,613.16101 C100.552094,614.32337 103.602209,615.405552 108.418253,616.407586 C120.337962,618.972795 128.876278,621.568026 134.033458,624.193357 C139.190639,626.818688 142.943083,630.075252 145.290905,633.963146 C147.638726,637.851041 148.812619,642.199806 148.812619,647.009572 C148.812619,652.661048 147.247428,657.87155 144.117,662.641235 C140.986571,667.41092 136.612064,671.028211 130.993346,673.493217 C125.374628,675.958222 118.291136,677.190706 109.742658,677.190706 C94.7326549,677.190706 84.3381828,674.30489 78.5589301,668.53317 C72.7796774,662.76145 69.50883,655.426666 68.7462897,646.528598 Z" id="S" fill="#000000"></path>
        <polygon id="N" fill="#000000" points="219.871487 712.246329 245.236294 712.246329 278.336469 761.005823 278.336469 712.246329 303.941133 712.246329 303.941133 800.38618 278.336469 800.38618 245.416186 751.987421 245.416186 800.38618 219.871487 800.38618"></polygon>
        <path d="M220.872316,646.528598 L246.818623,644.90531 C247.380494,649.113856 248.524288,652.320319 250.250037,654.524795 C253.059396,658.092038 257.072705,659.875633 262.290086,659.875633 C266.183055,659.875633 269.183004,658.963796 271.290023,657.140092 C273.397042,655.316389 274.450536,653.202128 274.450536,650.797245 C274.450536,648.512606 273.447209,646.468485 271.440524,644.664823 C269.433839,642.861161 264.7784,641.157727 257.474066,639.554472 C245.514224,636.869019 236.985941,633.301829 231.888961,628.852795 C226.751848,624.403761 224.183329,618.73233 224.183329,611.838331 C224.183329,607.309134 225.497688,603.03051 228.126446,599.002331 C230.755203,594.974152 234.708313,591.807769 239.985894,589.50309 C245.263476,587.19841 252.497467,586.046087 261.688084,586.046087 C272.965653,586.046087 281.564169,588.140308 287.48389,592.328813 C293.40361,596.517318 296.92529,603.180749 298.049033,612.319305 L272.343528,613.82235 C271.661255,609.854292 270.226496,606.968476 268.03921,605.164813 C265.851923,603.361151 262.831908,602.459333 258.979073,602.459333 C255.80851,602.459333 253.420591,603.130686 251.815243,604.473413 C250.209895,605.816139 249.407233,607.449431 249.407233,609.373338 C249.407233,610.776187 250.069429,612.038731 251.393841,613.16101 C252.67812,614.32337 255.728235,615.405552 260.544279,616.407586 C272.463988,618.972795 281.002304,621.568026 286.159484,624.193357 C291.316665,626.818688 295.069109,630.075252 297.416931,633.963146 C299.764752,637.851041 300.938645,642.199806 300.938645,647.009572 C300.938645,652.661048 299.373454,657.87155 296.243026,662.641235 C293.112597,667.41092 288.73809,671.028211 283.119372,673.493217 C277.500654,675.958222 270.417162,677.190706 261.868684,677.190706 C246.858681,677.190706 236.464209,674.30489 230.684956,668.53317 C224.905703,662.76145 221.634856,655.426666 220.872316,646.528598 Z" id="S" fill="#000000"></path>
        <polygon id="E" fill="#000000" points="71.7487771 712.246329 144.491888 712.246329 144.491888 731.064728 98.9525433 731.064728 98.9525433 745.073313 141.196277 745.073313 141.196277 763.049995 98.9525433 763.049995 98.9525433 780.42545 145.810132 780.42545 145.810132 800.38618 71.7487771 800.38618"></polygon>
    </g>
</svg>