<?xml version="1.0" encoding="UTF-8"?>
<svg width="1366px" height="768px" viewBox="0 0 1366 768" version="1.1" xmlns="http://www.w3.org/2000/svg" xmlns:xlink="http://www.w3.org/1999/xlink">
    <!-- Generator: Sketch 52.3 (67297) - http://www.bohemiancoding.com/sketch -->
    <title>WEBBROWSER Copy</title>
    <desc>Created with Sketch.</desc>
    <g id="WEBBROWSER-Copy" stroke="none" stroke-width="1" fill="none" fill-rule="evenodd">
        <rect id="Rectangle" fill="#FF0000" x="0" y="0" width="1366" height="768"></rect>
        <path d="M1172.38269,667.988937 L1132.78571,609.978082 L1132.78571,690.40837 L1090.18571,690.40837 L1090.18571,543.935323 L1132.48571,543.935323 L1172.38269,602.501311 L1172.38269,487.245567 L1328.79629,487.245567 L1328.79629,714.443751 L1172.38269,714.443751 L1172.38269,667.988937 Z M1115.2626,360.921336 L1136.03714,305.6961 L1185.43714,305.6961 L1240.53714,452.169146 L1193.13714,452.169146 L1185.93714,427.990103 L1173.64826,427.990103 L1173.64826,486.300338 L1001.81637,445.19029 L1001.81637,336.141955 L1115.2626,360.921336 Z M1152.47487,369.049389 L1169.16955,372.695908 L1160.23714,343.663193 L1152.47487,369.049389 Z M1173.64826,387.252926 L1173.64826,396.317555 L1176.43714,396.317555 L1173.64826,387.252926 Z M1149.9281,186.504093 L1364.52006,20 L1364.52006,301.913754 L1001.20536,301.913754 L1001.20536,371.283337 L844.368653,371.283337 L844.368653,418.592104 C848.492554,417.419155 851.87045,415.389345 854.502381,412.50266 C858.935736,407.640184 862.152371,400.579707 864.152381,391.321019 L903.852381,403.310627 C901.185701,414.434375 896.985743,423.726228 891.252381,431.186466 C885.519019,438.646704 878.402423,444.275103 869.902381,448.071831 C862.892611,451.202896 854.307407,453.042887 844.146585,453.591836 L682.260031,588.313121 L549.832651,588.313121 L549.832651,584.062717 L523.59619,585.59748 C522.462851,579.003162 520.079542,574.207367 516.44619,571.20995 C512.812839,568.212533 507.796222,566.713847 501.39619,566.713847 C498.36728,566.713847 495.768363,567.082858 493.599417,567.820888 L532.528602,597.280239 C538.221788,599.121923 542.894307,600.972687 546.54619,602.832541 C555.1129,607.195448 561.346171,612.60737 565.24619,619.068469 C566.198081,620.645451 567.033804,622.268058 567.753361,623.936295 L682.260031,710.588306 L356.830604,710.588306 L356.830604,464.322177 L466.072956,546.990457 C467.28183,546.355998 468.539574,545.753348 469.84619,545.182509 C478.612901,541.352476 490.629447,539.437488 505.89619,539.437488 C524.629617,539.437488 538.912808,542.91777 548.74619,549.878439 C549.113914,550.138736 549.476068,550.404785 549.832651,550.676586 L549.832651,442.713416 C546.632609,444.91526 543.352845,446.634495 539.993333,447.871138 C531.193289,451.134992 520.626728,452.766895 508.293333,452.766895 C501.159964,452.766895 493.376709,452.267333 484.943333,451.268194 C476.509958,450.269055 469.460028,448.287459 463.793333,445.323346 C458.126638,442.359234 452.943357,438.146261 448.243333,432.684301 C443.54331,427.222341 440.326675,421.593943 438.593333,415.798936 C435.793319,406.473639 434.393333,398.214214 434.393333,391.020413 L434.393333,303.6961 L479.593333,303.6961 L479.593333,393.118594 C479.593333,401.111706 481.809978,407.356231 486.243333,411.852357 C490.676689,416.348482 496.826627,418.596512 504.693333,418.596512 C512.493372,418.596512 518.609978,416.381787 523.043333,411.95227 C527.476689,407.522754 529.693333,401.244925 529.693333,393.118594 L529.693333,303.6961 L553.064262,303.6961 L553.064262,222.966038 L682.260031,222.966038 L682.260031,261.162404 L622.668664,315.01923 L574.893333,315.01923 L574.893333,358.834946 L622.511321,316.694621 L622.511321,371.014109 L682.260031,371.014109 L761.419728,371.014109 C762.50782,349.969876 768.901989,333.542424 780.602381,321.731335 C793.502445,308.709223 811.752263,302.198265 835.352381,302.198265 C838.397275,302.198265 841.334774,302.299675 844.164879,302.502495 L844.164879,220.237875 L807.849524,220.237875 L807.849524,73.7648285 L844.164879,73.7648285 L844.164879,47.6573776 L1171.70204,47.6573776 L1171.70204,72.4652956 C1186.7988,73.3261911 1198.92707,76.9901664 1208.08714,83.4572944 C1218.65386,90.9175324 1226.50378,102.374154 1231.63714,117.827504 L1191.63714,126.719797 C1190.23714,122.256976 1188.77048,118.993171 1187.23714,116.928284 C1184.7038,113.464602 1181.60383,110.800271 1177.93714,108.935212 C1175.98198,107.940716 1173.90362,107.211368 1171.70204,106.747166 L1171.70204,122.607845 L1139.81195,122.607845 C1137.16207,128.63061 1135.83714,136.895236 1135.83714,147.401871 C1135.83714,163.654532 1138.30378,174.794765 1143.23714,180.822904 C1145.16276,183.175847 1147.39308,185.069574 1149.9281,186.504093 Z M1118.09599,211.202957 C1111.9183,206.543086 1106.36538,200.296397 1101.43714,192.462815 C1094.10377,180.806193 1090.43714,165.885941 1090.43714,147.701611 C1090.43714,138.534822 1091.35912,130.170243 1093.20307,122.607845 L1001.20536,122.607845 L1001.20536,301.899587 L1118.09599,211.202957 Z M770.840952,590.928992 L770.840952,542.935323 L892.240952,542.935323 L892.240952,574.208218 L816.240952,574.208218 L816.240952,590.928992 L816.825294,590.928992 L816.240952,591.452506 L816.240952,597.48804 L886.740952,597.48804 L886.740952,627.362147 L816.240952,627.362147 L816.240952,655.935594 L951.390557,655.935594 L951.390557,743 L682.260031,743 L682.260031,590.928992 L770.840952,590.928992 Z M770.840952,632.126557 L744.265526,655.935594 L770.840952,655.935594 L770.840952,632.126557 Z M806.827464,371.014109 L844.164879,371.014109 L844.164879,337.081756 C841.750938,336.406522 839.180115,336.068908 836.452381,336.068908 C826.185663,336.068908 818.319075,340.198621 812.852381,348.45817 C809.41362,353.556429 807.405326,361.07502 806.827464,371.014109 Z M560.018679,172.005394 C561.400342,173.914565 562.409032,175.50432 563.044762,176.774679 L584.944762,219.237875 L533.744762,219.237875 L509.544762,174.476671 C509.08463,173.607174 508.632002,172.783416 508.18688,172.005394 L486.244762,172.005394 L486.244762,219.237875 L440.744762,219.237875 L440.744762,172.005394 L354.775216,172.005394 L354.775216,20 L621.831286,20 L621.831286,172.005394 L560.018679,172.005394 Z M153.336472,546.881715 C154.481359,546.287043 155.669677,545.720641 156.901429,545.182509 C165.668139,541.352476 177.684686,539.437488 192.951429,539.437488 C211.684856,539.437488 225.968046,542.91777 235.801429,549.878439 C245.634811,556.839107 251.484753,567.912732 253.351429,583.099645 L210.651429,585.59748 C209.51809,579.003162 207.13478,574.207367 203.501429,571.20995 C199.868077,568.212533 194.851461,566.713847 188.451429,566.713847 C183.184736,566.713847 179.218109,567.829535 176.551429,570.060946 C173.884749,572.292356 172.551429,575.006643 172.551429,578.203888 C172.551429,580.535212 173.651418,582.633373 175.851429,584.498432 C177.984773,586.430101 183.051389,588.228524 191.051429,589.893756 C210.851528,594.156749 225.034719,598.469634 233.601429,602.832541 C242.168138,607.195448 248.401409,612.60737 252.301429,619.068469 C256.201448,625.529568 258.151429,632.756565 258.151429,640.749677 C258.151429,650.141584 255.551455,658.800659 250.351429,666.727161 C245.151403,674.653664 237.884809,680.66506 228.551429,684.76153 C219.218049,688.858 207.4515,690.906205 193.251429,690.906205 C176.475807,690.906205 163.170874,688.73524 153.336472,684.393266 L153.336472,743 L0,743 L0,501.837596 L65.1092258,501.837596 L138.902857,446.295915 L138.902857,303.6961 L184.202857,303.6961 L184.202857,412.200314 L384.874417,261.162404 L355.029179,261.162404 L355.029179,501.837596 L153.336472,501.837596 L153.336472,546.881715 Z M153.336472,617.22672 L153.336472,638.186247 L168.251429,637.252708 C169.184767,644.246681 171.084748,649.575343 173.951429,653.238852 C178.618119,659.167077 185.284719,662.131145 193.951429,662.131145 C200.418128,662.131145 205.401411,660.615807 208.901429,657.585085 C212.401446,654.554364 214.151429,651.040777 214.151429,647.044221 C214.151429,643.247493 212.484779,639.850472 209.151429,636.853055 C205.818079,633.855638 198.084823,631.024786 185.951429,628.360415 C172.44531,625.326435 161.573703,621.615221 153.336472,617.22672 Z M132.951429,172.005394 L132.951429,72.7648285 L254.351429,72.7648285 L254.351429,104.037723 L178.351429,104.037723 L178.351429,127.317546 L248.851429,127.317546 L248.851429,157.191653 L178.351429,157.191653 L178.351429,172.005394 L354.775216,172.005394 L354.775216,261.162404 L35.0876588,261.162404 L35.0876588,172.005394 L132.951429,172.005394 Z M844.164879,371.014109 L844.164879,371.283337 L844.368653,371.283337 L844.368653,371.014109 L844.164879,371.014109 Z M132.951429,172.005394 L132.951429,219.237875 L256.551429,219.237875 L256.551429,186.066626 L178.351429,186.066626 L178.351429,172.005394 L132.951429,172.005394 Z M184.202857,412.200314 L138.902857,446.295915 L138.902857,450.169146 L254.902857,450.169146 L254.902857,414.100408 L184.202857,414.100408 L184.202857,412.200314 Z M153.336472,546.881715 C146.332889,550.519486 140.954583,555.215156 137.201429,560.968826 C132.83474,567.663058 130.651429,574.77349 130.651429,582.300337 C130.651429,593.757131 134.918053,603.182201 143.451429,610.57583 C146.162174,612.943013 149.457184,615.159974 153.336472,617.22672 L153.336472,546.881715 Z M153.336472,638.186247 L125.151429,639.95037 C126.418102,654.737627 131.851381,666.92694 141.451429,676.518675 C144.592414,679.65694 148.554089,682.281802 153.336472,684.393266 L153.336472,638.186247 Z M560.018679,172.005394 C559.082092,170.711225 557.974121,169.270282 556.694762,167.68256 C553.528079,163.752613 551.111437,161.188195 549.444762,159.989228 C546.978083,158.190778 543.044789,156.392354 537.644762,154.593904 C544.378129,153.061891 549.678076,151.130251 553.544762,148.798927 C559.611459,145.135417 564.378078,140.356274 567.844762,134.461354 C571.311446,128.566434 573.044762,121.555913 573.044762,113.429583 C573.044762,104.104285 570.778118,96.1945536 566.244762,89.70015 C561.711406,83.2057465 555.744799,78.7596446 548.344762,76.361711 C540.944725,73.9637774 530.244832,72.7648285 516.244762,72.7648285 L440.744762,72.7648285 L440.744762,172.005394 L486.244762,172.005394 L486.244762,159.789401 L490.244762,159.789401 C494.378116,159.789401 498.078079,160.921742 501.344762,163.186457 C503.38467,164.658448 505.66536,167.598071 508.18688,172.005394 L560.018679,172.005394 Z M486.244762,132.113389 L486.244762,102.339195 L506.144762,102.339195 C514.41147,102.339195 520.044747,103.604752 523.044762,106.135905 C526.044777,108.667057 527.544762,112.297207 527.544762,117.026465 C527.544762,120.22371 526.594771,123.054561 524.694762,125.519104 C522.794752,127.983647 520.344777,129.515637 517.344762,130.115121 C511.411399,131.447306 507.411439,132.113389 505.344762,132.113389 L486.244762,132.113389 Z M574.893333,358.834946 L549.832651,381.012811 L549.832651,442.713416 C552.66534,440.764334 555.435562,438.437087 558.143333,435.73166 C563.910029,429.969958 568.14332,423.242523 570.843333,415.549153 C573.543347,407.855782 574.893333,399.679618 574.893333,391.020413 L574.893333,358.834946 Z M574.893333,315.01923 L574.893333,303.6961 L553.064262,303.6961 L553.064262,315.01923 L574.893333,315.01923 Z M549.832651,584.062717 L566.29619,583.099645 C564.49932,568.480653 559.011525,557.673066 549.832651,550.676586 L549.832651,584.062717 Z M466.072958,546.99046 C459.170937,550.6129 453.862055,555.272323 450.14619,560.968826 C445.779502,567.663058 443.59619,574.77349 443.59619,582.300337 C443.59619,593.757131 447.862814,603.182201 456.39619,610.57583 C464.862899,617.969459 479.029424,623.897595 498.89619,628.360415 C511.029584,631.024786 518.76284,633.855638 522.09619,636.853055 C525.42954,639.850472 527.09619,643.247493 527.09619,647.044221 C527.09619,651.040777 525.346208,654.554364 521.84619,657.585085 C518.346173,660.615807 513.362889,662.131145 506.89619,662.131145 C498.22948,662.131145 491.56288,659.167077 486.89619,653.238852 C484.029509,649.575343 482.129528,644.246681 481.19619,637.252708 L438.09619,639.95037 C439.362863,654.737627 444.796142,666.92694 454.39619,676.518675 C463.996238,686.110409 481.262732,690.906205 506.19619,690.906205 C520.396261,690.906205 532.16281,688.858 541.49619,684.76153 C550.82957,680.66506 558.096164,674.653664 563.29619,666.727161 C568.496216,658.800659 571.09619,650.141584 571.09619,640.749677 C571.09619,634.70747 569.981923,629.103041 567.753361,623.936295 L532.528602,597.280239 C524.866526,594.80164 515.355748,592.339487 503.99619,589.893756 C495.99615,588.228524 490.929534,586.430101 488.79619,584.498432 C486.596179,582.633373 485.49619,580.535212 485.49619,578.203888 C485.49619,575.006643 486.82951,572.292356 489.49619,570.060946 C490.629245,569.112835 491.996984,568.36615 493.599417,567.820888 L466.072956,546.990457 Z M844.164879,73.7648285 L844.164879,122.607845 L844.164879,220.237875 L853.249524,220.237875 L853.249524,73.7648285 L844.164879,73.7648285 Z M844.368653,418.592104 C841.546049,419.394928 838.373963,419.796338 834.852381,419.796338 C825.919003,419.796338 818.985739,416.782314 814.052381,410.754176 C809.119023,404.726037 806.652381,393.585804 806.652381,377.333143 C806.652381,375.128042 806.710742,373.021698 806.827464,371.014109 L761.419728,371.014109 C761.308163,373.171831 761.252381,375.378089 761.252381,377.632883 C761.252381,395.817213 764.919011,410.737465 772.252381,422.394087 C779.585751,434.050709 788.30233,442.193569 798.402381,446.822913 C808.502431,451.452257 821.518968,453.766895 837.452381,453.766895 C839.754999,453.766895 841.9864,453.708542 844.146585,453.591836 L844.368653,453.407032 L844.368653,418.592104 Z M844.164879,337.081756 C845.762786,337.528727 847.291951,338.123636 848.752381,338.866483 C852.419066,340.731543 855.519035,343.395874 858.052381,346.859555 C859.585722,348.924443 861.052374,352.188248 862.452381,356.651069 L902.452381,347.758776 C897.319022,332.305426 889.4691,320.848804 878.902381,313.388566 C870.077957,307.158411 858.498874,303.529742 844.164879,302.502495 L844.164879,337.081756 Z M770.840952,590.928992 L770.840952,632.126557 L816.240952,591.452506 L816.240952,590.928992 L770.840952,590.928992 Z M770.840952,655.935594 L770.840952,689.40837 L894.440952,689.40837 L894.440952,656.23712 L816.240952,656.23712 L816.240952,655.935594 L770.840952,655.935594 Z M1149.9281,186.504093 L1118.09599,211.202957 C1121.1109,213.477123 1124.27461,215.373349 1127.58714,216.891642 C1137.68719,221.520986 1150.70373,223.835623 1166.63714,223.835623 C1179.77054,223.835623 1190.5871,221.937288 1199.08714,218.140559 C1207.58719,214.343831 1214.70378,208.715432 1220.43714,201.255194 C1226.1705,193.794957 1230.37046,184.503103 1233.03714,173.379356 L1193.33714,161.389747 C1191.33713,170.648436 1188.1205,177.708912 1183.68714,182.571388 C1179.25379,187.433865 1172.70385,189.865067 1164.03714,189.865067 C1158.5907,189.865067 1153.8877,188.744749 1149.9281,186.504093 Z M1093.20307,122.607845 L1139.81195,122.607845 C1140.47158,121.108614 1141.21331,119.748299 1142.03714,118.526898 C1147.50384,110.267349 1155.37042,106.137637 1165.63714,106.137637 C1167.7532,106.137637 1169.77483,106.340812 1171.70204,106.747166 L1171.70204,72.4652956 C1169.38375,72.3330941 1166.99545,72.2669935 1164.53714,72.2669935 C1140.93702,72.2669935 1122.68721,78.7779517 1109.78714,91.8000634 C1101.76431,99.8988032 1096.2363,110.168019 1093.20307,122.607845 Z M1115.2626,360.921336 L1080.93714,452.169146 L1127.23714,452.169146 L1134.33714,427.990103 L1173.64826,427.990103 L1173.64826,396.317555 L1144.13714,396.317555 L1152.47487,369.049389 L1115.2626,360.921336 Z M1169.16955,372.695908 L1173.64826,387.252926 L1173.64826,373.674167 L1169.16955,372.695908 Z M1172.38269,667.988937 L1187.68571,690.40837 L1230.38571,690.40837 L1230.38571,543.935323 L1187.68571,543.935323 L1187.68571,624.965092 L1172.38269,602.501311 L1172.38269,667.988937 Z" id="Combined-Shape" fill="#000000"></path>
    </g>
</svg>