<?xml version="1.0" encoding="UTF-8"?>
<svg width="1680px" height="950px" viewBox="0 0 1680 950" version="1.1" xmlns="http://www.w3.org/2000/svg" xmlns:xlink="http://www.w3.org/1999/xlink">
    <!-- Generator: Sketch 52.3 (67297) - http://www.bohemiancoding.com/sketch -->
    <title>first-desktop</title>
    <desc>Created with Sketch.</desc>
    <g id="first-desktop" stroke="none" stroke-width="1" fill="none" fill-rule="evenodd">
        <polygon id="E" fill="#000000" points="67 87 236.920712 87 236.920712 130.768759 130.545307 130.768759 130.545307 163.350614 229.222492 163.350614 229.222492 205.161664 130.545307 205.161664 130.545307 245.574352 240 245.574352 240 292 67 292"></polygon>
        <path d="M60,837.680739 L120.275188,833.905013 C121.580458,843.69398 124.237574,851.152129 128.246617,856.279683 C134.772965,864.576998 144.09618,868.725594 156.216541,868.725594 C165.260196,868.725594 172.229299,866.604683 177.12406,862.362797 C182.018821,858.120911 184.466165,853.203194 184.466165,847.609499 C184.466165,842.295488 182.135362,837.540918 177.473684,833.345646 C172.812007,829.150375 161.997077,825.188233 145.028571,821.459103 C117.244974,815.21281 97.4331419,806.915619 85.5924812,796.567282 C73.6585869,786.218946 67.6917293,773.027345 67.6917293,756.992084 C67.6917293,746.457291 70.7450822,736.505324 76.8518797,727.135884 C82.9586772,717.766444 92.142044,710.401522 104.402256,705.040897 C116.662467,699.680272 133.467562,697 154.818045,697 C181.016672,697 200.991661,701.871103 214.743609,711.613456 C228.495557,721.355809 236.676679,736.854775 239.287218,758.110818 L179.571429,761.60686 C177.986458,752.377263 174.653409,745.664929 169.57218,741.469657 C164.490952,737.274385 157.475233,735.176781 148.524812,735.176781 C141.159362,735.176781 135.612049,736.738331 131.882707,739.861478 C128.153365,742.984624 126.288722,746.783619 126.288722,751.258575 C126.288722,754.521564 127.827052,757.45821 130.903759,760.068602 C133.887233,762.772221 140.972876,765.289346 152.160902,767.620053 C179.851266,773.586661 199.686406,779.623101 211.666917,785.729551 C223.647428,791.836002 232.364634,799.410685 237.818797,808.453826 C243.27296,817.496967 246,827.612081 246,838.799472 C246,851.944657 242.363946,864.064149 235.091729,875.158311 C227.819513,886.252474 217.657208,894.666198 204.604511,900.399736 C191.551814,906.133274 175.09634,909 155.237594,909 C120.368247,909 96.2211198,902.287666 82.7954887,888.862797 C69.3698577,875.437928 61.7714374,858.377412 60,837.680739 Z" id="S" fill="#000000"></path>
        <path d="M676.623488,393 L740,393 L740,515.430295 C740,527.570659 738.107136,539.033793 734.321352,549.82004 C730.535568,560.606287 724.599922,570.038275 716.514235,578.116287 C708.428548,586.194299 699.945715,591.867499 691.06548,595.136059 C678.726629,599.712043 663.910881,602 646.617794,602 C636.615846,602 625.702669,601.299605 613.877936,599.898794 C602.053203,598.497982 592.168249,595.719748 584.222776,591.564008 C576.277303,587.408268 569.009641,581.501602 562.419573,573.843834 C555.829504,566.186065 551.319348,558.294947 548.888968,550.170241 C544.96297,537.096003 543,525.516136 543,515.430295 L543,393 L606.376512,393 L606.376512,518.371984 C606.376512,529.578474 609.484548,538.333414 615.700712,544.637064 C621.916876,550.940715 630.539921,554.092493 641.570107,554.092493 C652.506816,554.092493 661.083124,550.987408 667.299288,544.777145 C673.515452,538.566881 676.623488,529.765249 676.623488,518.371984 L676.623488,393 Z" id="U" fill="#000000"></path>
        <polygon id="I" fill="#000000" points="1042 87 1106 87 1106 292 1042 292"></polygon>
        <polygon id="E" fill="#000000" points="988 701 1157.92071 701 1157.92071 744.768759 1051.54531 744.768759 1051.54531 777.350614 1150.22249 777.350614 1150.22249 819.161664 1051.54531 819.161664 1051.54531 859.574352 1161 859.574352 1161 906 988 906"></polygon>
        <path d="M1542.71053,569.159618 L1470.61278,569.159618 L1460.69236,603 L1396,603 L1472.9881,398 L1542.0119,398 L1619,603 L1552.77068,603 L1542.71053,569.159618 Z M1529.43672,524.831514 L1506.80138,451.13779 L1484.30576,524.831514 L1529.43672,524.831514 Z" id="A" fill="#000000"></path>
    </g>
</svg>