<?xml version="1.0" encoding="UTF-8"?>
<svg width="1536px" height="1971px" viewBox="0 0 1536 1971" version="1.1" xmlns="http://www.w3.org/2000/svg" xmlns:xlink="http://www.w3.org/1999/xlink">
    <!-- Generator: Sketch 52.3 (67297) - http://www.bohemiancoding.com/sketch -->
    <title>first-tablet</title>
    <desc>Created with Sketch.</desc>
    <g id="first-tablet" stroke="none" stroke-width="1" fill="none" fill-rule="evenodd">
        <polygon id="E" fill="#000000" points="70 183 325.372168 183 325.372168 248.759891 165.501618 248.759891 165.501618 297.712142 313.802589 297.712142 313.802589 360.530696 165.501618 360.530696 165.501618 421.248295 330 421.248295 330 491 70 491"></polygon>
        <polygon id="E" fill="#000000" points="631 1588 886.372168 1588 886.372168 1653.75989 726.501618 1653.75989 726.501618 1702.71214 874.802589 1702.71214 874.802589 1765.5307 726.501618 1765.5307 726.501618 1826.24829 891 1826.24829 891 1896 631 1896"></polygon>
        <polygon id="I" fill="#000000" points="1271 183 1367 183 1367 491 1271 491"></polygon>
        <polygon id="L" fill="#000000" points="647 651.333333 741.89569 651.333333 741.89569 883.488859 890 883.488859 890 959.333333 647 959.333333"></polygon>
        <path d="M1180,1326.02111 L1270.41278,1320.35752 C1272.37069,1335.04097 1276.35636,1346.22819 1282.36992,1353.91953 C1292.15945,1366.3655 1306.14427,1372.58839 1324.32481,1372.58839 C1337.89029,1372.58839 1348.34395,1369.40702 1355.68609,1363.0442 C1363.02823,1356.68137 1366.69925,1349.30479 1366.69925,1340.91425 C1366.69925,1332.94323 1363.20304,1325.81138 1356.21053,1319.51847 C1349.21801,1313.22556 1332.99562,1307.28235 1307.54286,1301.68865 C1265.86746,1292.31921 1236.14971,1279.87343 1218.38872,1264.35092 C1200.48788,1248.82842 1191.53759,1229.04102 1191.53759,1204.98813 C1191.53759,1189.18594 1196.11762,1174.25799 1205.27782,1160.20383 C1214.43802,1146.14967 1228.21307,1135.10228 1246.60338,1127.06135 C1264.9937,1119.02041 1290.20134,1115 1322.22707,1115 C1361.52501,1115 1391.48749,1122.30666 1412.11541,1136.92018 C1432.74334,1151.53371 1445.01502,1174.78216 1448.93083,1206.66623 L1359.35714,1211.91029 C1356.97969,1198.06589 1351.98011,1187.99739 1344.35827,1181.70449 C1336.73643,1175.41158 1326.21285,1172.26517 1312.78722,1172.26517 C1301.73904,1172.26517 1293.41807,1174.6075 1287.82406,1179.29222 C1282.23005,1183.97694 1279.43308,1189.67543 1279.43308,1196.38786 C1279.43308,1201.28235 1281.74058,1205.68732 1286.35564,1209.6029 C1290.83085,1213.65833 1301.45931,1217.43402 1318.24135,1220.93008 C1359.7769,1229.87999 1389.52961,1238.93465 1407.50038,1248.09433 C1425.47114,1257.254 1438.54695,1268.61603 1446.7282,1282.18074 C1454.90944,1295.74545 1459,1310.91812 1459,1327.69921 C1459,1347.41699 1453.54592,1365.59622 1442.63759,1382.23747 C1431.72927,1398.87871 1416.48581,1411.4993 1396.90677,1420.0996 C1377.32772,1428.69991 1352.64451,1433 1322.85639,1433 C1270.55237,1433 1234.33168,1422.9315 1214.19323,1402.7942 C1194.05479,1382.65689 1182.65716,1357.06612 1180,1326.02111 Z" id="S" fill="#000000"></path>
        <path d="M281.479663,1299.98484 L365,1325.13975 C359.389874,1348.47803 350.554058,1367.97289 338.492286,1383.62492 C326.430515,1399.27694 311.458715,1411.08566 293.576438,1419.05142 C275.69416,1427.01718 252.938427,1431 225.308555,1431 C191.788051,1431 164.404033,1426.14375 143.15568,1416.43111 C121.907327,1406.71847 103.569502,1389.63427 88.141655,1365.17798 C72.7138079,1340.7217 65,1309.41812 65,1271.26632 C65,1220.39724 78.5692893,1181.30271 105.708275,1153.98154 C132.847261,1126.66038 171.240986,1113 220.890603,1113 C259.740727,1113 290.280394,1120.82589 312.510519,1136.47792 C334.740644,1152.12994 351.255205,1176.16661 362.054698,1208.58866 L277.903226,1227.24522 C274.95791,1217.88196 271.872386,1211.0343 268.646564,1206.70204 C263.316944,1199.43503 256.79527,1193.84511 249.081346,1189.9321 C241.367423,1186.0191 232.741983,1184.06262 223.204769,1184.06262 C201.605783,1184.06262 185.056158,1192.72701 173.5554,1210.05603 C164.859704,1222.91305 160.511921,1243.10665 160.511921,1270.63744 C160.511921,1304.73649 165.70121,1328.10936 176.079944,1340.75676 C186.458677,1353.40415 201.044787,1359.72775 219.83871,1359.72775 C238.07162,1359.72775 251.851286,1354.62695 261.178121,1344.42518 C270.504955,1334.22342 277.272069,1319.41012 281.479663,1299.98484 Z" id="C" fill="#000000"></path>
    </g>
</svg>