<?xml version="1.0" encoding="UTF-8"?>
<svg width="1680px" height="950px" viewBox="0 0 1680 950" version="1.1" xmlns="http://www.w3.org/2000/svg" xmlns:xlink="http://www.w3.org/1999/xlink">
    <!-- Generator: Sketch 52.3 (67297) - http://www.bohemiancoding.com/sketch -->
    <title>first-desktop</title>
    <desc>Created with Sketch.</desc>
    <g id="first-desktop" stroke="none" stroke-width="1" fill="none" fill-rule="evenodd">
        <polygon id="E" fill="#000000" points="60 87 229.920712 87 229.920712 130.768759 123.545307 130.768759 123.545307 163.350614 222.222492 163.350614 222.222492 205.161664 123.545307 205.161664 123.545307 245.574352 233 245.574352 233 292 60 292"></polygon>
        <path d="M60,837.680739 L120.275188,833.905013 C121.580458,843.69398 124.237574,851.152129 128.246617,856.279683 C134.772965,864.576998 144.09618,868.725594 156.216541,868.725594 C165.260196,868.725594 172.229299,866.604683 177.12406,862.362797 C182.018821,858.120911 184.466165,853.203194 184.466165,847.609499 C184.466165,842.295488 182.135362,837.540918 177.473684,833.345646 C172.812007,829.150375 161.997077,825.188233 145.028571,821.459103 C117.244974,815.21281 97.4331419,806.915619 85.5924812,796.567282 C73.6585869,786.218946 67.6917293,773.027345 67.6917293,756.992084 C67.6917293,746.457291 70.7450822,736.505324 76.8518797,727.135884 C82.9586772,717.766444 92.142044,710.401522 104.402256,705.040897 C116.662467,699.680272 133.467562,697 154.818045,697 C181.016672,697 200.991661,701.871103 214.743609,711.613456 C228.495557,721.355809 236.676679,736.854775 239.287218,758.110818 L179.571429,761.60686 C177.986458,752.377263 174.653409,745.664929 169.57218,741.469657 C164.490952,737.274385 157.475233,735.176781 148.524812,735.176781 C141.159362,735.176781 135.612049,736.738331 131.882707,739.861478 C128.153365,742.984624 126.288722,746.783619 126.288722,751.258575 C126.288722,754.521564 127.827052,757.45821 130.903759,760.068602 C133.887233,762.772221 140.972876,765.289346 152.160902,767.620053 C179.851266,773.586661 199.686406,779.623101 211.666917,785.729551 C223.647428,791.836002 232.364634,799.410685 237.818797,808.453826 C243.27296,817.496967 246,827.612081 246,838.799472 C246,851.944657 242.363946,864.064149 235.091729,875.158311 C227.819513,886.252474 217.657208,894.666198 204.604511,900.399736 C191.551814,906.133274 175.09634,909 155.237594,909 C120.368247,909 96.2211198,902.287666 82.7954887,888.862797 C69.3698577,875.437928 61.7714374,858.377412 60,837.680739 Z" id="S" fill="#000000"></path>
        <path d="M630.290154,393 L693.666667,393 L693.666667,515.430295 C693.666667,527.570659 691.773803,539.033793 687.988019,549.82004 C684.202235,560.606287 678.266588,570.038275 670.180902,578.116287 C662.095215,586.194299 653.612381,591.867499 644.732147,595.136059 C632.393295,599.712043 617.577548,602 600.28446,602 C590.282512,602 579.369336,601.299605 567.544603,599.898794 C555.71987,598.497982 545.834915,595.719748 537.889442,591.564008 C529.94397,587.408268 522.676308,581.501602 516.08624,573.843834 C509.496171,566.186065 504.986015,558.294947 502.555635,550.170241 C498.629636,537.096003 496.666667,525.516136 496.666667,515.430295 L496.666667,393 L560.043179,393 L560.043179,518.371984 C560.043179,529.578474 563.151214,538.333414 569.367378,544.637064 C575.583542,550.940715 584.206588,554.092493 595.236773,554.092493 C606.173483,554.092493 614.749791,550.987408 620.965955,544.777145 C627.182119,538.566881 630.290154,529.765249 630.290154,518.371984 L630.290154,393 Z" id="U" fill="#000000"></path>
        <polygon id="I" fill="#000000" points="1040.66667 87 1104.66667 87 1104.66667 292 1040.66667 292"></polygon>
        <polygon id="E" fill="#000000" points="968 701 1137.92071 701 1137.92071 744.768759 1031.54531 744.768759 1031.54531 777.350614 1130.22249 777.350614 1130.22249 819.161664 1031.54531 819.161664 1031.54531 859.574352 1141 859.574352 1141 906 968 906"></polygon>
        <g id="Group-2" transform="translate(1395.000000, 395.000000)">
            <polygon id="Path" fill="#000000" points="147.330359 171.935736 75.2490102 171.935736 65.33084 205.773381 0.653195396 205.773381 77.6237833 0.789961275 146.631897 0.789961275 223.602484 205.773381 157.388222 205.773381"></polygon>
            <polygon id="Path" fill="#FFFFFF" points="134.059568 127.611217 111.429377 53.9234534 88.9388788 127.611217"></polygon>
        </g>
    </g>
</svg>