<?xml version="1.0" encoding="UTF-8"?>
<svg width="375px" height="813px" viewBox="0 0 375 813" version="1.1" xmlns="http://www.w3.org/2000/svg" xmlns:xlink="http://www.w3.org/1999/xlink">
    <!-- Generator: Sketch 52.3 (67297) - http://www.bohemiancoding.com/sketch -->
    <title>first-mobile</title>
    <desc>Created with Sketch.</desc>
    <g id="first-mobile" stroke="none" stroke-width="1" fill="none" fill-rule="evenodd">
        <polygon id="L" fill="#000000" points="74 314 101.336207 314 101.336207 380.33015 144 380.33015 144 402 74 402"></polygon>
        <polygon id="E" fill="#000000" points="72 81 144.682848 81 144.682848 99.7885402 99.1812298 99.7885402 99.1812298 113.774898 141.389968 113.774898 141.389968 131.723056 99.1812298 131.723056 99.1812298 149.070941 146 149.070941 146 169 72 169"></polygon>
        <path d="M277.157895,501.473397 L246.120301,501.473397 L241.849624,516 L214,516 L247.142857,428 L276.857143,428 L310,516 L281.488722,516 L277.157895,501.473397 Z M271.443609,482.444748 L261.699248,450.810368 L252.015038,482.444748 L271.443609,482.444748 Z" id="A" fill="#000000"></path>
        <path d="M280.057504,246.50824 L304,253.706658 C302.391764,260.385223 299.85883,265.963942 296.401122,270.44298 C292.943414,274.922018 288.651498,278.301241 283.525245,280.580751 C278.398993,282.860262 271.875682,284 263.955119,284 C254.345908,284 246.495823,282.610319 240.404628,279.830916 C234.313434,277.051513 229.056591,272.162637 224.633941,265.16414 C220.211292,258.165643 218,249.207701 218,238.290046 C218,223.733173 221.889863,212.545743 229.669705,204.727423 C237.449548,196.909102 248.455749,193 262.68864,193 C273.825675,193 282.58038,195.239485 288.953015,199.718523 C295.325651,204.197561 300.059826,211.075981 303.15568,220.353988 L279.032258,225.692815 C278.187934,223.01339 277.303417,221.053841 276.378682,219.814107 C274.850857,217.734553 272.981311,216.134921 270.769986,215.015162 C268.558661,213.895402 266.086035,213.335531 263.352034,213.335531 C257.160324,213.335531 252.416099,215.814961 249.119215,220.773896 C246.626448,224.453106 245.380084,230.231778 245.380084,238.110086 C245.380084,247.86799 246.86768,254.556453 249.842917,258.175676 C252.818154,261.794898 256.999506,263.604483 262.387097,263.604483 C267.613864,263.604483 271.564035,262.144818 274.237728,259.225445 C276.911421,256.306072 278.851326,252.067046 280.057504,246.50824 Z" id="C" fill="#000000"></path>
        <path d="M69,606.482511 L94.9463068,604.859223 C95.5081786,609.067768 96.6519718,612.274231 98.3777209,614.478708 C101.18708,618.045951 105.20039,619.829546 110.41777,619.829546 C114.310739,619.829546 117.310688,618.917708 119.417707,617.094005 C121.524727,615.270302 122.57822,613.156041 122.57822,610.751157 C122.57822,608.466518 121.574893,606.422398 119.568208,604.618736 C117.561523,602.815073 112.906084,601.11164 105.601751,599.508384 C93.6419083,596.822931 85.1136251,593.255741 80.0166453,588.806708 C74.8795318,584.357674 72.3110136,578.686242 72.3110136,571.792244 C72.3110136,567.263047 73.6253726,562.984423 76.2541299,558.956244 C78.8828871,554.928064 82.8359972,551.761682 88.1135787,549.457002 C93.3911601,547.152323 100.625151,546 109.815768,546 C121.093337,546 129.691853,548.094221 135.611574,552.282726 C141.531295,556.471231 145.052974,563.134662 146.176718,572.273218 L120.471212,573.776262 C119.788939,569.808205 118.354181,566.922389 116.166894,565.118726 C113.979607,563.315064 110.959592,562.413246 107.106757,562.413246 C103.936195,562.413246 101.548275,563.084599 99.9429273,564.427326 C98.3375794,565.770052 97.5349174,567.403344 97.5349174,569.327251 C97.5349174,570.730099 98.1971135,571.992644 99.5215256,573.114923 C100.805804,574.277283 103.855919,575.359464 108.671963,576.361499 C120.591672,578.926708 129.129988,581.521939 134.287169,584.14727 C139.444349,586.7726 143.196794,590.029164 145.544615,593.917059 C147.892436,597.804953 149.066329,602.153719 149.066329,606.963485 C149.066329,612.614961 147.501139,617.825463 144.37071,622.595148 C141.240282,627.364833 136.865774,630.982124 131.247056,633.447129 C125.628338,635.912135 118.544847,637.144619 109.996369,637.144619 C94.9863652,637.144619 84.5918931,634.258802 78.8126404,628.487082 C73.0333877,622.715363 69.7625403,615.380579 69,606.482511 Z" id="S" fill="#000000"></path>
        <polygon id="N" fill="#000000" points="220 662 245.364808 662 278.464982 710.759495 278.464982 662 304.069646 662 304.069646 750.139851 278.464982 750.139851 245.5447 701.741092 245.5447 750.139851 220 750.139851"></polygon>
    </g>
</svg>