<?xml version="1.0" encoding="UTF-8"?>
<svg width="1024px" height="750px" viewBox="0 0 1024 750" version="1.1" xmlns="http://www.w3.org/2000/svg" xmlns:xlink="http://www.w3.org/1999/xlink">
    <!-- Generator: Sketch 52.3 (67297) - http://www.bohemiancoding.com/sketch -->
    <title>first-desktop</title>
    <desc>Created with Sketch.</desc>
    <g id="first-desktop" stroke="none" stroke-width="1" fill="none" fill-rule="evenodd">
        <polygon id="E" fill="#000000" points="62.6505543 73.2507418 184.012632 73.2507418 184.012632 104.534169 108.036373 104.534169 108.036373 127.821832 178.51435 127.821832 178.51435 157.706001 108.036373 157.706001 108.036373 186.590699 186.211945 186.590699 186.211945 219.77312 62.6505543 219.77312"></polygon>
        <path d="M54.8529909,640.627311 L97.9395275,637.92874 C98.8725739,644.925069 100.771961,650.255525 103.637747,653.920269 C108.302979,659.85049 114.967497,662.815556 123.631499,662.815556 C130.096178,662.815556 135.077905,661.299708 138.576829,658.267965 C142.075754,655.236223 143.825189,651.721453 143.825189,647.723551 C143.825189,643.925544 142.15906,640.527379 138.826751,637.528952 C135.494443,634.530525 127.763602,631.698721 115.633998,629.033453 C95.7734383,624.569129 81.6113386,618.638996 73.1472744,611.242877 C64.616564,603.846759 60.3512728,594.418514 60.3512728,582.957862 C60.3512728,575.428479 62.5339023,568.315652 66.8992267,561.619166 C71.2645512,554.92268 77.829101,549.658855 86.593073,545.827532 C95.357045,541.996209 107.369838,540.080576 122.631812,540.080576 C141.359387,540.080576 155.638116,543.562031 165.468427,550.525043 C175.298737,557.488056 181.146851,568.56541 183.012944,583.757438 L140.326283,586.256114 C139.193298,579.659576 136.810733,574.862165 133.178516,571.863739 C129.5463,568.865312 124.53125,567.366122 118.133218,567.366122 C112.86817,567.366122 108.902782,568.482186 106.236935,570.714348 C103.571088,572.94651 102.238184,575.661711 102.238184,578.860033 C102.238184,581.192142 103.33783,583.291009 105.537153,585.156697 C107.669831,587.089016 112.734864,588.888045 120.732405,590.553838 C140.526319,594.818266 154.70508,599.132604 163.269114,603.496981 C171.833147,607.861357 178.064471,613.275102 181.963272,619.738377 C185.862074,626.201652 187.811445,633.431083 187.811445,641.426887 C187.811445,650.821957 185.212283,659.483948 180.013882,667.413121 C174.81548,675.342293 167.551156,681.355714 158.220691,685.453563 C148.890227,689.551413 137.127353,691.600307 122.931718,691.600307 C98.0060487,691.600307 80.7449483,686.802897 71.1478991,677.207932 C61.55085,667.612967 56.1192682,655.419548 54.8529909,640.627311 Z" id="S" fill="#000000"></path>
        <path d="M397.954353,304.259791 L443.140233,304.259791 L443.140233,391.613514 C443.140233,400.275635 441.790668,408.454554 439.091498,416.150515 C436.392328,423.846477 432.16036,430.576178 426.395465,436.33982 C420.630571,442.103462 414.582522,446.151277 408.251135,448.483387 C399.45384,451.74834 388.89058,453.380792 376.561037,453.380792 C369.429897,453.380792 361.649072,452.881062 353.218331,451.881586 C344.78759,450.882111 337.739863,448.899848 332.074938,445.934737 C326.410013,442.969626 321.228351,438.755234 316.529795,433.291435 C311.83124,427.827635 308.61561,422.197341 306.88281,416.400383 C304.083671,407.071945 302.684122,398.809738 302.684122,391.613514 L302.684122,304.259791 L347.870003,304.259791 L347.870003,393.712402 C347.870003,401.708206 350.085955,407.954835 354.517925,412.452475 C358.949896,416.950114 365.097913,419.198901 372.962162,419.198901 C380.759764,419.198901 386.874459,416.98343 391.30643,412.552422 C395.7384,408.121413 397.954353,401.84147 397.954353,393.712402 L397.954353,304.259791 Z" id="U" fill="#000000"></path>
        <polygon id="I" fill="#000000" points="602.713228 73.2507418 648.099046 73.2507418 648.099046 219.77312 602.713228 219.77312"></polygon>
        <polygon id="E" fill="#000000" points="565.716217 542.579253 687.078295 542.579253 687.078295 573.86268 611.102035 573.86268 611.102035 597.150343 681.580013 597.150343 681.580013 627.034512 611.102035 627.034512 611.102035 655.91921 689.277608 655.91921 689.277608 689.101631 565.716217 689.101631"></polygon>
        <path d="M913.370442,426.594982 L861.786561,426.594982 L854.688778,450.782169 L808.403241,450.782169 L863.48603,304.259791 L912.870598,304.259791 L967.953386,450.782169 L920.568193,450.782169 L913.370442,426.594982 Z M903.87341,394.911767 L887.67847,342.239671 L871.583499,394.911767 L903.87341,394.911767 Z" id="A" fill="#000000"></path>
    </g>
</svg>