<?xml version="1.0" encoding="UTF-8"?>
<svg width="375px" height="813px" viewBox="0 0 375 813" version="1.1" xmlns="http://www.w3.org/2000/svg" xmlns:xlink="http://www.w3.org/1999/xlink">
    <!-- Generator: Sketch 52.3 (67297) - http://www.bohemiancoding.com/sketch -->
    <title>first-mobile</title>
    <desc>Created with Sketch.</desc>
    <g id="first-mobile" stroke="none" stroke-width="1" fill="none" fill-rule="evenodd">
        <polygon id="L" fill="#000000" points="74 344 101.336207 344 101.336207 410.33015 144 410.33015 144 432 74 432"></polygon>
        <polygon id="E" fill="#000000" points="72 111 144.682848 111 144.682848 129.78854 99.1812298 129.78854 99.1812298 143.774898 141.389968 143.774898 141.389968 161.723056 99.1812298 161.723056 99.1812298 179.070941 146 179.070941 146 199 72 199"></polygon>
        <path d="M277.157895,531.473397 L246.120301,531.473397 L241.849624,546 L214,546 L247.142857,458 L276.857143,458 L310,546 L281.488722,546 L277.157895,531.473397 Z M271.443609,512.444748 L261.699248,480.810368 L252.015038,512.444748 L271.443609,512.444748 Z" id="A" fill="#000000"></path>
        <path d="M280.057504,276.50824 L304,283.706658 C302.391764,290.385223 299.85883,295.963942 296.401122,300.44298 C292.943414,304.922018 288.651498,308.301241 283.525245,310.580751 C278.398993,312.860262 271.875682,314 263.955119,314 C254.345908,314 246.495823,312.610319 240.404628,309.830916 C234.313434,307.051513 229.056591,302.162637 224.633941,295.16414 C220.211292,288.165643 218,279.207701 218,268.290046 C218,253.733173 221.889863,242.545743 229.669705,234.727423 C237.449548,226.909102 248.455749,223 262.68864,223 C273.825675,223 282.58038,225.239485 288.953015,229.718523 C295.325651,234.197561 300.059826,241.075981 303.15568,250.353988 L279.032258,255.692815 C278.187934,253.01339 277.303417,251.053841 276.378682,249.814107 C274.850857,247.734553 272.981311,246.134921 270.769986,245.015162 C268.558661,243.895402 266.086035,243.335531 263.352034,243.335531 C257.160324,243.335531 252.416099,245.814961 249.119215,250.773896 C246.626448,254.453106 245.380084,260.231778 245.380084,268.110086 C245.380084,277.86799 246.86768,284.556453 249.842917,288.175676 C252.818154,291.794898 256.999506,293.604483 262.387097,293.604483 C267.613864,293.604483 271.564035,292.144818 274.237728,289.225445 C276.911421,286.306072 278.851326,282.067046 280.057504,276.50824 Z" id="C" fill="#000000"></path>
        <path d="M69,636.482511 L94.9463068,634.859223 C95.5081786,639.067768 96.6519718,642.274231 98.3777209,644.478708 C101.18708,648.045951 105.20039,649.829546 110.41777,649.829546 C114.310739,649.829546 117.310688,648.917708 119.417707,647.094005 C121.524727,645.270302 122.57822,643.156041 122.57822,640.751157 C122.57822,638.466518 121.574893,636.422398 119.568208,634.618736 C117.561523,632.815073 112.906084,631.11164 105.601751,629.508384 C93.6419083,626.822931 85.1136251,623.255741 80.0166453,618.806708 C74.8795318,614.357674 72.3110136,608.686242 72.3110136,601.792244 C72.3110136,597.263047 73.6253726,592.984423 76.2541299,588.956244 C78.8828871,584.928064 82.8359972,581.761682 88.1135787,579.457002 C93.3911601,577.152323 100.625151,576 109.815768,576 C121.093337,576 129.691853,578.094221 135.611574,582.282726 C141.531295,586.471231 145.052974,593.134662 146.176718,602.273218 L120.471212,603.776262 C119.788939,599.808205 118.354181,596.922389 116.166894,595.118726 C113.979607,593.315064 110.959592,592.413246 107.106757,592.413246 C103.936195,592.413246 101.548275,593.084599 99.9429273,594.427326 C98.3375794,595.770052 97.5349174,597.403344 97.5349174,599.327251 C97.5349174,600.730099 98.1971135,601.992644 99.5215256,603.114923 C100.805804,604.277283 103.855919,605.359464 108.671963,606.361499 C120.591672,608.926708 129.129988,611.521939 134.287169,614.14727 C139.444349,616.7726 143.196794,620.029164 145.544615,623.917059 C147.892436,627.804953 149.066329,632.153719 149.066329,636.963485 C149.066329,642.614961 147.501139,647.825463 144.37071,652.595148 C141.240282,657.364833 136.865774,660.982124 131.247056,663.447129 C125.628338,665.912135 118.544847,667.144619 109.996369,667.144619 C94.9863652,667.144619 84.5918931,664.258802 78.8126404,658.487082 C73.0333877,652.715363 69.7625403,645.380579 69,636.482511 Z" id="S" fill="#000000"></path>
        <polygon id="N" fill="#000000" points="220 692 245.364808 692 278.464982 740.759495 278.464982 692 304.069646 692 304.069646 780.139851 278.464982 780.139851 245.5447 731.741092 245.5447 780.139851 220 780.139851"></polygon>
    </g>
</svg>