<?xml version="1.0" encoding="UTF-8"?>
<svg width="375px" height="813px" viewBox="0 0 375 813" version="1.1" xmlns="http://www.w3.org/2000/svg" xmlns:xlink="http://www.w3.org/1999/xlink">
    <!-- Generator: Sketch 52.3 (67297) - http://www.bohemiancoding.com/sketch -->
    <title>ericBackground3 Copy 2</title>
    <desc>Created with Sketch.</desc>
    <g id="ericBackground3-Copy-2" stroke="none" stroke-width="1" fill="none" fill-rule="evenodd">
        <path d="M103.053578,263.226016 L103.053578,268.400267 L135.5,268.400267 L223.422117,268.400267 L223.422117,88.3658517 L223.422117,34.0449044 L401.290545,34.0449044 L401.290545,88.3658517 L309.023577,88.3658517 L309.023577,268.339954 L223.532776,268.595062 L223.532776,328.115193 L157.445752,401.515241 C158.564968,402.484155 159.506058,403.631193 160.269034,404.956362 C161.63281,407.325026 162.437734,410.252487 162.683829,413.738833 L149.364005,415.553774 C149.343497,413.564506 149.169182,412.087959 148.841056,411.124087 C148.836779,411.111523 148.832463,411.098991 148.82811,411.08649 L140.381583,420.467688 L140.381583,427.785327 L169.14379,427.785327 L169.14379,398.511782 L183.10961,398.511782 L183.10961,427.785327 L208.575407,427.785327 L169.171965,474.899379 L281.650815,474.899379 L281.650815,538 L135.5,538 L135.5,443.608462 L126.415763,443.608462 L126.415763,425.889454 L117.156485,425.889454 L117.156485,443.608462 L79.8117587,443.608462 L79.8117587,433.980044 L103.190665,433.980044 L103.190665,426.812563 L81.5036532,426.812563 L81.5036532,425.889454 L71.4445712,425.889454 L71.4445712,443.608462 L64.2394725,443.608462 L107.709989,487.511782 L131.183829,487.511782 L131.183829,511.219334 L134.441429,514.509367 L131.183829,514.509367 L131.183829,532.608462 L93.8391024,532.608462 L93.8391024,522.980044 L117.218009,522.980044 L117.218009,515.812563 L95.5309969,515.812563 L95.5309969,514.509367 L85.4719149,514.509367 L85.4719149,532.608462 L62.2468173,532.608462 C57.9401551,532.608462 54.6486841,532.239325 52.3723055,531.50104 C50.095927,530.762755 48.2604961,529.393872 46.8659579,527.39435 C45.4714197,525.394828 44.774161,522.95955 44.774161,520.088442 C44.774161,517.986233 45.1505852,516.126554 45.9034432,514.509367 L36.0993563,514.509367 L36.0993563,532.608462 L22.133536,532.608462 L22.133536,514.509367 L12.0436923,514.509367 L12.0436923,532.608462 L-0.96851478,532.608462 L-13.2875037,514.509367 L-17.9489835,514.509367 L-17.9489835,532.608462 L-31.0842374,532.608462 L-31.0842374,514.509367 L-38.9214595,514.509367 C-39.3589194,517.608725 -40.2738526,520.406636 -41.6662687,522.903139 C-43.6965523,526.543294 -46.6701554,529.306694 -50.5871671,531.193422 C-53.6428465,532.649484 -57.7546218,533.377504 -62.9226163,533.377504 C-67.9060397,533.377504 -71.6332973,532.926337 -74.1045011,532.023989 C-76.5757049,531.121641 -78.6264656,529.721996 -80.2568449,527.825014 C-81.8872241,525.928032 -83.1125536,523.523515 -83.9328702,520.611391 L-70.4899992,518.211977 C-69.9362854,519.914134 -68.9980624,521.216367 -67.6753019,522.118715 C-66.3525414,523.021064 -64.6657907,523.472231 -62.6149992,523.472231 C-59.5593198,523.472231 -57.1240414,522.410962 -55.309091,520.288393 C-53.4941405,518.165824 -52.5866788,514.807703 -52.5866788,510.21393 C-52.5866788,505.333046 -53.5043943,501.846753 -55.3398527,499.754946 C-57.1753111,497.663139 -59.7336351,496.617251 -63.0149015,496.617251 C-64.573503,496.617251 -66.0603046,496.842834 -67.4753507,497.294008 C-68.8903969,497.745183 -70.5104978,498.514218 -72.3357023,499.601137 L-72.3357023,503.846254 L-63.0149015,503.846254 L-63.0149015,513.228579 L-84.5481046,513.228579 L-84.5481046,494.002504 C-80.4260137,491.19292 -76.7807865,489.280586 -73.6123136,488.265444 C-70.4438407,487.250302 -66.6858217,486.742739 -62.3381437,486.742739 C-56.9855779,486.742739 -52.6225844,487.655327 -49.2490324,489.480532 C-46.3767623,491.034526 -44.0545666,493.235166 -42.2823969,496.082503 L-42.2823969,363.21563 L-151.730923,363.21563 L-151.730923,538 L-235,538 L-235,363.21563 L-199.64256,363.21563 L-97.5449308,260.657402 L-97.5449308,220.511782 L-84.4096769,220.511782 L-73.5018902,236.505895 L-67.5214933,230.498519 L-67.5214933,220.511782 L-57.5796078,220.511782 L-25.9946868,188.78437 L-42.2020861,188.78437 L-42.2020861,220.511782 L-8.7973722,220.511782 L-8.7973722,265.608462 L-42.2020861,265.608462 L-42.2020861,309.511782 L-14.0268644,309.511782 L-14.0268644,354.608462 L-23.8831548,354.608462 L39.7806314,418.906102 C40.3539416,418.729631 40.9725524,418.565802 41.6364657,418.414614 C39.9753246,417.8609 38.7653757,417.307195 38.0065829,416.753481 C37.493885,416.384339 36.7504842,415.594796 35.7763583,414.384829 C34.8022323,413.174862 34.1511158,412.241766 33.8229891,411.585512 L27.0861727,398.511782 L42.8361727,398.511782 L50.2805087,412.293032 C51.2238727,414.07722 52.0646847,415.2359 52.8029696,415.769106 C53.8078574,416.466375 54.9460296,416.815004 56.2175204,416.815004 L57.4479891,416.815004 L57.4479891,398.511782 L63.5855652,398.511782 L63.5855652,333.729177 L60.8163973,329.660708 L60.8163973,354.608462 L47.6811434,354.608462 L47.6811434,309.511782 L60.8163973,309.511782 L63.5855652,313.572219 L63.5855652,275.646906 L72.0848985,265.608462 L48.3579012,265.608462 L48.3579012,255.980044 L71.7368075,255.980044 L71.7368075,248.812563 L50.0497958,248.812563 L50.0497958,239.614809 L71.7368075,239.614809 L71.7368075,230.724672 L47.6811434,230.724672 L47.6811434,220.511782 L65.3404854,220.511782 L65.3404854,161.10125 L135.5,161.10125 L135.5,188.78437 L109.266562,220.426617 C111.331961,219.970697 113.597917,219.742739 116.064444,219.742739 C121.150407,219.742739 125.359594,220.552789 128.69213,222.172915 C132.024666,223.79304 134.726543,226.356491 136.797843,229.863344 C138.869142,233.370198 139.904776,237.758826 139.904776,243.02936 C139.904776,250.391701 137.854015,256.123578 133.752432,260.225161 C129.650849,264.326744 123.939481,266.377504 116.618155,266.377504 C111.198465,266.377504 106.676961,265.327016 103.053578,263.226016 Z M93.2675163,240.589967 C93.53352,236.572093 94.3905477,233.186273 95.8386141,230.432436 C96.3267566,229.504119 96.8746822,228.632485 97.4823926,227.817533 L85.7026278,227.817533 L85.7026278,249.524751 L93.2675163,240.589967 Z M-84.4096769,247.462891 L-81.6598916,244.7007 L-84.4096769,240.660708 L-84.4096769,247.462891 Z M-42.2020861,230.724672 L-42.2020861,239.614809 L-22.7631925,239.614809 L-22.7631925,230.724672 L-42.2020861,230.724672 Z M-42.2020861,248.812563 L-42.2020861,255.980044 L-22.7631925,255.980044 L-22.7631925,248.812563 L-42.2020861,248.812563 Z M-42.2020861,319.724672 L-42.2020861,328.614809 L-27.9926847,328.614809 L-27.9926847,319.724672 L-42.2020861,319.724672 Z M-40.5134773,337.812563 L-33.4166547,344.980044 L-27.9926847,344.980044 L-27.9926847,337.812563 L-40.5134773,337.812563 Z M47.0278042,426.225429 L55.2237665,434.502993 L57.4479891,434.502993 L57.4479891,425.336001 L51.5725008,425.336001 C50.9367555,425.336001 49.706299,425.541077 47.8810946,425.951235 C47.57847,426.01176 47.2940402,426.103158 47.0278042,426.225429 Z M71.4753329,514.509367 L64.0846492,514.509367 C63.4901537,514.611516 62.7647514,514.758805 61.9084383,514.951235 C60.9855822,515.135806 60.2319276,515.607481 59.647452,516.366274 C59.0629764,517.125067 58.770743,517.99664 58.770743,518.98102 C58.770743,520.437082 59.2321642,521.554747 60.1550204,522.334047 C61.0778766,523.113348 62.8107694,523.502993 65.3537508,523.502993 L71.4753329,523.502993 L71.4753329,514.509367 Z M61.400848,621.608462 L60.524161,621.608462 C56.2174988,621.608462 52.9260279,621.239325 50.6496493,620.50104 C48.3732707,619.762755 46.5378398,618.393872 45.1433016,616.39435 C43.7487634,614.394828 43.0515048,611.95955 43.0515048,609.088442 C43.0515048,606.586476 43.5847025,604.428051 44.6511141,602.6131 C45.7175257,600.79815 47.1838196,599.326729 49.0500399,598.198794 C50.239499,597.481017 51.8698538,596.886296 53.9411532,596.414614 C52.2800121,595.8609 51.0700632,595.307195 50.3112704,594.753481 C49.7985725,594.384339 49.0551717,593.594796 48.0810458,592.384829 C47.1069198,591.174862 46.4558033,590.241766 46.1276766,589.585512 L39.3908602,576.511782 L55.1408602,576.511782 L62.5851962,590.293032 C63.5285602,592.07722 64.3693722,593.2359 65.1076571,593.769106 C66.1125449,594.466375 67.2507171,594.815004 68.5222079,594.815004 L69.7526766,594.815004 L69.7526766,576.511782 L83.7492587,576.511782 L83.7492587,598.404402 L93.0930808,588.702835 C93.3891501,587.903517 93.7249821,587.146718 94.100577,586.432436 C95.8745117,583.058884 98.4379626,580.43391 101.791007,578.557436 C102.430631,578.199481 103.10029,577.875669 103.799985,577.585998 L140,540 L140,744.643943 L-57.0977036,744.643943 L61.400848,621.608462 Z M34.7458407,614.484035 L34.7458407,621.608462 L14.043204,621.608462 C9.96212888,621.608462 6.66553098,621.054756 4.15331139,619.947329 C1.6410918,618.839901 -0.435303452,617.250562 -2.07593666,615.179262 C-2.25625753,614.951607 -2.43112797,614.719865 -2.60054804,614.484035 L-14.0422452,614.484035 L-14.0422452,621.608462 L-51.3869718,621.608462 L-51.3869718,614.484035 L-57.1397402,614.484035 L-57.1397402,794.744156 L-142.812174,795 L-142.812174,614.484035 L-142.812174,560.07676 L35.2037287,560.07676 L35.2037287,614.484035 L34.7458407,614.484035 Z M-42.2020861,354.608462 L-42.2823969,354.608462 L-42.2823969,363.21563 L-42.2020861,363.21563 L-42.2020861,354.608462 Z M-42.2020861,344.980044 L-42.2020861,337.812563 L-42.2823969,337.812563 L-42.2823969,344.980044 L-42.2020861,344.980044 Z M-215.945714,124.167118 L-42.34,124.167118 L-42.34,188.78437 L-215.945714,188.78437 L-215.945714,124.167118 Z M-42.34,14 L102.684286,14 L102.684286,124.167118 L-42.34,124.167118 L-42.34,14 Z M506,14 L506,218.319235 L309.065578,218.319235 L506,14 Z M-271,687.335026 L-200.782315,687.335026 L-200.782315,715.062141 L-233.170124,754.157335 L-271,754.157335 L-271,687.335026 Z M223.422117,268.400267 L223.422117,268.595393 L223.532776,268.595062 L223.532776,268.400267 L223.422117,268.400267 Z M309.034458,243.126396 L401.683816,270.369509 L401.683816,351.954879 L309.034458,322.160044 L309.034458,243.126396 Z M401.660167,352.63994 L486.600272,352.63994 L486.600272,517.303631 L401.660167,517.303631 L401.660167,352.63994 Z M188.83129,621.608462 L174.896231,621.608462 L174.896231,605.8277 L159.669181,605.8277 L159.669181,621.608462 L145.672599,621.608462 L145.672599,576.511782 L159.669181,576.511782 L159.669181,594.753481 L174.896231,594.753481 L174.896231,576.511782 L188.83129,576.511782 L188.83129,621.608462 Z M69.7526766,603.336001 L63.8771883,603.336001 C63.241443,603.336001 62.0109865,603.541077 60.1857821,603.951235 C59.2629259,604.135806 58.5092713,604.607481 57.9247958,605.366274 C57.3403202,606.125067 57.0480868,606.99664 57.0480868,607.98102 C57.0480868,609.437082 57.5095079,610.554747 58.4323641,611.334047 C59.3552203,612.113348 61.0881131,612.502993 63.6310946,612.502993 L69.7526766,612.502993 L69.7526766,603.336001 Z M225.683829,443.608462 L211.74877,443.608462 L211.74877,409.616762 L190.000235,409.616762 L190.000235,398.511782 L225.683829,398.511782 L225.683829,443.608462 Z M-43.8503507,443.608462 L-81.1950773,443.608462 L-81.1950773,433.980044 L-57.816171,433.980044 L-57.816171,426.812563 L-79.5031827,426.812563 L-79.5031827,417.614809 L-57.816171,417.614809 L-57.816171,408.724672 L-81.8718351,408.724672 L-81.8718351,398.511782 L-43.8503507,398.511782 L-43.8503507,443.608462 Z M-89.4699796,443.608462 L-102.482187,443.608462 L-119.462655,418.660708 L-119.462655,443.608462 L-132.597909,443.608462 L-132.597909,398.511782 L-119.462655,398.511782 L-102.574472,423.274965 L-102.574472,398.511782 L-89.4699796,398.511782 L-89.4699796,443.608462 Z M38.3603426,354.608462 L24.425284,354.608462 L24.425284,337.566469 L9.81346764,354.608462 L-8.70508705,354.608462 L7.72167077,337.597231 L-9.4433683,309.511782 L7.72167077,309.511782 L17.2270419,328.061098 L24.425284,320.524477 L24.425284,309.511782 L38.3603426,309.511782 L38.3603426,354.608462 Z M190.569327,265.608462 L176.634268,265.608462 L176.634268,249.8277 L161.407218,249.8277 L161.407218,265.608462 L147.410636,265.608462 L147.410636,220.511782 L161.407218,220.511782 L161.407218,238.753481 L176.634268,238.753481 L176.634268,220.511782 L190.569327,220.511782 L190.569327,265.608462 Z M125.969718,242.967837 C125.969718,238.415079 125.123779,235.144116 123.431876,233.154848 C121.739973,231.16558 119.437994,230.170962 116.52587,230.170962 C113.531714,230.170962 111.214355,231.145073 109.573722,233.093325 C107.933088,235.041577 107.112784,238.538124 107.112784,243.583071 C107.112784,247.828209 107.968977,250.929985 109.681388,252.888491 C111.393798,254.846997 113.716285,255.826235 116.648917,255.826235 C119.458501,255.826235 121.714338,254.831616 123.416495,252.842348 C125.118652,250.85308 125.969718,247.561609 125.969718,242.967837 Z M39.9907137,220.511782 L39.9907137,265.608462 L16.7656161,265.608462 C12.4589539,265.608462 9.16748293,265.239325 6.89110436,264.50104 C4.61472579,263.762755 2.77929493,262.393872 1.3847567,260.39435 C-0.00978151876,258.394828 -0.707040171,255.95955 -0.707040171,253.088442 C-0.707040171,250.586476 -0.173842378,248.428051 0.892569204,246.6131 C1.95898079,244.79815 3.42527472,243.326729 5.29149499,242.198794 C6.48095406,241.481017 8.11130885,240.886296 10.1826083,240.414614 C8.52146715,239.8609 7.31151831,239.307195 6.55272545,238.753481 C6.04002758,238.384339 5.29662681,237.594796 4.32250084,236.384829 C3.34837488,235.174862 2.69725834,234.241766 2.3691317,233.585512 L-4.3676847,220.511782 L11.3823153,220.511782 L18.8266512,234.293032 C19.7700153,236.07722 20.6108272,237.2359 21.3491122,237.769106 C22.354,238.466375 23.4921722,238.815004 24.763663,238.815004 L25.9941317,238.815004 L25.9941317,220.511782 L39.9907137,220.511782 Z M25.9941317,247.336001 L20.1186434,247.336001 C19.4828981,247.336001 18.2524416,247.541077 16.4272372,247.951235 C15.504381,248.135806 14.7507264,248.607481 14.1662508,249.366274 C13.5817753,250.125067 13.2895419,250.99664 13.2895419,251.98102 C13.2895419,253.437082 13.750963,254.554747 14.6738192,255.334047 C15.5966754,256.113348 17.3295682,256.502993 19.8725497,256.502993 L25.9941317,256.502993 L25.9941317,247.336001 Z M103.053578,263.226016 L103.053578,229.031786 L93.2675163,240.589967 C93.2076557,241.494136 93.1777255,242.430314 93.1777255,243.398501 C93.1777255,250.658302 95.2079786,256.303021 99.2685458,260.332827 C100.397149,261.45288 101.658825,262.417276 103.053578,263.226016 Z M85.7026278,249.524751 L72.0848985,265.608462 L85.7026278,265.608462 L85.7026278,249.524751 Z M63.5855652,313.572219 L63.5855652,333.729177 L77.7968661,354.608462 L90.8090731,354.608462 L90.8090731,309.511782 L77.7045809,309.511782 L77.7045809,334.274965 L63.5855652,313.572219 Z M63.5855652,398.511782 L63.5855652,425.889454 L71.4445712,425.889454 L71.4445712,398.511782 L63.5855652,398.511782 Z M81.5036532,425.889454 L117.156485,425.889454 L117.156485,398.511782 L79.1350008,398.511782 L79.1350008,408.724672 L103.190665,408.724672 L103.190665,417.614809 L81.5036532,417.614809 L81.5036532,425.889454 Z M126.415763,425.889454 L135.5,425.889454 L140.381583,420.467688 L140.381583,415.799868 C140.381583,413.051807 140.745593,411.098458 141.473624,409.93976 C142.201655,408.781063 143.344954,408.201723 144.903556,408.201723 C145.887935,408.201723 146.646717,408.396545 147.179923,408.786196 C147.949066,409.373173 148.498456,410.13993 148.82811,411.08649 L157.445752,401.515241 C156.564436,400.752274 155.57267,400.099756 154.47045,399.55768 C151.968484,398.327205 148.441176,397.711977 143.888419,397.711977 C139.581757,397.711977 136.049321,398.645073 133.291007,400.511294 C130.532692,402.377514 128.697261,404.653858 127.784659,407.340395 C126.872057,410.026932 126.415763,413.943885 126.415763,419.091372 L126.415763,425.889454 Z M-97.5449308,260.657402 L-97.5449308,265.608462 L-84.4096769,265.608462 L-84.4096769,247.462891 L-97.5449308,260.657402 Z M-81.6598916,244.7007 L-67.4292081,265.608462 L-54.4170011,265.608462 L-54.4170011,220.511782 L-57.5796078,220.511782 L-67.5214933,230.498519 L-67.5214933,245.274965 L-73.5018902,236.505895 L-81.6598916,244.7007 Z M-42.2020861,220.511782 L-46.8188566,220.511782 L-46.8188566,230.724672 L-42.2020861,230.724672 L-42.2020861,220.511782 Z M-42.2020861,239.614809 L-44.4502042,239.614809 L-44.4502042,248.812563 L-42.2020861,248.812563 L-42.2020861,239.614809 Z M-42.2020861,255.980044 L-46.1420988,255.980044 L-46.1420988,265.608462 L-42.2020861,265.608462 L-42.2020861,255.980044 Z M-42.2020861,309.511782 L-52.0483488,309.511782 L-52.0483488,319.724672 L-42.2020861,319.724672 L-42.2020861,309.511782 Z M-42.2020861,328.614809 L-49.6796964,328.614809 L-49.6796964,337.812563 L-42.2823969,337.812563 L-42.2823969,336.026032 L-42.2020861,336.107142 L-42.2020861,337.812563 L-40.5134773,337.812563 L-42.2020861,336.107142 L-42.2020861,328.614809 Z M-33.4166547,344.980044 L-42.2020861,344.980044 L-42.2020861,354.608462 L-23.8831548,354.608462 L-33.4166547,344.980044 Z M39.7806314,418.906102 C38.5653089,419.28019 37.5535544,419.711085 36.7453524,420.198794 C34.8791321,421.326729 33.4128382,422.79815 32.3464266,424.6131 C31.280015,426.428051 30.7468173,428.586476 30.7468173,431.088442 C30.7468173,433.95955 31.4440759,436.394828 32.8386141,438.39435 C34.2331523,440.393872 36.0685832,441.762755 38.3449618,442.50104 C40.6213404,443.239325 43.9128113,443.608462 48.2194735,443.608462 L64.2394725,443.608462 L55.2237665,434.502993 L51.3264071,434.502993 C48.7834256,434.502993 47.0505328,434.113348 46.1276766,433.334047 C45.2048204,432.554747 44.7433993,431.437082 44.7433993,429.98102 C44.7433993,428.99664 45.0356327,428.125067 45.6201083,427.366274 C46.0129216,426.856306 46.4821513,426.476026 47.0278042,426.225429 L39.7806314,418.906102 Z M107.709989,487.511782 L93.1623446,487.511782 L93.1623446,497.724672 L117.218009,497.724672 L117.218009,506.614809 L95.5309969,506.614809 L95.5309969,514.509367 L131.183829,514.509367 L131.183829,511.219334 L107.709989,487.511782 Z M85.4719149,514.509367 L85.4719149,487.511782 L71.4753329,487.511782 L71.4753329,505.815004 L70.2448641,505.815004 C68.9733734,505.815004 67.8352012,505.466375 66.8303133,504.769106 C66.0920284,504.2359 65.2512165,503.07722 64.3078524,501.293032 L56.8635165,487.511782 L41.1135165,487.511782 L47.8503329,500.585512 C48.1784595,501.241766 48.8295761,502.174862 49.803702,503.384829 C50.777828,504.594796 51.5212287,505.384339 52.0339266,505.753481 C52.7927195,506.307195 54.0026683,506.8609 55.6638094,507.414614 C53.59251,507.886296 51.9621552,508.481017 50.7726962,509.198794 C48.9064759,510.326729 47.440182,511.79815 46.3737704,513.6131 C46.2033824,513.903087 46.0466067,514.201843 45.9034432,514.509367 L64.0846492,514.509367 C64.7573023,514.393789 65.2623656,514.336001 65.5998446,514.336001 L71.4753329,514.336001 L71.4753329,514.509367 L85.4719149,514.509367 Z M36.0993563,514.509367 L36.0993563,487.511782 L22.133536,487.511782 L22.133536,514.509367 L36.0993563,514.509367 Z M12.0436923,514.509367 L12.0436923,487.511782 L-1.06079994,487.511782 L-1.06079994,512.274965 L-17.9489835,487.511782 L-31.0842374,487.511782 L-31.0842374,514.509367 L-17.9489835,514.509367 L-17.9489835,507.660708 L-13.2875037,514.509367 L12.0436923,514.509367 Z M-38.9214595,514.509367 C-38.7210585,513.089548 -38.6208585,511.606467 -38.6208585,510.060122 C-38.6208585,505.384317 -39.5488278,501.24178 -41.4047941,497.632387 C-41.6805753,497.096061 -41.9731095,496.579433 -42.2823969,496.082503 L-42.2823969,514.509367 L-38.9214595,514.509367 Z M61.400848,621.608462 L83.7492587,621.608462 L83.7492587,598.404402 L61.400848,621.608462 Z M93.0930808,588.702835 C91.9908148,591.678695 91.4396883,595.243896 91.4396883,599.398501 C91.4396883,606.658302 93.4699415,612.303021 97.5305087,616.332827 C101.591076,620.362632 107.374221,622.377504 114.880118,622.377504 C122.201444,622.377504 127.912812,620.326744 132.014395,616.225161 C136.115978,612.123578 138.166739,606.391701 138.166739,599.02936 C138.166739,593.758826 137.131105,589.370198 135.059806,585.863344 C132.988506,582.356491 130.286629,579.79304 126.954093,578.172915 C123.621556,576.552789 119.41237,575.742739 114.326407,575.742739 C110.277022,575.742739 106.768237,576.357154 103.799985,577.585998 L93.0930808,588.702835 Z M34.7458407,614.484035 L34.7458407,576.511782 L14.043204,576.511782 C11.5617462,576.511782 8.79321925,576.921934 5.73753991,577.742251 C3.50217717,578.33698 1.41040121,579.531548 -0.537850718,581.325991 C-2.48610265,583.120433 -4.0087925,585.345509 -5.10596595,588.001284 C-6.20313941,590.657059 -6.75171791,594.39457 -6.75171791,599.21393 C-6.75171791,602.290118 -6.38258097,605.202198 -5.64429603,607.950258 C-4.98715548,610.396282 -3.97258121,612.57419 -2.60054804,614.484035 L34.7458407,614.484035 Z M-14.0422452,614.484035 L-14.0422452,576.511782 L-52.0637296,576.511782 L-52.0637296,586.724672 L-28.0080656,586.724672 L-28.0080656,595.614809 L-49.6950773,595.614809 L-49.6950773,604.812563 L-28.0080656,604.812563 L-28.0080656,611.980044 L-51.3869718,611.980044 L-51.3869718,614.484035 L-14.0422452,614.484035 Z M-42.2823969,344.980044 L-51.371591,344.980044 L-51.371591,354.608462 L-42.2823969,354.608462 L-42.2823969,344.980044 Z M109.266562,220.426617 C107.141813,220.895638 105.229312,221.60591 103.529044,222.557436 C101.098674,223.917552 99.083133,225.670907 97.4823926,227.817533 L103.139022,227.817533 L109.266562,220.426617 Z M85.7026278,227.817533 L85.7026278,220.511782 L65.3404854,220.511782 L65.3404854,227.817533 L85.7026278,227.817533 Z M140.381583,427.785327 L135.5,427.785327 L135.5,443.608462 L140.381583,443.608462 L140.381583,427.785327 Z M169.14379,427.785327 L169.14379,443.608462 L183.10961,443.608462 L183.10961,427.785327 L169.14379,427.785327 Z M124.231681,598.967837 C124.231681,603.561609 123.380615,606.85308 121.678458,608.842348 C119.976301,610.831616 117.720464,611.826235 114.91088,611.826235 C111.978248,611.826235 109.655761,610.846997 107.94335,608.888491 C106.23094,606.929985 105.374747,603.828209 105.374747,599.583071 C105.374747,594.538124 106.195051,591.041577 107.835684,589.093325 C109.476318,587.145073 111.793677,586.170962 114.787833,586.170962 C117.699957,586.170962 120.001936,587.16558 121.693839,589.154848 C123.385742,591.144116 124.231681,594.415079 124.231681,598.967837 Z M20.8107821,611.395571 L17.3347079,611.395571 C13.7253148,611.395571 11.1413563,610.513744 9.58275475,608.750063 C8.02415321,606.986382 7.24486413,603.715419 7.24486413,598.937075 C7.24486413,595.327682 7.59349345,592.718089 8.29076256,591.108217 C8.98803167,589.498346 9.95188922,588.370428 11.1823641,587.724428 C12.412839,587.078429 14.4841074,586.755434 17.3962313,586.755434 L20.8107821,586.755434 L20.8107821,611.395571 Z M-57.1394132,591.431215 C-57.5290636,586.878458 -59.2004336,583.125566 -62.1535734,580.172426 C-65.1067131,577.219287 -70.4181835,575.742739 -78.0881437,575.742739 C-82.4563296,575.742739 -86.0759223,576.373348 -88.9470304,577.634585 C-91.8181385,578.895821 -94.0534677,580.746633 -95.6530851,583.187075 C-97.2527025,585.627517 -98.0524992,588.293506 -98.0524992,591.185122 C-98.0524992,593.646071 -97.4526516,595.871147 -96.2529386,597.860415 C-95.0532256,599.849682 -93.1357643,601.515925 -90.5004972,602.859194 C-87.8652301,604.202462 -83.5022366,605.53033 -77.4113859,606.842837 C-74.9504361,607.355534 -73.3918579,607.90924 -72.7356046,608.503969 C-72.0588434,609.078191 -71.7204679,609.724181 -71.7204679,610.441958 C-71.7204679,611.426338 -72.1306201,612.262023 -72.9509367,612.949038 C-73.7712533,613.636053 -74.9914559,613.979555 -76.6115812,613.979555 C-78.580341,613.979555 -80.1235385,613.518134 -81.2412199,612.595278 C-82.3589012,611.672422 -83.0920482,610.195874 -83.4406827,608.16559 L-96.5759367,608.934633 C-96.001715,613.610438 -94.2021725,617.019828 -91.177255,619.162905 C-88.1523375,621.305982 -83.7585827,622.377504 -77.9958585,622.377504 C-73.299546,622.377504 -69.6030497,621.787911 -66.9062589,620.608706 C-64.2094681,619.429501 -62.1894688,617.8094 -60.8462003,615.748354 C-59.5029319,613.687309 -58.8313077,611.498122 -58.8313077,609.180727 C-58.8313077,605.653366 -60.1437946,602.751539 -62.7688077,600.475161 C-65.373313,598.198782 -69.7311795,596.373605 -75.8425382,594.999575 C-79.5749788,594.179258 -81.9538612,593.307685 -82.979257,592.384829 C-84.0046527,591.461973 -84.5173429,590.416085 -84.5173429,589.247133 C-84.5173429,588.016658 -83.9790182,586.934882 -82.9023527,586.001772 C-81.8256871,585.068662 -80.2927435,584.602114 -78.3034757,584.602114 C-75.6374468,584.602114 -73.586686,585.514702 -72.151132,587.339907 C-71.2692916,588.467842 -70.6848248,590.108451 -70.397714,592.261782 L-57.1394132,591.431215 Z M179.818106,532.608462 L179.818106,521.472719 L165.606192,521.472719 L165.606192,487.511782 L151.671134,487.511782 L151.671134,521.472719 L137.45922,521.472719 L137.45922,532.608462 L179.818106,532.608462 Z M25.0558993,413.431215 C24.6662489,408.878458 22.9948789,405.125566 20.0417391,402.172426 C17.0885994,399.219287 11.777129,397.742739 4.10716881,397.742739 C-0.26101709,397.742739 -3.8806098,398.373348 -6.75171791,399.634585 C-9.62282601,400.895821 -11.8581552,402.746633 -13.4577726,405.187075 C-15.05739,407.627517 -15.8571867,410.293506 -15.8571867,413.185122 C-15.8571867,415.646071 -15.2573391,417.871147 -14.0576261,419.860415 C-12.8579131,421.849682 -10.9404518,423.515925 -8.3051847,424.859194 C-5.66991762,426.202462 -1.30692414,427.53033 4.78392663,428.842837 C7.24487643,429.355534 8.80345459,429.90924 9.45970788,430.503969 C10.1364691,431.078191 10.4748446,431.724181 10.4748446,432.441958 C10.4748446,433.426338 10.0646924,434.262023 9.24437584,434.949038 C8.42405924,435.636053 7.2038566,435.979555 5.58373131,435.979555 C3.61497147,435.979555 2.07177401,435.518134 0.954092641,434.595278 C-0.163588728,433.672422 -0.896735694,432.195874 -1.24537025,430.16559 L-14.3806242,430.934633 C-13.8064025,435.610438 -12.00686,439.019828 -8.98194251,441.162905 C-5.95702505,443.305982 -1.56327016,444.377504 4.19945397,444.377504 C8.89576651,444.377504 12.5922628,443.787911 15.2890536,442.608706 C17.9858444,441.429501 20.0058437,439.8094 21.3491122,437.748354 C22.6923806,435.687309 23.3640048,433.498122 23.3640048,431.180727 C23.3640048,427.653366 22.0515179,424.751539 19.4265048,422.475161 C16.8219995,420.198782 12.464133,418.373605 6.35277428,416.999575 C2.62033374,416.179258 0.241451284,415.307685 -0.783944468,414.384829 C-1.80934022,413.461973 -2.32203041,412.416085 -2.32203041,411.247133 C-2.32203041,410.016658 -1.78370571,408.934882 -0.707040171,408.001772 C0.369625368,407.068662 1.90256902,406.602114 3.89183678,406.602114 C6.55786574,406.602114 8.60862648,407.514702 10.0441805,409.339907 C10.9260209,410.467842 11.5104877,412.108451 11.7975985,414.261782 L25.0558993,413.431215 Z M192.322745,354.608462 L192.322745,309.511782 L178.387686,309.511782 L178.387686,320.524477 L171.189444,328.061098 L161.684073,309.511782 L144.519034,309.511782 L161.684073,337.597231 L145.257315,354.608462 L163.77587,354.608462 L178.387686,337.566469 L178.387686,354.608462 L192.322745,354.608462 Z M112.157706,316.956118 L109.942862,309.511782 L95.3618075,309.511782 L112.311515,354.608462 L127.507804,354.608462 L144.457511,309.511782 L130.214835,309.511782 L128.030753,316.956118 L112.157706,316.956118 Z M115.080069,326.707583 L125.016104,326.707583 L120.063468,342.919008 L115.080069,326.707583 Z M-59.7387785,309.511782 L-73.7353605,309.511782 L-73.7353605,327.815004 L-74.9658292,327.815004 C-76.23732,327.815004 -77.3754922,327.466375 -78.38038,326.769106 C-79.118665,326.2359 -79.9594769,325.07722 -80.902841,323.293032 L-88.3471769,309.511782 L-104.097177,309.511782 L-97.3603605,322.585512 C-97.0322338,323.241766 -96.3811173,324.174862 -95.4069913,325.384829 C-94.4328654,326.594796 -93.6894646,327.384339 -93.1767667,327.753481 C-92.4179739,328.307195 -91.208025,328.8609 -89.5468839,329.414614 C-91.6181833,329.886296 -93.2485381,330.481017 -94.4379972,331.198794 C-96.3042175,332.326729 -97.7705114,333.79815 -98.836923,335.6131 C-99.9033346,337.428051 -100.436532,339.586476 -100.436532,342.088442 C-100.436532,344.95955 -99.7392737,347.394828 -98.3447355,349.39435 C-96.9501973,351.393872 -95.1147664,352.762755 -92.8383878,353.50104 C-90.5620093,354.239325 -87.2705383,354.608462 -82.9638761,354.608462 L-59.7387785,354.608462 L-59.7387785,309.511782 Z M-73.7353605,336.336001 L-73.7353605,345.502993 L-79.8569425,345.502993 C-82.399924,345.502993 -84.1328168,345.113348 -85.055673,344.334047 C-85.9785292,343.554747 -86.4399503,342.437082 -86.4399503,340.98102 C-86.4399503,339.99664 -86.1477169,339.125067 -85.5632413,338.366274 C-84.9787658,337.607481 -84.2251112,337.135806 -83.302255,336.951235 C-81.4770506,336.541077 -80.2465941,336.336001 -79.6108488,336.336001 L-73.7353605,336.336001 Z" id="Combined-Shape" fill="#000000" transform="translate(117.500000, 404.500000) rotate(-180.000000) translate(-117.500000, -404.500000) "></path>
    </g>
</svg>