<?xml version="1.0" encoding="UTF-8"?>
<svg width="1024px" height="750px" viewBox="0 0 1024 750" version="1.1" xmlns="http://www.w3.org/2000/svg" xmlns:xlink="http://www.w3.org/1999/xlink">
    <!-- Generator: Sketch 52.3 (67297) - http://www.bohemiancoding.com/sketch -->
    <title>IPAD Copy 3</title>
    <desc>Created with Sketch.</desc>
    <g id="IPAD-Copy-3" stroke="none" stroke-width="1" fill="none" fill-rule="evenodd">
        <rect fill="#FF0000" x="0" y="0" width="1024" height="750"></rect>
        <path d="M943.062894,542.579253 L866.261194,453.647876 L881.608004,426.594982 L861.786561,426.594982 L854.688778,450.782169 L808.403241,450.782169 L863.48603,304.259791 L912.870598,304.259791 L928.070539,344.69223 L959.195651,289.825824 L1086,330.839633 L1069.60055,689.101631 L957.805129,559.649803 L957.805129,641.715595 L1005.5861,729.617839 L1008.4816,672.289621 L1069.60055,714.412528 L1071.25785,813.00197 L289.529987,813.00197 L356.550726,690.624269 C341.068478,688.776302 329.778549,684.304208 322.680731,677.207932 C313.160316,667.689584 307.73911,655.614116 306.416953,640.98117 L174.104951,600.675828 L179.936819,583.9375 L140.326283,586.256114 C139.193298,579.659576 136.810733,574.862165 133.178516,571.863739 C129.5463,568.865312 124.53125,567.366122 118.133218,567.366122 C112.86817,567.366122 108.902782,568.482186 106.236935,570.714348 C103.571088,572.94651 102.238184,575.661711 102.238184,578.860033 C102.238184,581.192142 103.33783,583.291009 105.537153,585.156697 C107.669831,587.089016 112.734864,588.888045 120.732405,590.553838 C140.526319,594.818266 154.70508,599.132604 163.269114,603.496981 C171.833147,607.861357 178.064471,613.275102 181.963272,619.738377 C185.862074,626.201652 187.811445,633.431083 187.811445,641.426887 C187.811445,650.821957 185.212283,659.483948 180.013882,667.413121 C178.620427,669.538571 177.078529,671.526368 175.388183,673.376516 L193.712458,690.369051 L-57,837 L-57,321.862642 L-57,60.414805 L-0.129828526,60.414805 L62.6505543,128.882067 L62.6505543,73.2507418 L184.012632,73.2507418 L184.012632,104.534169 L108.036373,104.534169 L108.036373,127.821832 L178.51435,127.821832 L178.51435,157.706001 L108.036373,157.706001 L108.036373,178.3791 L115.565918,186.590699 L186.211945,186.590699 L186.211945,219.77312 L96.5153304,219.77312 L6.77842231,288.825488 L6.77842231,321.862642 L36.2000562,321.862642 L48.7159323,433.281231 L68.6001238,434.372117 L68.6001238,304.259791 L113.885973,304.259791 L113.885973,414.701283 L184.563888,414.701283 L184.563888,450.782169 L163.735821,450.782169 L82.7269497,547.685605 C83.9642204,547.03276 85.2529322,546.413398 86.593073,545.827532 C95.357045,541.996209 107.369838,540.080576 122.631812,540.080576 C141.359387,540.080576 155.638116,543.562031 165.468427,550.525043 C173.982266,556.555572 179.509079,565.672249 182.048978,577.875289 L216.033483,480.334714 L304.023459,500.406091 L341.361147,449.574865 C337.936113,448.595763 334.840718,447.38239 332.074938,445.934737 C326.410013,442.969626 321.228351,438.755234 316.529795,433.291435 C311.83124,427.827635 308.61561,422.197341 306.88281,416.400383 C304.083671,407.071945 302.684122,398.809738 302.684122,391.613514 L302.684122,352.592004 L171.630613,289.825824 L240.794889,109.932375 L309.033566,88.982158 L309.033566,73.2507418 L360.273657,73.2507418 L498.743475,30.7385936 L492.059609,219.039867 L407.647359,304.259791 L443.140233,304.259791 L443.140233,362.998681 L556.945259,362.998681 C559.04859,345.553259 565.225003,331.654046 575.474597,321.300763 C588.370631,308.274266 606.614748,301.761114 630.207494,301.761114 C648.668485,301.761114 663.180471,305.492434 673.74389,312.955184 C684.307309,320.417935 692.154778,331.878416 697.286534,347.33697 L657.299029,356.232258 C655.899459,351.767934 654.433265,348.503029 652.900403,346.437447 C650.367849,342.972598 647.268848,340.30737 643.603308,338.441683 C639.937769,336.575995 635.83909,335.643165 631.30715,335.643165 C621.04364,335.643165 613.179509,339.774269 607.714523,348.0366 C603.58246,354.166716 601.516459,363.794852 601.516459,376.921298 C601.516459,393.179433 603.982331,404.323417 608.914148,410.353586 C613.479852,415.936107 619.759023,418.934537 627.751825,419.348949 L657.279752,397.420244 C657.927997,395.387649 658.500912,393.218864 658.998498,390.913885 L664.003975,392.426547 L750.97334,327.839366 L581.4783,228.931719 L602.713228,204.170361 L602.713228,73.2507418 L648.099046,73.2507418 L648.099046,151.247438 L751.445427,30.7385936 L839.69572,87.9518707 C852.415015,76.4852801 869.842,70.7520655 891.977127,70.7520655 C901.216426,70.7520655 909.466591,71.6866757 916.727675,73.5559101 L912.584973,-18.2779096 L1086,-18.2779096 L1086,154.41584 L924.149465,238.079315 L923.243749,218.001757 C915.297805,220.915094 905.575451,222.371743 894.076471,222.371743 C881.619128,222.371743 870.945341,220.955513 862.054925,218.12302 L777.356613,509.89992 L588.243292,448.68968 L592.056215,445.85804 C582.472717,441.141964 574.163124,433.188495 567.127205,421.997418 C560.932687,412.144643 557.355289,399.960953 556.394945,385.446079 L472.722418,487.137823 L569.072804,542.579253 L687.078295,542.579253 L687.078295,573.86268 L611.102035,573.86268 L611.102035,597.150343 L681.580013,597.150343 L681.580013,627.034512 L611.102035,627.034512 L611.102035,650.743851 L623.204891,655.91921 L689.277608,655.91921 L689.277608,684.172873 L826.797494,742.978394 L907.648936,678.151418 L860.235617,608.644254 L860.235617,689.101631 L817.648924,689.101631 L817.648924,542.579253 L859.93571,542.579253 L915.118467,623.636312 L915.118467,542.579253 L943.062894,542.579253 Z M899.581546,394.911767 L902.364867,390.005413 L887.67847,342.239671 L871.583499,394.911767 L899.581546,394.911767 Z M872.681094,181.51697 C877.427318,186.09884 883.692669,188.389746 891.477283,188.389746 C900.141286,188.389746 906.689174,185.957725 911.121145,181.093611 C915.465191,176.325994 918.640679,169.446013 920.647699,160.453466 L919.056712,125.185128 C917.660747,120.740314 916.198536,117.488103 914.670036,115.428398 C912.137481,111.963549 909.038481,109.298321 905.372941,107.432634 C901.707401,105.566946 897.608723,104.634116 893.076783,104.634116 C885.837152,104.634116 879.791343,106.689567 874.939276,110.800512 L890.315315,120.768905 L872.681094,181.51697 Z M565.716217,627.263371 L565.279211,631.149339 L565.716217,631.336209 L565.716217,627.263371 Z M371.863823,662.663049 L372.682952,661.167348 L357.599077,656.572445 C361.355109,660.084021 366.110001,662.114212 371.863823,662.663049 Z M347.870003,364.609109 L347.870003,393.712402 C347.870003,401.708206 350.085955,407.954835 354.517925,412.452475 C357.199347,415.173628 360.508923,417.071595 364.446692,418.146392 L397.954353,372.529335 L397.954353,314.045542 L347.870003,364.609109 Z M133.123288,634.183277 L143.030141,643.370136 C142.231183,641.278589 140.830057,639.331535 138.826751,637.528952 C137.560611,636.389674 135.659461,635.27445 133.123288,634.183277 Z M-10.1678619,-7.1978739 L-10.1678619,-45 L272.784893,-39.5339803 L247.595938,66.5187166 L147.491172,47.4015813 L147.491172,10.0570694 L-10.1678619,-7.1978739 Z M589.613417,-19.5640669 L737.639639,-41.0132332 L611.861798,54.533873 L589.613417,-19.5640669 Z M62.6505543,128.882067 L62.6505543,219.77312 L96.5153304,219.77312 L125.524101,197.450931 L115.565918,186.590699 L108.036373,186.590699 L108.036373,178.3791 L62.6505543,128.882067 Z M163.735821,450.782169 L172.680742,440.082186 L68.6001238,434.372117 L68.6001238,450.782169 L163.735821,450.782169 Z M82.7269368,547.685618 C75.8728921,551.302188 70.5970286,555.946672 66.8992267,561.619166 C62.5339023,568.315652 60.3512728,575.428479 60.3512728,582.957862 C60.3512728,594.418514 64.616564,603.846759 73.1472744,611.242877 C81.6113386,618.638996 95.7734383,624.569129 115.633998,629.033453 C123.154853,630.686029 128.984598,632.40263 133.123288,634.183277 L64.0015607,570.085059 L82.7269497,547.685605 Z M143.030141,643.370136 C143.560174,644.75768 143.825189,646.208816 143.825189,647.723551 C143.825189,651.721453 142.075754,655.236223 138.576829,658.267965 C135.077905,661.299708 130.096178,662.815556 123.631499,662.815556 C114.967497,662.815556 108.302979,659.85049 103.637747,653.920269 C100.771961,650.255525 98.8725739,644.925069 97.9395275,637.92874 L54.8529909,640.627311 C56.1192682,655.419548 61.55085,667.612967 71.1478991,677.207932 C80.7449483,686.802897 98.0060487,691.600307 122.931718,691.600307 C137.127353,691.600307 148.890227,689.551413 158.220691,685.453563 C165.050083,682.454161 170.772552,678.428502 175.388183,673.376516 L143.030141,643.370136 Z M179.936819,583.9375 L183.012944,583.757438 C182.763038,581.722928 182.441716,579.762212 182.048978,577.875289 L179.936819,583.9375 Z M309.033566,88.982158 L309.033566,219.77312 L354.519353,219.77312 L354.519353,160.304624 L358.518104,160.304624 C362.650167,160.304624 366.348974,161.437346 369.614636,163.702824 C372.013899,165.435248 374.746351,169.199883 377.812075,174.996841 L402.004516,219.77312 L453.188522,219.77312 L431.295363,177.295623 C430.229024,175.163408 428.11304,172.131712 424.947347,168.200441 C421.781653,164.269171 419.365766,161.703889 417.699611,160.504518 C415.233703,158.705462 411.301637,156.906433 405.903297,155.107377 C412.634561,153.574848 417.932852,151.642558 421.798331,149.310448 C427.863132,145.645705 432.628262,140.864952 436.093864,134.968046 C439.559465,129.071141 441.292239,122.058259 441.292239,113.929192 C441.292239,104.600754 439.026303,96.688358 434.494363,90.1917671 C429.962423,83.6951763 423.99768,79.2475769 416.599955,76.8488357 C409.202229,74.4500945 398.505679,73.2507418 384.509982,73.2507418 L360.273657,73.2507418 L309.033566,88.982158 Z M354.519353,132.619291 L354.519353,102.835069 L374.413137,102.835069 C382.677263,102.835069 388.30878,104.101053 391.307858,106.633057 C394.306936,109.165062 395.806452,112.796435 395.806452,117.527286 C395.806452,120.725607 394.856759,123.557412 392.957343,126.022785 C391.057927,128.488158 388.608716,130.020664 385.609638,130.62035 C379.678129,131.952984 375.679418,132.619291 373.613387,132.619291 L354.519353,132.619291 Z M302.684122,352.592004 L341.404438,371.136538 L347.870003,364.609109 L347.870003,304.259791 L302.684122,304.259791 L302.684122,352.592004 Z M397.954353,314.045542 L407.647359,304.259791 L397.954353,304.259791 L397.954353,314.045542 Z M443.140233,362.998681 L404.955022,362.998681 L397.954353,372.529335 L397.954353,393.712402 C397.954353,401.84147 395.7384,408.121413 391.30643,412.552422 C386.874459,416.98343 380.759764,419.198901 372.962162,419.198901 C369.855925,419.198901 367.017439,418.848066 364.446692,418.146392 L341.361147,449.574865 C344.951336,450.601179 348.903721,451.370084 353.218331,451.881586 C361.649072,452.881062 369.429897,453.380792 376.561037,453.380792 C388.89058,453.380792 399.45384,451.74834 408.251135,448.483387 C414.582522,446.151277 420.630571,442.103462 426.395465,436.33982 C432.16036,430.576178 436.392328,423.846477 439.091498,416.150515 C441.790668,408.454554 443.140233,400.275635 443.140233,391.613514 L443.140233,362.998681 Z M356.550726,690.624269 C362.00222,691.274962 367.973492,691.600307 374.46455,691.600307 C388.660185,691.600307 400.423058,689.551413 409.753523,685.453563 C419.083987,681.355714 426.348311,675.342293 431.546713,667.413121 C436.745115,659.483948 439.344276,650.821957 439.344276,641.426887 C439.344276,633.431083 437.394905,626.201652 433.496104,619.738377 C429.597303,613.275102 423.365979,607.861357 414.801945,603.496981 C406.237912,599.132604 392.059151,594.818266 372.265237,590.553838 C364.267696,588.888045 359.202663,587.089016 357.069985,585.156697 C354.870661,583.291009 353.771016,581.192142 353.771016,578.860033 C353.771016,575.661711 355.103919,572.94651 357.769766,570.714348 C360.435613,568.482186 364.401001,567.366122 369.666049,567.366122 C376.064082,567.366122 381.079131,568.865312 384.711348,571.863739 C388.343564,574.862165 390.726129,579.659576 391.859114,586.256114 L434.545776,583.757438 C432.679683,568.56541 426.831569,557.488056 417.001258,550.525043 C407.170947,543.562031 392.892218,540.080576 374.164643,540.080576 C358.902669,540.080576 346.889876,541.996209 338.125904,545.827532 C329.361932,549.658855 322.797383,554.92268 318.432058,561.619166 C314.066734,568.315652 311.884104,575.428479 311.884104,582.957862 C311.884104,594.418514 316.149395,603.846759 324.680106,611.242877 C333.14417,618.638996 347.30627,624.569129 367.16683,629.033453 C379.296434,631.698721 387.027274,634.530525 390.359583,637.528952 C393.691892,640.527379 395.358021,643.925544 395.358021,647.723551 C395.358021,651.721453 393.608585,655.236223 390.109661,658.267965 C386.610737,661.299708 381.62901,662.815556 375.164331,662.815556 C374.029881,662.815556 372.929712,662.764721 371.863823,662.663049 L356.550726,690.624269 Z M357.599077,656.572445 C356.736954,655.766432 355.927454,654.882373 355.170578,653.920269 C352.304793,650.255525 350.405405,644.925069 349.472359,637.92874 L306.385822,640.627311 C306.395934,640.745429 306.406311,640.863382 306.416953,640.98117 L357.599077,656.572445 Z M602.713228,204.170361 L602.713228,219.77312 L648.099046,219.77312 L648.099046,151.247438 L602.713228,204.170361 Z M664.003975,392.426547 L657.279752,397.420244 C655.323234,403.554966 652.680501,408.449074 649.351512,412.10266 C644.919541,416.966774 638.371653,419.398795 629.70765,419.398795 C629.04469,419.398795 628.392748,419.382179 627.751825,419.348949 L592.056215,445.85804 C592.458247,446.055881 592.862521,446.248025 593.269036,446.434472 C603.365932,451.065375 616.378402,453.380792 632.306838,453.380792 C645.436135,453.380792 656.249314,451.481817 664.746702,447.68381 C673.244089,443.885803 680.358461,438.255509 686.090032,430.792759 C691.821603,423.330008 696.020249,414.035025 698.686096,402.907531 L664.003975,392.426547 Z M556.394945,385.446079 L574.864787,362.998681 L556.945259,362.998681 C556.40218,367.503083 556.130641,372.243901 556.130641,377.221139 C556.130641,380.041264 556.218742,382.78291 556.394945,385.446079 Z M569.072804,542.579253 L565.716217,542.579253 L565.716217,627.263371 L574.864787,545.912045 L569.072804,542.579253 Z M565.716217,631.336209 L565.716217,689.101631 L689.277608,689.101631 L689.277608,684.172873 L623.204891,655.91921 L611.102035,655.91921 L611.102035,650.743851 L565.716217,631.336209 Z M862.054925,218.12302 L872.681094,181.51697 C871.982402,180.842473 871.316631,180.118329 870.68378,179.344537 C865.751963,173.314369 863.286092,162.170384 863.286092,145.912249 C863.286092,132.785803 865.352092,123.157667 869.484155,117.027551 C871.094273,114.593267 872.912644,112.517589 874.939276,110.800512 L839.69572,87.9518707 C838.858142,88.7069566 838.040979,89.4869044 837.244229,90.2917142 C824.348195,103.318212 817.900274,121.958151 817.900274,146.21209 C817.900274,164.402544 821.565758,179.327821 828.896838,190.988369 C836.227917,202.648917 844.941774,210.79452 855.038669,215.425423 C857.238964,216.43458 859.577715,217.333779 862.054925,218.12302 Z M923.243749,218.001757 C924.370319,217.588707 925.46118,217.146375 926.516334,216.674761 C935.013722,212.876754 942.128094,207.24646 947.859665,199.78371 C953.591236,192.320959 957.789882,183.025976 960.455729,171.898482 L920.76813,159.904836 C920.728465,160.088578 920.688321,160.271455 920.647699,160.453466 L923.243749,218.001757 Z M919.056712,125.185128 C919.060696,125.197812 919.064679,125.210506 919.068661,125.223209 L959.056166,116.327921 C953.924411,100.869367 946.076942,89.4088859 935.513523,81.9461353 C930.236851,78.2183192 923.97492,75.4215821 916.727675,73.5559101 L919.056712,125.185128 Z M881.608004,426.594982 L913.370442,426.594982 L920.568193,450.782169 L967.953386,450.782169 L928.070539,344.69223 L902.364867,390.005413 L903.87341,394.911767 L899.581546,394.911767 L881.608004,426.594982 Z M943.062894,542.579253 L957.805129,559.649803 L957.805129,542.579253 L943.062894,542.579253 Z M907.648936,678.151418 L915.118467,689.101631 L957.805129,689.101631 L957.805129,641.715595 L956.374275,639.083265 L907.648936,678.151418 Z" id="Combined-Shape" fill="#000000"></path>
    </g>
</svg>