<?xml version="1.0" encoding="UTF-8"?>
<svg width="1024px" height="750px" viewBox="0 0 1024 750" version="1.1" xmlns="http://www.w3.org/2000/svg" xmlns:xlink="http://www.w3.org/1999/xlink">
    <!-- Generator: Sketch 52.3 (67297) - http://www.bohemiancoding.com/sketch -->
    <title>second-desktop</title>
    <desc>Created with Sketch.</desc>
    <g id="second-desktop" stroke="none" stroke-width="1" fill="none" fill-rule="evenodd">
        <path d="M62.6505543,73.2507418 L184.012632,73.2507418 L184.012632,104.534169 L108.036373,104.534169 L108.036373,127.821832 L178.51435,127.821832 L178.51435,157.706001 L108.036373,157.706001 L108.036373,186.590699 L186.211945,186.590699 L186.211945,219.77312 L62.6505543,219.77312 L62.6505543,73.2507418 Z M68.6001238,304.259791 L113.885973,304.259791 L113.885973,414.701283 L184.563888,414.701283 L184.563888,450.782169 L68.6001238,450.782169 L68.6001238,304.259791 Z M54.8529909,640.627311 L97.9395275,637.92874 C98.8725739,644.925069 100.771961,650.255525 103.637747,653.920269 C108.302979,659.85049 114.967497,662.815556 123.631499,662.815556 C130.096178,662.815556 135.077905,661.299708 138.576829,658.267965 C142.075754,655.236223 143.825189,651.721453 143.825189,647.723551 C143.825189,643.925544 142.15906,640.527379 138.826751,637.528952 C135.494443,634.530525 127.763602,631.698721 115.633998,629.033453 C95.7734383,624.569129 81.6113386,618.638996 73.1472744,611.242877 C64.616564,603.846759 60.3512728,594.418514 60.3512728,582.957862 C60.3512728,575.428479 62.5339023,568.315652 66.8992267,561.619166 C71.2645512,554.92268 77.829101,549.658855 86.593073,545.827532 C95.357045,541.996209 107.369838,540.080576 122.631812,540.080576 C141.359387,540.080576 155.638116,543.562031 165.468427,550.525043 C175.298737,557.488056 181.146851,568.56541 183.012944,583.757438 L140.326283,586.256114 C139.193298,579.659576 136.810733,574.862165 133.178516,571.863739 C129.5463,568.865312 124.53125,567.366122 118.133218,567.366122 C112.86817,567.366122 108.902782,568.482186 106.236935,570.714348 C103.571088,572.94651 102.238184,575.661711 102.238184,578.860033 C102.238184,581.192142 103.33783,583.291009 105.537153,585.156697 C107.669831,587.089016 112.734864,588.888045 120.732405,590.553838 C140.526319,594.818266 154.70508,599.132604 163.269114,603.496981 C171.833147,607.861357 178.064471,613.275102 181.963272,619.738377 C185.862074,626.201652 187.811445,633.431083 187.811445,641.426887 C187.811445,650.821957 185.212283,659.483948 180.013882,667.413121 C174.81548,675.342293 167.551156,681.355714 158.220691,685.453563 C148.890227,689.551413 137.127353,691.600307 122.931718,691.600307 C98.0060487,691.600307 80.7449483,686.802897 71.1478991,677.207932 C61.55085,667.612967 56.1192682,655.419548 54.8529909,640.627311 Z M309.033566,219.77312 L309.033566,73.2507418 L384.509982,73.2507418 C398.505679,73.2507418 409.202229,74.4500945 416.599955,76.8488357 C423.99768,79.2475769 429.962423,83.6951763 434.494363,90.1917671 C439.026303,96.688358 441.292239,104.600754 441.292239,113.929192 C441.292239,122.058259 439.559465,129.071141 436.093864,134.968046 C432.628262,140.864952 427.863132,145.645705 421.798331,149.310448 C417.932852,151.642558 412.634561,153.574848 405.903297,155.107377 C411.301637,156.906433 415.233703,158.705462 417.699611,160.504518 C419.365766,161.703889 421.781653,164.269171 424.947347,168.200441 C428.11304,172.131712 430.229024,175.163408 431.295363,177.295623 L453.188522,219.77312 L402.004516,219.77312 L377.812075,174.996841 C374.746351,169.199883 372.013899,165.435248 369.614636,163.702824 C366.348974,161.437346 362.650167,160.304624 358.518104,160.304624 L354.519353,160.304624 L354.519353,219.77312 L309.033566,219.77312 Z M354.519353,132.619291 L373.613387,132.619291 C375.679418,132.619291 379.678129,131.952984 385.609638,130.62035 C388.608716,130.020664 391.057927,128.488158 392.957343,126.022785 C394.856759,123.557412 395.806452,120.725607 395.806452,117.527286 C395.806452,112.796435 394.306936,109.165062 391.307858,106.633057 C388.30878,104.101053 382.677263,102.835069 374.413137,102.835069 L354.519353,102.835069 L354.519353,132.619291 Z M397.954353,304.259791 L443.140233,304.259791 L443.140233,391.613514 C443.140233,400.275635 441.790668,408.454554 439.091498,416.150515 C436.392328,423.846477 432.16036,430.576178 426.395465,436.33982 C420.630571,442.103462 414.582522,446.151277 408.251135,448.483387 C399.45384,451.74834 388.89058,453.380792 376.561037,453.380792 C369.429897,453.380792 361.649072,452.881062 353.218331,451.881586 C344.78759,450.882111 337.739863,448.899848 332.074938,445.934737 C326.410013,442.969626 321.228351,438.755234 316.529795,433.291435 C311.83124,427.827635 308.61561,422.197341 306.88281,416.400383 C304.083671,407.071945 302.684122,398.809738 302.684122,391.613514 L302.684122,304.259791 L347.870003,304.259791 L347.870003,393.712402 C347.870003,401.708206 350.085955,407.954835 354.517925,412.452475 C358.949896,416.950114 365.097913,419.198901 372.962162,419.198901 C380.759764,419.198901 386.874459,416.98343 391.30643,412.552422 C395.7384,408.121413 397.954353,401.84147 397.954353,393.712402 L397.954353,304.259791 Z M306.385822,640.627311 L349.472359,637.92874 C350.405405,644.925069 352.304793,650.255525 355.170578,653.920269 C359.835811,659.85049 366.500328,662.815556 375.164331,662.815556 C381.62901,662.815556 386.610737,661.299708 390.109661,658.267965 C393.608585,655.236223 395.358021,651.721453 395.358021,647.723551 C395.358021,643.925544 393.691892,640.527379 390.359583,637.528952 C387.027274,634.530525 379.296434,631.698721 367.16683,629.033453 C347.30627,624.569129 333.14417,618.638996 324.680106,611.242877 C316.149395,603.846759 311.884104,594.418514 311.884104,582.957862 C311.884104,575.428479 314.066734,568.315652 318.432058,561.619166 C322.797383,554.92268 329.361932,549.658855 338.125904,545.827532 C346.889876,541.996209 358.902669,540.080576 374.164643,540.080576 C392.892218,540.080576 407.170947,543.562031 417.001258,550.525043 C426.831569,557.488056 432.679683,568.56541 434.545776,583.757438 L391.859114,586.256114 C390.726129,579.659576 388.343564,574.862165 384.711348,571.863739 C381.079131,568.865312 376.064082,567.366122 369.666049,567.366122 C364.401001,567.366122 360.435613,568.482186 357.769766,570.714348 C355.103919,572.94651 353.771016,575.661711 353.771016,578.860033 C353.771016,581.192142 354.870661,583.291009 357.069985,585.156697 C359.202663,587.089016 364.267696,588.888045 372.265237,590.553838 C392.059151,594.818266 406.237912,599.132604 414.801945,603.496981 C423.365979,607.861357 429.597303,613.275102 433.496104,619.738377 C437.394905,626.201652 439.344276,633.431083 439.344276,641.426887 C439.344276,650.821957 436.745115,659.483948 431.546713,667.413121 C426.348311,675.342293 419.083987,681.355714 409.753523,685.453563 C400.423058,689.551413 388.660185,691.600307 374.46455,691.600307 C349.53888,691.600307 332.27778,686.802897 322.680731,677.207932 C313.083681,667.612967 307.6521,655.419548 306.385822,640.627311 Z M602.713228,73.2507418 L648.099046,73.2507418 L648.099046,219.77312 L602.713228,219.77312 L602.713228,73.2507418 Z M658.998498,390.913885 L698.686096,402.907531 C696.020249,414.035025 691.821603,423.330008 686.090032,430.792759 C680.358461,438.255509 673.244089,443.885803 664.746702,447.68381 C656.249314,451.481817 645.436135,453.380792 632.306838,453.380792 C616.378402,453.380792 603.365932,451.065375 593.269036,446.434472 C583.172141,441.803569 574.458284,433.657966 567.127205,421.997418 C559.796126,410.33687 556.130641,395.411593 556.130641,377.221139 C556.130641,352.967199 562.578562,334.327261 575.474597,321.300763 C588.370631,308.274266 606.614748,301.761114 630.207494,301.761114 C648.668485,301.761114 663.180471,305.492434 673.74389,312.955184 C684.307309,320.417935 692.154778,331.878416 697.286534,347.33697 L657.299029,356.232258 C655.899459,351.767934 654.433265,348.503029 652.900403,346.437447 C650.367849,342.972598 647.268848,340.30737 643.603308,338.441683 C639.937769,336.575995 635.83909,335.643165 631.30715,335.643165 C621.04364,335.643165 613.179509,339.774269 607.714523,348.0366 C603.58246,354.166716 601.516459,363.794852 601.516459,376.921298 C601.516459,393.179433 603.982331,404.323417 608.914148,410.353586 C613.845965,416.383755 620.777063,419.398795 629.70765,419.398795 C638.371653,419.398795 644.919541,416.966774 649.351512,412.10266 C653.783483,407.238546 656.999112,400.175691 658.998498,390.913885 Z M565.716217,542.579253 L687.078295,542.579253 L687.078295,573.86268 L611.102035,573.86268 L611.102035,597.150343 L681.580013,597.150343 L681.580013,627.034512 L611.102035,627.034512 L611.102035,655.91921 L689.277608,655.91921 L689.277608,689.101631 L565.716217,689.101631 L565.716217,542.579253 Z M920.76813,159.904836 L960.455729,171.898482 C957.789882,183.025976 953.591236,192.320959 947.859665,199.78371 C942.128094,207.24646 935.013722,212.876754 926.516334,216.674761 C918.018947,220.472768 907.205767,222.371743 894.076471,222.371743 C878.148035,222.371743 865.135565,220.056326 855.038669,215.425423 C844.941774,210.79452 836.227917,202.648917 828.896838,190.988369 C821.565758,179.327821 817.900274,164.402544 817.900274,146.21209 C817.900274,121.958151 824.348195,103.318212 837.244229,90.2917142 C850.140264,77.2652166 868.384381,70.7520655 891.977127,70.7520655 C910.438117,70.7520655 924.950104,74.4833848 935.513523,81.9461353 C946.076942,89.4088859 953.924411,100.869367 959.056166,116.327921 L919.068661,125.223209 C917.669092,120.758885 916.202898,117.49398 914.670036,115.428398 C912.137481,111.963549 909.038481,109.298321 905.372941,107.432634 C901.707401,105.566946 897.608723,104.634116 893.076783,104.634116 C882.813272,104.634116 874.949142,108.76522 869.484155,117.027551 C865.352092,123.157667 863.286092,132.785803 863.286092,145.912249 C863.286092,162.170384 865.751963,173.314369 870.68378,179.344537 C875.615597,185.374706 882.546696,188.389746 891.477283,188.389746 C900.141286,188.389746 906.689174,185.957725 911.121145,181.093611 C915.553116,176.229497 918.768745,169.166642 920.76813,159.904836 Z M913.370442,426.594982 L861.786561,426.594982 L854.688778,450.782169 L808.403241,450.782169 L863.48603,304.259791 L912.870598,304.259791 L967.953386,450.782169 L920.568193,450.782169 L913.370442,426.594982 Z M903.87341,394.911767 L887.67847,342.239671 L871.583499,394.911767 L903.87341,394.911767 Z M817.648924,542.579253 L859.93571,542.579253 L915.118467,623.636312 L915.118467,542.579253 L957.805129,542.579253 L957.805129,689.101631 L915.118467,689.101631 L860.235617,608.644254 L860.235617,689.101631 L817.648924,689.101631 L817.648924,542.579253 Z" id="Combined-Shape" fill="#000000"></path>
    </g>
</svg>