<?xml version="1.0" encoding="UTF-8"?>
<svg width="1536px" height="1971px" viewBox="0 0 1536 1971" version="1.1" xmlns="http://www.w3.org/2000/svg" xmlns:xlink="http://www.w3.org/1999/xlink">
    <!-- Generator: Sketch 52.3 (67297) - http://www.bohemiancoding.com/sketch -->
    <title>second-tablet</title>
    <desc>Created with Sketch.</desc>
    <g id="second-tablet" stroke="none" stroke-width="1" fill="none" fill-rule="evenodd">
        <polygon id="E" fill="#000000" points="70 183 325.372168 183 325.372168 248.759891 165.501618 248.759891 165.501618 297.712142 313.802589 297.712142 313.802589 360.530696 165.501618 360.530696 165.501618 421.248295 330 421.248295 330 491 70 491"></polygon>
        <polygon id="N" fill="#000000" points="1172 1588 1260.70328 1588 1376.45792 1758.38745 1376.45792 1588 1466 1588 1466 1896 1376.45792 1896 1261.33238 1726.87312 1261.33238 1896 1172 1896"></polygon>
        <path d="M70,1794.02111 L160.412782,1788.35752 C162.370686,1803.04097 166.356361,1814.22819 172.369925,1821.91953 C182.159447,1834.3655 196.14427,1840.58839 214.324812,1840.58839 C227.890293,1840.58839 238.343948,1837.40702 245.68609,1831.0442 C253.028232,1824.68137 256.699248,1817.30479 256.699248,1808.91425 C256.699248,1800.94323 253.203042,1793.81138 246.210526,1787.51847 C239.21801,1781.22556 222.995616,1775.28235 197.542857,1769.68865 C155.867461,1760.31921 126.149713,1747.87343 108.388722,1732.35092 C90.4878804,1716.82842 81.537594,1697.04102 81.537594,1672.98813 C81.537594,1657.18594 86.1176234,1642.25799 95.2778195,1628.20383 C104.438016,1614.14967 118.213066,1603.10228 136.603383,1595.06135 C154.993701,1587.02041 180.201344,1583 212.227068,1583 C251.525009,1583 281.487491,1590.30666 302.115414,1604.92018 C322.743336,1619.53371 335.015018,1642.78216 338.930827,1674.66623 L249.357143,1679.91029 C246.979687,1666.06589 241.980113,1655.99739 234.358271,1649.70449 C226.736428,1643.41158 216.212849,1640.26517 202.787218,1640.26517 C191.739043,1640.26517 183.418073,1642.6075 177.82406,1647.29222 C172.230047,1651.97694 169.433083,1657.67543 169.433083,1664.38786 C169.433083,1669.28235 171.740578,1673.68732 176.355639,1677.6029 C180.830849,1681.65833 191.459315,1685.43402 208.241353,1688.93008 C249.776899,1697.87999 279.529609,1706.93465 297.500376,1716.09433 C315.471142,1725.254 328.546952,1736.61603 336.728195,1750.18074 C344.909439,1763.74545 349,1778.91812 349,1795.69921 C349,1815.41699 343.545919,1833.59622 332.637594,1850.23747 C321.729269,1866.87871 306.485812,1879.4993 286.906767,1888.0996 C267.327722,1896.69991 242.64451,1901 212.856391,1901 C160.55237,1901 124.33168,1890.9315 104.193233,1870.7942 C84.0547865,1850.65689 72.6571561,1825.06612 70,1794.02111 Z" id="S" fill="#000000"></path>
        <polygon id="E" fill="#000000" points="631 1588 886.372168 1588 886.372168 1653.75989 726.501618 1653.75989 726.501618 1702.71214 874.802589 1702.71214 874.802589 1765.5307 726.501618 1765.5307 726.501618 1826.24829 891 1826.24829 891 1896 631 1896"></polygon>
        <polygon id="I" fill="#000000" points="1271 183 1367 183 1367 491 1271 491"></polygon>
        <path d="M617,491 L617,183 L775.644244,183 C805.061867,183 827.544999,185.521121 843.094313,190.563438 C858.643628,195.605755 871.180951,204.954911 880.706657,218.611187 C890.232364,232.267463 894.995146,248.899856 894.995146,268.508868 C894.995146,285.59672 891.353018,300.338274 884.068655,312.73397 C876.784291,325.129666 866.768441,335.179134 854.020804,342.882674 C845.895937,347.784927 834.759433,351.846732 820.610957,355.068213 C831.957754,358.849951 840.222582,362.631632 845.405687,366.41337 C848.907785,368.934528 853.98575,374.326925 860.639736,382.590723 C867.293723,390.854521 871.74132,397.227354 873.982663,401.709413 L920,491 L812.416089,491 L761.565881,396.877217 C755.12202,384.691617 749.378666,376.778099 744.335645,373.136426 C737.471533,368.374237 729.696992,365.993179 721.011789,365.993179 L712.606796,365.993179 L712.606796,491 L617,491 Z M712.606796,307.796726 L752.740638,307.796726 C757.083239,307.796726 765.488148,306.396103 777.955617,303.594816 C784.259394,302.334237 789.4074,299.112804 793.399792,293.930423 C797.392184,288.748041 799.38835,282.795395 799.38835,276.072306 C799.38835,266.127736 796.236509,258.494342 789.932732,253.171896 C783.628956,247.84945 771.792042,245.188267 754.421637,245.188267 L712.606796,245.188267 L712.606796,307.796726 Z" id="R" fill="#000000"></path>
        <polygon id="L" fill="#000000" points="647 651.333333 741.89569 651.333333 741.89569 883.488859 890 883.488859 890 959.333333 647 959.333333"></polygon>
        <path d="M1370.77438,646 L1466,646 L1466,829.938338 C1466,848.177929 1463.1559,865.400053 1457.46762,881.605228 C1451.77933,897.810403 1442.8608,911.980949 1430.71174,924.117292 C1418.56269,936.253635 1405.81691,944.777009 1392.47402,949.687668 C1373.93443,956.56259 1351.6732,960 1325.68968,960 C1310.66137,960 1294.26391,958.947732 1276.4968,956.843164 C1258.72969,954.738595 1243.87717,950.564598 1231.93879,944.321046 C1220.00041,938.077493 1209.08048,929.203364 1199.17865,917.698391 C1189.27682,906.193419 1182.50014,894.337863 1178.8484,882.131367 C1172.94944,862.488731 1170,845.091229 1170,829.938338 L1170,646 L1265.22562,646 L1265.22562,834.357909 C1265.22562,851.194454 1269.89556,864.347808 1279.23559,873.818365 C1288.57561,883.288921 1301.53206,888.024129 1318.10534,888.024129 C1334.53816,888.024129 1347.42439,883.359073 1356.76441,874.02882 C1366.10444,864.698568 1370.77438,851.475063 1370.77438,834.357909 L1370.77438,646 Z" id="U" fill="#000000"></path>
        <path d="M286.479663,829.984838 L370,855.13975 C364.389874,878.478034 355.554058,897.972895 343.492286,913.624918 C331.430515,929.27694 316.458715,941.085656 298.576438,949.051417 C280.69416,957.017179 257.938427,961 230.308555,961 C196.788051,961 169.404033,956.143753 148.15568,946.431114 C126.907327,936.718475 108.569502,919.634269 93.141655,895.177983 C77.7138079,870.721697 70,839.418121 70,801.266315 C70,750.397241 83.5692893,711.302707 110.708275,683.981543 C137.847261,656.660378 176.240986,643 225.890603,643 C264.740727,643 295.280394,650.825894 317.510519,666.477917 C339.740644,682.12994 356.255205,706.166614 367.054698,738.588662 L282.903226,757.245221 C279.95791,747.881957 276.872386,741.0343 273.646564,736.702044 C268.316944,729.435033 261.79527,723.845109 254.081346,719.932103 C246.367423,716.019097 237.741983,714.062624 228.204769,714.062624 C206.605783,714.062624 190.056158,722.727006 178.5554,740.056032 C169.859704,752.91305 165.511921,773.106652 165.511921,800.637442 C165.511921,834.736492 170.70121,858.109363 181.079944,870.756757 C191.458677,883.40415 206.044787,889.727752 224.83871,889.727752 C243.07162,889.727752 256.851286,884.626946 266.178121,874.425181 C275.504955,864.223416 282.272069,849.410117 286.479663,829.984838 Z" id="C" fill="#000000"></path>
        <path d="M1180,1326.02111 L1270.41278,1320.35752 C1272.37069,1335.04097 1276.35636,1346.22819 1282.36992,1353.91953 C1292.15945,1366.3655 1306.14427,1372.58839 1324.32481,1372.58839 C1337.89029,1372.58839 1348.34395,1369.40702 1355.68609,1363.0442 C1363.02823,1356.68137 1366.69925,1349.30479 1366.69925,1340.91425 C1366.69925,1332.94323 1363.20304,1325.81138 1356.21053,1319.51847 C1349.21801,1313.22556 1332.99562,1307.28235 1307.54286,1301.68865 C1265.86746,1292.31921 1236.14971,1279.87343 1218.38872,1264.35092 C1200.48788,1248.82842 1191.53759,1229.04102 1191.53759,1204.98813 C1191.53759,1189.18594 1196.11762,1174.25799 1205.27782,1160.20383 C1214.43802,1146.14967 1228.21307,1135.10228 1246.60338,1127.06135 C1264.9937,1119.02041 1290.20134,1115 1322.22707,1115 C1361.52501,1115 1391.48749,1122.30666 1412.11541,1136.92018 C1432.74334,1151.53371 1445.01502,1174.78216 1448.93083,1206.66623 L1359.35714,1211.91029 C1356.97969,1198.06589 1351.98011,1187.99739 1344.35827,1181.70449 C1336.73643,1175.41158 1326.21285,1172.26517 1312.78722,1172.26517 C1301.73904,1172.26517 1293.41807,1174.6075 1287.82406,1179.29222 C1282.23005,1183.97694 1279.43308,1189.67543 1279.43308,1196.38786 C1279.43308,1201.28235 1281.74058,1205.68732 1286.35564,1209.6029 C1290.83085,1213.65833 1301.45931,1217.43402 1318.24135,1220.93008 C1359.7769,1229.87999 1389.52961,1238.93465 1407.50038,1248.09433 C1425.47114,1257.254 1438.54695,1268.61603 1446.7282,1282.18074 C1454.90944,1295.74545 1459,1310.91812 1459,1327.69921 C1459,1347.41699 1453.54592,1365.59622 1442.63759,1382.23747 C1431.72927,1398.87871 1416.48581,1411.4993 1396.90677,1420.0996 C1377.32772,1428.69991 1352.64451,1433 1322.85639,1433 C1270.55237,1433 1234.33168,1422.9315 1214.19323,1402.7942 C1194.05479,1382.65689 1182.65716,1357.06612 1180,1326.02111 Z" id="S" fill="#000000"></path>
        <path d="M281.479663,1299.98484 L365,1325.13975 C359.389874,1348.47803 350.554058,1367.97289 338.492286,1383.62492 C326.430515,1399.27694 311.458715,1411.08566 293.576438,1419.05142 C275.69416,1427.01718 252.938427,1431 225.308555,1431 C191.788051,1431 164.404033,1426.14375 143.15568,1416.43111 C121.907327,1406.71847 103.569502,1389.63427 88.141655,1365.17798 C72.7138079,1340.7217 65,1309.41812 65,1271.26632 C65,1220.39724 78.5692893,1181.30271 105.708275,1153.98154 C132.847261,1126.66038 171.240986,1113 220.890603,1113 C259.740727,1113 290.280394,1120.82589 312.510519,1136.47792 C334.740644,1152.12994 351.255205,1176.16661 362.054698,1208.58866 L277.903226,1227.24522 C274.95791,1217.88196 271.872386,1211.0343 268.646564,1206.70204 C263.316944,1199.43503 256.79527,1193.84511 249.081346,1189.9321 C241.367423,1186.0191 232.741983,1184.06262 223.204769,1184.06262 C201.605783,1184.06262 185.056158,1192.72701 173.5554,1210.05603 C164.859704,1222.91305 160.511921,1243.10665 160.511921,1270.63744 C160.511921,1304.73649 165.70121,1328.10936 176.079944,1340.75676 C186.458677,1353.40415 201.044787,1359.72775 219.83871,1359.72775 C238.07162,1359.72775 251.851286,1354.62695 261.178121,1344.42518 C270.504955,1334.22342 277.272069,1319.41012 281.479663,1299.98484 Z" id="C" fill="#000000"></path>
        <path d="M821.394737,1376.82356 L713.086466,1376.82356 L698.183584,1427.66667 L601,1427.66667 L716.654762,1119.66667 L820.345238,1119.66667 L936,1427.66667 L836.507519,1427.66667 L821.394737,1376.82356 Z M801.454261,1310.22328 L767.450501,1199.50296 L733.656642,1310.22328 L801.454261,1310.22328 Z" id="A" fill="#000000"></path>
    </g>
</svg>