<?xml version="1.0" encoding="UTF-8"?>
<svg width="375px" height="813px" viewBox="0 0 375 813" version="1.1" xmlns="http://www.w3.org/2000/svg" xmlns:xlink="http://www.w3.org/1999/xlink">
    <!-- Generator: Sketch 52.3 (67297) - http://www.bohemiancoding.com/sketch -->
    <title>second-mobile</title>
    <desc>Created with Sketch.</desc>
    <g id="second-mobile" stroke="none" stroke-width="1" fill="none" fill-rule="evenodd">
        <path d="M128.057504,509.50824 L152,516.706658 C150.391764,523.385223 147.85883,528.963942 144.401122,533.44298 C140.943414,537.922018 136.651498,541.301241 131.525245,543.580751 C126.398993,545.860262 119.875682,547 111.955119,547 C102.345908,547 94.4958229,545.610319 88.4046283,542.830916 C82.3134338,540.051513 77.0565906,535.162637 72.6339411,528.16414 C68.2112916,521.165643 66,512.207701 66,501.290046 C66,486.733173 69.8898629,475.545743 77.6697055,467.727423 C85.449548,459.909102 96.4557493,456 110.68864,456 C121.825675,456 130.58038,458.239485 136.953015,462.718523 C143.325651,467.197561 148.059826,474.075981 151.15568,483.353988 L127.032258,488.692815 C126.187934,486.01339 125.303417,484.053841 124.378682,482.814107 C122.850857,480.734553 120.981311,479.134921 118.769986,478.015162 C116.558661,476.895402 114.086035,476.335531 111.352034,476.335531 C105.160324,476.335531 100.416099,478.814961 97.1192146,483.773896 C94.6264485,487.453106 93.3800842,493.231778 93.3800842,501.110086 C93.3800842,510.86799 94.8676803,517.556453 97.8429173,521.175676 C100.818154,524.794898 104.999506,526.604483 110.387097,526.604483 C115.613864,526.604483 119.564035,525.144818 122.237728,522.225445 C124.911421,519.306072 126.851326,515.067046 128.057504,509.50824 Z" id="C" fill="#000000"></path>
        <path d="M218,199 L218,111 L263.551318,111 C271.997962,111 278.453514,111.72032 282.918169,113.160982 C287.382824,114.601644 290.982649,117.272832 293.717753,121.174625 C296.452857,125.076418 297.820388,129.82853 297.820388,135.431105 C297.820388,140.313349 296.774629,144.525221 294.683079,148.066849 C292.591529,151.608476 289.715691,154.479753 286.055479,156.680764 C283.722596,158.081408 280.524986,159.241924 276.462552,160.162347 C279.720543,161.242843 282.093613,162.323323 283.581831,163.40382 C284.587384,164.124151 286.045413,165.664836 287.955964,168.025921 C289.866514,170.387006 291.143547,172.207815 291.787101,173.488404 L305,199 L274.10957,199 L259.509015,172.107776 C257.658798,168.626176 256.009716,166.365171 254.56172,165.324693 C252.590836,163.964068 250.358542,163.283765 247.864771,163.283765 L245.451456,163.283765 L245.451456,199 L218,199 Z M245.451456,146.656207 L256.975035,146.656207 C258.22192,146.656207 260.635211,146.256029 264.214979,145.455662 C266.024974,145.095496 267.503115,144.175087 268.649445,142.694407 C269.795775,141.213726 270.368932,139.51297 270.368932,137.592087 C270.368932,134.750782 269.463948,132.569812 267.653953,131.049113 C265.843958,129.528414 262.44524,128.768076 257.457698,128.768076 L245.451456,128.768076 L245.451456,146.656207 Z" id="R" fill="#000000"></path>
        <path d="M275.976512,344 L303,344 L303,396.135389 C303,401.305209 302.192891,406.186639 300.578648,410.779826 C298.964405,415.373012 296.433469,419.389505 292.985765,422.829424 C289.538061,426.269342 285.921015,428.685203 282.13452,430.077078 C276.873283,432.025702 270.555909,433 263.182206,433 C258.917416,433 254.264082,432.701746 249.222064,432.105228 C244.180046,431.50871 239.965141,430.325634 236.577224,428.555965 C233.189307,426.786296 230.090406,424.271017 227.280427,421.010054 C224.470449,417.74909 222.547336,414.388757 221.511032,410.928954 C219.837002,405.361456 219,400.430316 219,396.135389 L219,344 L246.023488,344 L246.023488,397.38807 C246.023488,402.160212 247.348741,405.888391 249.999288,408.572721 C252.649835,411.257051 256.326667,412.599196 261.029893,412.599196 C265.693262,412.599196 269.350165,411.276935 272.000712,408.632373 C274.651259,405.987811 275.976512,402.239747 275.976512,397.38807 L275.976512,344 Z" id="U" fill="#000000"></path>
        <polygon id="L" fill="#000000" points="74 344 101.336207 344 101.336207 410.33015 144 410.33015 144 432 74 432"></polygon>
        <polygon id="E" fill="#000000" points="72 111 144.682848 111 144.682848 129.78854 99.1812298 129.78854 99.1812298 143.774898 141.389968 143.774898 141.389968 161.723056 99.1812298 161.723056 99.1812298 179.070941 146 179.070941 146 199 72 199"></polygon>
        <path d="M277.157895,531.473397 L246.120301,531.473397 L241.849624,546 L214,546 L247.142857,458 L276.857143,458 L310,546 L281.488722,546 L277.157895,531.473397 Z M271.443609,512.444748 L261.699248,480.810368 L252.015038,512.444748 L271.443609,512.444748 Z" id="A" fill="#000000"></path>
        <polygon id="I" fill="#000000" points="95 225 122 225 122 313 95 313"></polygon>
        <path d="M280.057504,276.50824 L304,283.706658 C302.391764,290.385223 299.85883,295.963942 296.401122,300.44298 C292.943414,304.922018 288.651498,308.301241 283.525245,310.580751 C278.398993,312.860262 271.875682,314 263.955119,314 C254.345908,314 246.495823,312.610319 240.404628,309.830916 C234.313434,307.051513 229.056591,302.162637 224.633941,295.16414 C220.211292,288.165643 218,279.207701 218,268.290046 C218,253.733173 221.889863,242.545743 229.669705,234.727423 C237.449548,226.909102 248.455749,223 262.68864,223 C273.825675,223 282.58038,225.239485 288.953015,229.718523 C295.325651,234.197561 300.059826,241.075981 303.15568,250.353988 L279.032258,255.692815 C278.187934,253.01339 277.303417,251.053841 276.378682,249.814107 C274.850857,247.734553 272.981311,246.134921 270.769986,245.015162 C268.558661,243.895402 266.086035,243.335531 263.352034,243.335531 C257.160324,243.335531 252.416099,245.814961 249.119215,250.773896 C246.626448,254.453106 245.380084,260.231778 245.380084,268.110086 C245.380084,277.86799 246.86768,284.556453 249.842917,288.175676 C252.818154,291.794898 256.999506,293.604483 262.387097,293.604483 C267.613864,293.604483 271.564035,292.144818 274.237728,289.225445 C276.911421,286.306072 278.851326,282.067046 280.057504,276.50824 Z" id="C" fill="#000000"></path>
        <path d="M69,636.482511 L94.9463068,634.859223 C95.5081786,639.067768 96.6519718,642.274231 98.3777209,644.478708 C101.18708,648.045951 105.20039,649.829546 110.41777,649.829546 C114.310739,649.829546 117.310688,648.917708 119.417707,647.094005 C121.524727,645.270302 122.57822,643.156041 122.57822,640.751157 C122.57822,638.466518 121.574893,636.422398 119.568208,634.618736 C117.561523,632.815073 112.906084,631.11164 105.601751,629.508384 C93.6419083,626.822931 85.1136251,623.255741 80.0166453,618.806708 C74.8795318,614.357674 72.3110136,608.686242 72.3110136,601.792244 C72.3110136,597.263047 73.6253726,592.984423 76.2541299,588.956244 C78.8828871,584.928064 82.8359972,581.761682 88.1135787,579.457002 C93.3911601,577.152323 100.625151,576 109.815768,576 C121.093337,576 129.691853,578.094221 135.611574,582.282726 C141.531295,586.471231 145.052974,593.134662 146.176718,602.273218 L120.471212,603.776262 C119.788939,599.808205 118.354181,596.922389 116.166894,595.118726 C113.979607,593.315064 110.959592,592.413246 107.106757,592.413246 C103.936195,592.413246 101.548275,593.084599 99.9429273,594.427326 C98.3375794,595.770052 97.5349174,597.403344 97.5349174,599.327251 C97.5349174,600.730099 98.1971135,601.992644 99.5215256,603.114923 C100.805804,604.277283 103.855919,605.359464 108.671963,606.361499 C120.591672,608.926708 129.129988,611.521939 134.287169,614.14727 C139.444349,616.7726 143.196794,620.029164 145.544615,623.917059 C147.892436,627.804953 149.066329,632.153719 149.066329,636.963485 C149.066329,642.614961 147.501139,647.825463 144.37071,652.595148 C141.240282,657.364833 136.865774,660.982124 131.247056,663.447129 C125.628338,665.912135 118.544847,667.144619 109.996369,667.144619 C94.9863652,667.144619 84.5918931,664.258802 78.8126404,658.487082 C73.0333877,652.715363 69.7625403,645.380579 69,636.482511 Z" id="S" fill="#000000"></path>
        <polygon id="N" fill="#000000" points="220 692 245.364808 692 278.464982 740.759495 278.464982 692 304.069646 692 304.069646 780.139851 278.464982 780.139851 245.5447 731.741092 245.5447 780.139851 220 780.139851"></polygon>
        <path d="M221,636.482511 L246.946307,634.859223 C247.508179,639.067768 248.651972,642.274231 250.377721,644.478708 C253.18708,648.045951 257.20039,649.829546 262.41777,649.829546 C266.310739,649.829546 269.310688,648.917708 271.417707,647.094005 C273.524727,645.270302 274.57822,643.156041 274.57822,640.751157 C274.57822,638.466518 273.574893,636.422398 271.568208,634.618736 C269.561523,632.815073 264.906084,631.11164 257.601751,629.508384 C245.641908,626.822931 237.113625,623.255741 232.016645,618.806708 C226.879532,614.357674 224.311014,608.686242 224.311014,601.792244 C224.311014,597.263047 225.625373,592.984423 228.25413,588.956244 C230.882887,584.928064 234.835997,581.761682 240.113579,579.457002 C245.39116,577.152323 252.625151,576 261.815768,576 C273.093337,576 281.691853,578.094221 287.611574,582.282726 C293.531295,586.471231 297.052974,593.134662 298.176718,602.273218 L272.471212,603.776262 C271.788939,599.808205 270.354181,596.922389 268.166894,595.118726 C265.979607,593.315064 262.959592,592.413246 259.106757,592.413246 C255.936195,592.413246 253.548275,593.084599 251.942927,594.427326 C250.337579,595.770052 249.534917,597.403344 249.534917,599.327251 C249.534917,600.730099 250.197114,601.992644 251.521526,603.114923 C252.805804,604.277283 255.855919,605.359464 260.671963,606.361499 C272.591672,608.926708 281.129988,611.521939 286.287169,614.14727 C291.444349,616.7726 295.196794,620.029164 297.544615,623.917059 C299.892436,627.804953 301.066329,632.153719 301.066329,636.963485 C301.066329,642.614961 299.501139,647.825463 296.37071,652.595148 C293.240282,657.364833 288.865774,660.982124 283.247056,663.447129 C277.628338,665.912135 270.544847,667.144619 261.996369,667.144619 C246.986365,667.144619 236.591893,664.258802 230.81264,658.487082 C225.033388,652.715363 221.76254,645.380579 221,636.482511 Z" id="S" fill="#000000"></path>
        <polygon id="E" fill="#000000" points="72 692 144.743111 692 144.743111 710.818399 99.2037662 710.818399 99.2037662 724.826984 141.4475 724.826984 141.4475 742.803666 99.2037662 742.803666 99.2037662 760.179121 146.061355 760.179121 146.061355 780.139851 72 780.139851"></polygon>
    </g>
</svg>