<?xml version="1.0" encoding="UTF-8"?>
<svg width="375px" height="813px" viewBox="0 0 375 813" version="1.1" xmlns="http://www.w3.org/2000/svg" xmlns:xlink="http://www.w3.org/1999/xlink">
    <!-- Generator: Sketch 52.3 (67297) - http://www.bohemiancoding.com/sketch -->
    <title>second-mobile</title>
    <desc>Created with Sketch.</desc>
    <g id="second-mobile" stroke="none" stroke-width="1" fill="none" fill-rule="evenodd">
        <path d="M128.057504,479.50824 L152,486.706658 C150.391764,493.385223 147.85883,498.963942 144.401122,503.44298 C140.943414,507.922018 136.651498,511.301241 131.525245,513.580751 C126.398993,515.860262 119.875682,517 111.955119,517 C102.345908,517 94.4958229,515.610319 88.4046283,512.830916 C82.3134338,510.051513 77.0565906,505.162637 72.6339411,498.16414 C68.2112916,491.165643 66,482.207701 66,471.290046 C66,456.733173 69.8898629,445.545743 77.6697055,437.727423 C85.449548,429.909102 96.4557493,426 110.68864,426 C121.825675,426 130.58038,428.239485 136.953015,432.718523 C143.325651,437.197561 148.059826,444.075981 151.15568,453.353988 L127.032258,458.692815 C126.187934,456.01339 125.303417,454.053841 124.378682,452.814107 C122.850857,450.734553 120.981311,449.134921 118.769986,448.015162 C116.558661,446.895402 114.086035,446.335531 111.352034,446.335531 C105.160324,446.335531 100.416099,448.814961 97.1192146,453.773896 C94.6264485,457.453106 93.3800842,463.231778 93.3800842,471.110086 C93.3800842,480.86799 94.8676803,487.556453 97.8429173,491.175676 C100.818154,494.794898 104.999506,496.604483 110.387097,496.604483 C115.613864,496.604483 119.564035,495.144818 122.237728,492.225445 C124.911421,489.306072 126.851326,485.067046 128.057504,479.50824 Z" id="C" fill="#000000"></path>
        <path d="M218,169 L218,81 L263.551318,81 C271.997962,81 278.453514,81.7203202 282.918169,83.1609823 C287.382824,84.6016443 290.982649,87.2728318 293.717753,91.1746248 C296.452857,95.0764179 297.820388,99.8285304 297.820388,105.431105 C297.820388,110.313349 296.774629,114.525221 294.683079,118.066849 C292.591529,121.608476 289.715691,124.479753 286.055479,126.680764 C283.722596,128.081408 280.524986,129.241924 276.462552,130.162347 C279.720543,131.242843 282.093613,132.323323 283.581831,133.40382 C284.587384,134.124151 286.045413,135.664836 287.955964,138.025921 C289.866514,140.387006 291.143547,142.207815 291.787101,143.488404 L305,169 L274.10957,169 L259.509015,142.107776 C257.658798,138.626176 256.009716,136.365171 254.56172,135.324693 C252.590836,133.964068 250.358542,133.283765 247.864771,133.283765 L245.451456,133.283765 L245.451456,169 L218,169 Z M245.451456,116.656207 L256.975035,116.656207 C258.22192,116.656207 260.635211,116.256029 264.214979,115.455662 C266.024974,115.095496 267.503115,114.175087 268.649445,112.694407 C269.795775,111.213726 270.368932,109.51297 270.368932,107.592087 C270.368932,104.750782 269.463948,102.569812 267.653953,101.049113 C265.843958,99.5284144 262.44524,98.7680764 257.457698,98.7680764 L245.451456,98.7680764 L245.451456,116.656207 Z" id="R" fill="#000000"></path>
        <path d="M275.976512,314 L303,314 L303,366.135389 C303,371.305209 302.192891,376.186639 300.578648,380.779826 C298.964405,385.373012 296.433469,389.389505 292.985765,392.829424 C289.538061,396.269342 285.921015,398.685203 282.13452,400.077078 C276.873283,402.025702 270.555909,403 263.182206,403 C258.917416,403 254.264082,402.701746 249.222064,402.105228 C244.180046,401.50871 239.965141,400.325634 236.577224,398.555965 C233.189307,396.786296 230.090406,394.271017 227.280427,391.010054 C224.470449,387.74909 222.547336,384.388757 221.511032,380.928954 C219.837002,375.361456 219,370.430316 219,366.135389 L219,314 L246.023488,314 L246.023488,367.38807 C246.023488,372.160212 247.348741,375.888391 249.999288,378.572721 C252.649835,381.257051 256.326667,382.599196 261.029893,382.599196 C265.693262,382.599196 269.350165,381.276935 272.000712,378.632373 C274.651259,375.987811 275.976512,372.239747 275.976512,367.38807 L275.976512,314 Z" id="U" fill="#000000"></path>
        <polygon id="L" fill="#000000" points="74 314 101.336207 314 101.336207 380.33015 144 380.33015 144 402 74 402"></polygon>
        <polygon id="E" fill="#000000" points="72 81 144.682848 81 144.682848 99.7885402 99.1812298 99.7885402 99.1812298 113.774898 141.389968 113.774898 141.389968 131.723056 99.1812298 131.723056 99.1812298 149.070941 146 149.070941 146 169 72 169"></polygon>
        <path d="M277.157895,501.473397 L246.120301,501.473397 L241.849624,516 L214,516 L247.142857,428 L276.857143,428 L310,516 L281.488722,516 L277.157895,501.473397 Z M271.443609,482.444748 L261.699248,450.810368 L252.015038,482.444748 L271.443609,482.444748 Z" id="A" fill="#000000"></path>
        <polygon id="I" fill="#000000" points="95 195 122 195 122 283 95 283"></polygon>
        <path d="M280.057504,246.50824 L304,253.706658 C302.391764,260.385223 299.85883,265.963942 296.401122,270.44298 C292.943414,274.922018 288.651498,278.301241 283.525245,280.580751 C278.398993,282.860262 271.875682,284 263.955119,284 C254.345908,284 246.495823,282.610319 240.404628,279.830916 C234.313434,277.051513 229.056591,272.162637 224.633941,265.16414 C220.211292,258.165643 218,249.207701 218,238.290046 C218,223.733173 221.889863,212.545743 229.669705,204.727423 C237.449548,196.909102 248.455749,193 262.68864,193 C273.825675,193 282.58038,195.239485 288.953015,199.718523 C295.325651,204.197561 300.059826,211.075981 303.15568,220.353988 L279.032258,225.692815 C278.187934,223.01339 277.303417,221.053841 276.378682,219.814107 C274.850857,217.734553 272.981311,216.134921 270.769986,215.015162 C268.558661,213.895402 266.086035,213.335531 263.352034,213.335531 C257.160324,213.335531 252.416099,215.814961 249.119215,220.773896 C246.626448,224.453106 245.380084,230.231778 245.380084,238.110086 C245.380084,247.86799 246.86768,254.556453 249.842917,258.175676 C252.818154,261.794898 256.999506,263.604483 262.387097,263.604483 C267.613864,263.604483 271.564035,262.144818 274.237728,259.225445 C276.911421,256.306072 278.851326,252.067046 280.057504,246.50824 Z" id="C" fill="#000000"></path>
        <path d="M69,606.482511 L94.9463068,604.859223 C95.5081786,609.067768 96.6519718,612.274231 98.3777209,614.478708 C101.18708,618.045951 105.20039,619.829546 110.41777,619.829546 C114.310739,619.829546 117.310688,618.917708 119.417707,617.094005 C121.524727,615.270302 122.57822,613.156041 122.57822,610.751157 C122.57822,608.466518 121.574893,606.422398 119.568208,604.618736 C117.561523,602.815073 112.906084,601.11164 105.601751,599.508384 C93.6419083,596.822931 85.1136251,593.255741 80.0166453,588.806708 C74.8795318,584.357674 72.3110136,578.686242 72.3110136,571.792244 C72.3110136,567.263047 73.6253726,562.984423 76.2541299,558.956244 C78.8828871,554.928064 82.8359972,551.761682 88.1135787,549.457002 C93.3911601,547.152323 100.625151,546 109.815768,546 C121.093337,546 129.691853,548.094221 135.611574,552.282726 C141.531295,556.471231 145.052974,563.134662 146.176718,572.273218 L120.471212,573.776262 C119.788939,569.808205 118.354181,566.922389 116.166894,565.118726 C113.979607,563.315064 110.959592,562.413246 107.106757,562.413246 C103.936195,562.413246 101.548275,563.084599 99.9429273,564.427326 C98.3375794,565.770052 97.5349174,567.403344 97.5349174,569.327251 C97.5349174,570.730099 98.1971135,571.992644 99.5215256,573.114923 C100.805804,574.277283 103.855919,575.359464 108.671963,576.361499 C120.591672,578.926708 129.129988,581.521939 134.287169,584.14727 C139.444349,586.7726 143.196794,590.029164 145.544615,593.917059 C147.892436,597.804953 149.066329,602.153719 149.066329,606.963485 C149.066329,612.614961 147.501139,617.825463 144.37071,622.595148 C141.240282,627.364833 136.865774,630.982124 131.247056,633.447129 C125.628338,635.912135 118.544847,637.144619 109.996369,637.144619 C94.9863652,637.144619 84.5918931,634.258802 78.8126404,628.487082 C73.0333877,622.715363 69.7625403,615.380579 69,606.482511 Z" id="S" fill="#000000"></path>
        <polygon id="N" fill="#000000" points="220 662 245.364808 662 278.464982 710.759495 278.464982 662 304.069646 662 304.069646 750.139851 278.464982 750.139851 245.5447 701.741092 245.5447 750.139851 220 750.139851"></polygon>
        <path d="M221,606.482511 L246.946307,604.859223 C247.508179,609.067768 248.651972,612.274231 250.377721,614.478708 C253.18708,618.045951 257.20039,619.829546 262.41777,619.829546 C266.310739,619.829546 269.310688,618.917708 271.417707,617.094005 C273.524727,615.270302 274.57822,613.156041 274.57822,610.751157 C274.57822,608.466518 273.574893,606.422398 271.568208,604.618736 C269.561523,602.815073 264.906084,601.11164 257.601751,599.508384 C245.641908,596.822931 237.113625,593.255741 232.016645,588.806708 C226.879532,584.357674 224.311014,578.686242 224.311014,571.792244 C224.311014,567.263047 225.625373,562.984423 228.25413,558.956244 C230.882887,554.928064 234.835997,551.761682 240.113579,549.457002 C245.39116,547.152323 252.625151,546 261.815768,546 C273.093337,546 281.691853,548.094221 287.611574,552.282726 C293.531295,556.471231 297.052974,563.134662 298.176718,572.273218 L272.471212,573.776262 C271.788939,569.808205 270.354181,566.922389 268.166894,565.118726 C265.979607,563.315064 262.959592,562.413246 259.106757,562.413246 C255.936195,562.413246 253.548275,563.084599 251.942927,564.427326 C250.337579,565.770052 249.534917,567.403344 249.534917,569.327251 C249.534917,570.730099 250.197114,571.992644 251.521526,573.114923 C252.805804,574.277283 255.855919,575.359464 260.671963,576.361499 C272.591672,578.926708 281.129988,581.521939 286.287169,584.14727 C291.444349,586.7726 295.196794,590.029164 297.544615,593.917059 C299.892436,597.804953 301.066329,602.153719 301.066329,606.963485 C301.066329,612.614961 299.501139,617.825463 296.37071,622.595148 C293.240282,627.364833 288.865774,630.982124 283.247056,633.447129 C277.628338,635.912135 270.544847,637.144619 261.996369,637.144619 C246.986365,637.144619 236.591893,634.258802 230.81264,628.487082 C225.033388,622.715363 221.76254,615.380579 221,606.482511 Z" id="S" fill="#000000"></path>
        <polygon id="E" fill="#000000" points="72 662 144.743111 662 144.743111 680.818399 99.2037662 680.818399 99.2037662 694.826984 141.4475 694.826984 141.4475 712.803666 99.2037662 712.803666 99.2037662 730.179121 146.061355 730.179121 146.061355 750.139851 72 750.139851"></polygon>
    </g>
</svg>