<?xml version="1.0" encoding="UTF-8"?>
<svg width="1680px" height="950px" viewBox="0 0 1680 950" version="1.1" xmlns="http://www.w3.org/2000/svg" xmlns:xlink="http://www.w3.org/1999/xlink">
    <!-- Generator: Sketch 52.3 (67297) - http://www.bohemiancoding.com/sketch -->
    <title>second-desktop</title>
    <desc>Created with Sketch.</desc>
    <g id="second-desktop" stroke="none" stroke-width="1" fill="none" fill-rule="evenodd">
        <polygon id="E" fill="#000000" points="60 87 229.920712 87 229.920712 130.768759 123.545307 130.768759 123.545307 163.350614 222.222492 163.350614 222.222492 205.161664 123.545307 205.161664 123.545307 245.574352 233 245.574352 233 292 60 292"></polygon>
        <polygon id="L" fill="#000000" points="84 395 147.263793 395 147.263793 549.5191 246 549.5191 246 600 84 600"></polygon>
        <path d="M60,837.680739 L120.275188,833.905013 C121.580458,843.69398 124.237574,851.152129 128.246617,856.279683 C134.772965,864.576998 144.09618,868.725594 156.216541,868.725594 C165.260196,868.725594 172.229299,866.604683 177.12406,862.362797 C182.018821,858.120911 184.466165,853.203194 184.466165,847.609499 C184.466165,842.295488 182.135362,837.540918 177.473684,833.345646 C172.812007,829.150375 161.997077,825.188233 145.028571,821.459103 C117.244974,815.21281 97.4331419,806.915619 85.5924812,796.567282 C73.6585869,786.218946 67.6917293,773.027345 67.6917293,756.992084 C67.6917293,746.457291 70.7450822,736.505324 76.8518797,727.135884 C82.9586772,717.766444 92.142044,710.401522 104.402256,705.040897 C116.662467,699.680272 133.467562,697 154.818045,697 C181.016672,697 200.991661,701.871103 214.743609,711.613456 C228.495557,721.355809 236.676679,736.854775 239.287218,758.110818 L179.571429,761.60686 C177.986458,752.377263 174.653409,745.664929 169.57218,741.469657 C164.490952,737.274385 157.475233,735.176781 148.524812,735.176781 C141.159362,735.176781 135.612049,736.738331 131.882707,739.861478 C128.153365,742.984624 126.288722,746.783619 126.288722,751.258575 C126.288722,754.521564 127.827052,757.45821 130.903759,760.068602 C133.887233,762.772221 140.972876,765.289346 152.160902,767.620053 C179.851266,773.586661 199.686406,779.623101 211.666917,785.729551 C223.647428,791.836002 232.364634,799.410685 237.818797,808.453826 C243.27296,817.496967 246,827.612081 246,838.799472 C246,851.944657 242.363946,864.064149 235.091729,875.158311 C227.819513,886.252474 217.657208,894.666198 204.604511,900.399736 C191.551814,906.133274 175.09634,909 155.237594,909 C120.368247,909 96.2211198,902.287666 82.7954887,888.862797 C69.3698577,875.437928 61.7714374,858.377412 60,837.680739 Z" id="S" fill="#000000"></path>
        <g id="Group" transform="translate(535.333333, 85.000000)">
            <path d="M0.213679716,205.681747 L0.213679716,0.698327183 L105.869044,0.698327183 C125.460865,0.698327183 140.434389,2.37621015 150.790066,5.73202643 C161.145743,9.08784271 169.495465,15.3099921 175.839483,24.3986612 C182.183501,33.4873302 185.355463,44.5566971 185.355463,57.6070937 C185.355463,68.9795822 182.929845,78.7905368 178.078537,87.0402518 C173.227229,95.2899669 166.556781,101.978195 158.066992,107.105136 C152.655917,110.367736 145.239125,113.070991 135.816392,115.214985 C143.373237,117.731847 148.877523,120.248672 152.329416,122.765534 C154.661775,124.443442 158.043646,128.032247 162.475129,133.532057 C166.906613,139.031867 169.868665,143.273183 171.361375,146.256131 L202.008428,205.681747 L130.358697,205.681747 L96.4930047,143.040156 C92.2014629,134.930267 88.3764505,129.663578 85.0178526,127.239933 C80.4464277,124.070551 75.2686669,122.485884 69.484415,122.485884 L63.8867798,122.485884 L63.8867798,205.681747 L0.213679716,205.681747 Z" id="Path" fill="#000000"></path>
            <path d="M63.8867798,83.7543648 L90.6154877,83.7543648 C93.5076137,83.7543648 99.1051929,82.8222076 107.408393,80.9578652 C111.606641,80.1189112 115.035158,77.9749496 117.694048,74.5259162 C120.352938,71.0768828 121.682363,67.1152147 121.682363,62.640793 C121.682363,56.0223775 119.583271,50.9421208 115.385023,47.3998702 C111.186776,43.8576197 103.303519,42.086521 91.7350148,42.086521 L63.8867798,42.086521 L63.8867798,83.7543648 Z" id="Path" fill="#FFFFFF"></path>
        </g>
        <path d="M630.290154,393 L693.666667,393 L693.666667,515.430295 C693.666667,527.570659 691.773803,539.033793 687.988019,549.82004 C684.202235,560.606287 678.266588,570.038275 670.180902,578.116287 C662.095215,586.194299 653.612381,591.867499 644.732147,595.136059 C632.393295,599.712043 617.577548,602 600.28446,602 C590.282512,602 579.369336,601.299605 567.544603,599.898794 C555.71987,598.497982 545.834915,595.719748 537.889442,591.564008 C529.94397,587.408268 522.676308,581.501602 516.08624,573.843834 C509.496171,566.186065 504.986015,558.294947 502.555635,550.170241 C498.629636,537.096003 496.666667,525.516136 496.666667,515.430295 L496.666667,393 L560.043179,393 L560.043179,518.371984 C560.043179,529.578474 563.151214,538.333414 569.367378,544.637064 C575.583542,550.940715 584.206588,554.092493 595.236773,554.092493 C606.173483,554.092493 614.749791,550.987408 620.965955,544.777145 C627.182119,538.566881 630.290154,529.765249 630.290154,518.371984 L630.290154,393 Z" id="U" fill="#000000"></path>
        <path d="M514,837.680739 L574.275188,833.905013 C575.580458,843.69398 578.237574,851.152129 582.246617,856.279683 C588.772965,864.576998 598.09618,868.725594 610.216541,868.725594 C619.260196,868.725594 626.229299,866.604683 631.12406,862.362797 C636.018821,858.120911 638.466165,853.203194 638.466165,847.609499 C638.466165,842.295488 636.135362,837.540918 631.473684,833.345646 C626.812007,829.150375 615.997077,825.188233 599.028571,821.459103 C571.244974,815.21281 551.433142,806.915619 539.592481,796.567282 C527.658587,786.218946 521.691729,773.027345 521.691729,756.992084 C521.691729,746.457291 524.745082,736.505324 530.85188,727.135884 C536.958677,717.766444 546.142044,710.401522 558.402256,705.040897 C570.662467,699.680272 587.467562,697 608.818045,697 C635.016672,697 654.991661,701.871103 668.743609,711.613456 C682.495557,721.355809 690.676679,736.854775 693.287218,758.110818 L633.571429,761.60686 C631.986458,752.377263 628.653409,745.664929 623.57218,741.469657 C618.490952,737.274385 611.475233,735.176781 602.524812,735.176781 C595.159362,735.176781 589.612049,736.738331 585.882707,739.861478 C582.153365,742.984624 580.288722,746.783619 580.288722,751.258575 C580.288722,754.521564 581.827052,757.45821 584.903759,760.068602 C587.887233,762.772221 594.972876,765.289346 606.160902,767.620053 C633.851266,773.586661 653.686406,779.623101 665.666917,785.729551 C677.647428,791.836002 686.364634,799.410685 691.818797,808.453826 C697.27296,817.496967 700,827.612081 700,838.799472 C700,851.944657 696.363946,864.064149 689.091729,875.158311 C681.819513,886.252474 671.657208,894.666198 658.604511,900.399736 C645.551814,906.133274 629.09634,909 609.237594,909 C574.368247,909 550.22112,902.287666 536.795489,888.862797 C523.369858,875.437928 515.771437,858.377412 514,837.680739 Z" id="S" fill="#000000"></path>
        <polygon id="I" fill="#000000" points="1040.66667 87 1104.66667 87 1104.66667 292 1040.66667 292"></polygon>
        <path d="M1088.65311,516.656559 L1144.33333,533.4265 C1140.59325,548.985356 1134.70271,561.98193 1126.66152,572.416612 C1118.62034,582.851294 1108.63914,590.72377 1096.71763,596.034278 C1084.79611,601.344786 1069.62562,604 1051.2057,604 C1028.8587,604 1010.60269,600.762502 996.43712,594.287409 C982.271551,587.812317 970.046335,576.422846 959.761103,560.118655 C949.475872,543.814465 944.333333,522.945414 944.333333,497.510877 C944.333333,463.59816 953.379526,437.535138 971.472183,419.321028 C989.56484,401.106918 1015.16066,392 1048.2604,392 C1074.16048,392 1094.52026,397.217263 1109.34035,407.651945 C1124.16043,418.086627 1135.17014,434.111076 1142.3698,455.725775 L1086.26882,468.163481 C1084.30527,461.921305 1082.24826,457.3562 1080.09771,454.468029 C1076.54463,449.623355 1072.19685,445.896739 1067.05423,443.288069 C1061.91162,440.679398 1056.16132,439.375082 1049.80318,439.375082 C1035.40386,439.375082 1024.37077,445.151338 1016.7036,456.704021 C1010.90647,465.275367 1008.00795,478.737768 1008.00795,497.091628 C1008.00795,519.824328 1011.46747,535.406242 1018.38663,543.837838 C1025.30578,552.269434 1035.02986,556.485168 1047.55914,556.485168 C1059.71441,556.485168 1068.90086,553.084631 1075.11875,546.283454 C1081.33664,539.482278 1085.84805,529.606745 1088.65311,516.656559 Z" id="C" fill="#000000"></path>
        <polygon id="E" fill="#000000" points="968 701 1137.92071 701 1137.92071 744.768759 1031.54531 744.768759 1031.54531 777.350614 1130.22249 777.350614 1130.22249 819.161664 1031.54531 819.161664 1031.54531 859.574352 1141 859.574352 1141 906 968 906"></polygon>
        <path d="M1551.31978,208.656559 L1607,225.4265 C1603.25992,240.985356 1597.36937,253.98193 1589.32819,264.416612 C1581.28701,274.851294 1571.30581,282.72377 1559.38429,288.034278 C1547.46277,293.344786 1532.29228,296 1513.87237,296 C1491.52537,296 1473.26936,292.762502 1459.10379,286.287409 C1444.93822,279.812317 1432.713,268.422846 1422.42777,252.118655 C1412.14254,235.814465 1407,214.945414 1407,189.510877 C1407,155.59816 1416.04619,129.535138 1434.13885,111.321028 C1452.23151,93.1069184 1477.82732,84 1510.92707,84 C1536.82715,84 1557.18693,89.2172627 1572.00701,99.6519446 C1586.8271,110.086627 1597.8368,126.111076 1605.03647,147.725775 L1548.93548,160.163481 C1546.97194,153.921305 1544.91492,149.3562 1542.76438,146.468029 C1539.2113,141.623355 1534.86351,137.896739 1529.7209,135.288069 C1524.57828,132.679398 1518.82799,131.375082 1512.46985,131.375082 C1498.07052,131.375082 1487.03744,137.151338 1479.37027,148.704021 C1473.57314,157.275367 1470.67461,170.737768 1470.67461,189.091628 C1470.67461,211.824328 1474.13414,227.406242 1481.0533,235.837838 C1487.97245,244.269434 1497.69652,248.485168 1510.22581,248.485168 C1522.38108,248.485168 1531.56752,245.084631 1537.78541,238.283454 C1544.0033,231.482278 1548.51471,221.606745 1551.31978,208.656559 Z" id="C" fill="#000000"></path>
        <g id="Group-2" transform="translate(1395.000000, 395.000000)">
            <polygon id="Path" fill="#000000" points="147.330359 171.935736 75.2490102 171.935736 65.33084 205.773381 0.653195396 205.773381 77.6237833 0.789961275 146.631897 0.789961275 223.602484 205.773381 157.388222 205.773381"></polygon>
            <polygon id="Path" fill="#FFFFFF" points="134.059568 127.611217 111.429377 53.9234534 88.9388788 127.611217"></polygon>
        </g>
        <polygon id="N" fill="#000000" points="1409 701 1468.13552 701 1545.30528 814.407231 1545.30528 701 1605 701 1605 906 1545.30528 906 1468.55492 793.431787 1468.55492 906 1409 906"></polygon>
    </g>
</svg>