<?xml version="1.0" encoding="UTF-8"?>
<svg width="1680px" height="950px" viewBox="0 0 1680 950" version="1.1" xmlns="http://www.w3.org/2000/svg" xmlns:xlink="http://www.w3.org/1999/xlink">
    <!-- Generator: Sketch 52.3 (67297) - http://www.bohemiancoding.com/sketch -->
    <title>second-desktop</title>
    <desc>Created with Sketch.</desc>
    <g id="second-desktop" stroke="none" stroke-width="1" fill="none" fill-rule="evenodd">
        <polygon id="E" fill="#000000" points="67 87 236.920712 87 236.920712 130.768759 130.545307 130.768759 130.545307 163.350614 229.222492 163.350614 229.222492 205.161664 130.545307 205.161664 130.545307 245.574352 240 245.574352 240 292 67 292"></polygon>
        <polygon id="L" fill="#000000" points="72 395 135.263793 395 135.263793 549.5191 234 549.5191 234 600 72 600"></polygon>
        <path d="M60,837.680739 L120.275188,833.905013 C121.580458,843.69398 124.237574,851.152129 128.246617,856.279683 C134.772965,864.576998 144.09618,868.725594 156.216541,868.725594 C165.260196,868.725594 172.229299,866.604683 177.12406,862.362797 C182.018821,858.120911 184.466165,853.203194 184.466165,847.609499 C184.466165,842.295488 182.135362,837.540918 177.473684,833.345646 C172.812007,829.150375 161.997077,825.188233 145.028571,821.459103 C117.244974,815.21281 97.4331419,806.915619 85.5924812,796.567282 C73.6585869,786.218946 67.6917293,773.027345 67.6917293,756.992084 C67.6917293,746.457291 70.7450822,736.505324 76.8518797,727.135884 C82.9586772,717.766444 92.142044,710.401522 104.402256,705.040897 C116.662467,699.680272 133.467562,697 154.818045,697 C181.016672,697 200.991661,701.871103 214.743609,711.613456 C228.495557,721.355809 236.676679,736.854775 239.287218,758.110818 L179.571429,761.60686 C177.986458,752.377263 174.653409,745.664929 169.57218,741.469657 C164.490952,737.274385 157.475233,735.176781 148.524812,735.176781 C141.159362,735.176781 135.612049,736.738331 131.882707,739.861478 C128.153365,742.984624 126.288722,746.783619 126.288722,751.258575 C126.288722,754.521564 127.827052,757.45821 130.903759,760.068602 C133.887233,762.772221 140.972876,765.289346 152.160902,767.620053 C179.851266,773.586661 199.686406,779.623101 211.666917,785.729551 C223.647428,791.836002 232.364634,799.410685 237.818797,808.453826 C243.27296,817.496967 246,827.612081 246,838.799472 C246,851.944657 242.363946,864.064149 235.091729,875.158311 C227.819513,886.252474 217.657208,894.666198 204.604511,900.399736 C191.551814,906.133274 175.09634,909 155.237594,909 C120.368247,909 96.2211198,902.287666 82.7954887,888.862797 C69.3698577,875.437928 61.7714374,858.377412 60,837.680739 Z" id="S" fill="#000000"></path>
        <path d="M676.623488,393 L740,393 L740,515.430295 C740,527.570659 738.107136,539.033793 734.321352,549.82004 C730.535568,560.606287 724.599922,570.038275 716.514235,578.116287 C708.428548,586.194299 699.945715,591.867499 691.06548,595.136059 C678.726629,599.712043 663.910881,602 646.617794,602 C636.615846,602 625.702669,601.299605 613.877936,599.898794 C602.053203,598.497982 592.168249,595.719748 584.222776,591.564008 C576.277303,587.408268 569.009641,581.501602 562.419573,573.843834 C555.829504,566.186065 551.319348,558.294947 548.888968,550.170241 C544.96297,537.096003 543,525.516136 543,515.430295 L543,393 L606.376512,393 L606.376512,518.371984 C606.376512,529.578474 609.484548,538.333414 615.700712,544.637064 C621.916876,550.940715 630.539921,554.092493 641.570107,554.092493 C652.506816,554.092493 661.083124,550.987408 667.299288,544.777145 C673.515452,538.566881 676.623488,529.765249 676.623488,518.371984 L676.623488,393 Z" id="U" fill="#000000"></path>
        <path d="M548,837.680739 L608.275188,833.905013 C609.580458,843.69398 612.237574,851.152129 616.246617,856.279683 C622.772965,864.576998 632.09618,868.725594 644.216541,868.725594 C653.260196,868.725594 660.229299,866.604683 665.12406,862.362797 C670.018821,858.120911 672.466165,853.203194 672.466165,847.609499 C672.466165,842.295488 670.135362,837.540918 665.473684,833.345646 C660.812007,829.150375 649.997077,825.188233 633.028571,821.459103 C605.244974,815.21281 585.433142,806.915619 573.592481,796.567282 C561.658587,786.218946 555.691729,773.027345 555.691729,756.992084 C555.691729,746.457291 558.745082,736.505324 564.85188,727.135884 C570.958677,717.766444 580.142044,710.401522 592.402256,705.040897 C604.662467,699.680272 621.467562,697 642.818045,697 C669.016672,697 688.991661,701.871103 702.743609,711.613456 C716.495557,721.355809 724.676679,736.854775 727.287218,758.110818 L667.571429,761.60686 C665.986458,752.377263 662.653409,745.664929 657.57218,741.469657 C652.490952,737.274385 645.475233,735.176781 636.524812,735.176781 C629.159362,735.176781 623.612049,736.738331 619.882707,739.861478 C616.153365,742.984624 614.288722,746.783619 614.288722,751.258575 C614.288722,754.521564 615.827052,757.45821 618.903759,760.068602 C621.887233,762.772221 628.972876,765.289346 640.160902,767.620053 C667.851266,773.586661 687.686406,779.623101 699.666917,785.729551 C711.647428,791.836002 720.364634,799.410685 725.818797,808.453826 C731.27296,817.496967 734,827.612081 734,838.799472 C734,851.944657 730.363946,864.064149 723.091729,875.158311 C715.819513,886.252474 705.657208,894.666198 692.604511,900.399736 C679.551814,906.133274 663.09634,909 643.237594,909 C608.368247,909 584.22112,902.287666 570.795489,888.862797 C557.369858,875.437928 549.771437,858.377412 548,837.680739 Z" id="S" fill="#000000"></path>
        <polygon id="I" fill="#000000" points="1042 87 1106 87 1106 292 1042 292"></polygon>
        <path d="M1118.31978,516.656559 L1174,533.4265 C1170.25992,548.985356 1164.36937,561.98193 1156.32819,572.416612 C1148.28701,582.851294 1138.30581,590.72377 1126.38429,596.034278 C1114.46277,601.344786 1099.29228,604 1080.87237,604 C1058.52537,604 1040.26936,600.762502 1026.10379,594.287409 C1011.93822,587.812317 999.713001,576.422846 989.42777,560.118655 C979.142539,543.814465 974,522.945414 974,497.510877 C974,463.59816 983.046193,437.535138 1001.13885,419.321028 C1019.23151,401.106918 1044.82732,392 1077.92707,392 C1103.82715,392 1124.18693,397.217263 1139.00701,407.651945 C1153.8271,418.086627 1164.8368,434.111076 1172.03647,455.725775 L1115.93548,468.163481 C1113.97194,461.921305 1111.91492,457.3562 1109.76438,454.468029 C1106.2113,449.623355 1101.86351,445.896739 1096.7209,443.288069 C1091.57828,440.679398 1085.82799,439.375082 1079.46985,439.375082 C1065.07052,439.375082 1054.03744,445.151338 1046.37027,456.704021 C1040.57314,465.275367 1037.67461,478.737768 1037.67461,497.091628 C1037.67461,519.824328 1041.13414,535.406242 1048.0533,543.837838 C1054.97245,552.269434 1064.69652,556.485168 1077.22581,556.485168 C1089.38108,556.485168 1098.56752,553.084631 1104.78541,546.283454 C1111.0033,539.482278 1115.51471,529.606745 1118.31978,516.656559 Z" id="C" fill="#000000"></path>
        <polygon id="E" fill="#000000" points="988 701 1157.92071 701 1157.92071 744.768759 1051.54531 744.768759 1051.54531 777.350614 1150.22249 777.350614 1150.22249 819.161664 1051.54531 819.161664 1051.54531 859.574352 1161 859.574352 1161 906 988 906"></polygon>
        <path d="M1552.31978,208.656559 L1608,225.4265 C1604.25992,240.985356 1598.36937,253.98193 1590.32819,264.416612 C1582.28701,274.851294 1572.30581,282.72377 1560.38429,288.034278 C1548.46277,293.344786 1533.29228,296 1514.87237,296 C1492.52537,296 1474.26936,292.762502 1460.10379,286.287409 C1445.93822,279.812317 1433.713,268.422846 1423.42777,252.118655 C1413.14254,235.814465 1408,214.945414 1408,189.510877 C1408,155.59816 1417.04619,129.535138 1435.13885,111.321028 C1453.23151,93.1069184 1478.82732,84 1511.92707,84 C1537.82715,84 1558.18693,89.2172627 1573.00701,99.6519446 C1587.8271,110.086627 1598.8368,126.111076 1606.03647,147.725775 L1549.93548,160.163481 C1547.97194,153.921305 1545.91492,149.3562 1543.76438,146.468029 C1540.2113,141.623355 1535.86351,137.896739 1530.7209,135.288069 C1525.57828,132.679398 1519.82799,131.375082 1513.46985,131.375082 C1499.07052,131.375082 1488.03744,137.151338 1480.37027,148.704021 C1474.57314,157.275367 1471.67461,170.737768 1471.67461,189.091628 C1471.67461,211.824328 1475.13414,227.406242 1482.0533,235.837838 C1488.97245,244.269434 1498.69652,248.485168 1511.22581,248.485168 C1523.38108,248.485168 1532.56752,245.084631 1538.78541,238.283454 C1545.0033,231.482278 1549.51471,221.606745 1552.31978,208.656559 Z" id="C" fill="#000000"></path>
        <polygon id="N" fill="#000000" points="1410 701 1469.13552 701 1546.30528 814.407231 1546.30528 701 1606 701 1606 906 1546.30528 906 1469.55492 793.431787 1469.55492 906 1410 906"></polygon>
        <path d="M540,291 L540,86 L645.762829,86 C665.374578,86 680.363332,87.6780187 690.729542,91.0341064 C701.095752,94.3901941 709.453967,100.612847 715.804438,109.702251 C722.154909,118.791655 725.330097,129.861917 725.330097,142.91337 C725.330097,154.286778 722.902012,164.098526 718.04577,172.348909 C713.189527,180.599291 706.512294,187.28806 698.01387,192.415416 C692.597291,195.678279 685.172955,198.381754 675.740638,200.525921 C683.30517,203.042987 688.815054,205.560015 692.270458,208.07708 C694.60519,209.755124 697.9905,213.34422 702.426491,218.844475 C706.862482,224.34473 709.827547,228.586388 711.321775,231.569577 L742,291 L670.277393,291 L636.377254,228.353342 C632.081347,220.242797 628.252444,214.975683 624.89043,212.551842 C620.314355,209.382203 615.131328,207.797408 609.341193,207.797408 L603.737864,207.797408 L603.737864,291 L540,291 Z M603.737864,169.062756 L630.493759,169.062756 C633.388826,169.062756 638.992099,168.130523 647.303745,166.26603 C651.506262,165.427008 654.938267,163.282873 657.599861,159.833561 C660.261456,156.384248 661.592233,152.42226 661.592233,147.947476 C661.592233,141.328525 659.491006,136.247858 655.288488,132.705321 C651.085971,129.162784 643.194695,127.391542 631.614424,127.391542 L603.737864,127.391542 L603.737864,169.062756 Z" id="R" fill="#000000"></path>
        <path d="M1542.71053,569.159618 L1470.61278,569.159618 L1460.69236,603 L1396,603 L1472.9881,398 L1542.0119,398 L1619,603 L1552.77068,603 L1542.71053,569.159618 Z M1529.43672,524.831514 L1506.80138,451.13779 L1484.30576,524.831514 L1529.43672,524.831514 Z" id="A" fill="#000000"></path>
    </g>
</svg>