<?xml version="1.0" encoding="UTF-8"?>
<svg width="213px" height="41px" viewBox="0 0 213 41" version="1.1" xmlns="http://www.w3.org/2000/svg" xmlns:xlink="http://www.w3.org/1999/xlink">
    <!-- Generator: Sketch 52.3 (67297) - http://www.bohemiancoding.com/sketch -->
    <title>star raitings</title>
    <desc>Created with Sketch.</desc>
    <g id="Page-1" stroke="none" stroke-width="1" fill="none" fill-rule="evenodd">
        <g id="star-raitings">
            <polygon id="Star" fill="#FCD902" points="3.37192765 5.25 1.28796175 6.33155948 1.68596382 4.04077974 -1.31286624e-13 2.41844052 2.3299447 2.08422026 3.37192765 -2.66453526e-15 4.4139106 2.08422026 6.7438553 2.41844052 5.05789147 4.04077974 5.45589354 6.33155948"></polygon>
            <polygon id="Star" fill="#FCD902" points="11.3719276 5.25 9.28796175 6.33155948 9.68596382 4.04077974 8 2.41844052 10.3299447 2.08422026 11.3719276 -2.66453526e-15 12.4139106 2.08422026 14.7438553 2.41844052 13.0578915 4.04077974 13.4558935 6.33155948"></polygon>
            <polygon id="Star" fill="#FCD902" points="18.3719276 5.25 16.2879618 6.33155948 16.6859638 4.04077974 15 2.41844052 17.3299447 2.08422026 18.3719276 -2.66453526e-15 19.4139106 2.08422026 21.7438553 2.41844052 20.0578915 4.04077974 20.4558935 6.33155948"></polygon>
            <polygon id="Star" fill="#FCD902" points="26.3719276 5.25 24.2879618 6.33155948 24.6859638 4.04077974 23 2.41844052 25.3299447 2.08422026 26.3719276 -2.66453526e-15 27.4139106 2.08422026 29.7438553 2.41844052 28.0578915 4.04077974 28.4558935 6.33155948"></polygon>
            <polygon id="Star" fill="#FCD902" points="34.3719276 5.25 32.2879618 6.33155948 32.6859638 4.04077974 31 2.41844052 33.3299447 2.08422026 34.3719276 -2.66453526e-15 35.4139106 2.08422026 37.7438553 2.41844052 36.0578915 4.04077974 36.4558935 6.33155948"></polygon>
            <polygon id="Star" fill="#FCD902" points="11.3719276 13.25 9.28796175 14.3315595 9.68596382 12.0407797 8 10.4184405 10.3299447 10.0842203 11.3719276 8 12.4139106 10.0842203 14.7438553 10.4184405 13.0578915 12.0407797 13.4558935 14.3315595"></polygon>
            <polygon id="Star" fill="#FCD902" points="18.3719276 13.25 16.2879618 14.3315595 16.6859638 12.0407797 15 10.4184405 17.3299447 10.0842203 18.3719276 8 19.4139106 10.0842203 21.7438553 10.4184405 20.0578915 12.0407797 20.4558935 14.3315595"></polygon>
            <polygon id="Star" fill="#FCD902" points="26.3719276 13.25 24.2879618 14.3315595 24.6859638 12.0407797 23 10.4184405 25.3299447 10.0842203 26.3719276 8 27.4139106 10.0842203 29.7438553 10.4184405 28.0578915 12.0407797 28.4558935 14.3315595"></polygon>
            <polygon id="Star" fill="#FCD902" points="34.3719276 13.25 32.2879618 14.3315595 32.6859638 12.0407797 31 10.4184405 33.3299447 10.0842203 34.3719276 8 35.4139106 10.0842203 37.7438553 10.4184405 36.0578915 12.0407797 36.4558935 14.3315595"></polygon>
            <polygon id="Star" fill="#FCD902" points="18.3719276 22.25 16.2879618 23.3315595 16.6859638 21.0407797 15 19.4184405 17.3299447 19.0842203 18.3719276 17 19.4139106 19.0842203 21.7438553 19.4184405 20.0578915 21.0407797 20.4558935 23.3315595"></polygon>
            <polygon id="Star" fill="#FCD902" points="26.3719276 22.25 24.2879618 23.3315595 24.6859638 21.0407797 23 19.4184405 25.3299447 19.0842203 26.3719276 17 27.4139106 19.0842203 29.7438553 19.4184405 28.0578915 21.0407797 28.4558935 23.3315595"></polygon>
            <polygon id="Star" fill="#FCD902" points="34.3719276 22.25 32.2879618 23.3315595 32.6859638 21.0407797 31 19.4184405 33.3299447 19.0842203 34.3719276 17 35.4139106 19.0842203 37.7438553 19.4184405 36.0578915 21.0407797 36.4558935 23.3315595"></polygon>
            <polygon id="Star" fill="#FCD902" points="26.3719276 30.25 24.2879618 31.3315595 24.6859638 29.0407797 23 27.4184405 25.3299447 27.0842203 26.3719276 25 27.4139106 27.0842203 29.7438553 27.4184405 28.0578915 29.0407797 28.4558935 31.3315595"></polygon>
            <polygon id="Star" fill="#FCD902" points="34.3719276 30.25 32.2879618 31.3315595 32.6859638 29.0407797 31 27.4184405 33.3299447 27.0842203 34.3719276 25 35.4139106 27.0842203 37.7438553 27.4184405 36.0578915 29.0407797 36.4558935 31.3315595"></polygon>
            <polygon id="Star" fill="#FCD902" points="34.3719276 39.25 32.2879618 40.3315595 32.6859638 38.0407797 31 36.4184405 33.3299447 36.0842203 34.3719276 34 35.4139106 36.0842203 37.7438553 36.4184405 36.0578915 38.0407797 36.4558935 40.3315595"></polygon>
            <rect id="Rectangle-11" fill="#D8D8D8" x="56" y="1" width="157" height="4"></rect>
            <polygon id="Rectangle-11" fill="#979797" points="56 1 154 1 154 5 56 5"></polygon>
            <polygon id="Rectangle-11" fill="#FCD902" points="56 1 154 1 154 5 56 5"></polygon>
            <rect id="Rectangle-11" fill="#D8D8D8" x="56" y="10" width="157" height="4"></rect>
            <polygon id="Rectangle-11" fill="#FCD902" points="56 10 140 10 140 14 56 14"></polygon>
            <rect id="Rectangle-11" fill="#D8D8D8" x="56" y="19" width="157" height="4"></rect>
            <polygon id="Rectangle-11" fill="#FCD902" points="56 19 87 19 87 23 56 23"></polygon>
            <rect id="Rectangle-11" fill="#D8D8D8" x="56" y="27" width="157" height="4"></rect>
            <polygon id="Rectangle-11" fill="#FCD902" points="56 27 71 27 71 31 56 31"></polygon>
            <rect id="Rectangle-11" fill="#D8D8D8" x="56" y="35" width="157" height="4"></rect>
            <polygon id="Rectangle-11" fill="#FCD902" points="56 35 63 35 63 39 56 39"></polygon>
        </g>
    </g>
</svg>