<?xml version="1.0" encoding="UTF-8"?>
<svg width="375px" height="813px" viewBox="0 0 375 813" version="1.1" xmlns="http://www.w3.org/2000/svg" xmlns:xlink="http://www.w3.org/1999/xlink">
    <!-- Generator: Sketch 52.3 (67297) - http://www.bohemiancoding.com/sketch -->
    <title>thirth-mobile</title>
    <desc>Created with Sketch.</desc>
    <g id="thirth-mobile" stroke="none" stroke-width="1" fill="none" fill-rule="evenodd">
        <path d="M92.1878261,800.38618 L71.7487771,800.38618 L71.7487771,712.246329 L92.1878261,712.246329 L92.1878261,685.414678 C86.2635469,683.984548 81.7205986,681.690717 78.5589301,678.53317 C72.7796774,672.76145 69.50883,665.426666 68.7462897,656.528598 L92.1878261,655.062017 L92.1878261,645.739288 C86.8782229,643.743936 82.7366095,641.448445 79.7629351,638.852795 C74.6258216,634.403761 72.0573033,628.73233 72.0573033,621.838331 C72.0573033,617.309134 73.3716623,613.03051 76.0004196,609.002331 C78.6291769,604.974152 82.5822869,601.807769 87.8598684,599.50309 C89.1800909,598.926559 90.6227423,598.42214 92.1878261,597.989834 L92.1878261,577.07676 L270.203729,577.07676 L270.203729,596.500275 C277.395795,597.323642 283.155815,599.266479 287.48389,602.328813 C293.40361,606.517318 296.92529,613.180749 298.049033,622.319305 L272.343528,623.82235 C271.920097,621.359703 271.206834,619.313898 270.203729,617.684916 L270.203729,628.683892 C277.203956,630.505429 282.522511,632.341908 286.159484,634.193357 C289.645562,635.967991 292.489773,638.031053 294.692154,640.382575 L375,557 L375,761.643943 L303.941133,761.643943 L303.941133,800.38618 L278.336469,800.38618 L251.984442,761.643943 L245.416186,761.643943 L245.416186,800.38618 L219.871487,800.38618 L219.871487,761.643943 L177.902296,761.643943 L219.871487,718.067887 L219.871487,712.246329 L225.478375,712.246329 L250.272959,686.50244 C241.364005,685.333927 234.834709,682.677514 230.684956,678.53317 C224.905703,672.76145 221.634856,665.426666 220.872316,656.528598 L246.818623,654.90531 C247.380494,659.113856 248.524288,662.320319 250.250037,664.524795 C253.059396,668.092038 257.072705,669.875633 262.290086,669.875633 C263.940694,669.875633 265.430761,669.711709 266.760293,669.383858 L274.426129,661.424522 C274.442401,661.217674 274.450536,661.008581 274.450536,660.797245 C274.450536,658.512606 273.447209,656.468485 271.440524,654.664823 C269.433839,652.861161 264.7784,651.157727 257.474066,649.554472 C245.514224,646.869019 236.985941,643.301829 231.888961,638.852795 C229.387503,636.68639 227.495083,634.230143 226.21169,631.484035 L177.86026,631.484035 L177.86026,811.744156 L92.1878261,812 L92.1878261,800.38618 Z M298.585565,302.078784 L298.585565,293.646906 L338.053578,247.031786 L338.053578,286.400267 L370.5,286.400267 L458.422117,286.400267 L458.422117,106.365852 L458.422117,52.0449044 L636.290545,52.0449044 L636.290545,106.365852 L544.023577,106.365852 L544.023577,286.339954 L458.532776,286.595062 L458.532776,346.115193 L370.5,443.889454 L298.585565,443.889454 L298.585565,435.318534 C297.113157,438.070111 295.246564,440.573729 292.985765,442.829424 C290.735574,445.074533 288.413249,446.883425 286.018759,448.256119 L369.441429,532.509367 L297.386645,532.509367 L310,566 L281.488722,566 L277.157895,551.473397 L246.120301,551.473397 L241.849624,566 L214,566 L226.613355,532.509367 L192.717603,532.509367 L192.717603,381.21563 L101.336207,381.21563 L101.336207,430.33015 L144,430.33015 L144,452 L83.2690768,452 L83.2690768,483.137465 C90.4452256,478.379136 99.5850276,476 110.68864,476 C121.825675,476 130.58038,478.239485 136.953015,482.718523 C143.325651,487.197561 148.059826,494.075981 151.15568,503.353988 L127.032258,508.692815 C126.187934,506.01339 125.303417,504.053841 124.378682,502.814107 C122.850857,500.734553 120.981311,499.134921 118.769986,498.015162 C116.558661,496.895402 114.086035,496.335531 111.352034,496.335531 C105.160324,496.335531 100.416099,498.814961 97.1192146,503.773896 C94.6264485,507.453106 93.3800842,513.231778 93.3800842,521.110086 C93.3800842,530.86799 94.8676803,537.556453 97.8429173,541.175676 C100.818154,544.794898 104.999506,546.604483 110.387097,546.604483 C115.613864,546.604483 119.564035,545.144818 122.237728,542.225445 C124.911421,539.306072 126.851326,535.067046 128.057504,529.50824 L152,536.706658 C150.391764,543.385223 147.85883,548.963942 144.401122,553.44298 C140.943414,557.922018 136.651498,561.301241 131.525245,563.580751 C126.398993,565.860262 119.875682,567 111.955119,567 C102.345908,567 94.4958229,565.610319 88.4046283,562.830916 C84.9240338,561.242726 81.7158667,558.965763 78.7800977,556 L0,556 L0,381.21563 L35.35744,381.21563 L95,321.304001 L95,245 L122,245 L122,294.182195 L209.005313,206.78437 L192.797914,206.78437 L192.797914,354.107142 L219,380.570103 L219,364 L246.023488,364 L246.023488,407.862644 L268.853721,430.920182 C270.025585,430.319015 271.074581,429.556412 272.000712,428.632373 C274.651259,425.987811 275.976512,422.239747 275.976512,417.38807 L275.976512,364 L298.585565,364 L298.585565,317.267422 C297.903821,318.381124 297.175674,319.439642 296.401122,320.44298 C292.943414,324.922018 288.651498,328.301241 283.525245,330.580751 C278.398993,332.860262 271.875682,334 263.955119,334 C254.345908,334 246.495823,332.610319 240.404628,329.830916 C234.313434,327.051513 229.056591,322.162637 224.633941,315.16414 C220.211292,308.165643 218,299.207701 218,288.290046 C218,273.733173 221.889863,262.545743 229.669705,254.727423 C237.449548,246.909102 248.455749,243 262.68864,243 C273.825675,243 282.58038,245.239485 288.953015,249.718523 C295.325651,254.197561 300.059826,261.075981 303.15568,270.353988 L279.032258,275.692815 C278.187934,273.01339 277.303417,271.053841 276.378682,269.814107 C274.850857,267.734553 272.981311,266.134921 270.769986,265.015162 C268.558661,263.895402 266.086035,263.335531 263.352034,263.335531 C257.160324,263.335531 252.416099,265.814961 249.119215,270.773896 C246.626448,274.453106 245.380084,280.231778 245.380084,288.110086 C245.380084,297.86799 246.86768,304.556453 249.842917,308.175676 C252.818154,311.794898 256.999506,313.604483 262.387097,313.604483 C267.613864,313.604483 271.564035,312.144818 274.237728,309.225445 C276.911421,306.306072 278.851326,302.067046 280.057504,296.50824 L298.585565,302.078784 Z M72,142.167118 L72,131 L144.682848,131 L144.682848,142.167118 L192.66,142.167118 L192.66,206.78437 L146,206.78437 L146,219 L72,219 L72,206.78437 L19.0542857,206.78437 L19.0542857,142.167118 L72,142.167118 Z M294.372623,142.167118 C296.671144,145.87381 297.820388,150.295102 297.820388,155.431105 C297.820388,160.313349 296.774629,164.525221 294.683079,168.066849 C292.591529,171.608476 289.715691,174.479753 286.055479,176.680764 C283.722596,178.081408 280.524986,179.241924 276.462552,180.162347 C279.720543,181.242843 282.093613,182.323323 283.581831,183.40382 C284.587384,184.124151 286.045413,185.664836 287.955964,188.025921 C289.866514,190.387006 291.143547,192.207815 291.787101,193.488404 L300.340485,210.003363 L300.340485,179.10125 L370.5,179.10125 L370.5,206.78437 L338.139022,245.817533 L300.340485,245.817533 L300.340485,219 L274.10957,219 L259.509015,192.107776 C257.658798,188.626176 256.009716,186.365171 254.56172,185.324693 C252.590836,183.964068 250.358542,183.283765 247.864771,183.283765 L245.451456,183.283765 L245.451456,219 L218,219 L218,142.167118 L192.66,142.167118 L192.66,32 L337.684286,32 L337.684286,142.167118 L294.372623,142.167118 Z M741,32 L741,236.319235 L544.065578,236.319235 L741,32 Z M192.717603,381.21563 L192.797914,381.21563 L192.797914,354.107142 L192.717603,354.026032 L192.717603,381.21563 Z M458.422117,286.400267 L458.422117,286.595393 L458.532776,286.595062 L458.532776,286.400267 L458.422117,286.400267 Z M544.034458,261.126396 L636.683816,288.369509 L636.683816,369.954879 L544.034458,340.160044 L544.034458,261.126396 Z M370.5,445.785327 L443.575407,445.785327 L404.171965,492.899379 L516.650815,492.899379 L516.650815,556 L370.5,556 L370.5,445.785327 Z M636.660167,370.63994 L721.600272,370.63994 L721.600272,535.303631 L636.660167,535.303631 L636.660167,370.63994 Z M-36,704.335026 L34.2176851,704.335026 L34.2176851,732.062141 L1.82987635,771.157335 L-36,771.157335 L-36,704.335026 Z M83.2690768,483.137465 C81.2466567,484.478482 79.3802008,486.008467 77.6697055,487.727423 C69.8898629,495.545743 66,506.733173 66,521.290046 C66,532.207701 68.2112916,541.165643 72.6339411,548.16414 C74.5294263,551.163597 76.578141,553.775546 78.7800977,556 L83.2690768,556 L83.2690768,483.137465 Z M245.451456,166.656207 L256.975035,166.656207 C258.22192,166.656207 260.635211,166.256029 264.214979,165.455662 C266.024974,165.095496 267.503115,164.175087 268.649445,162.694407 C269.795775,161.213726 270.368932,159.51297 270.368932,157.592087 C270.368932,154.750782 269.463948,152.569812 267.653953,151.049113 C265.843958,149.528414 262.44524,148.768076 257.457698,148.768076 L245.451456,148.768076 L245.451456,166.656207 Z M294.372623,142.167118 C294.163817,141.83039 293.945527,141.499559 293.717753,141.174625 C290.982649,137.272832 287.382824,134.601644 282.918169,133.160982 C278.453514,131.72032 271.997962,131 263.551318,131 L218,131 L218,142.167118 L294.372623,142.167118 Z M300.340485,219 L305,219 L300.340485,210.003363 L300.340485,219 Z M286.018759,448.256119 L268.853721,430.920182 C266.671761,432.039528 264.063828,432.599196 261.029893,432.599196 C256.326667,432.599196 252.649835,431.257051 249.999288,428.572721 C247.348741,425.888391 246.023488,422.160212 246.023488,417.38807 L246.023488,407.862644 L219,380.570103 L219,416.135389 C219,420.430316 219.837002,425.361456 221.511032,430.928954 C222.547336,434.388757 224.470449,437.74909 227.280427,441.010054 C230.090406,444.271017 233.189307,446.786296 236.577224,448.555965 C239.965141,450.325634 244.180046,451.50871 249.222064,452.105228 C254.264082,452.701746 258.917416,453 263.182206,453 C270.555909,453 276.873283,452.025702 282.13452,450.077078 C283.449708,449.593629 284.744453,448.986644 286.018759,448.256119 Z M298.585565,435.318534 C299.358569,433.873975 300.022929,432.361074 300.578648,430.779826 C302.192891,426.186639 303,421.305209 303,416.135389 L303,364 L298.585565,364 L298.585565,435.318534 Z M101.336207,381.21563 L101.336207,364 L74,364 L74,452 L83.2690768,452 L83.2690768,381.21563 L101.336207,381.21563 Z M72,142.167118 L72,206.78437 L146,206.78437 L146,199.070941 L99.1812298,199.070941 L99.1812298,181.723056 L141.389968,181.723056 L141.389968,163.774898 L99.1812298,163.774898 L99.1812298,149.78854 L144.682848,149.78854 L144.682848,142.167118 L72,142.167118 Z M226.613355,532.509367 L297.386645,532.509367 L276.857143,478 L247.142857,478 L226.613355,532.509367 Z M271.443609,532.444748 L252.015038,532.444748 L261.699248,500.810368 L271.443609,532.444748 Z M95,321.304001 L95,333 L122,333 L122,294.182195 L95,321.304001 Z M298.585565,302.078784 L298.585565,317.267422 C300.947221,313.409404 302.752021,308.889176 304,303.706658 L298.585565,302.078784 Z M92.1878261,685.414678 C97.0926095,686.598699 102.944211,687.190706 109.742658,687.190706 C118.291136,687.190706 125.374628,685.958222 130.993346,683.493217 C136.612064,681.028211 140.986571,677.41092 144.117,672.641235 C147.247428,667.87155 148.812619,662.661048 148.812619,657.009572 C148.812619,652.199806 147.638726,647.851041 145.290905,643.963146 C142.943083,640.075252 139.190639,636.818688 134.033458,634.193357 C128.876278,631.568026 120.337962,628.972795 108.418253,626.407586 C103.602209,625.405552 100.552094,624.32337 99.2678153,623.16101 C97.9434032,622.038731 97.2812071,620.776187 97.2812071,619.373338 C97.2812071,617.449431 98.0838691,615.816139 99.6892171,614.473413 C101.294565,613.130686 103.682484,612.459333 106.853047,612.459333 C110.705882,612.459333 113.725897,613.361151 115.913184,615.164813 C118.10047,616.968476 119.535229,619.854292 120.217502,623.82235 L145.923007,622.319305 C144.799264,613.180749 141.277584,606.517318 135.357864,602.328813 C129.438143,598.140308 120.839627,596.046087 109.562058,596.046087 C102.670535,596.046087 96.8791552,596.693998 92.1878261,597.989834 L92.1878261,631.484035 L92.1878261,645.739288 C95.9790644,647.164037 100.365796,648.435763 105.34804,649.554472 C112.652374,651.157727 117.307813,652.861161 119.314498,654.664823 C121.321183,656.468485 122.32451,658.512606 122.32451,660.797245 C122.32451,663.202128 121.271016,665.316389 119.163997,667.140092 C117.056978,668.963796 114.057029,669.875633 110.16406,669.875633 C104.946679,669.875633 100.93337,668.092038 98.1240106,664.524795 C96.3982615,662.320319 95.2544683,659.113856 94.6925965,654.90531 L92.1878261,655.062017 L92.1878261,685.414678 Z M303.941133,761.643943 L303.941133,712.246329 L278.336469,712.246329 L278.336469,761.005823 L245.236294,712.246329 L225.478375,712.246329 L219.871487,718.067887 L219.871487,761.643943 L245.416186,761.643943 L245.416186,751.987421 L251.984442,761.643943 L303.941133,761.643943 Z M294.692154,640.382575 L274.426129,661.424522 C274.257242,663.571479 273.211881,665.476653 271.290023,667.140092 C270.076374,668.19055 268.56647,668.93847 266.760293,669.383858 L250.272959,686.50244 C253.771272,686.961285 257.636512,687.190706 261.868684,687.190706 C270.417162,687.190706 277.500654,685.958222 283.119372,683.493217 C288.73809,681.028211 293.112597,677.41092 296.243026,672.641235 C299.373454,667.87155 300.938645,662.661048 300.938645,657.009572 C300.938645,652.199806 299.764752,647.851041 297.416931,643.963146 C296.656156,642.703335 295.747899,641.509813 294.692154,640.382575 Z M226.21169,631.484035 L270.203729,631.484035 L270.203729,628.683892 C267.277725,627.922513 264.05791,627.163746 260.544279,626.407586 C255.728235,625.405552 252.67812,624.32337 251.393841,623.16101 C250.069429,622.038731 249.407233,620.776187 249.407233,619.373338 C249.407233,617.449431 250.209895,615.816139 251.815243,614.473413 C253.420591,613.130686 255.80851,612.459333 258.979073,612.459333 C262.831908,612.459333 265.851923,613.361151 268.03921,615.164813 C268.869027,615.849091 269.590533,616.689124 270.203729,617.684916 L270.203729,596.500275 C267.558851,596.197483 264.720305,596.046087 261.688084,596.046087 C252.497467,596.046087 245.263476,597.19841 239.985894,599.50309 C234.708313,601.807769 230.755203,604.974152 228.126446,609.002331 C225.497688,613.03051 224.183329,617.309134 224.183329,621.838331 C224.183329,625.375377 224.859446,628.590604 226.21169,631.484035 Z M92.1878261,800.38618 L145.810132,800.38618 L145.810132,780.42545 L98.9525433,780.42545 L98.9525433,763.049995 L141.196277,763.049995 L141.196277,745.073313 L98.9525433,745.073313 L98.9525433,731.064728 L144.491888,731.064728 L144.491888,712.246329 L92.1878261,712.246329 L92.1878261,800.38618 Z" id="Combined-Shape" fill="#000000"></path>
    </g>
</svg>