<?xml version="1.0" encoding="UTF-8"?>
<svg width="1680px" height="950px" viewBox="0 0 1680 950" version="1.1" xmlns="http://www.w3.org/2000/svg" xmlns:xlink="http://www.w3.org/1999/xlink">
    <!-- Generator: Sketch 52.3 (67297) - http://www.bohemiancoding.com/sketch -->
    <title>thirth-desktop</title>
    <desc>Created with Sketch.</desc>
    <g id="thirth-desktop" stroke="none" stroke-width="1" fill="none" fill-rule="evenodd">
        <path d="M1476.20273,398 L1515.63631,345.630129 L1712,393.479572 L1686.60452,811.451903 L1606,741.134416 L1606,799.128763 L1686.60452,840.981282 L1689.17095,956.002299 L478.621239,956.002299 L551.348768,855.95355 C549.667743,850.215027 548.55149,844.124095 548,837.680739 L565.425116,836.589204 L587.65794,806.004277 C582.128,803.075126 577.43952,799.929464 573.592481,796.567282 C564.293557,788.503829 558.617561,778.714068 556.564409,767.197812 L299.879058,708.288466 L364.807756,567.890499 L501.065198,591.307106 L547.160424,544.029133 C544.386796,533.440553 543,523.907675 543,515.430295 L543,434.736834 L296.047406,345.630129 L403.152191,135.754438 L540,104.10139 L540,86 L618.25899,86 L802.600132,43.3616925 L792.249787,263.046511 L606.376512,404.421431 L606.376512,483.293631 L657.36342,430.998461 L676.623488,430.998461 L676.623488,393 L740,393 L740,430.998461 L920.478279,430.998461 L762.305057,575.82746 L920.478279,644.397386 L905.634474,743.840895 L988,770.375818 L988,701 L1157.92071,701 L1157.92071,744.768759 L1051.54531,744.768759 L1051.54531,777.350614 L1150.22249,777.350614 L1150.22249,819.161664 L1139.43334,819.161664 L1310.61029,874.308127 L1410,814.269719 L1410,701 L1469.13552,701 L1506.53219,755.957451 L1511.26725,753.097143 L1546.30528,801.660015 L1546.30528,701 L1559.99416,701 L1447.65733,603 L1396,603 L1408.74768,569.056132 L1371.72206,536.755855 L1469.78946,406.51717 L1472.9881,398 L1476.20273,398 Z M1607.23745,228.450631 C1603.47908,242.6768 1597.84271,254.665355 1590.32819,264.416612 C1582.28701,274.851294 1572.30581,282.72377 1560.38429,288.034278 C1548.46277,293.344786 1533.29228,296 1514.87237,296 C1492.52537,296 1474.26936,292.762502 1460.10379,286.287409 C1445.93822,279.812317 1433.713,268.422846 1423.42777,252.118655 C1413.14254,235.814465 1408,214.945414 1408,189.510877 C1408,155.59816 1417.04619,129.535138 1435.13885,111.321028 C1439.69379,106.735509 1444.7243,102.727215 1450.23037,99.296142 L1443.45705,-13.8242278 L1712,-13.8242278 L1712,187.651814 L1607.23745,228.450631 Z M1148.09351,415.212022 L1193.19231,389.979261 L930.719677,274.587005 L1042,176.826872 L1042,87 L1106,87 L1106,120.60266 L1193.92336,43.3616925 L1408.97122,148.397056 L1234.0483,602.38324 L1148.21631,581.453161 C1141.85554,587.523894 1134.57823,592.384241 1126.38429,596.034278 C1114.46277,601.344786 1099.29228,604 1080.87237,604 C1058.52537,604 1040.26936,600.762502 1026.10379,594.287409 C1011.93822,587.812317 999.713001,576.422846 989.42777,560.118655 C985.682496,554.181631 982.619136,547.639313 980.237682,540.49167 L941.19565,530.971293 L974.621122,512.269755 C974.20704,507.533933 974,502.614309 974,497.510877 C974,463.59816 983.046193,437.535138 1001.13885,419.321028 C1019.23151,401.106918 1044.82732,392 1077.92707,392 C1103.82715,392 1124.18693,397.217263 1139.00701,407.651945 C1142.2143,409.910169 1145.24314,412.430193 1148.09351,415.212022 Z M1097.33911,443.609087 C1097.13433,443.500263 1096.92826,443.393257 1096.7209,443.288069 C1091.57828,440.679398 1085.82799,439.375082 1079.46985,439.375082 C1065.07052,439.375082 1054.03744,445.151338 1046.37027,456.704021 C1043.07146,461.581477 1040.71124,468.0427 1039.2896,476.087765 L1097.33912,443.609081 Z M164.652566,697.243505 C186.069964,698.338754 202.766846,703.128706 214.743609,711.613456 C226.256364,719.769488 233.86476,731.960087 237.568941,748.185527 L330.242389,812.93056 L244.993714,850.493287 C243.455822,859.212118 240.155173,867.433752 235.091729,875.158311 C227.819513,886.252474 217.657208,894.666198 204.604511,900.399736 C191.551814,906.133274 175.09634,909 155.237594,909 C141.58733,909 129.580224,907.971349 119.216231,905.914035 L-58,984 L-58,383.006416 L-58,77.9839392 L30.0666697,77.9839392 L67,108.329643 L67,87 L236.920712,87 L236.920712,130.768759 L130.545307,130.768759 L130.545307,160.540671 L133.96525,163.350614 L229.222492,163.350614 L229.222492,205.161664 L184.852892,205.161664 L224.64887,237.859419 L211.34111,245.574352 L240,245.574352 L240,292 L131.259878,292 L40.764486,344.463069 L40.764486,383.006416 L86.3255463,383.006416 L88.1138152,395 L135.263793,395 L135.263793,514.21642 L297.67359,520.929217 L234,578.312538 L234,600 L209.935194,600 L129.377745,672.599236 L164.652566,697.243505 Z M14.5222086,-0.897519546 L14.5222086,-45 L452.690517,-38.6229771 L413.683998,85.1051694 L258.66612,62.8018449 L258.66612,19.2332476 L14.5222086,-0.897519546 Z M943.317366,-15.3247447 L1172.54432,-40.348772 L977.770238,71.1228518 L943.317366,-15.3247447 Z M67,108.329643 L67,292 L131.259878,292 L211.34111,245.574352 L130.545307,245.574352 L130.545307,205.161664 L184.852892,205.161664 L133.96525,163.350614 L130.545307,163.350614 L130.545307,160.540671 L67,108.329643 Z M209.935194,600 L234,578.312538 L234,549.5191 L135.263793,549.5191 L135.263793,514.21642 L105.707087,512.994769 L88.1138152,395 L72,395 L72,600 L209.935194,600 Z M164.652566,697.243505 C161.478098,697.081168 158.199924,697 154.818045,697 C133.467562,697 116.662467,699.680272 104.402256,705.040897 C92.142044,710.401522 82.9586772,717.766444 76.8518797,727.135884 C70.7450822,736.505324 67.6917293,746.457291 67.6917293,756.992084 C67.6917293,773.027345 73.6585869,786.218946 85.5924812,796.567282 C97.4331419,806.915619 117.244974,815.21281 145.028571,821.459103 C161.997077,825.188233 172.812007,829.150375 177.473684,833.345646 C182.135362,837.540918 184.466165,842.295488 184.466165,847.609499 C184.466165,853.203194 182.018821,858.120911 177.12406,862.362797 C172.229299,866.604683 165.260196,868.725594 156.216541,868.725594 C144.09618,868.725594 134.772965,864.576998 128.246617,856.279683 C124.237574,851.152129 121.580458,843.69398 120.275188,833.905013 L60,837.680739 C61.7714374,858.377412 69.3698577,875.437928 82.7954887,888.862797 C90.9654032,897.032248 103.105596,902.715979 119.216231,905.914035 L244.993714,850.493287 C245.664572,846.689963 246,842.792028 246,838.799472 C246,827.612081 243.27296,817.496967 237.818797,808.453826 C232.364634,799.410685 223.647428,791.836002 211.666917,785.729551 C199.686406,779.623101 179.851266,773.586661 152.160902,767.620053 C140.972876,765.289346 133.887233,762.772221 130.903759,760.068602 C127.827052,757.45821 126.288722,754.521564 126.288722,751.258575 C126.288722,746.783619 128.153365,742.984624 131.882707,739.861478 C135.612049,736.738331 141.159362,735.176781 148.524812,735.176781 C157.475233,735.176781 164.490952,737.274385 169.57218,741.469657 C174.653409,745.664929 177.986458,752.377263 179.571429,761.60686 L239.287218,758.110818 C238.862151,754.649752 238.289392,751.341322 237.568941,748.185527 L164.652566,697.243505 Z M606.376512,404.421431 L606.376512,393 L543,393 L543,434.736834 L558.951754,440.492628 L606.376512,404.421431 Z M676.623488,430.998461 L676.623488,518.371984 C676.623488,529.765249 673.515452,538.566881 667.299288,544.777145 C661.083124,550.987408 652.506816,554.092493 641.570107,554.092493 C630.539921,554.092493 621.916876,550.940715 615.700712,544.637064 C609.484548,538.333414 606.376512,529.578474 606.376512,518.371984 L606.376512,483.293631 L547.160424,544.029133 C547.68668,546.038164 548.262861,548.085199 548.888968,550.170241 C551.319348,558.294947 555.829504,566.186065 562.419573,573.843834 C569.009641,581.501602 576.277303,587.408268 584.222776,591.564008 C592.168249,595.719748 602.053203,598.497982 613.877936,599.898794 C625.702669,601.299605 636.615846,602 646.617794,602 C663.910881,602 678.726629,599.712043 691.06548,595.136059 C699.945715,591.867499 708.428548,586.194299 716.514235,578.116287 C724.599922,570.038275 730.535568,560.606287 734.321352,549.82004 C738.107136,539.033793 740,527.570659 740,515.430295 L740,430.998461 L676.623488,430.998461 Z M556.564409,767.197812 L607.388298,778.861906 L587.65794,806.004277 C599.148401,812.090651 614.271884,817.242235 633.028571,821.459103 C649.997077,825.188233 660.812007,829.150375 665.473684,833.345646 C670.135362,837.540918 672.466165,842.295488 672.466165,847.609499 C672.466165,853.203194 670.018821,858.120911 665.12406,862.362797 C660.229299,866.604683 653.260196,868.725594 644.216541,868.725594 C632.09618,868.725594 622.772965,864.576998 616.246617,856.279683 C612.237574,851.152129 609.580458,843.69398 608.275188,833.905013 L565.425116,836.589204 L551.348768,855.95355 C555.067354,868.647709 561.549569,879.617402 570.795489,888.862797 C584.22112,902.287666 608.368247,909 643.237594,909 C663.09634,909 679.551814,906.133274 692.604511,900.399736 C705.657208,894.666198 715.819513,886.252474 723.091729,875.158311 C730.363946,864.064149 734,851.944657 734,838.799472 C734,827.612081 731.27296,817.496967 725.818797,808.453826 C720.364634,799.410685 711.647428,791.836002 699.666917,785.729551 C687.686406,779.623101 667.851266,773.586661 640.160902,767.620053 C628.972876,765.289346 621.887233,762.772221 618.903759,760.068602 C615.827052,757.45821 614.288722,754.521564 614.288722,751.258575 C614.288722,746.783619 616.153365,742.984624 619.882707,739.861478 C623.612049,736.738331 629.159362,735.176781 636.524812,735.176781 C645.475233,735.176781 652.490952,737.274385 657.57218,741.469657 C662.653409,745.664929 665.986458,752.377263 667.571429,761.60686 L727.287218,758.110818 C724.676679,736.854775 716.495557,721.355809 702.743609,711.613456 C688.991661,701.871103 669.016672,697 642.818045,697 C621.467562,697 604.662467,699.680272 592.402256,705.040897 C580.142044,710.401522 570.958677,717.766444 564.85188,727.135884 C558.745082,736.505324 555.691729,746.457291 555.691729,756.992084 C555.691729,760.532624 555.982622,763.934532 556.564409,767.197812 Z M1042,176.826872 L1042,292 L1106,292 L1106,120.60266 L1042,176.826872 Z M1148.09351,415.212022 L1097.33912,443.609081 C1102.21285,446.199091 1106.35457,449.818705 1109.76438,454.468029 C1111.91492,457.3562 1113.97194,461.921305 1115.93548,468.163481 L1172.03647,455.725775 C1166.39492,438.788827 1158.41399,425.28432 1148.09351,415.212022 Z M1039.2896,476.087765 L974.621122,512.269755 C975.519265,522.541755 977.391447,531.949043 980.237682,540.49167 L1148.21631,581.453161 C1151.10995,578.691471 1153.8139,575.67929 1156.32819,572.416612 C1164.36937,561.98193 1170.25992,548.985356 1174,533.4265 L1118.31978,516.656559 C1115.51471,529.606745 1111.0033,539.482278 1104.78541,546.283454 C1098.56752,553.084631 1089.38108,556.485168 1077.22581,556.485168 C1064.69652,556.485168 1054.97245,552.269434 1048.0533,543.837838 C1041.13414,535.406242 1037.67461,519.824328 1037.67461,497.091628 C1037.67461,489.181886 1038.21294,482.180609 1039.2896,476.087765 Z M988,770.375818 L988,906 L1161,906 L1161,859.574352 L1051.54531,859.574352 L1051.54531,819.161664 L1139.43334,819.161664 L988,770.375818 Z M1607.23745,228.450631 C1607.50086,227.453578 1607.75504,226.445535 1608,225.4265 L1552.31978,208.656559 C1549.51471,221.606745 1545.0033,231.482278 1538.78541,238.283454 C1532.56752,245.084631 1523.38108,248.485168 1511.22581,248.485168 C1498.69652,248.485168 1488.97245,244.269434 1482.0533,235.837838 C1475.13414,227.406242 1471.67461,211.824328 1471.67461,189.091628 C1471.67461,170.737768 1474.57314,157.275367 1480.37027,148.704021 C1488.03744,137.151338 1499.07052,131.375082 1513.46985,131.375082 C1519.82799,131.375082 1525.57828,132.679398 1530.7209,135.288069 C1535.86351,137.896739 1540.2113,141.623355 1543.76438,146.468029 C1545.91492,149.3562 1547.97194,153.921305 1549.93548,160.163481 L1606.03647,147.725775 C1598.8368,126.111076 1587.8271,110.086627 1573.00701,99.6519446 C1558.18693,89.2172627 1537.82715,84 1511.92707,84 C1487.1604,84 1466.59494,89.0986758 1450.23037,99.296142 L1461.36531,285.259201 L1607.23745,228.450631 Z M1606,799.128763 L1591.95838,791.837891 L1587.47454,858.720812 L1546.30528,801.660015 L1546.30528,814.407231 L1506.53219,755.957451 L1410,814.269719 L1410,906 L1469.55492,906 L1469.55492,793.431787 L1546.30528,906 L1606,906 L1606,799.128763 Z M1606,741.134416 L1606,701 L1559.99416,701 L1606,741.134416 Z M540,104.10139 L540,291 L603.737864,291 L603.737864,207.797408 L609.341193,207.797408 C615.131328,207.797408 620.314355,209.382203 624.89043,212.551842 C628.252444,214.975683 632.081347,220.242797 636.377254,228.353342 L670.277393,291 L742,291 L711.321775,231.569577 C709.827547,228.586388 706.862482,224.34473 702.426491,218.844475 C697.9905,213.34422 694.60519,209.755124 692.270458,208.07708 C688.815054,205.560015 683.30517,203.042987 675.740638,200.525921 C685.172955,198.381754 692.597291,195.678279 698.01387,192.415416 C706.512294,187.28806 713.189527,180.599291 718.04577,172.348909 C722.902012,164.098526 725.330097,154.286778 725.330097,142.91337 C725.330097,129.861917 722.154909,118.791655 715.804438,109.702251 C709.453967,100.612847 701.095752,94.3901941 690.729542,91.0341064 C680.363332,87.6780187 665.374578,86 645.762829,86 L618.25899,86 L540,104.10139 Z M603.737864,169.062756 L603.737864,127.391542 L631.614424,127.391542 C643.194695,127.391542 651.085971,129.162784 655.288488,132.705321 C659.491006,136.247858 661.592233,141.328525 661.592233,147.947476 C661.592233,152.42226 660.261456,156.384248 657.599861,159.833561 C654.938267,163.282873 651.506262,165.427008 647.303745,166.26603 C638.992099,168.130523 633.388826,169.062756 630.493759,169.062756 L603.737864,169.062756 Z M1476.20273,398 L1469.78946,406.51717 L1408.74768,569.056132 L1447.65733,603 L1460.69236,603 L1470.61278,569.159618 L1542.71053,569.159618 L1552.77068,603 L1619,603 L1542.0119,398 L1476.20273,398 Z M1529.43672,524.831514 L1484.30576,524.831514 L1506.80138,451.13779 L1529.43672,524.831514 Z" id="Combined-Shape" fill="#000000"></path>
    </g>
</svg>