<?xml version="1.0" encoding="UTF-8"?>
<svg width="1536px" height="1971px" viewBox="0 0 1536 1971" version="1.1" xmlns="http://www.w3.org/2000/svg" xmlns:xlink="http://www.w3.org/1999/xlink">
    <!-- Generator: Sketch 52.3 (67297) - http://www.bohemiancoding.com/sketch -->
    <title>thirth-tablet</title>
    <desc>Created with Sketch.</desc>
    <g id="thirth-tablet" stroke="none" stroke-width="1" fill="none" fill-rule="evenodd">
        <path d="M915.076313,1427.66667 L905.628148,1556.21447 L1172,1730.49412 L1172,1588 L1260.70328,1588 L1369.72955,1748.48349 L1376.45792,1740.22914 L1376.45792,1588 L1466,1588 L1466,1630.37892 L1511.13368,1575.00892 L1587.32496,1789.4737 L1591.80786,1653.67052 L1686.43411,1753.45427 L1689,1987 L478.704628,1987 L607.444633,1627.32328 L300,1484.02664 L318.163337,1404.26286 C310.69181,1410.14855 302.496196,1415.07806 293.576438,1419.05142 C275.69416,1427.01718 252.938427,1431 225.308555,1431 C191.788051,1431 164.404033,1426.14375 143.15568,1416.43111 C138.830618,1414.45412 134.626144,1412.17172 130.542255,1409.58389 L129.26076,1411.92952 L251.926342,1585.98628 C272.371655,1589.38924 289.10127,1595.70052 302.115414,1604.92018 C322.743336,1619.53371 335.015018,1642.78216 338.930827,1674.66623 L315.394162,1676.04417 L330,1696.76918 L304.2781,1719.78834 C318.796726,1728.2534 329.613339,1738.38412 336.728195,1750.18074 C344.909439,1763.74545 349,1778.91812 349,1795.69921 C349,1815.41699 343.545919,1833.59622 332.637594,1850.23747 C321.729269,1866.87871 306.485812,1879.4993 286.906767,1888.0996 C267.327722,1896.69991 242.64451,1901 212.856391,1901 C173.032934,1901 142.533079,1895.16323 121.356348,1883.48956 L-58,2044 L-58,824.124052 L-58,205 L30.0116875,205 L70,271.731193 L70,183 L290.743839,183 L259.050131,173.743707 L259.050131,85.3374604 L15,44.4895637 L15,-45 L453,-32.0602063 L414.008464,219 L325.372168,193.113363 L325.372168,248.759891 L165.501618,248.759891 L165.501618,297.712142 L313.802589,297.712142 L313.802589,360.530696 L165.501618,360.530696 L165.501618,421.248295 L330,421.248295 L330,491 L201.395667,491 L224.472405,529.509708 L40.7028249,745.890102 L40.7028249,824.124052 L70.995733,824.124052 C70.3319103,816.799467 70,809.180224 70,801.266315 C70,750.397241 83.5692893,711.302707 110.708275,683.981543 C137.847261,656.660378 176.240986,643 225.890603,643 C264.184906,643 294.404842,650.603569 316.55129,665.810931 L403.199355,321.516373 L617,221.238592 L617,183 L698.527888,183 L803,134 L801.843372,183.780217 C818.788898,184.879551 832.539141,187.140617 843.094313,190.563438 C858.643628,195.605755 871.180951,204.954911 880.706657,218.611187 C890.232364,232.267463 894.995146,248.899856 894.995146,268.508868 C894.995146,285.59672 891.353018,300.338274 884.068655,312.73397 C876.784291,325.129666 866.768441,335.179134 854.020804,342.882674 C845.895937,347.784927 834.759433,351.846732 820.610957,355.068213 C831.957754,358.849951 840.222582,362.631632 845.405687,366.41337 C848.907785,368.934528 853.98575,374.326925 860.639736,382.590723 C867.293723,390.854521 871.74132,397.227354 873.982663,401.709413 L920,491 L812.416089,491 L795.435501,459.569251 L792.640516,579.862933 L741.89569,658.127505 L741.89569,883.488859 L890,883.488859 L890,921 L920.468835,921 L813.633121,1119.66667 L820.345238,1119.66667 L902.514243,1338.4908 L920.468835,1354.29827 L918.501412,1381.06621 L936,1427.66667 L915.076313,1427.66667 Z M775.901,1227.01879 L768.631721,1203.34915 L763.185416,1213.47684 L762.620799,1215.32673 L775.901,1227.01879 Z M338.030452,1317.01698 L364.915057,1198.95399 L501.143872,1246.50051 L647,942.68246 L647,804.486672 L559.136486,940 L303.20655,752.743931 L282.903226,757.245221 C279.95791,747.881957 276.872386,741.0343 273.646564,736.702044 C268.316944,729.435033 261.79527,723.845109 254.081346,719.932103 C246.367423,716.019097 237.741983,714.062624 228.204769,714.062624 C206.605783,714.062624 190.056158,722.727006 178.5554,740.056032 C169.859704,752.91305 165.511921,773.106652 165.511921,800.637442 C165.511921,834.736492 170.70121,858.109363 181.079944,870.756757 C191.458677,883.40415 206.044787,889.727752 224.83871,889.727752 C243.07162,889.727752 256.851286,884.626946 266.178121,874.425181 C275.504955,864.223416 282.272069,849.410117 286.479663,829.984838 L370,855.13975 C364.389874,878.478034 355.554058,897.972895 343.492286,913.624918 C331.430515,929.27694 316.458715,941.085656 298.576438,949.051417 C280.69416,957.017179 257.938427,961 230.308555,961 C196.788051,961 169.404033,956.143753 148.15568,946.431114 C126.907327,936.718475 108.569502,919.634269 93.141655,895.177983 C92.487406,894.140865 91.8470295,893.091433 91.2205257,892.029687 L105.60488,1087.96991 L297.451534,1104.07497 L286.982442,1123.23749 C296.450487,1126.74808 304.959835,1131.16155 312.510519,1136.47792 C334.740644,1152.12994 351.255205,1176.16661 362.054698,1208.58866 L277.903226,1227.24522 C274.95791,1217.88196 271.872386,1211.0343 268.646564,1206.70204 C263.581256,1199.79543 257.439198,1194.40368 250.220221,1190.52665 L171.704286,1334.24136 C173.042784,1336.66129 174.501337,1338.83309 176.079944,1340.75676 C186.458677,1353.40415 201.044787,1359.72775 219.83871,1359.72775 C238.07162,1359.72775 251.851286,1354.62695 261.178121,1344.42518 C270.504955,1334.22342 277.272069,1319.41012 281.479663,1299.98484 L338.030452,1317.01698 Z M1262.11504,1121.66338 C1278.38588,1117.22111 1298.42312,1115 1322.22707,1115 C1343.34256,1115 1361.76281,1117.10951 1377.48796,1121.32856 L1515.7967,748 L1712,845.173589 L1686.62526,1694 L1412.9625,1208.77198 L1359.35714,1211.91029 C1356.97969,1198.06589 1351.98011,1187.99739 1344.35827,1181.70449 C1336.73643,1175.41158 1326.21285,1172.26517 1312.78722,1172.26517 C1301.73904,1172.26517 1293.41807,1174.6075 1287.82406,1179.29222 C1282.23005,1183.97694 1279.43308,1189.67543 1279.43308,1196.38786 C1279.43308,1201.28235 1281.74058,1205.68732 1286.35564,1209.6029 C1290.83085,1213.65833 1301.45931,1217.43402 1318.24135,1220.93008 C1359.7769,1229.87999 1389.52961,1238.93465 1407.50038,1248.09433 C1425.47114,1257.254 1438.54695,1268.61603 1446.7282,1282.18074 C1454.90944,1295.74545 1459,1310.91812 1459,1327.69921 C1459,1347.41699 1453.54592,1365.59622 1442.63759,1382.23747 C1431.72927,1398.87871 1416.48581,1411.4993 1396.90677,1420.0996 C1377.32772,1428.69991 1352.64451,1433 1322.85639,1433 C1270.55237,1433 1234.33168,1422.9315 1214.19323,1402.7942 C1194.05479,1382.65689 1182.65716,1357.06612 1180,1326.02111 L1270.41278,1320.35752 C1272.37069,1335.04097 1276.35636,1346.22819 1282.36992,1353.91953 C1292.15945,1366.3655 1306.14427,1372.58839 1324.32481,1372.58839 C1337.89029,1372.58839 1348.34395,1369.40702 1355.68609,1363.0442 C1363.02823,1356.68137 1366.69925,1349.30479 1366.69925,1340.91425 C1366.69925,1332.94323 1363.20304,1325.81138 1356.21053,1319.51847 C1349.21801,1313.22556 1332.99562,1307.28235 1307.54286,1301.68865 C1265.86746,1292.31921 1236.14971,1279.87343 1218.38872,1264.35092 C1215.97419,1262.25719 1213.7225,1260.08586 1211.63365,1257.83694 L941.470463,1124.00995 L1173.35068,860.462223 C1171.11689,849.437529 1170,839.262941 1170,829.938338 L1170,816.909597 L931,603.464426 L1194.06525,134 L1271,210.334131 L1271,183 L1367,183 L1367,305.584673 L1409,347.256785 L1306.59163,887.173995 C1310.21309,887.740752 1314.05099,888.024129 1318.10534,888.024129 C1334.53816,888.024129 1347.42439,883.359073 1356.76441,874.02882 C1366.10444,864.698568 1370.77438,851.475063 1370.77438,834.357909 L1370.77438,646 L1466,646 L1466,829.938338 C1466,848.177929 1463.1559,865.400053 1457.46762,881.605228 C1451.77933,897.810403 1442.8608,911.980949 1430.71174,924.117292 C1418.56269,936.253635 1405.81691,944.777009 1392.47402,949.687668 C1373.93443,956.56259 1351.6732,960 1325.68968,960 C1315.4479,960 1304.57023,959.511283 1293.0565,958.53384 L1262.11504,1121.66338 Z M180.782127,1830.30795 C189.652661,1837.1616 200.833499,1840.58839 214.324812,1840.58839 C227.890293,1840.58839 238.343948,1837.40702 245.68609,1831.0442 C253.028232,1824.68137 256.699248,1817.30479 256.699248,1808.91425 C256.699248,1800.94323 253.203042,1793.81138 246.210526,1787.51847 C243.804655,1785.35331 240.306151,1783.22954 235.714995,1781.14717 L180.782127,1830.30795 Z M1261.33238,1788.94179 L1310.51888,1821.12314 L1318.67651,1811.11536 L1261.33238,1726.87312 L1261.33238,1788.94179 Z M943,15.7342585 L1172,-35 L977.418761,191 L943,15.7342585 Z M1443,18 L1712,18 L1712,426.902486 L1460.93875,625 L1443,18 Z M70,271.731193 L70,491 L201.395667,491 L70,271.731193 Z M325.372168,193.113363 L325.372168,183 L290.743839,183 L325.372168,193.113363 Z M1172,1730.49412 L1172,1896 L1261.33238,1896 L1261.33238,1788.94179 L1172,1730.49412 Z M1318.67651,1811.11536 L1376.45792,1896 L1466,1896 L1466,1630.37892 L1376.45792,1740.22914 L1376.45792,1758.38745 L1369.72955,1748.48349 L1318.67651,1811.11536 Z M121.356348,1883.48956 L180.782127,1830.30795 C177.698959,1827.9258 174.894894,1825.12966 172.369925,1821.91953 C166.356361,1814.22819 162.370686,1803.04097 160.412782,1788.35752 L70,1794.02111 C72.6571561,1825.06612 84.0547865,1850.65689 104.193233,1870.7942 C108.998584,1875.59927 114.719617,1879.83106 121.356348,1883.48956 Z M235.714995,1781.14717 L304.2781,1719.78834 C302.102023,1718.51959 299.842782,1717.28825 297.500376,1716.09433 C279.529609,1706.93465 249.776899,1697.87999 208.241353,1688.93008 C191.459315,1685.43402 180.830849,1681.65833 176.355639,1677.6029 C171.740578,1673.68732 169.433083,1669.28235 169.433083,1664.38786 C169.433083,1657.67543 172.230047,1651.97694 177.82406,1647.29222 C183.418073,1642.6075 191.739043,1640.26517 202.787218,1640.26517 C216.212849,1640.26517 226.736428,1643.41158 234.358271,1649.70449 C241.980113,1655.99739 246.979687,1666.06589 249.357143,1679.91029 L315.394162,1676.04417 L251.926342,1585.98628 C239.965039,1583.99542 226.731963,1583 212.227068,1583 C180.201344,1583 154.993701,1587.02041 136.603383,1595.06135 C118.213066,1603.10228 104.438016,1614.14967 95.2778195,1628.20383 C86.1176234,1642.25799 81.537594,1657.18594 81.537594,1672.98813 C81.537594,1697.04102 90.4878804,1716.82842 108.388722,1732.35092 C126.149713,1747.87343 155.867461,1760.31921 197.542857,1769.68865 C214.238243,1773.35776 226.962243,1777.17725 235.714995,1781.14717 Z M631,1588 L631,1896 L891,1896 L891,1826.24829 L726.501618,1826.24829 L726.501618,1765.5307 L874.802589,1765.5307 L874.802589,1702.71214 L726.501618,1702.71214 L726.501618,1653.75989 L886.372168,1653.75989 L886.372168,1588 L631,1588 Z M1271,210.334131 L1271,491 L1367,491 L1367,305.584673 L1271,210.334131 Z M617,221.238592 L617,491 L712.606796,491 L712.606796,365.993179 L721.011789,365.993179 C729.696992,365.993179 737.471533,368.374237 744.335645,373.136426 C749.378666,376.778099 755.12202,384.691617 761.565881,396.877217 L795.435501,459.569251 L801.843372,183.780217 C793.825657,183.260072 785.092622,183 775.644244,183 L698.527888,183 L617,221.238592 Z M712.606796,307.796726 L712.606796,245.188267 L754.421637,245.188267 C771.792042,245.188267 783.628956,247.84945 789.932732,253.171896 C796.236509,258.494342 799.38835,266.127736 799.38835,276.072306 C799.38835,282.795395 797.392184,288.748041 793.399792,293.930423 C789.4074,299.112804 784.259394,302.334237 777.955617,303.594816 C765.488148,306.396103 757.083239,307.796726 752.740638,307.796726 L712.606796,307.796726 Z M647,804.486672 L741.89569,658.127505 L741.89569,651.333333 L647,651.333333 L647,804.486672 Z M890,921 L657.409255,921 L647,942.68246 L647,959.333333 L890,959.333333 L890,921 Z M1170,816.909597 L1193.33458,837.749151 L1173.35068,860.462223 C1174.7469,867.353142 1176.57947,874.57618 1178.8484,882.131367 C1182.50014,894.337863 1189.27682,906.193419 1199.17865,917.698391 C1209.08048,929.203364 1220.00041,938.077493 1231.93879,944.321046 C1243.87717,950.564598 1258.72969,954.738595 1276.4968,956.843164 C1282.15564,957.51347 1287.67553,958.077028 1293.0565,958.53384 L1306.59163,887.173995 C1295.40937,885.423979 1286.29074,880.972122 1279.23559,873.818365 C1269.89556,864.347808 1265.22562,851.194454 1265.22562,834.357909 L1265.22562,646 L1170,646 L1170,816.909597 Z M303.20655,752.743931 L367.054698,738.588662 C356.255205,706.166614 339.740644,682.12994 317.510519,666.477917 C317.192477,666.253986 316.872734,666.031658 316.55129,665.810931 L296,747.47112 L303.20655,752.743931 Z M70.995733,824.124052 C73.3963923,850.612804 80.1379573,873.247883 91.2205257,892.029687 L86.2354403,824.124052 L70.995733,824.124052 Z M1262.11504,1121.66338 C1256.49517,1123.19772 1251.32462,1124.99704 1246.60338,1127.06135 C1228.21307,1135.10228 1214.43802,1146.14967 1205.27782,1160.20383 C1196.11762,1174.25799 1191.53759,1189.18594 1191.53759,1204.98813 C1191.53759,1225.79667 1198.23622,1243.41282 1211.63365,1257.83694 L1234.16908,1269 L1262.11504,1121.66338 Z M1412.9625,1208.77198 L1448.93083,1206.66623 C1445.01502,1174.78216 1432.74334,1151.53371 1412.11541,1136.92018 C1402.57125,1130.15877 1391.02879,1124.96157 1377.48796,1121.32856 L1372,1136.14188 L1412.9625,1208.77198 Z M338.030452,1317.01698 L318.163337,1404.26286 C325.670682,1398.34894 332.446979,1391.46964 338.492286,1383.62492 C350.554058,1367.97289 359.389874,1348.47803 365,1325.13975 L338.030452,1317.01698 Z M130.542255,1409.58389 L171.704286,1334.24136 C164.242678,1320.75118 160.511921,1299.55002 160.511921,1270.63744 C160.511921,1243.10665 164.859704,1222.91305 173.5554,1210.05603 C185.056158,1192.72701 201.605783,1184.06262 223.204769,1184.06262 C232.741983,1184.06262 241.367423,1186.0191 249.081346,1189.9321 C249.463904,1190.12616 249.843529,1190.32434 250.220221,1190.52665 L286.982442,1123.23749 C268.575419,1116.41247 246.544894,1113 220.890603,1113 C171.240986,1113 132.847261,1126.66038 105.708275,1153.98154 C78.5692893,1181.30271 65,1220.39724 65,1271.26632 C65,1309.41812 72.7138079,1340.7217 88.141655,1365.17798 C100.429193,1384.65624 114.562633,1399.45812 130.542255,1409.58389 Z M915.076313,1427.66667 L918.501412,1381.06621 L902.514243,1338.4908 L775.901,1227.01879 L801.454261,1310.22328 L733.656642,1310.22328 L762.620799,1215.32673 L762.328844,1215.06969 L763.185416,1213.47684 L767.450501,1199.50296 L768.631721,1203.34915 L813.633121,1119.66667 L716.654762,1119.66667 L601,1427.66667 L698.183584,1427.66667 L713.086466,1376.82356 L821.394737,1376.82356 L836.507519,1427.66667 L915.076313,1427.66667 Z" id="Combined-Shape" fill="#000000"></path>
    </g>
</svg>