<?xml version="1.0" encoding="UTF-8"?>
<svg width="375px" height="813px" viewBox="0 0 375 813" version="1.1" xmlns="http://www.w3.org/2000/svg" xmlns:xlink="http://www.w3.org/1999/xlink">
    <!-- Generator: Sketch 52.3 (67297) - http://www.bohemiancoding.com/sketch -->
    <title>thirth-mobile</title>
    <desc>Created with Sketch.</desc>
    <g id="thirth-mobile" stroke="none" stroke-width="1" fill="none" fill-rule="evenodd">
        <path d="M92.1878261,750.38618 L71.7487771,750.38618 L71.7487771,662.246329 L92.1878261,662.246329 L92.1878261,635.414678 C86.2635469,633.984548 81.7205986,631.690717 78.5589301,628.53317 C72.7796774,622.76145 69.50883,615.426666 68.7462897,606.528598 L92.1878261,605.062017 L92.1878261,595.739288 C86.8782229,593.743936 82.7366095,591.448445 79.7629351,588.852795 C74.6258216,584.403761 72.0573033,578.73233 72.0573033,571.838331 C72.0573033,567.309134 73.3716623,563.03051 76.0004196,559.002331 C76.6924997,557.941821 77.476374,556.941045 78.3520447,556 L0,556 L0,381.21563 L35.35744,381.21563 L74,342.39874 L74,314 L101.336207,314 L101.336207,314.93921 L209.005313,206.78437 L192.797914,206.78437 L192.797914,354.107142 L222.933801,384.54307 C222.349815,383.35067 221.87556,382.145966 221.511032,380.928954 C219.837002,375.361456 219,370.430316 219,366.135389 L219,314 L246.023488,314 L246.023488,367.38807 C246.023488,372.160212 247.348741,375.888391 249.999288,378.572721 C252.649835,381.257051 256.326667,382.599196 261.029893,382.599196 C265.693262,382.599196 269.350165,381.276935 272.000712,378.632373 C274.651259,375.987811 275.976512,372.239747 275.976512,367.38807 L275.976512,314 L298.585565,314 L298.585565,293.646906 L338.053578,247.031786 L338.053578,286.400267 L370.5,286.400267 L458.422117,286.400267 L458.422117,106.365852 L458.422117,52.0449044 L636.290545,52.0449044 L636.290545,106.365852 L544.023577,106.365852 L544.023577,286.339954 L458.532776,286.595062 L458.532776,346.115193 L370.5,443.889454 L298.585565,443.889454 L298.585565,385.318534 C297.113157,388.070111 295.246564,390.573729 292.985765,392.829424 C289.538061,396.269342 285.921015,398.685203 282.13452,400.077078 C276.873283,402.025702 270.555909,403 263.182206,403 C258.917416,403 254.264082,402.701746 249.222064,402.105228 C244.408805,401.535775 240.34931,400.431781 237.043467,398.793215 L265.962327,428 L276.857143,428 L283.545193,445.757925 L369.441429,532.509367 L192.717603,532.509367 L192.717603,381.21563 L144,381.21563 L144,402 L83.2690768,402 L83.2690768,433.137465 C90.4452256,428.379136 99.5850276,426 110.68864,426 C121.825675,426 130.58038,428.239485 136.953015,432.718523 C143.325651,437.197561 148.059826,444.075981 151.15568,453.353988 L127.032258,458.692815 C126.187934,456.01339 125.303417,454.053841 124.378682,452.814107 C122.850857,450.734553 120.981311,449.134921 118.769986,448.015162 C116.558661,446.895402 114.086035,446.335531 111.352034,446.335531 C105.160324,446.335531 100.416099,448.814961 97.1192146,453.773896 C94.6264485,457.453106 93.3800842,463.231778 93.3800842,471.110086 C93.3800842,480.86799 94.8676803,487.556453 97.8429173,491.175676 C100.818154,494.794898 104.999506,496.604483 110.387097,496.604483 C115.613864,496.604483 119.564035,495.144818 122.237728,492.225445 C124.911421,489.306072 126.851326,485.067046 128.057504,479.50824 L152,486.706658 C150.391764,493.385223 147.85883,498.963942 144.401122,503.44298 C140.943414,507.922018 136.651498,511.301241 131.525245,513.580751 C126.398993,515.860262 119.875682,517 111.955119,517 C102.345908,517 94.4958229,515.610319 88.4046283,512.830916 C86.6212593,512.017168 84.9094101,511.022597 83.2690768,509.8472 L83.2690768,551.936071 C84.6680641,551.039665 86.1983268,550.228672 87.8598684,549.50309 C93.1374498,547.19841 100.371441,546.046087 109.562058,546.046087 C120.839627,546.046087 129.438143,548.140308 135.357864,552.328813 C141.277584,556.517318 144.799264,563.180749 145.923007,572.319305 L120.217502,573.82235 C119.535229,569.854292 118.10047,566.968476 115.913184,565.164813 C113.725897,563.361151 110.705882,562.459333 106.853047,562.459333 C103.682484,562.459333 101.294565,563.130686 99.6892171,564.473413 C98.0838691,565.816139 97.2812071,567.449431 97.2812071,569.373338 C97.2812071,570.776187 97.9434032,572.038731 99.2678153,573.16101 C100.552094,574.32337 103.602209,575.405552 108.418253,576.407586 C109.453679,576.630418 110.46359,576.853476 111.447986,577.07676 L224.727785,577.07676 C224.364814,575.416998 224.183329,573.670856 224.183329,571.838331 C224.183329,567.309134 225.497688,563.03051 228.126446,559.002331 C230.755203,554.974152 234.708313,551.807769 239.985894,549.50309 C245.263476,547.19841 252.497467,546.046087 261.688084,546.046087 C272.965653,546.046087 281.564169,548.140308 287.48389,552.328813 C293.40361,556.517318 296.92529,563.180749 298.049033,572.319305 L272.343528,573.82235 C271.661255,569.854292 270.226496,566.968476 268.03921,565.164813 C265.851923,563.361151 262.831908,562.459333 258.979073,562.459333 C255.80851,562.459333 253.420591,563.130686 251.815243,564.473413 C250.209895,565.816139 249.407233,567.449431 249.407233,569.373338 C249.407233,570.776187 250.069429,572.038731 251.393841,573.16101 C252.67812,574.32337 255.728235,575.405552 260.544279,576.407586 C261.579705,576.630418 262.589616,576.853476 263.574012,577.07676 L270.203729,577.07676 L270.203729,578.683892 C277.203956,580.505429 282.522511,582.341908 286.159484,584.193357 C291.316665,586.818688 295.069109,590.075252 297.416931,593.963146 C299.764752,597.851041 300.938645,602.199806 300.938645,607.009572 C300.938645,612.661048 299.373454,617.87155 296.243026,622.641235 C293.112597,627.41092 288.73809,631.028211 283.119372,633.493217 C277.500654,635.958222 270.417162,637.190706 261.868684,637.190706 C249.682285,637.190706 240.538248,635.288498 234.436407,631.484037 L177.86026,631.484035 L177.86026,811.744156 L92.1878261,812 L92.1878261,750.38618 Z M270.203729,617.949499 C270.588939,617.703299 270.951037,617.433497 271.290023,617.140092 C273.397042,615.316389 274.450536,613.202128 274.450536,610.797245 C274.450536,608.512606 273.447209,606.468485 271.440524,604.664823 C271.103135,604.361569 270.69087,604.061148 270.203729,603.763561 L270.203729,617.949499 Z M219.871487,718.067887 L219.871487,662.246329 L245.236294,662.246329 L256.977116,679.541602 L375,557 L375,761.643943 L177.902296,761.643943 L219.871487,718.067887 Z M300.340485,220.977027 L279.032258,225.692815 C278.187934,223.01339 277.303417,221.053841 276.378682,219.814107 C274.850857,217.734553 272.981311,216.134921 270.769986,215.015162 C268.558661,213.895402 266.086035,213.335531 263.352034,213.335531 C257.160324,213.335531 252.416099,215.814961 249.119215,220.773896 C246.626448,224.453106 245.380084,230.231778 245.380084,238.110086 C245.380084,247.86799 246.86768,254.556453 249.842917,258.175676 C252.818154,261.794898 256.999506,263.604483 262.387097,263.604483 C267.613864,263.604483 271.564035,262.144818 274.237728,259.225445 C276.911421,256.306072 278.851326,252.067046 280.057504,246.50824 L304,253.706658 C302.391764,260.385223 299.85883,265.963942 296.401122,270.44298 C292.943414,274.922018 288.651498,278.301241 283.525245,280.580751 C278.398993,282.860262 271.875682,284 263.955119,284 C254.345908,284 246.495823,282.610319 240.404628,279.830916 C234.313434,277.051513 229.056591,272.162637 224.633941,265.16414 C220.211292,258.165643 218,249.207701 218,238.290046 C218,223.733173 221.889863,212.545743 229.669705,204.727423 C237.449548,196.909102 248.455749,193 262.68864,193 C273.825675,193 282.58038,195.239485 288.953015,199.718523 C293.63217,203.00729 297.427975,207.589644 300.340485,213.465668 L300.340485,179.10125 L370.5,179.10125 L370.5,206.78437 L338.139022,245.817533 L300.340485,245.817533 L300.340485,220.977027 Z M95,206.78437 L19.0542857,206.78437 L19.0542857,142.167118 L72,142.167118 L72,81 L144.682848,81 L144.682848,99.7885402 L99.1812298,99.7885402 L99.1812298,113.774898 L141.389968,113.774898 L141.389968,131.723056 L99.1812298,131.723056 L99.1812298,142.167118 L192.66,142.167118 L192.66,206.78437 L122,206.78437 L122,283 L95,283 L95,206.78437 Z M291.022238,142.167118 C291.336025,142.657719 291.590979,143.098147 291.787101,143.488404 L305,169 L274.10957,169 L259.541234,142.167118 L245.451456,142.167118 L245.451456,169 L218,169 L218,142.167118 L192.66,142.167118 L192.66,32 L337.684286,32 L337.684286,142.167118 L291.022238,142.167118 Z M741,32 L741,236.319235 L544.065578,236.319235 L741,32 Z M192.717603,381.21563 L192.797914,381.21563 L192.797914,354.107142 L192.717603,354.026032 L192.717603,381.21563 Z M458.422117,286.400267 L458.422117,286.595393 L458.532776,286.595062 L458.532776,286.400267 L458.422117,286.400267 Z M544.034458,261.126396 L636.683816,288.369509 L636.683816,369.954879 L544.034458,340.160044 L544.034458,261.126396 Z M370.5,445.785327 L443.575407,445.785327 L404.171965,492.899379 L516.650815,492.899379 L516.650815,556 L370.5,556 L370.5,445.785327 Z M636.660167,370.63994 L721.600272,370.63994 L721.600272,535.303631 L636.660167,535.303631 L636.660167,370.63994 Z M-36,704.335026 L34.2176851,704.335026 L34.2176851,732.062141 L1.82987635,771.157335 L-36,771.157335 L-36,704.335026 Z M83.2690768,433.137465 C81.2466567,434.478482 79.3802008,436.008467 77.6697055,437.727423 C69.8898629,445.545743 66,456.733173 66,471.290046 C66,482.207701 68.2112916,491.165643 72.6339411,498.16414 C75.7617352,503.113629 79.3067618,507.007965 83.2690768,509.8472 L83.2690768,433.137465 Z M291.022238,142.167118 C290.306365,141.047863 289.284278,139.66747 287.955964,138.025921 C286.045413,135.664836 284.587384,134.124151 283.581831,133.40382 C282.093613,132.323323 279.720543,131.242843 276.462552,130.162347 C280.524986,129.241924 283.722596,128.081408 286.055479,126.680764 C289.715691,124.479753 292.591529,121.608476 294.683079,118.066849 C296.774629,114.525221 297.820388,110.313349 297.820388,105.431105 C297.820388,99.8285304 296.452857,95.0764179 293.717753,91.1746248 C290.982649,87.2728318 287.382824,84.6016443 282.918169,83.1609823 C278.453514,81.7203202 271.997962,81 263.551318,81 L218,81 L218,142.167118 L245.451456,142.167118 L245.451456,133.283765 L247.864771,133.283765 C250.358542,133.283765 252.590836,133.964068 254.56172,135.324693 C256.009716,136.365171 257.658798,138.626176 259.509015,142.107776 L259.541234,142.167118 L291.022238,142.167118 Z M245.451456,116.656207 L245.451456,98.7680764 L257.457698,98.7680764 C262.44524,98.7680764 265.843958,99.5284144 267.653953,101.049113 C269.463948,102.569812 270.368932,104.750782 270.368932,107.592087 C270.368932,109.51297 269.795775,111.213726 268.649445,112.694407 C267.503115,114.175087 266.024974,115.095496 264.214979,115.455662 C260.635211,116.256029 258.22192,116.656207 256.975035,116.656207 L245.451456,116.656207 Z M237.043467,398.793215 L222.933801,384.54307 C224.010009,386.740506 225.45888,388.896158 227.280427,391.010054 C230.090406,394.271017 233.189307,396.786296 236.577224,398.555965 C236.730936,398.636256 236.88635,398.71534 237.043467,398.793215 Z M298.585565,385.318534 C299.358569,383.873975 300.022929,382.361074 300.578648,380.779826 C302.192891,376.186639 303,371.305209 303,366.135389 L303,314 L298.585565,314 L298.585565,385.318534 Z M144,381.21563 L144,380.33015 L101.336207,380.33015 L101.336207,314.93921 L74,342.39874 L74,402 L83.2690768,402 L83.2690768,381.21563 L144,381.21563 Z M72,142.167118 L72,169 L146,169 L146,149.070941 L99.1812298,149.070941 L99.1812298,142.167118 L72,142.167118 Z M283.545193,445.757925 L265.962327,428 L247.142857,428 L214,516 L241.849624,516 L246.120301,501.473397 L277.157895,501.473397 L281.488722,516 L310,516 L283.545193,445.757925 Z M271.443609,482.444748 L252.015038,482.444748 L261.699248,450.810368 L271.443609,482.444748 Z M95,206.78437 L122,206.78437 L122,195 L95,195 L95,206.78437 Z M300.340485,220.977027 L303.15568,220.353988 C302.33298,217.888426 301.394582,215.59232 300.340485,213.465668 L300.340485,220.977027 Z M83.2690768,551.936071 C81.3943235,553.137326 79.7553157,554.491966 78.3520447,556 L83.2690768,556 L83.2690768,551.936071 Z M92.1878261,635.414678 C97.0926095,636.598699 102.944211,637.190706 109.742658,637.190706 C118.291136,637.190706 125.374628,635.958222 130.993346,633.493217 C136.612064,631.028211 140.986571,627.41092 144.117,622.641235 C147.247428,617.87155 148.812619,612.661048 148.812619,607.009572 C148.812619,602.199806 147.638726,597.851041 145.290905,593.963146 C142.943083,590.075252 139.190639,586.818688 134.033458,584.193357 C129.324266,581.79608 121.79584,579.423901 111.447986,577.07676 L92.1878261,577.07676 L92.1878261,595.739288 C95.9790644,597.164037 100.365796,598.435763 105.34804,599.554472 C112.652374,601.157727 117.307813,602.861161 119.314498,604.664823 C121.321183,606.468485 122.32451,608.512606 122.32451,610.797245 C122.32451,613.202128 121.271016,615.316389 119.163997,617.140092 C117.056978,618.963796 114.057029,619.875633 110.16406,619.875633 C104.946679,619.875633 100.93337,618.092038 98.1240106,614.524795 C96.3982615,612.320319 95.2544683,609.113856 94.6925965,604.90531 L92.1878261,605.062017 L92.1878261,631.484035 L92.1878261,635.414678 Z M219.871487,718.067887 L219.871487,750.38618 L245.416186,750.38618 L245.416186,701.987421 L278.336469,750.38618 L303.941133,750.38618 L303.941133,662.246329 L278.336469,662.246329 L278.336469,711.005823 L256.977116,679.541602 L219.871487,718.067887 Z M234.436395,631.484035 L270.203729,631.484035 L270.203729,617.949499 C268.194602,619.233594 265.556738,619.875633 262.290086,619.875633 C257.072705,619.875633 253.059396,618.092038 250.250037,614.524795 C248.524288,612.320319 247.380494,609.113856 246.818623,604.90531 L220.872316,606.528598 C221.634856,615.426666 224.905703,622.76145 230.684956,628.53317 C231.772119,629.618916 233.022602,630.602538 234.436407,631.484037 Z M270.203729,603.763561 L270.203729,578.683892 C268.139984,578.146883 265.930079,577.611172 263.574012,577.07676 L224.727785,577.07676 C225.730319,581.661056 228.117367,585.586379 231.888961,588.852795 C236.985941,593.301829 245.514224,596.869019 257.474066,599.554472 C263.550305,600.888168 267.793499,602.291188 270.203729,603.763561 Z M92.1878261,750.38618 L145.810132,750.38618 L145.810132,730.42545 L98.9525433,730.42545 L98.9525433,713.049995 L141.196277,713.049995 L141.196277,695.073313 L98.9525433,695.073313 L98.9525433,681.064728 L144.491888,681.064728 L144.491888,662.246329 L92.1878261,662.246329 L92.1878261,750.38618 Z" id="Combined-Shape" fill="#000000"></path>
    </g>
</svg>