<?xml version="1.0" encoding="UTF-8"?>
<svg width="1680px" height="950px" viewBox="0 0 1680 950" version="1.1" xmlns="http://www.w3.org/2000/svg" xmlns:xlink="http://www.w3.org/1999/xlink">
    <!-- Generator: Sketch 52.3 (67297) - http://www.bohemiancoding.com/sketch -->
    <title>thirth-desktop</title>
    <desc>Created with Sketch.</desc>
    <g id="thirth-desktop" stroke="none" stroke-width="1" fill="none" fill-rule="evenodd">
        <path d="M1476.20273,398 L1515.63631,345.630129 L1712,393.479572 L1686.60452,811.451903 L1605,740.262039 L1605,798.609531 L1686.60452,840.981282 L1689.17095,956.002299 L478.621239,956.002299 L531.595259,883.12777 C521.393268,870.684798 515.528231,855.535897 514,837.680739 L567.047181,834.357786 L580.031787,816.495312 C562.009988,811.021278 548.530304,804.378637 539.592481,796.567282 C528.211695,786.698567 522.257647,774.244036 521.730182,759.203349 L299.879058,708.288466 L364.807756,567.890499 L501.065198,591.307106 L517.034348,574.928208 C516.716769,574.570738 516.400733,574.20928 516.08624,573.843834 C509.496171,566.186065 504.986015,558.294947 502.555635,550.170241 C498.629636,537.096003 496.666667,525.516136 496.666667,515.430295 L496.666667,418.018602 L296.047406,345.630129 L403.152191,135.754438 L535,105.257895 L535,86 L618.25899,86 L802.600132,43.3616925 L792.249787,263.046511 L560.043179,439.662491 L560.043179,518.371984 C560.043179,522.423685 560.449455,526.154925 561.262013,529.565714 L630.290154,458.766394 L630.290154,393 L693.666667,393 L693.666667,430.998461 L920.478279,430.998461 L762.305057,575.82746 L920.478279,644.397386 L905.634474,743.840895 L968,763.932607 L968,701 L1137.92071,701 L1137.92071,744.768759 L1031.54531,744.768759 L1031.54531,777.350614 L1130.22249,777.350614 L1130.22249,816.194294 L1310.61029,874.308127 L1409,814.87379 L1409,701 L1468.13552,701 L1505.8235,756.385552 L1511.26725,753.097143 L1545.30528,800.27401 L1545.30528,701 L1559.99416,701 L1447.65733,603 L1396,603 L1408.74768,569.056132 L1371.72206,536.755855 L1469.78946,406.51717 L1472.9881,398 L1476.20273,398 Z M1606.12191,228.885069 C1602.36395,242.92103 1596.76609,254.764775 1589.32819,264.416612 C1581.28701,274.851294 1571.30581,282.72377 1559.38429,288.034278 C1547.46277,293.344786 1532.29228,296 1513.87237,296 C1491.52537,296 1473.26936,292.762502 1459.10379,286.287409 C1444.93822,279.812317 1432.713,268.422846 1422.42777,252.118655 C1412.14254,235.814465 1407,214.945414 1407,189.510877 C1407,155.59816 1416.04619,129.535138 1434.13885,111.321028 C1438.95844,106.469086 1444.31046,102.263392 1450.19491,98.703942 L1443.45705,-13.8242278 L1712,-13.8242278 L1712,187.651814 L1606.12191,228.885069 Z M1127.98987,426.460002 L1193.19231,389.979261 L930.719677,274.587005 L1040.66667,177.99821 L1040.66667,87 L1104.66667,87 L1104.66667,121.773997 L1193.92336,43.3616925 L1408.97122,148.397056 L1234.0483,602.38324 L1124.10327,575.573209 C1116.53416,584.452924 1107.40568,591.273224 1096.71763,596.034278 C1084.79611,601.344786 1069.62562,604 1051.2057,604 C1028.8587,604 1010.60269,600.762502 996.43712,594.287409 C982.271551,587.812317 970.046335,576.422846 959.761103,560.118655 C954.695261,552.088262 950.876992,542.950474 948.306276,532.705215 L941.19565,530.971293 L947.154789,527.637157 C945.273815,518.429979 944.333333,508.387902 944.333333,497.510877 C944.333333,463.59816 953.379526,437.535138 971.472183,419.321028 C989.56484,401.106918 1015.16066,392 1048.2604,392 C1074.16048,392 1094.52026,397.217263 1109.34035,407.651945 C1116.42846,412.642622 1122.64496,418.911957 1127.98987,426.460002 Z M1079.45509,453.61519 C1076.02447,449.183877 1071.89088,445.741534 1067.05423,443.288069 C1061.91162,440.679398 1056.16132,439.375082 1049.80318,439.375082 C1035.40386,439.375082 1024.37077,445.151338 1016.7036,456.704021 C1011.28387,464.717358 1008.39763,477.005647 1008.0448,493.569219 L1079.45509,453.61519 Z M1028.77359,552.327123 L1045.69477,556.453343 C1039.28644,556.232044 1033.64607,554.856644 1028.7736,552.327125 Z M164.652566,697.243505 C186.069964,698.338754 202.766846,703.128706 214.743609,711.613456 C226.256364,719.769488 233.86476,731.960087 237.568941,748.185527 L330.242389,812.93056 L244.993714,850.493287 C243.455822,859.212118 240.155173,867.433752 235.091729,875.158311 C227.819513,886.252474 217.657208,894.666198 204.604511,900.399736 C191.551814,906.133274 175.09634,909 155.237594,909 C141.58733,909 129.580224,907.971349 119.216231,905.914035 L-58,984 L-58,383.006416 L-58,77.9839392 L30.0666697,77.9839392 L60,102.578201 L60,87 L229.920712,87 L229.920712,130.768759 L123.545307,130.768759 L123.545307,154.789228 L133.96525,163.350614 L222.222492,163.350614 L222.222492,205.161664 L184.852892,205.161664 L224.64887,237.859419 L211.34111,245.574352 L233,245.574352 L233,292 L131.259878,292 L40.764486,344.463069 L40.764486,383.006416 L86.3255463,383.006416 L88.1138152,395 L147.263793,395 L147.263793,514.71241 L297.67359,520.929217 L246,567.49801 L246,600 L209.935194,600 L129.377745,672.599236 L164.652566,697.243505 Z M14.5222086,-0.897519546 L14.5222086,-45 L452.690517,-38.6229771 L413.683998,85.1051694 L258.66612,62.8018449 L258.66612,19.2332476 L14.5222086,-0.897519546 Z M943.317366,-15.3247447 L1172.54432,-40.348772 L977.770238,71.1228518 L943.317366,-15.3247447 Z M60,102.578201 L60,292 L131.259878,292 L211.34111,245.574352 L123.545307,245.574352 L123.545307,205.161664 L184.852892,205.161664 L133.96525,163.350614 L123.545307,163.350614 L123.545307,154.789228 L60,102.578201 Z M209.935194,600 L246,567.49801 L246,549.5191 L147.263793,549.5191 L147.263793,514.71241 L105.707087,512.994769 L88.1138152,395 L84,395 L84,600 L209.935194,600 Z M164.652566,697.243505 C161.478098,697.081168 158.199924,697 154.818045,697 C133.467562,697 116.662467,699.680272 104.402256,705.040897 C92.142044,710.401522 82.9586772,717.766444 76.8518797,727.135884 C70.7450822,736.505324 67.6917293,746.457291 67.6917293,756.992084 C67.6917293,773.027345 73.6585869,786.218946 85.5924812,796.567282 C97.4331419,806.915619 117.244974,815.21281 145.028571,821.459103 C161.997077,825.188233 172.812007,829.150375 177.473684,833.345646 C182.135362,837.540918 184.466165,842.295488 184.466165,847.609499 C184.466165,853.203194 182.018821,858.120911 177.12406,862.362797 C172.229299,866.604683 165.260196,868.725594 156.216541,868.725594 C144.09618,868.725594 134.772965,864.576998 128.246617,856.279683 C124.237574,851.152129 121.580458,843.69398 120.275188,833.905013 L60,837.680739 C61.7714374,858.377412 69.3698577,875.437928 82.7954887,888.862797 C90.9654032,897.032248 103.105596,902.715979 119.216231,905.914035 L244.993714,850.493287 C245.664572,846.689963 246,842.792028 246,838.799472 C246,827.612081 243.27296,817.496967 237.818797,808.453826 C232.364634,799.410685 223.647428,791.836002 211.666917,785.729551 C199.686406,779.623101 179.851266,773.586661 152.160902,767.620053 C140.972876,765.289346 133.887233,762.772221 130.903759,760.068602 C127.827052,757.45821 126.288722,754.521564 126.288722,751.258575 C126.288722,746.783619 128.153365,742.984624 131.882707,739.861478 C135.612049,736.738331 141.159362,735.176781 148.524812,735.176781 C157.475233,735.176781 164.490952,737.274385 169.57218,741.469657 C174.653409,745.664929 177.986458,752.377263 179.571429,761.60686 L239.287218,758.110818 C238.862151,754.649752 238.289392,751.341322 237.568941,748.185527 L164.652566,697.243505 Z M535,105.257895 L535,291 L598.737864,291 L598.737864,207.797408 L604.341193,207.797408 C610.131328,207.797408 615.314355,209.382203 619.89043,212.551842 C623.252444,214.975683 627.081347,220.242797 631.377254,228.353342 L665.277393,291 L737,291 L706.321775,231.569577 C704.827547,228.586388 701.862482,224.34473 697.426491,218.844475 C692.9905,213.34422 689.60519,209.755124 687.270458,208.07708 C683.815054,205.560015 678.30517,203.042987 670.740638,200.525921 C680.172955,198.381754 687.597291,195.678279 693.01387,192.415416 C701.512294,187.28806 708.189527,180.599291 713.04577,172.348909 C717.902012,164.098526 720.330097,154.286778 720.330097,142.91337 C720.330097,129.861917 717.154909,118.791655 710.804438,109.702251 C704.453967,100.612847 696.095752,94.3901941 685.729542,91.0341064 C675.363332,87.6780187 660.374578,86 640.762829,86 L618.25899,86 L535,105.257895 Z M598.737864,169.062756 L598.737864,127.391542 L626.614424,127.391542 C638.194695,127.391542 646.085971,129.162784 650.288488,132.705321 C654.491006,136.247858 656.592233,141.328525 656.592233,147.947476 C656.592233,152.42226 655.261456,156.384248 652.599861,159.833561 C649.938267,163.282873 646.506262,165.427008 642.303745,166.26603 C633.992099,168.130523 628.388826,169.062756 625.493759,169.062756 L598.737864,169.062756 Z M496.666667,418.018602 L558.951754,440.492628 L560.043179,439.662491 L560.043179,393 L496.666667,393 L496.666667,418.018602 Z M693.666667,430.998461 L657.36342,430.998461 L630.290154,458.766394 L630.290154,518.371984 C630.290154,529.765249 627.182119,538.566881 620.965955,544.777145 C614.749791,550.987408 606.173483,554.092493 595.236773,554.092493 C584.206588,554.092493 575.583542,550.940715 569.367378,544.637064 C565.398666,540.612496 562.696885,535.588735 561.262013,529.565714 L517.034348,574.928208 C523.37151,582.061373 530.323146,587.606589 537.889442,591.564008 C545.834915,595.719748 555.71987,598.497982 567.544603,599.898794 C579.369336,601.299605 590.282512,602 600.28446,602 C617.577548,602 632.393295,599.712043 644.732147,595.136059 C653.612381,591.867499 662.095215,586.194299 670.180902,578.116287 C678.266588,570.038275 684.202235,560.606287 687.988019,549.82004 C691.773803,539.033793 693.666667,527.570659 693.666667,515.430295 L693.666667,430.998461 Z M531.595259,883.12777 C533.218829,885.107977 534.952239,887.019652 536.795489,888.862797 C550.22112,902.287666 574.368247,909 609.237594,909 C629.09634,909 645.551814,906.133274 658.604511,900.399736 C671.657208,894.666198 681.819513,886.252474 689.091729,875.158311 C696.363946,864.064149 700,851.944657 700,838.799472 C700,827.612081 697.27296,817.496967 691.818797,808.453826 C686.364634,799.410685 677.647428,791.836002 665.666917,785.729551 C653.686406,779.623101 633.851266,773.586661 606.160902,767.620053 C594.972876,765.289346 587.887233,762.772221 584.903759,760.068602 C581.827052,757.45821 580.288722,754.521564 580.288722,751.258575 C580.288722,746.783619 582.153365,742.984624 585.882707,739.861478 C589.612049,736.738331 595.159362,735.176781 602.524812,735.176781 C611.475233,735.176781 618.490952,737.274385 623.57218,741.469657 C628.653409,745.664929 631.986458,752.377263 633.571429,761.60686 L693.287218,758.110818 C690.676679,736.854775 682.495557,721.355809 668.743609,711.613456 C654.991661,701.871103 635.016672,697 608.818045,697 C587.467562,697 570.662467,699.680272 558.402256,705.040897 C546.142044,710.401522 536.958677,717.766444 530.85188,727.135884 C524.745082,736.505324 521.691729,746.457291 521.691729,756.992084 C521.691729,757.735281 521.704547,758.472369 521.730182,759.203349 L607.388298,778.861906 L580.031787,816.495312 C585.88493,818.273176 592.217189,819.927772 599.028571,821.459103 C615.997077,825.188233 626.812007,829.150375 631.473684,833.345646 C636.135362,837.540918 638.466165,842.295488 638.466165,847.609499 C638.466165,853.203194 636.018821,858.120911 631.12406,862.362797 C626.229299,866.604683 619.260196,868.725594 610.216541,868.725594 C598.09618,868.725594 588.772965,864.576998 582.246617,856.279683 C578.237574,851.152129 575.580458,843.69398 574.275188,833.905013 L567.047181,834.357786 L531.595259,883.12777 Z M1040.66667,177.99821 L1040.66667,292 L1104.66667,292 L1104.66667,121.773997 L1040.66667,177.99821 Z M1127.98987,426.460002 L1079.45509,453.61519 C1079.67211,453.895512 1079.88632,454.179792 1080.09771,454.468029 C1082.24826,457.3562 1084.30527,461.921305 1086.26882,468.163481 L1142.3698,455.725775 C1138.61358,444.448908 1133.82028,434.693673 1127.98987,426.460002 Z M1008.0448,493.569219 L947.154789,527.637157 C947.505856,529.355593 947.889685,531.044946 948.306276,532.705215 L1028.77359,552.327123 C1024.80076,550.264646 1021.33845,547.434887 1018.38663,543.837838 C1011.46747,535.406242 1008.00795,519.824328 1008.00795,497.091628 C1008.00795,495.896761 1008.02023,494.722624 1008.0448,493.569219 Z M1045.69477,556.453343 L1124.10327,575.573209 C1124.97679,574.548439 1125.82954,573.496239 1126.66152,572.416612 C1134.70271,561.98193 1140.59325,548.985356 1144.33333,533.4265 L1088.65311,516.656559 C1085.84805,529.606745 1081.33664,539.482278 1075.11875,546.283454 C1068.90086,553.084631 1059.71441,556.485168 1047.55914,556.485168 C1046.93062,556.485168 1046.30917,556.47456 1045.69477,556.453343 Z M1130.22249,816.194294 L968,763.932607 L968,906 L1141,906 L1141,859.574352 L1031.54531,859.574352 L1031.54531,819.161664 L1130.22249,819.161664 L1130.22249,816.194294 Z M1606.12191,228.885069 C1606.42671,227.746634 1606.71941,226.593778 1607,225.4265 L1551.31978,208.656559 C1548.51471,221.606745 1544.0033,231.482278 1537.78541,238.283454 C1531.56752,245.084631 1522.38108,248.485168 1510.22581,248.485168 C1497.69652,248.485168 1487.97245,244.269434 1481.0533,235.837838 C1474.13414,227.406242 1470.67461,211.824328 1470.67461,189.091628 C1470.67461,170.737768 1473.57314,157.275367 1479.37027,148.704021 C1487.03744,137.151338 1498.07052,131.375082 1512.46985,131.375082 C1518.82799,131.375082 1524.57828,132.679398 1529.7209,135.288069 C1534.86351,137.896739 1539.2113,141.623355 1542.76438,146.468029 C1544.91492,149.3562 1546.97194,153.921305 1548.93548,160.163481 L1605.03647,147.725775 C1597.8368,126.111076 1586.8271,110.086627 1572.00701,99.6519446 C1557.18693,89.2172627 1536.82715,84 1510.92707,84 C1486.64456,84 1466.40061,88.901278 1450.19491,98.703942 L1461.36531,285.259201 L1606.12191,228.885069 Z M1409,814.87379 L1409,906 L1468.55492,906 L1468.55492,793.431787 L1545.30528,906 L1605,906 L1605,798.609531 L1591.95838,791.837891 L1587.47454,858.720812 L1545.30528,800.27401 L1545.30528,814.407231 L1505.8235,756.385552 L1409,814.87379 Z M1605,740.262039 L1605,701 L1559.99416,701 L1605,740.262039 Z M1476.20273,398 L1469.78946,406.51717 L1408.74768,569.056132 L1447.65733,603 L1460.69236,603 L1470.61278,569.159618 L1542.71053,569.159618 L1552.77068,603 L1619,603 L1542.0119,398 L1476.20273,398 Z M1529.43672,524.831514 L1484.30576,524.831514 L1506.80138,451.13779 L1529.43672,524.831514 Z" id="Combined-Shape" fill="#000000"></path>
    </g>
</svg>